M48
; DRILL file {KiCad (5.1.4)-1} date 11/14/2024 9:52:27 AM
; FORMAT={-:-/ absolute / inch / decimal}
; #@! TF.CreationDate,2024-11-14T09:52:27-07:00
; #@! TF.GenerationSoftware,Kicad,Pcbnew,(5.1.4)-1
; #@! TF.FileFunction,Plated,1,2,PTH
FMAT,2
INCH
T1C0.0157
T2C0.0276
T3C0.0409
T4C0.0579
%
G90
G05
T1
X7.41Y-6.595
X8.17Y-6.59
X8.93Y-6.585
X9.855Y-6.585
X10.805Y-6.59
X12.045Y-6.64
X12.765Y-6.625
X13.2551Y-6.9733
X13.2562Y-7.7612
X13.3413Y-7.0062
X13.4Y-7.125
X13.4162Y-7.7562
X13.43Y-6.32
X13.5152Y-7.8142
X13.5757Y-7.7251
X13.6069Y-7.7562
X13.6962Y-7.7251
X13.7613Y-7.7512
X13.7762Y-7.1812
X13.7762Y-7.6712
X13.7912Y-7.2512
X13.8088Y-7.3582
X13.8262Y-7.1963
X13.83Y-7.47
X13.8301Y-7.3913
X13.8301Y-7.4306
X13.8301Y-7.51
X13.834Y-7.769
X13.8589Y-7.7995
X13.8912Y-7.1463
X13.8924Y-7.4314
X13.9Y-7.47
X13.9Y-7.51
X13.9351Y-7.2341
X13.9379Y-7.4142
X13.95Y-6.33
X13.9614Y-7.12
X13.9678Y-7.2745
X13.985Y-6.2
X13.99Y-6.06
X13.99Y-7.155
X13.9964Y-7.3116
X14.025Y-7.275
X14.03Y-6.3075
X14.0309Y-7.1563
X14.075Y-7.155
X14.1Y-6.665
X14.1312Y-7.1562
X14.1312Y-7.3262
X14.1712Y-7.0862
X14.1712Y-7.3262
X14.19Y-6.755
X14.19Y-7.04
X14.3Y-6.47
X14.3212Y-7.1812
X14.3212Y-7.3113
X14.3558Y-6.4558
X14.365Y-4.755
X14.4659Y-6.3709
X14.495Y-6.335
X14.615Y-4.135
X14.615Y-5.655
X14.625Y-3.47
T3
X10.5125Y-4.1375
X10.6125Y-4.1375
X13.8875Y-4.8875
X13.9875Y-4.8875
X8.2625Y-6.3875
X8.3625Y-6.3875
X9.7625Y-3.3875
X9.8625Y-3.3875
X12.7625Y-6.3875
X12.8625Y-6.3875
X8.2625Y-4.1375
X8.3625Y-4.1375
X10.8875Y-6.3875
X10.9875Y-6.3875
X11.2625Y-5.6375
X11.3625Y-5.6375
X12.0125Y-5.6375
X12.1125Y-5.6375
X14.2625Y-6.3875
X14.3625Y-6.3875
X8.6375Y-4.8875
X8.7375Y-4.8875
X13.5125Y-5.6375
X13.6125Y-5.6375
X10.1375Y-4.8875
X10.2375Y-4.8875
X8.2625Y-3.3875
X8.3625Y-3.3875
X13.5125Y-4.1375
X13.6125Y-4.1375
X9.0125Y-3.3875
X9.1125Y-3.3875
X13.1375Y-4.8875
X13.2375Y-4.8875
X7.8875Y-4.8875
X7.9875Y-4.8875
X14.2625Y-3.3875
X14.3625Y-3.3875
X10.8875Y-4.8875
X10.9875Y-4.8875
X9.95Y-6.3875
X10.05Y-6.3875
X12.0125Y-3.3875
X12.1125Y-3.3875
X7.5125Y-3.3875
X7.6125Y-3.3875
X11.2625Y-4.1375
X11.3625Y-4.1375
X8.2625Y-5.6375
X8.3625Y-5.6375
X11.825Y-6.3875
X11.925Y-6.3875
X12.7625Y-3.3875
X12.8625Y-3.3875
X7.5125Y-4.1375
X7.6125Y-4.1375
X14.2625Y-4.1375
X14.3625Y-4.1375
X9.0125Y-5.6375
X9.1125Y-5.6375
X14.2625Y-5.6375
X14.3625Y-5.6375
X10.5125Y-3.3875
X10.6125Y-3.3875
X9.0125Y-4.1375
X9.1125Y-4.1375
X12.7625Y-4.1375
X12.8625Y-4.1375
X9.7625Y-4.1375
X9.8625Y-4.1375
X13.5125Y-3.3875
X13.6125Y-3.3875
X9.7625Y-5.6375
X9.8625Y-5.6375
X7.5125Y-5.6375
X7.6125Y-5.6375
X12.3875Y-4.8875
X12.4875Y-4.8875
X10.5125Y-5.6375
X10.6125Y-5.6375
X11.2625Y-3.3875
X11.3625Y-3.3875
X11.6375Y-4.8875
X11.7375Y-4.8875
X9.3875Y-4.8875
X9.4875Y-4.8875
X12.0125Y-4.1375
X12.1125Y-4.1375
X13.5125Y-6.3875
X13.6125Y-6.3875
X7.5125Y-6.3875
X7.6125Y-6.3875
X9.0125Y-6.3875
X9.1125Y-6.3875
X12.7625Y-5.6375
X12.8625Y-5.6375
T4
X10.7875Y-4.5875
X10.8391Y-4.53
X11.0359Y-4.5103
X11.0375Y-4.4875
X9.85Y-6.0875
X9.9016Y-6.03
X10.0984Y-6.0103
X10.1Y-5.9875
X11.9125Y-3.0875
X11.9641Y-3.03
X12.1609Y-3.0103
X12.1625Y-2.9875
X7.4125Y-3.0875
X7.4641Y-3.03
X7.6609Y-3.0103
X7.6625Y-2.9875
X11.1625Y-3.8375
X11.2141Y-3.78
X11.4109Y-3.7603
X11.4125Y-3.7375
X8.1625Y-5.3375
X8.2141Y-5.28
X8.4109Y-5.2603
X8.4125Y-5.2375
X11.725Y-6.0875
X11.7766Y-6.03
X11.9734Y-6.0103
X11.975Y-5.9875
X12.6625Y-3.0875
X12.7141Y-3.03
X12.9109Y-3.0103
X12.9125Y-2.9875
X7.4125Y-3.8375
X7.4641Y-3.78
X7.6609Y-3.7603
X7.6625Y-3.7375
X14.1625Y-3.8375
X14.2141Y-3.78
X14.4109Y-3.7603
X14.4125Y-3.7375
X8.9125Y-5.3375
X8.9641Y-5.28
X9.1609Y-5.2603
X9.1625Y-5.2375
X14.1625Y-5.3375
X14.2141Y-5.28
X14.4109Y-5.2603
X14.4125Y-5.2375
X10.4125Y-3.0875
X10.4641Y-3.03
X10.6609Y-3.0103
X10.6625Y-2.9875
X8.9125Y-3.8375
X8.9641Y-3.78
X9.1609Y-3.7603
X9.1625Y-3.7375
X12.6625Y-3.8375
X12.7141Y-3.78
X12.9109Y-3.7603
X12.9125Y-3.7375
X9.6625Y-3.8375
X9.7141Y-3.78
X9.9109Y-3.7603
X9.9125Y-3.7375
X13.4125Y-3.0875
X13.4641Y-3.03
X13.6609Y-3.0103
X13.6625Y-2.9875
X9.6625Y-5.3375
X9.7141Y-5.28
X9.9109Y-5.2603
X9.9125Y-5.2375
X7.4125Y-5.3375
X7.4641Y-5.28
X7.6609Y-5.2603
X7.6625Y-5.2375
X12.2875Y-4.5875
X12.3391Y-4.53
X12.5359Y-4.5103
X12.5375Y-4.4875
X10.4125Y-5.3375
X10.4641Y-5.28
X10.6609Y-5.2603
X10.6625Y-5.2375
X11.1625Y-3.0875
X11.2141Y-3.03
X11.4109Y-3.0103
X11.4125Y-2.9875
X11.5375Y-4.5875
X11.5891Y-4.53
X11.7859Y-4.5103
X11.7875Y-4.4875
X9.2875Y-4.5875
X9.3391Y-4.53
X9.5359Y-4.5103
X9.5375Y-4.4875
X11.9125Y-3.8375
X11.9641Y-3.78
X12.1609Y-3.7603
X12.1625Y-3.7375
X13.4125Y-6.0875
X13.4641Y-6.03
X13.6609Y-6.0103
X13.6625Y-5.9875
X7.4125Y-6.0875
X7.4641Y-6.03
X7.6609Y-6.0103
X7.6625Y-5.9875
X8.9125Y-6.0875
X8.9641Y-6.03
X9.1609Y-6.0103
X9.1625Y-5.9875
X12.6625Y-5.3375
X12.7141Y-5.28
X12.9109Y-5.2603
X12.9125Y-5.2375
X10.4125Y-3.8375
X10.4641Y-3.78
X10.6609Y-3.7603
X10.6625Y-3.7375
X13.7875Y-4.5875
X13.8391Y-4.53
X14.0359Y-4.5103
X14.0375Y-4.4875
X8.1625Y-6.0875
X8.2141Y-6.03
X8.4109Y-6.0103
X8.4125Y-5.9875
X9.6625Y-3.0875
X9.7141Y-3.03
X9.9109Y-3.0103
X9.9125Y-2.9875
X12.6625Y-6.0875
X12.7141Y-6.03
X12.9109Y-6.0103
X12.9125Y-5.9875
X8.1625Y-3.8375
X8.2141Y-3.78
X8.4109Y-3.7603
X8.4125Y-3.7375
X10.7875Y-6.0875
X10.8391Y-6.03
X11.0359Y-6.0103
X11.0375Y-5.9875
X11.1625Y-5.3375
X11.2141Y-5.28
X11.4109Y-5.2603
X11.4125Y-5.2375
X11.9125Y-5.3375
X11.9641Y-5.28
X12.1609Y-5.2603
X12.1625Y-5.2375
X14.1625Y-6.0875
X14.2141Y-6.03
X14.4109Y-6.0103
X14.4125Y-5.9875
X8.5375Y-4.5875
X8.5891Y-4.53
X8.7859Y-4.5103
X8.7875Y-4.4875
X13.4125Y-5.3375
X13.4641Y-5.28
X13.6609Y-5.2603
X13.6625Y-5.2375
X10.0375Y-4.5875
X10.0891Y-4.53
X10.2859Y-4.5103
X10.2875Y-4.4875
X8.1625Y-3.0875
X8.2141Y-3.03
X8.4109Y-3.0103
X8.4125Y-2.9875
X13.4125Y-3.8375
X13.4641Y-3.78
X13.6609Y-3.7603
X13.6625Y-3.7375
X8.9125Y-3.0875
X8.9641Y-3.03
X9.1609Y-3.0103
X9.1625Y-2.9875
X13.0375Y-4.5875
X13.0891Y-4.53
X13.2859Y-4.5103
X13.2875Y-4.4875
X7.7875Y-4.5875
X7.8391Y-4.53
X8.0359Y-4.5103
X8.0375Y-4.4875
X14.1625Y-3.0875
X14.2141Y-3.03
X14.4109Y-3.0103
X14.4125Y-2.9875
T2
G00X14.4627Y-6.9325
M15
G01X14.4155Y-6.9325
M16
G05
G00X14.4627Y-7.22
M15
G01X14.4155Y-7.22
M16
G05
G00X14.6399Y-6.9325
M15
G01X14.5926Y-6.9325
M16
G05
G00X14.6399Y-7.22
M15
G01X14.5926Y-7.22
M16
G05
T0
M30
