G04 #@! TF.GenerationSoftware,KiCad,Pcbnew,8.0.6*
G04 #@! TF.CreationDate,2024-11-15T12:23:49-07:00*
G04 #@! TF.ProjectId,kicadNEWXboard,6b696361-644e-4455-9758-626f6172642e,rev?*
G04 #@! TF.SameCoordinates,Original*
G04 #@! TF.FileFunction,Soldermask,Bot*
G04 #@! TF.FilePolarity,Negative*
%FSLAX46Y46*%
G04 Gerber Fmt 4.6, Leading zero omitted, Abs format (unit mm)*
G04 Created by KiCad (PCBNEW 8.0.6) date 2024-11-15 12:23:49*
%MOMM*%
%LPD*%
G01*
G04 APERTURE LIST*
G04 Aperture macros list*
%AMRoundRect*
0 Rectangle with rounded corners*
0 $1 Rounding radius*
0 $2 $3 $4 $5 $6 $7 $8 $9 X,Y pos of 4 corners*
0 Add a 4 corners polygon primitive as box body*
4,1,4,$2,$3,$4,$5,$6,$7,$8,$9,$2,$3,0*
0 Add four circle primitives for the rounded corners*
1,1,$1+$1,$2,$3*
1,1,$1+$1,$4,$5*
1,1,$1+$1,$6,$7*
1,1,$1+$1,$8,$9*
0 Add four rect primitives between the rounded corners*
20,1,$1+$1,$2,$3,$4,$5,0*
20,1,$1+$1,$4,$5,$6,$7,0*
20,1,$1+$1,$6,$7,$8,$9,0*
20,1,$1+$1,$8,$9,$2,$3,0*%
G04 Aperture macros list end*
%ADD10C,1.701800*%
%ADD11C,3.000000*%
%ADD12C,3.987800*%
%ADD13RoundRect,0.200000X-1.075000X-1.050000X1.075000X-1.050000X1.075000X1.050000X-1.075000X1.050000X0*%
%ADD14RoundRect,0.250000X-0.375000X-0.625000X0.375000X-0.625000X0.375000X0.625000X-0.375000X0.625000X0*%
%ADD15R,1.200000X0.900000*%
%ADD16R,0.500000X2.250000*%
%ADD17O,1.700000X2.700000*%
%ADD18R,1.200000X1.400000*%
%ADD19R,1.500000X0.550000*%
%ADD20R,0.550000X1.500000*%
%ADD21R,1.100000X1.800000*%
%ADD22RoundRect,0.243750X0.243750X0.456250X-0.243750X0.456250X-0.243750X-0.456250X0.243750X-0.456250X0*%
%ADD23RoundRect,0.243750X-0.243750X-0.456250X0.243750X-0.456250X0.243750X0.456250X-0.243750X0.456250X0*%
%ADD24RoundRect,0.243750X0.456250X-0.243750X0.456250X0.243750X-0.456250X0.243750X-0.456250X-0.243750X0*%
%ADD25RoundRect,0.243750X-0.456250X0.243750X-0.456250X-0.243750X0.456250X-0.243750X0.456250X0.243750X0*%
G04 APERTURE END LIST*
D10*
X148907500Y-111918750D03*
D11*
X150177500Y-109378750D03*
D12*
X153987500Y-111918750D03*
D11*
X156527500Y-106838750D03*
D10*
X159067500Y-111918750D03*
D13*
X146902500Y-109378750D03*
X159829500Y-106838750D03*
D10*
X101282500Y-111918750D03*
D11*
X102552500Y-109378750D03*
D12*
X106362500Y-111918750D03*
D11*
X108902500Y-106838750D03*
D10*
X111442500Y-111918750D03*
D13*
X99277500Y-109378750D03*
X112204500Y-106838750D03*
D10*
X210820000Y-92868750D03*
D11*
X212090000Y-90328750D03*
D12*
X215900000Y-92868750D03*
D11*
X218440000Y-87788750D03*
D10*
X220980000Y-92868750D03*
D13*
X208815000Y-90328750D03*
X221742000Y-87788750D03*
D10*
X39370000Y-35718750D03*
D11*
X40640000Y-33178750D03*
D12*
X44450000Y-35718750D03*
D11*
X46990000Y-30638750D03*
D10*
X49530000Y-35718750D03*
D13*
X37365000Y-33178750D03*
X50292000Y-30638750D03*
D10*
X210820000Y-54768750D03*
D11*
X212090000Y-52228750D03*
D12*
X215900000Y-54768750D03*
D11*
X218440000Y-49688750D03*
D10*
X220980000Y-54768750D03*
D13*
X208815000Y-52228750D03*
X221742000Y-49688750D03*
D10*
X210820000Y-35718750D03*
D11*
X212090000Y-33178750D03*
D12*
X215900000Y-35718750D03*
D11*
X218440000Y-30638750D03*
D10*
X220980000Y-35718750D03*
D13*
X208815000Y-33178750D03*
X221742000Y-30638750D03*
D10*
X210820000Y-111918750D03*
D11*
X212090000Y-109378750D03*
D12*
X215900000Y-111918750D03*
D11*
X218440000Y-106838750D03*
D10*
X220980000Y-111918750D03*
D13*
X208815000Y-109378750D03*
X221742000Y-106838750D03*
D10*
X191770000Y-92868750D03*
D11*
X193040000Y-90328750D03*
D12*
X196850000Y-92868750D03*
D11*
X199390000Y-87788750D03*
D10*
X201930000Y-92868750D03*
D13*
X189765000Y-90328750D03*
X202692000Y-87788750D03*
D10*
X201295000Y-73818750D03*
D11*
X202565000Y-71278750D03*
D12*
X206375000Y-73818750D03*
D11*
X208915000Y-68738750D03*
D10*
X211455000Y-73818750D03*
D13*
X199290000Y-71278750D03*
X212217000Y-68738750D03*
D10*
X191770000Y-54768750D03*
D11*
X193040000Y-52228750D03*
D12*
X196850000Y-54768750D03*
D11*
X199390000Y-49688750D03*
D10*
X201930000Y-54768750D03*
D13*
X189765000Y-52228750D03*
X202692000Y-49688750D03*
D10*
X191770000Y-35718750D03*
D11*
X193040000Y-33178750D03*
D12*
X196850000Y-35718750D03*
D11*
X199390000Y-30638750D03*
D10*
X201930000Y-35718750D03*
D13*
X189765000Y-33178750D03*
X202692000Y-30638750D03*
D10*
X191770000Y-111918750D03*
D11*
X193040000Y-109378750D03*
D12*
X196850000Y-111918750D03*
D11*
X199390000Y-106838750D03*
D10*
X201930000Y-111918750D03*
D13*
X189765000Y-109378750D03*
X202692000Y-106838750D03*
D10*
X172720000Y-92868750D03*
D11*
X173990000Y-90328750D03*
D12*
X177800000Y-92868750D03*
D11*
X180340000Y-87788750D03*
D10*
X182880000Y-92868750D03*
D13*
X170715000Y-90328750D03*
X183642000Y-87788750D03*
D10*
X182245000Y-73818750D03*
D11*
X183515000Y-71278750D03*
D12*
X187325000Y-73818750D03*
D11*
X189865000Y-68738750D03*
D10*
X192405000Y-73818750D03*
D13*
X180240000Y-71278750D03*
X193167000Y-68738750D03*
D10*
X172720000Y-54768750D03*
D11*
X173990000Y-52228750D03*
D12*
X177800000Y-54768750D03*
D11*
X180340000Y-49688750D03*
D10*
X182880000Y-54768750D03*
D13*
X170715000Y-52228750D03*
X183642000Y-49688750D03*
D10*
X172720000Y-35718750D03*
D11*
X173990000Y-33178750D03*
D12*
X177800000Y-35718750D03*
D11*
X180340000Y-30638750D03*
D10*
X182880000Y-35718750D03*
D13*
X170715000Y-33178750D03*
X183642000Y-30638750D03*
D10*
X172720000Y-111918750D03*
D11*
X173990000Y-109378750D03*
D12*
X177800000Y-111918750D03*
D11*
X180340000Y-106838750D03*
D10*
X182880000Y-111918750D03*
D13*
X170715000Y-109378750D03*
X183642000Y-106838750D03*
D10*
X153670000Y-92868750D03*
D11*
X154940000Y-90328750D03*
D12*
X158750000Y-92868750D03*
D11*
X161290000Y-87788750D03*
D10*
X163830000Y-92868750D03*
D13*
X151665000Y-90328750D03*
X164592000Y-87788750D03*
D10*
X163195000Y-73818750D03*
D11*
X164465000Y-71278750D03*
D12*
X168275000Y-73818750D03*
D11*
X170815000Y-68738750D03*
D10*
X173355000Y-73818750D03*
D13*
X161190000Y-71278750D03*
X174117000Y-68738750D03*
D10*
X153670000Y-54768750D03*
D11*
X154940000Y-52228750D03*
D12*
X158750000Y-54768750D03*
D11*
X161290000Y-49688750D03*
D10*
X163830000Y-54768750D03*
D13*
X151665000Y-52228750D03*
X164592000Y-49688750D03*
D10*
X153670000Y-35718750D03*
D11*
X154940000Y-33178750D03*
D12*
X158750000Y-35718750D03*
D11*
X161290000Y-30638750D03*
D10*
X163830000Y-35718750D03*
D13*
X151665000Y-33178750D03*
X164592000Y-30638750D03*
D10*
X134620000Y-92868750D03*
D11*
X135890000Y-90328750D03*
D12*
X139700000Y-92868750D03*
D11*
X142240000Y-87788750D03*
D10*
X144780000Y-92868750D03*
D13*
X132615000Y-90328750D03*
X145542000Y-87788750D03*
D10*
X144145000Y-73818750D03*
D11*
X145415000Y-71278750D03*
D12*
X149225000Y-73818750D03*
D11*
X151765000Y-68738750D03*
D10*
X154305000Y-73818750D03*
D13*
X142140000Y-71278750D03*
X155067000Y-68738750D03*
D10*
X134620000Y-54768750D03*
D11*
X135890000Y-52228750D03*
D12*
X139700000Y-54768750D03*
D11*
X142240000Y-49688750D03*
D10*
X144780000Y-54768750D03*
D13*
X132615000Y-52228750D03*
X145542000Y-49688750D03*
D10*
X134620000Y-35718750D03*
D11*
X135890000Y-33178750D03*
D12*
X139700000Y-35718750D03*
D11*
X142240000Y-30638750D03*
D10*
X144780000Y-35718750D03*
D13*
X132615000Y-33178750D03*
X145542000Y-30638750D03*
D10*
X125095000Y-111918750D03*
D11*
X126365000Y-109378750D03*
D12*
X130175000Y-111918750D03*
D11*
X132715000Y-106838750D03*
D10*
X135255000Y-111918750D03*
D13*
X123090000Y-109378750D03*
X136017000Y-106838750D03*
D10*
X115570000Y-92868750D03*
D11*
X116840000Y-90328750D03*
D12*
X120650000Y-92868750D03*
D11*
X123190000Y-87788750D03*
D10*
X125730000Y-92868750D03*
D13*
X113565000Y-90328750D03*
X126492000Y-87788750D03*
D10*
X125095000Y-73818750D03*
D11*
X126365000Y-71278750D03*
D12*
X130175000Y-73818750D03*
D11*
X132715000Y-68738750D03*
D10*
X135255000Y-73818750D03*
D13*
X123090000Y-71278750D03*
X136017000Y-68738750D03*
D10*
X115570000Y-54768750D03*
D11*
X116840000Y-52228750D03*
D12*
X120650000Y-54768750D03*
D11*
X123190000Y-49688750D03*
D10*
X125730000Y-54768750D03*
D13*
X113565000Y-52228750D03*
X126492000Y-49688750D03*
D10*
X115570000Y-35718750D03*
D11*
X116840000Y-33178750D03*
D12*
X120650000Y-35718750D03*
D11*
X123190000Y-30638750D03*
D10*
X125730000Y-35718750D03*
D13*
X113565000Y-33178750D03*
X126492000Y-30638750D03*
D10*
X96520000Y-92868750D03*
D11*
X97790000Y-90328750D03*
D12*
X101600000Y-92868750D03*
D11*
X104140000Y-87788750D03*
D10*
X106680000Y-92868750D03*
D13*
X94515000Y-90328750D03*
X107442000Y-87788750D03*
D10*
X106045000Y-73818750D03*
D11*
X107315000Y-71278750D03*
D12*
X111125000Y-73818750D03*
D11*
X113665000Y-68738750D03*
D10*
X116205000Y-73818750D03*
D13*
X104040000Y-71278750D03*
X116967000Y-68738750D03*
D10*
X96520000Y-54768750D03*
D11*
X97790000Y-52228750D03*
D12*
X101600000Y-54768750D03*
D11*
X104140000Y-49688750D03*
D10*
X106680000Y-54768750D03*
D13*
X94515000Y-52228750D03*
X107442000Y-49688750D03*
D10*
X96520000Y-35718750D03*
D11*
X97790000Y-33178750D03*
D12*
X101600000Y-35718750D03*
D11*
X104140000Y-30638750D03*
D10*
X106680000Y-35718750D03*
D13*
X94515000Y-33178750D03*
X107442000Y-30638750D03*
D10*
X77470000Y-111918750D03*
D11*
X78740000Y-109378750D03*
D12*
X82550000Y-111918750D03*
D11*
X85090000Y-106838750D03*
D10*
X87630000Y-111918750D03*
D13*
X75465000Y-109378750D03*
X88392000Y-106838750D03*
D10*
X77470000Y-92868750D03*
D11*
X78740000Y-90328750D03*
D12*
X82550000Y-92868750D03*
D11*
X85090000Y-87788750D03*
D10*
X87630000Y-92868750D03*
D13*
X75465000Y-90328750D03*
X88392000Y-87788750D03*
D10*
X86995000Y-73818750D03*
D11*
X88265000Y-71278750D03*
D12*
X92075000Y-73818750D03*
D11*
X94615000Y-68738750D03*
D10*
X97155000Y-73818750D03*
D13*
X84990000Y-71278750D03*
X97917000Y-68738750D03*
D10*
X77470000Y-54768750D03*
D11*
X78740000Y-52228750D03*
D12*
X82550000Y-54768750D03*
D11*
X85090000Y-49688750D03*
D10*
X87630000Y-54768750D03*
D13*
X75465000Y-52228750D03*
X88392000Y-49688750D03*
D10*
X77470000Y-35718750D03*
D11*
X78740000Y-33178750D03*
D12*
X82550000Y-35718750D03*
D11*
X85090000Y-30638750D03*
D10*
X87630000Y-35718750D03*
D13*
X75465000Y-33178750D03*
X88392000Y-30638750D03*
D10*
X58420000Y-111918750D03*
D11*
X59690000Y-109378750D03*
D12*
X63500000Y-111918750D03*
D11*
X66040000Y-106838750D03*
D10*
X68580000Y-111918750D03*
D13*
X56415000Y-109378750D03*
X69342000Y-106838750D03*
D10*
X58420000Y-92868750D03*
D11*
X59690000Y-90328750D03*
D12*
X63500000Y-92868750D03*
D11*
X66040000Y-87788750D03*
D10*
X68580000Y-92868750D03*
D13*
X56415000Y-90328750D03*
X69342000Y-87788750D03*
D10*
X67945000Y-73818750D03*
D11*
X69215000Y-71278750D03*
D12*
X73025000Y-73818750D03*
D11*
X75565000Y-68738750D03*
D10*
X78105000Y-73818750D03*
D13*
X65940000Y-71278750D03*
X78867000Y-68738750D03*
D10*
X39370000Y-111918750D03*
D11*
X40640000Y-109378750D03*
D12*
X44450000Y-111918750D03*
D11*
X46990000Y-106838750D03*
D10*
X49530000Y-111918750D03*
D13*
X37365000Y-109378750D03*
X50292000Y-106838750D03*
D10*
X39370000Y-92868750D03*
D11*
X40640000Y-90328750D03*
D12*
X44450000Y-92868750D03*
D11*
X46990000Y-87788750D03*
D10*
X49530000Y-92868750D03*
D13*
X37365000Y-90328750D03*
X50292000Y-87788750D03*
D10*
X48895000Y-73818750D03*
D11*
X50165000Y-71278750D03*
D12*
X53975000Y-73818750D03*
D11*
X56515000Y-68738750D03*
D10*
X59055000Y-73818750D03*
D13*
X46890000Y-71278750D03*
X59817000Y-68738750D03*
D10*
X58420000Y-54768750D03*
D11*
X59690000Y-52228750D03*
D12*
X63500000Y-54768750D03*
D11*
X66040000Y-49688750D03*
D10*
X68580000Y-54768750D03*
D13*
X56415000Y-52228750D03*
X69342000Y-49688750D03*
D10*
X58420000Y-35718750D03*
D11*
X59690000Y-33178750D03*
D12*
X63500000Y-35718750D03*
D11*
X66040000Y-30638750D03*
D10*
X68580000Y-35718750D03*
D13*
X56415000Y-33178750D03*
X69342000Y-30638750D03*
D10*
X39370000Y-54768750D03*
D11*
X40640000Y-52228750D03*
D12*
X44450000Y-54768750D03*
D11*
X46990000Y-49688750D03*
D10*
X49530000Y-54768750D03*
D13*
X37365000Y-52228750D03*
X50292000Y-49688750D03*
D14*
X222510000Y-129921000D03*
X219710000Y-129921000D03*
D15*
X71437500Y-34131250D03*
X71437500Y-37431250D03*
X52387500Y-34131250D03*
X52387500Y-37431250D03*
X223710500Y-91281250D03*
X223710500Y-94581250D03*
X223710500Y-53181250D03*
X223710500Y-56481250D03*
X223710500Y-34131250D03*
X223710500Y-37431250D03*
X223710500Y-110331250D03*
X223710500Y-113631250D03*
X204660500Y-91282250D03*
X204660500Y-94582250D03*
X214185500Y-72231250D03*
X214185500Y-75531250D03*
X204660500Y-53181250D03*
X204660500Y-56481250D03*
X204660500Y-34132250D03*
X204660500Y-37432250D03*
X204660500Y-110331250D03*
X204660500Y-113631250D03*
X185610500Y-91281250D03*
X185610500Y-94581250D03*
X195008500Y-72105250D03*
X195008500Y-75405250D03*
X185610500Y-53181250D03*
X185610500Y-56481250D03*
X185610500Y-34131250D03*
X185610500Y-37431250D03*
X185610500Y-110331250D03*
X185610500Y-113631250D03*
X166687500Y-91281250D03*
X166687500Y-94581250D03*
X176085500Y-72231250D03*
X176085500Y-75531250D03*
X166560500Y-53181250D03*
X166560500Y-56481250D03*
X166560500Y-34132250D03*
X166560500Y-37432250D03*
X161734500Y-110204250D03*
X161734500Y-113504250D03*
X147510500Y-91281250D03*
X147510500Y-94581250D03*
X157035500Y-72231250D03*
X157035500Y-75531250D03*
X147510500Y-53181250D03*
X147510500Y-56481250D03*
X147510500Y-34131250D03*
X147510500Y-37431250D03*
X137985500Y-110331250D03*
X137985500Y-113631250D03*
X128460500Y-91154250D03*
X128460500Y-94454250D03*
X137985500Y-72231250D03*
X137985500Y-75531250D03*
X128460500Y-53181250D03*
X128460500Y-56481250D03*
X128460500Y-34131250D03*
X128460500Y-37431250D03*
X114236500Y-110331250D03*
X114236500Y-113631250D03*
X109410500Y-91282250D03*
X109410500Y-94582250D03*
X118935500Y-72105250D03*
X118935500Y-75405250D03*
X109537500Y-53055250D03*
X109537500Y-56355250D03*
X109410500Y-34131250D03*
X109410500Y-37431250D03*
X90360500Y-110331250D03*
X90360500Y-113631250D03*
X90360500Y-91155250D03*
X90360500Y-94455250D03*
X100012500Y-72232250D03*
X100012500Y-75532250D03*
X90487500Y-53181250D03*
X90487500Y-56481250D03*
X90360500Y-34258250D03*
X90360500Y-37558250D03*
X71310500Y-110332250D03*
X71310500Y-113632250D03*
X71310500Y-91154250D03*
X71310500Y-94454250D03*
X80835500Y-72104250D03*
X80835500Y-75404250D03*
X52260500Y-110331250D03*
X52260500Y-113631250D03*
X52260500Y-91282250D03*
X52260500Y-94582250D03*
X61912500Y-72231250D03*
X61912500Y-75531250D03*
D16*
X233502000Y-32440000D03*
X232702000Y-32440000D03*
X231902000Y-32440000D03*
X231102000Y-32440000D03*
X230302000Y-32440000D03*
D17*
X228252000Y-32440000D03*
X235552000Y-32440000D03*
X235552000Y-27940000D03*
X228252000Y-27940000D03*
D18*
X177528750Y-132705750D03*
X177528750Y-134905750D03*
X179228750Y-134905750D03*
X179228750Y-132705750D03*
D19*
X200518000Y-138461250D03*
X200518000Y-137661250D03*
X200518000Y-136861250D03*
X200518000Y-136061250D03*
X200518000Y-135261250D03*
X200518000Y-134461250D03*
X200518000Y-133661250D03*
X200518000Y-132861250D03*
X200518000Y-132061250D03*
X200518000Y-131261250D03*
X200518000Y-130461250D03*
D20*
X198818000Y-128761250D03*
X198018000Y-128761250D03*
X197218000Y-128761250D03*
X196418000Y-128761250D03*
X195618000Y-128761250D03*
X194818000Y-128761250D03*
X194018000Y-128761250D03*
X193218000Y-128761250D03*
X192418000Y-128761250D03*
X191618000Y-128761250D03*
X190818000Y-128761250D03*
D19*
X189118000Y-130461250D03*
X189118000Y-131261250D03*
X189118000Y-132061250D03*
X189118000Y-132861250D03*
X189118000Y-133661250D03*
X189118000Y-134461250D03*
X189118000Y-135261250D03*
X189118000Y-136061250D03*
X189118000Y-136861250D03*
X189118000Y-137661250D03*
X189118000Y-138461250D03*
D20*
X190818000Y-140161250D03*
X191618000Y-140161250D03*
X192418000Y-140161250D03*
X193218000Y-140161250D03*
X194018000Y-140161250D03*
X194818000Y-140161250D03*
X195618000Y-140161250D03*
X196418000Y-140161250D03*
X197218000Y-140161250D03*
X198018000Y-140161250D03*
X198818000Y-140161250D03*
D21*
X225503250Y-139985750D03*
X229203250Y-133785750D03*
X229203250Y-139985750D03*
X225503250Y-133785750D03*
D22*
X206532000Y-128651000D03*
X208407000Y-128651000D03*
D23*
X182910000Y-137668000D03*
X184785000Y-137668000D03*
D22*
X209389500Y-136175750D03*
X211264500Y-136175750D03*
X209389500Y-139858750D03*
X211264500Y-139858750D03*
D15*
X71437500Y-53181250D03*
X71437500Y-56481250D03*
X52387500Y-53181250D03*
X52387500Y-56481250D03*
D24*
X204406500Y-137270250D03*
X204406500Y-139145250D03*
D22*
X181483000Y-140081000D03*
X183358000Y-140081000D03*
D25*
X204343000Y-131573750D03*
X204343000Y-129698750D03*
D23*
X179372500Y-138874500D03*
X177497500Y-138874500D03*
D22*
X177353750Y-129349500D03*
X179228750Y-129349500D03*
X184501000Y-133985000D03*
X182626000Y-133985000D03*
D25*
X182499000Y-130526000D03*
X182499000Y-128651000D03*
M02*
