M48
; DRILL file {KiCad (5.1.4)-1} date 11/14/2024 9:52:27 AM
; FORMAT={-:-/ absolute / inch / decimal}
; #@! TF.CreationDate,2024-11-14T09:52:27-07:00
; #@! TF.GenerationSoftware,Kicad,Pcbnew,(5.1.4)-1
; #@! TF.FileFunction,NonPlated,1,2,NPTH
FMAT,2
INCH
T1C0.0689
T2C0.1570
%
G90
G05
T1
X9.6125Y-3.1875
X10.0125Y-3.1875
X12.6125Y-6.1875
X13.0125Y-6.1875
X8.1125Y-3.9375
X8.5125Y-3.9375
X10.7375Y-6.1875
X11.1375Y-6.1875
X11.1125Y-5.4375
X11.5125Y-5.4375
X11.8625Y-5.4375
X12.2625Y-5.4375
X14.1125Y-6.1875
X14.5125Y-6.1875
X8.4875Y-4.6875
X8.8875Y-4.6875
X13.3625Y-5.4375
X13.7625Y-5.4375
X9.9875Y-4.6875
X10.3875Y-4.6875
X8.1125Y-3.1875
X8.5125Y-3.1875
X13.3625Y-3.9375
X13.7625Y-3.9375
X8.8625Y-3.1875
X9.2625Y-3.1875
X12.9875Y-4.6875
X13.3875Y-4.6875
X7.7375Y-4.6875
X8.1375Y-4.6875
X14.1125Y-3.1875
X14.5125Y-3.1875
X10.7375Y-4.6875
X11.1375Y-4.6875
X9.8Y-6.1875
X10.2Y-6.1875
X11.8625Y-3.1875
X12.2625Y-3.1875
X7.3625Y-3.1875
X7.7625Y-3.1875
X11.1125Y-3.9375
X11.5125Y-3.9375
X8.1125Y-5.4375
X8.5125Y-5.4375
X11.675Y-6.1875
X12.075Y-6.1875
X12.6125Y-3.1875
X13.0125Y-3.1875
X7.3625Y-3.9375
X7.7625Y-3.9375
X14.1125Y-3.9375
X14.5125Y-3.9375
X8.8625Y-5.4375
X9.2625Y-5.4375
X14.1125Y-5.4375
X14.5125Y-5.4375
X10.3625Y-3.1875
X10.7625Y-3.1875
X8.8625Y-3.9375
X9.2625Y-3.9375
X12.6125Y-3.9375
X13.0125Y-3.9375
X9.6125Y-3.9375
X10.0125Y-3.9375
X13.3625Y-3.1875
X13.7625Y-3.1875
X9.6125Y-5.4375
X10.0125Y-5.4375
X7.3625Y-5.4375
X7.7625Y-5.4375
X12.2375Y-4.6875
X12.6375Y-4.6875
X10.3625Y-5.4375
X10.7625Y-5.4375
X11.1125Y-3.1875
X11.5125Y-3.1875
X11.4875Y-4.6875
X11.8875Y-4.6875
X9.2375Y-4.6875
X9.6375Y-4.6875
X11.8625Y-3.9375
X12.2625Y-3.9375
X13.3625Y-6.1875
X13.7625Y-6.1875
X7.3625Y-6.1875
X7.7625Y-6.1875
X8.8625Y-6.1875
X9.2625Y-6.1875
X12.6125Y-5.4375
X13.0125Y-5.4375
X10.3625Y-3.9375
X10.7625Y-3.9375
X13.7375Y-4.6875
X14.1375Y-4.6875
X8.1125Y-6.1875
X8.5125Y-6.1875
T2
X9.0625Y-3.1875
X13.1875Y-4.6875
X7.9375Y-4.6875
X14.3125Y-3.1875
X10.9375Y-4.6875
X10.0Y-6.1875
X12.0625Y-3.1875
X7.5625Y-3.1875
X11.3125Y-3.9375
X8.3125Y-5.4375
X11.875Y-6.1875
X12.8125Y-3.1875
X7.5625Y-3.9375
X14.3125Y-3.9375
X9.0625Y-5.4375
X14.3125Y-5.4375
X10.5625Y-3.1875
X9.0625Y-3.9375
X12.8125Y-3.9375
X9.8125Y-3.9375
X13.5625Y-3.1875
X9.8125Y-5.4375
X7.5625Y-5.4375
X12.4375Y-4.6875
X10.5625Y-5.4375
X11.3125Y-3.1875
X11.6875Y-4.6875
X9.4375Y-4.6875
X12.0625Y-3.9375
X13.5625Y-6.1875
X7.5625Y-6.1875
X9.0625Y-6.1875
X12.8125Y-5.4375
X10.5625Y-3.9375
X13.9375Y-4.6875
X8.3125Y-6.1875
X9.8125Y-3.1875
X12.8125Y-6.1875
X8.3125Y-3.9375
X10.9375Y-6.1875
X11.3125Y-5.4375
X12.0625Y-5.4375
X14.3125Y-6.1875
X8.6875Y-4.6875
X13.5625Y-5.4375
X10.1875Y-4.6875
X8.3125Y-3.1875
X13.5625Y-3.9375
T0
M30
