G04 #@! TF.GenerationSoftware,KiCad,Pcbnew,8.0.6*
G04 #@! TF.CreationDate,2024-11-15T12:23:49-07:00*
G04 #@! TF.ProjectId,kicadNEWXboard,6b696361-644e-4455-9758-626f6172642e,rev?*
G04 #@! TF.SameCoordinates,Original*
G04 #@! TF.FileFunction,Soldermask,Top*
G04 #@! TF.FilePolarity,Negative*
%FSLAX46Y46*%
G04 Gerber Fmt 4.6, Leading zero omitted, Abs format (unit mm)*
G04 Created by KiCad (PCBNEW 8.0.6) date 2024-11-15 12:23:49*
%MOMM*%
%LPD*%
G01*
G04 APERTURE LIST*
%ADD10C,1.701800*%
%ADD11C,3.000000*%
%ADD12C,3.987800*%
%ADD13O,1.700000X2.700000*%
G04 APERTURE END LIST*
D10*
X148907500Y-111918750D03*
D11*
X150177500Y-109378750D03*
D12*
X153987500Y-111918750D03*
D11*
X156527500Y-106838750D03*
D10*
X159067500Y-111918750D03*
X101282500Y-111918750D03*
D11*
X102552500Y-109378750D03*
D12*
X106362500Y-111918750D03*
D11*
X108902500Y-106838750D03*
D10*
X111442500Y-111918750D03*
X210820000Y-92868750D03*
D11*
X212090000Y-90328750D03*
D12*
X215900000Y-92868750D03*
D11*
X218440000Y-87788750D03*
D10*
X220980000Y-92868750D03*
X39370000Y-35718750D03*
D11*
X40640000Y-33178750D03*
D12*
X44450000Y-35718750D03*
D11*
X46990000Y-30638750D03*
D10*
X49530000Y-35718750D03*
X210820000Y-54768750D03*
D11*
X212090000Y-52228750D03*
D12*
X215900000Y-54768750D03*
D11*
X218440000Y-49688750D03*
D10*
X220980000Y-54768750D03*
X210820000Y-35718750D03*
D11*
X212090000Y-33178750D03*
D12*
X215900000Y-35718750D03*
D11*
X218440000Y-30638750D03*
D10*
X220980000Y-35718750D03*
X210820000Y-111918750D03*
D11*
X212090000Y-109378750D03*
D12*
X215900000Y-111918750D03*
D11*
X218440000Y-106838750D03*
D10*
X220980000Y-111918750D03*
X191770000Y-92868750D03*
D11*
X193040000Y-90328750D03*
D12*
X196850000Y-92868750D03*
D11*
X199390000Y-87788750D03*
D10*
X201930000Y-92868750D03*
X201295000Y-73818750D03*
D11*
X202565000Y-71278750D03*
D12*
X206375000Y-73818750D03*
D11*
X208915000Y-68738750D03*
D10*
X211455000Y-73818750D03*
X191770000Y-54768750D03*
D11*
X193040000Y-52228750D03*
D12*
X196850000Y-54768750D03*
D11*
X199390000Y-49688750D03*
D10*
X201930000Y-54768750D03*
X191770000Y-35718750D03*
D11*
X193040000Y-33178750D03*
D12*
X196850000Y-35718750D03*
D11*
X199390000Y-30638750D03*
D10*
X201930000Y-35718750D03*
X191770000Y-111918750D03*
D11*
X193040000Y-109378750D03*
D12*
X196850000Y-111918750D03*
D11*
X199390000Y-106838750D03*
D10*
X201930000Y-111918750D03*
X172720000Y-92868750D03*
D11*
X173990000Y-90328750D03*
D12*
X177800000Y-92868750D03*
D11*
X180340000Y-87788750D03*
D10*
X182880000Y-92868750D03*
X182245000Y-73818750D03*
D11*
X183515000Y-71278750D03*
D12*
X187325000Y-73818750D03*
D11*
X189865000Y-68738750D03*
D10*
X192405000Y-73818750D03*
X172720000Y-54768750D03*
D11*
X173990000Y-52228750D03*
D12*
X177800000Y-54768750D03*
D11*
X180340000Y-49688750D03*
D10*
X182880000Y-54768750D03*
X172720000Y-35718750D03*
D11*
X173990000Y-33178750D03*
D12*
X177800000Y-35718750D03*
D11*
X180340000Y-30638750D03*
D10*
X182880000Y-35718750D03*
X172720000Y-111918750D03*
D11*
X173990000Y-109378750D03*
D12*
X177800000Y-111918750D03*
D11*
X180340000Y-106838750D03*
D10*
X182880000Y-111918750D03*
X153670000Y-92868750D03*
D11*
X154940000Y-90328750D03*
D12*
X158750000Y-92868750D03*
D11*
X161290000Y-87788750D03*
D10*
X163830000Y-92868750D03*
X163195000Y-73818750D03*
D11*
X164465000Y-71278750D03*
D12*
X168275000Y-73818750D03*
D11*
X170815000Y-68738750D03*
D10*
X173355000Y-73818750D03*
X153670000Y-54768750D03*
D11*
X154940000Y-52228750D03*
D12*
X158750000Y-54768750D03*
D11*
X161290000Y-49688750D03*
D10*
X163830000Y-54768750D03*
X153670000Y-35718750D03*
D11*
X154940000Y-33178750D03*
D12*
X158750000Y-35718750D03*
D11*
X161290000Y-30638750D03*
D10*
X163830000Y-35718750D03*
X134620000Y-92868750D03*
D11*
X135890000Y-90328750D03*
D12*
X139700000Y-92868750D03*
D11*
X142240000Y-87788750D03*
D10*
X144780000Y-92868750D03*
X144145000Y-73818750D03*
D11*
X145415000Y-71278750D03*
D12*
X149225000Y-73818750D03*
D11*
X151765000Y-68738750D03*
D10*
X154305000Y-73818750D03*
X134620000Y-54768750D03*
D11*
X135890000Y-52228750D03*
D12*
X139700000Y-54768750D03*
D11*
X142240000Y-49688750D03*
D10*
X144780000Y-54768750D03*
X134620000Y-35718750D03*
D11*
X135890000Y-33178750D03*
D12*
X139700000Y-35718750D03*
D11*
X142240000Y-30638750D03*
D10*
X144780000Y-35718750D03*
X125095000Y-111918750D03*
D11*
X126365000Y-109378750D03*
D12*
X130175000Y-111918750D03*
D11*
X132715000Y-106838750D03*
D10*
X135255000Y-111918750D03*
X115570000Y-92868750D03*
D11*
X116840000Y-90328750D03*
D12*
X120650000Y-92868750D03*
D11*
X123190000Y-87788750D03*
D10*
X125730000Y-92868750D03*
X125095000Y-73818750D03*
D11*
X126365000Y-71278750D03*
D12*
X130175000Y-73818750D03*
D11*
X132715000Y-68738750D03*
D10*
X135255000Y-73818750D03*
X115570000Y-54768750D03*
D11*
X116840000Y-52228750D03*
D12*
X120650000Y-54768750D03*
D11*
X123190000Y-49688750D03*
D10*
X125730000Y-54768750D03*
X115570000Y-35718750D03*
D11*
X116840000Y-33178750D03*
D12*
X120650000Y-35718750D03*
D11*
X123190000Y-30638750D03*
D10*
X125730000Y-35718750D03*
X96520000Y-92868750D03*
D11*
X97790000Y-90328750D03*
D12*
X101600000Y-92868750D03*
D11*
X104140000Y-87788750D03*
D10*
X106680000Y-92868750D03*
X106045000Y-73818750D03*
D11*
X107315000Y-71278750D03*
D12*
X111125000Y-73818750D03*
D11*
X113665000Y-68738750D03*
D10*
X116205000Y-73818750D03*
X96520000Y-54768750D03*
D11*
X97790000Y-52228750D03*
D12*
X101600000Y-54768750D03*
D11*
X104140000Y-49688750D03*
D10*
X106680000Y-54768750D03*
X96520000Y-35718750D03*
D11*
X97790000Y-33178750D03*
D12*
X101600000Y-35718750D03*
D11*
X104140000Y-30638750D03*
D10*
X106680000Y-35718750D03*
X77470000Y-111918750D03*
D11*
X78740000Y-109378750D03*
D12*
X82550000Y-111918750D03*
D11*
X85090000Y-106838750D03*
D10*
X87630000Y-111918750D03*
X77470000Y-92868750D03*
D11*
X78740000Y-90328750D03*
D12*
X82550000Y-92868750D03*
D11*
X85090000Y-87788750D03*
D10*
X87630000Y-92868750D03*
X86995000Y-73818750D03*
D11*
X88265000Y-71278750D03*
D12*
X92075000Y-73818750D03*
D11*
X94615000Y-68738750D03*
D10*
X97155000Y-73818750D03*
X77470000Y-54768750D03*
D11*
X78740000Y-52228750D03*
D12*
X82550000Y-54768750D03*
D11*
X85090000Y-49688750D03*
D10*
X87630000Y-54768750D03*
X77470000Y-35718750D03*
D11*
X78740000Y-33178750D03*
D12*
X82550000Y-35718750D03*
D11*
X85090000Y-30638750D03*
D10*
X87630000Y-35718750D03*
X58420000Y-111918750D03*
D11*
X59690000Y-109378750D03*
D12*
X63500000Y-111918750D03*
D11*
X66040000Y-106838750D03*
D10*
X68580000Y-111918750D03*
X58420000Y-92868750D03*
D11*
X59690000Y-90328750D03*
D12*
X63500000Y-92868750D03*
D11*
X66040000Y-87788750D03*
D10*
X68580000Y-92868750D03*
X67945000Y-73818750D03*
D11*
X69215000Y-71278750D03*
D12*
X73025000Y-73818750D03*
D11*
X75565000Y-68738750D03*
D10*
X78105000Y-73818750D03*
X39370000Y-111918750D03*
D11*
X40640000Y-109378750D03*
D12*
X44450000Y-111918750D03*
D11*
X46990000Y-106838750D03*
D10*
X49530000Y-111918750D03*
X39370000Y-92868750D03*
D11*
X40640000Y-90328750D03*
D12*
X44450000Y-92868750D03*
D11*
X46990000Y-87788750D03*
D10*
X49530000Y-92868750D03*
X48895000Y-73818750D03*
D11*
X50165000Y-71278750D03*
D12*
X53975000Y-73818750D03*
D11*
X56515000Y-68738750D03*
D10*
X59055000Y-73818750D03*
X58420000Y-54768750D03*
D11*
X59690000Y-52228750D03*
D12*
X63500000Y-54768750D03*
D11*
X66040000Y-49688750D03*
D10*
X68580000Y-54768750D03*
X58420000Y-35718750D03*
D11*
X59690000Y-33178750D03*
D12*
X63500000Y-35718750D03*
D11*
X66040000Y-30638750D03*
D10*
X68580000Y-35718750D03*
X39370000Y-54768750D03*
D11*
X40640000Y-52228750D03*
D12*
X44450000Y-54768750D03*
D11*
X46990000Y-49688750D03*
D10*
X49530000Y-54768750D03*
D13*
X228252000Y-32440000D03*
X235552000Y-32440000D03*
X235552000Y-27940000D03*
X228252000Y-27940000D03*
M02*
