M48
; DRILL file {KiCad 8.0.6} date 2024-11-15T12:23:50-0700
; FORMAT={-:-/ absolute / inch / decimal}
; #@! TF.CreationDate,2024-11-15T12:23:50-07:00
; #@! TF.GenerationSoftware,Kicad,Pcbnew,8.0.6
; #@! TF.FileFunction,NonPlated,1,2,NPTH
FMAT,2
INCH
; #@! TA.AperFunction,NonPlated,NPTH,ComponentDrill
T1C0.0670
; #@! TA.AperFunction,NonPlated,NPTH,ComponentDrill
T2C0.1181
; #@! TA.AperFunction,NonPlated,NPTH,ComponentDrill
T3C0.1570
%
G90
G05
T1
X1.55Y-1.4062
X1.55Y-2.1562
X1.55Y-3.6562
X1.55Y-4.4062
X1.925Y-2.9062
X1.95Y-1.4062
X1.95Y-2.1562
X1.95Y-3.6562
X1.95Y-4.4062
X2.3Y-1.4062
X2.3Y-2.1562
X2.3Y-3.6562
X2.3Y-4.4062
X2.325Y-2.9062
X2.675Y-2.9062
X2.7Y-1.4062
X2.7Y-2.1562
X2.7Y-3.6562
X2.7Y-4.4062
X3.05Y-1.4062
X3.05Y-2.1562
X3.05Y-3.6562
X3.05Y-4.4062
X3.075Y-2.9062
X3.425Y-2.9062
X3.45Y-1.4062
X3.45Y-2.1562
X3.45Y-3.6562
X3.45Y-4.4062
X3.8Y-1.4062
X3.8Y-2.1562
X3.8Y-3.6562
X3.825Y-2.9062
X3.9875Y-4.4062
X4.175Y-2.9062
X4.2Y-1.4062
X4.2Y-2.1562
X4.2Y-3.6562
X4.3875Y-4.4062
X4.55Y-1.4062
X4.55Y-2.1562
X4.55Y-3.6562
X4.575Y-2.9062
X4.925Y-2.9062
X4.925Y-4.4062
X4.95Y-1.4062
X4.95Y-2.1562
X4.95Y-3.6562
X5.3Y-1.4062
X5.3Y-2.1562
X5.3Y-3.6562
X5.325Y-2.9062
X5.325Y-4.4062
X5.675Y-2.9062
X5.7Y-1.4062
X5.7Y-2.1562
X5.7Y-3.6562
X5.8625Y-4.4062
X6.05Y-1.4062
X6.05Y-2.1562
X6.05Y-3.6562
X6.075Y-2.9062
X6.2625Y-4.4062
X6.425Y-2.9062
X6.45Y-1.4062
X6.45Y-2.1562
X6.45Y-3.6562
X6.8Y-1.4062
X6.8Y-2.1562
X6.8Y-3.6562
X6.8Y-4.4062
X6.825Y-2.9062
X7.175Y-2.9062
X7.2Y-1.4062
X7.2Y-2.1562
X7.2Y-3.6562
X7.2Y-4.4062
X7.55Y-1.4062
X7.55Y-2.1562
X7.55Y-3.6562
X7.55Y-4.4062
X7.575Y-2.9062
X7.925Y-2.9062
X7.95Y-1.4062
X7.95Y-2.1562
X7.95Y-3.6562
X7.95Y-4.4062
X8.3Y-1.4062
X8.3Y-2.1562
X8.3Y-3.6562
X8.3Y-4.4062
X8.325Y-2.9062
X8.7Y-1.4062
X8.7Y-2.1562
X8.7Y-3.6562
X8.7Y-4.4062
T2
X1.6Y-1.3062
X1.6Y-2.0562
X1.6Y-3.5562
X1.6Y-4.3062
X1.85Y-1.2063
X1.85Y-1.9563
X1.85Y-3.4562
X1.85Y-4.2062
X1.975Y-2.8062
X2.225Y-2.7062
X2.35Y-1.3062
X2.35Y-2.0562
X2.35Y-3.5562
X2.35Y-4.3062
X2.6Y-1.2063
X2.6Y-1.9563
X2.6Y-3.4562
X2.6Y-4.2062
X2.725Y-2.8062
X2.975Y-2.7062
X3.1Y-1.3062
X3.1Y-2.0562
X3.1Y-3.5562
X3.1Y-4.3062
X3.35Y-1.2063
X3.35Y-1.9563
X3.35Y-3.4562
X3.35Y-4.2062
X3.475Y-2.8062
X3.725Y-2.7062
X3.85Y-1.3062
X3.85Y-2.0562
X3.85Y-3.5562
X4.0375Y-4.3062
X4.1Y-1.2063
X4.1Y-1.9563
X4.1Y-3.4562
X4.225Y-2.8062
X4.2875Y-4.2062
X4.475Y-2.7062
X4.6Y-1.3062
X4.6Y-2.0562
X4.6Y-3.5562
X4.85Y-1.2063
X4.85Y-1.9563
X4.85Y-3.4562
X4.975Y-2.8062
X4.975Y-4.3062
X5.225Y-2.7062
X5.225Y-4.2062
X5.35Y-1.3062
X5.35Y-2.0562
X5.35Y-3.5562
X5.6Y-1.2063
X5.6Y-1.9563
X5.6Y-3.4562
X5.725Y-2.8062
X5.9125Y-4.3062
X5.975Y-2.7062
X6.1Y-1.3062
X6.1Y-2.0562
X6.1Y-3.5562
X6.1625Y-4.2062
X6.35Y-1.2063
X6.35Y-1.9563
X6.35Y-3.4562
X6.475Y-2.8062
X6.725Y-2.7062
X6.85Y-1.3062
X6.85Y-2.0562
X6.85Y-3.5562
X6.85Y-4.3062
X7.1Y-1.2063
X7.1Y-1.9563
X7.1Y-3.4562
X7.1Y-4.2062
X7.225Y-2.8062
X7.475Y-2.7062
X7.6Y-1.3062
X7.6Y-2.0562
X7.6Y-3.5562
X7.6Y-4.3062
X7.85Y-1.2063
X7.85Y-1.9563
X7.85Y-3.4562
X7.85Y-4.2062
X7.975Y-2.8062
X8.225Y-2.7062
X8.35Y-1.3062
X8.35Y-2.0562
X8.35Y-3.5562
X8.35Y-4.3062
X8.6Y-1.2063
X8.6Y-1.9563
X8.6Y-3.4562
X8.6Y-4.2062
T3
X1.75Y-1.4062
X1.75Y-2.1562
X1.75Y-3.6562
X1.75Y-4.4062
X2.125Y-2.9062
X2.5Y-1.4062
X2.5Y-2.1562
X2.5Y-3.6562
X2.5Y-4.4062
X2.875Y-2.9062
X3.25Y-1.4062
X3.25Y-2.1562
X3.25Y-3.6562
X3.25Y-4.4062
X3.625Y-2.9062
X4.0Y-1.4062
X4.0Y-2.1562
X4.0Y-3.6562
X4.1875Y-4.4062
X4.375Y-2.9062
X4.75Y-1.4062
X4.75Y-2.1562
X4.75Y-3.6562
X5.125Y-2.9062
X5.125Y-4.4062
X5.5Y-1.4062
X5.5Y-2.1562
X5.5Y-3.6562
X5.875Y-2.9062
X6.0625Y-4.4062
X6.25Y-1.4062
X6.25Y-2.1562
X6.25Y-3.6562
X6.625Y-2.9062
X7.0Y-1.4062
X7.0Y-2.1562
X7.0Y-3.6562
X7.0Y-4.4062
X7.375Y-2.9062
X7.75Y-1.4062
X7.75Y-2.1562
X7.75Y-3.6562
X7.75Y-4.4062
X8.125Y-2.9062
X8.5Y-1.4062
X8.5Y-2.1562
X8.5Y-3.6562
X8.5Y-4.4062
M30
