G04 #@! TF.GenerationSoftware,KiCad,Pcbnew,(5.1.4)-1*
G04 #@! TF.CreationDate,2024-11-14T09:52:14-07:00*
G04 #@! TF.ProjectId,kicadNEWXboard,6b696361-644e-4455-9758-626f6172642e,rev?*
G04 #@! TF.SameCoordinates,Original*
G04 #@! TF.FileFunction,Copper,L1,Top*
G04 #@! TF.FilePolarity,Positive*
%FSLAX46Y46*%
G04 Gerber Fmt 4.6, Leading zero omitted, Abs format (unit mm)*
G04 Created by KiCad (PCBNEW (5.1.4)-1) date 2024-11-14 09:52:14*
%MOMM*%
%LPD*%
G04 APERTURE LIST*
%ADD10R,1.905000X1.905000*%
%ADD11C,1.905000*%
%ADD12C,2.250000*%
%ADD13C,2.250000*%
%ADD14O,2.700000X1.700000*%
%ADD15C,0.800000*%
%ADD16C,0.381000*%
%ADD17C,0.254000*%
G04 APERTURE END LIST*
D10*
X364807500Y-143192500D03*
D11*
X362267500Y-143192500D03*
D12*
X361037500Y-134112500D03*
X360382501Y-134842500D03*
D13*
X359727500Y-135572500D02*
X361037502Y-134112500D01*
D12*
X366077500Y-133032500D03*
X366057500Y-133322500D03*
D13*
X366037500Y-133612500D02*
X366077500Y-133032500D01*
D12*
X194607500Y-76172500D03*
D13*
X194587500Y-76462500D02*
X194627500Y-75882500D01*
D12*
X194627500Y-75882500D03*
X188932501Y-77692500D03*
D13*
X188277500Y-78422500D02*
X189587502Y-76962500D01*
D12*
X189587500Y-76962500D03*
D11*
X190817500Y-86042500D03*
D10*
X193357500Y-86042500D03*
X364807500Y-105092500D03*
D11*
X362267500Y-105092500D03*
D12*
X361037500Y-96012500D03*
X360382501Y-96742500D03*
D13*
X359727500Y-97472500D02*
X361037502Y-96012500D01*
D12*
X366077500Y-94932500D03*
X366057500Y-95222500D03*
D13*
X366037500Y-95512500D02*
X366077500Y-94932500D01*
D10*
X364807500Y-86042500D03*
D11*
X362267500Y-86042500D03*
D12*
X361037500Y-76962500D03*
X360382501Y-77692500D03*
D13*
X359727500Y-78422500D02*
X361037502Y-76962500D01*
D12*
X366077500Y-75882500D03*
X366057500Y-76172500D03*
D13*
X366037500Y-76462500D02*
X366077500Y-75882500D01*
D10*
X364807500Y-162242500D03*
D11*
X362267500Y-162242500D03*
D12*
X361037500Y-153162500D03*
X360382501Y-153892500D03*
D13*
X359727500Y-154622500D02*
X361037502Y-153162500D01*
D12*
X366077500Y-152082500D03*
X366057500Y-152372500D03*
D13*
X366037500Y-152662500D02*
X366077500Y-152082500D01*
D10*
X345757500Y-143192500D03*
D11*
X343217500Y-143192500D03*
D12*
X341987500Y-134112500D03*
X341332501Y-134842500D03*
D13*
X340677500Y-135572500D02*
X341987502Y-134112500D01*
D12*
X347027500Y-133032500D03*
X347007500Y-133322500D03*
D13*
X346987500Y-133612500D02*
X347027500Y-133032500D01*
D10*
X355282500Y-124142500D03*
D11*
X352742500Y-124142500D03*
D12*
X351512500Y-115062500D03*
X350857501Y-115792500D03*
D13*
X350202500Y-116522500D02*
X351512502Y-115062500D01*
D12*
X356552500Y-113982500D03*
X356532500Y-114272500D03*
D13*
X356512500Y-114562500D02*
X356552500Y-113982500D01*
D10*
X345757500Y-105092500D03*
D11*
X343217500Y-105092500D03*
D12*
X341987500Y-96012500D03*
X341332501Y-96742500D03*
D13*
X340677500Y-97472500D02*
X341987502Y-96012500D01*
D12*
X347027500Y-94932500D03*
X347007500Y-95222500D03*
D13*
X346987500Y-95512500D02*
X347027500Y-94932500D01*
D10*
X345757500Y-86042500D03*
D11*
X343217500Y-86042500D03*
D12*
X341987500Y-76962500D03*
X341332501Y-77692500D03*
D13*
X340677500Y-78422500D02*
X341987502Y-76962500D01*
D12*
X347027500Y-75882500D03*
X347007500Y-76172500D03*
D13*
X346987500Y-76462500D02*
X347027500Y-75882500D01*
D10*
X345757500Y-162242500D03*
D11*
X343217500Y-162242500D03*
D12*
X341987500Y-153162500D03*
X341332501Y-153892500D03*
D13*
X340677500Y-154622500D02*
X341987502Y-153162500D01*
D12*
X347027500Y-152082500D03*
X347007500Y-152372500D03*
D13*
X346987500Y-152662500D02*
X347027500Y-152082500D01*
D10*
X326707500Y-143192500D03*
D11*
X324167500Y-143192500D03*
D12*
X322937500Y-134112500D03*
X322282501Y-134842500D03*
D13*
X321627500Y-135572500D02*
X322937502Y-134112500D01*
D12*
X327977500Y-133032500D03*
X327957500Y-133322500D03*
D13*
X327937500Y-133612500D02*
X327977500Y-133032500D01*
D10*
X336232500Y-124142500D03*
D11*
X333692500Y-124142500D03*
D12*
X332462500Y-115062500D03*
X331807501Y-115792500D03*
D13*
X331152500Y-116522500D02*
X332462502Y-115062500D01*
D12*
X337502500Y-113982500D03*
X337482500Y-114272500D03*
D13*
X337462500Y-114562500D02*
X337502500Y-113982500D01*
D10*
X326707500Y-105092500D03*
D11*
X324167500Y-105092500D03*
D12*
X322937500Y-96012500D03*
X322282501Y-96742500D03*
D13*
X321627500Y-97472500D02*
X322937502Y-96012500D01*
D12*
X327977500Y-94932500D03*
X327957500Y-95222500D03*
D13*
X327937500Y-95512500D02*
X327977500Y-94932500D01*
D10*
X326707500Y-86042500D03*
D11*
X324167500Y-86042500D03*
D12*
X322937500Y-76962500D03*
X322282501Y-77692500D03*
D13*
X321627500Y-78422500D02*
X322937502Y-76962500D01*
D12*
X327977500Y-75882500D03*
X327957500Y-76172500D03*
D13*
X327937500Y-76462500D02*
X327977500Y-75882500D01*
D10*
X326707500Y-162242500D03*
D11*
X324167500Y-162242500D03*
D12*
X322937500Y-153162500D03*
X322282501Y-153892500D03*
D13*
X321627500Y-154622500D02*
X322937502Y-153162500D01*
D12*
X327977500Y-152082500D03*
X327957500Y-152372500D03*
D13*
X327937500Y-152662500D02*
X327977500Y-152082500D01*
D10*
X307657500Y-143192500D03*
D11*
X305117500Y-143192500D03*
D12*
X303887500Y-134112500D03*
X303232501Y-134842500D03*
D13*
X302577500Y-135572500D02*
X303887502Y-134112500D01*
D12*
X308927500Y-133032500D03*
X308907500Y-133322500D03*
D13*
X308887500Y-133612500D02*
X308927500Y-133032500D01*
D10*
X317182500Y-124142500D03*
D11*
X314642500Y-124142500D03*
D12*
X313412500Y-115062500D03*
X312757501Y-115792500D03*
D13*
X312102500Y-116522500D02*
X313412502Y-115062500D01*
D12*
X318452500Y-113982500D03*
X318432500Y-114272500D03*
D13*
X318412500Y-114562500D02*
X318452500Y-113982500D01*
D10*
X307657500Y-105092500D03*
D11*
X305117500Y-105092500D03*
D12*
X303887500Y-96012500D03*
X303232501Y-96742500D03*
D13*
X302577500Y-97472500D02*
X303887502Y-96012500D01*
D12*
X308927500Y-94932500D03*
X308907500Y-95222500D03*
D13*
X308887500Y-95512500D02*
X308927500Y-94932500D01*
D10*
X307657500Y-86042500D03*
D11*
X305117500Y-86042500D03*
D12*
X303887500Y-76962500D03*
X303232501Y-77692500D03*
D13*
X302577500Y-78422500D02*
X303887502Y-76962500D01*
D12*
X308927500Y-75882500D03*
X308907500Y-76172500D03*
D13*
X308887500Y-76462500D02*
X308927500Y-75882500D01*
D10*
X302895000Y-162242500D03*
D11*
X300355000Y-162242500D03*
D12*
X299125000Y-153162500D03*
X298470001Y-153892500D03*
D13*
X297815000Y-154622500D02*
X299125002Y-153162500D01*
D12*
X304165000Y-152082500D03*
X304145000Y-152372500D03*
D13*
X304125000Y-152662500D02*
X304165000Y-152082500D01*
D10*
X288607500Y-143192500D03*
D11*
X286067500Y-143192500D03*
D12*
X284837500Y-134112500D03*
X284182501Y-134842500D03*
D13*
X283527500Y-135572500D02*
X284837502Y-134112500D01*
D12*
X289877500Y-133032500D03*
X289857500Y-133322500D03*
D13*
X289837500Y-133612500D02*
X289877500Y-133032500D01*
D10*
X298132500Y-124142500D03*
D11*
X295592500Y-124142500D03*
D12*
X294362500Y-115062500D03*
X293707501Y-115792500D03*
D13*
X293052500Y-116522500D02*
X294362502Y-115062500D01*
D12*
X299402500Y-113982500D03*
X299382500Y-114272500D03*
D13*
X299362500Y-114562500D02*
X299402500Y-113982500D01*
D10*
X288607500Y-105092500D03*
D11*
X286067500Y-105092500D03*
D12*
X284837500Y-96012500D03*
X284182501Y-96742500D03*
D13*
X283527500Y-97472500D02*
X284837502Y-96012500D01*
D12*
X289877500Y-94932500D03*
X289857500Y-95222500D03*
D13*
X289837500Y-95512500D02*
X289877500Y-94932500D01*
D10*
X288607500Y-86042500D03*
D11*
X286067500Y-86042500D03*
D12*
X284837500Y-76962500D03*
X284182501Y-77692500D03*
D13*
X283527500Y-78422500D02*
X284837502Y-76962500D01*
D12*
X289877500Y-75882500D03*
X289857500Y-76172500D03*
D13*
X289837500Y-76462500D02*
X289877500Y-75882500D01*
D10*
X279082500Y-162242500D03*
D11*
X276542500Y-162242500D03*
D12*
X275312500Y-153162500D03*
X274657501Y-153892500D03*
D13*
X274002500Y-154622500D02*
X275312502Y-153162500D01*
D12*
X280352500Y-152082500D03*
X280332500Y-152372500D03*
D13*
X280312500Y-152662500D02*
X280352500Y-152082500D01*
D10*
X269557500Y-143192500D03*
D11*
X267017500Y-143192500D03*
D12*
X265787500Y-134112500D03*
X265132501Y-134842500D03*
D13*
X264477500Y-135572500D02*
X265787502Y-134112500D01*
D12*
X270827500Y-133032500D03*
X270807500Y-133322500D03*
D13*
X270787500Y-133612500D02*
X270827500Y-133032500D01*
D10*
X279082500Y-124142500D03*
D11*
X276542500Y-124142500D03*
D12*
X275312500Y-115062500D03*
X274657501Y-115792500D03*
D13*
X274002500Y-116522500D02*
X275312502Y-115062500D01*
D12*
X280352500Y-113982500D03*
X280332500Y-114272500D03*
D13*
X280312500Y-114562500D02*
X280352500Y-113982500D01*
D10*
X269557500Y-105092500D03*
D11*
X267017500Y-105092500D03*
D12*
X265787500Y-96012500D03*
X265132501Y-96742500D03*
D13*
X264477500Y-97472500D02*
X265787502Y-96012500D01*
D12*
X270827500Y-94932500D03*
X270807500Y-95222500D03*
D13*
X270787500Y-95512500D02*
X270827500Y-94932500D01*
D10*
X269557500Y-86042500D03*
D11*
X267017500Y-86042500D03*
D12*
X265787500Y-76962500D03*
X265132501Y-77692500D03*
D13*
X264477500Y-78422500D02*
X265787502Y-76962500D01*
D12*
X270827500Y-75882500D03*
X270807500Y-76172500D03*
D13*
X270787500Y-76462500D02*
X270827500Y-75882500D01*
D10*
X255270000Y-162242500D03*
D11*
X252730000Y-162242500D03*
D12*
X251500000Y-153162500D03*
X250845001Y-153892500D03*
D13*
X250190000Y-154622500D02*
X251500002Y-153162500D01*
D12*
X256540000Y-152082500D03*
X256520000Y-152372500D03*
D13*
X256500000Y-152662500D02*
X256540000Y-152082500D01*
D10*
X250507500Y-143192500D03*
D11*
X247967500Y-143192500D03*
D12*
X246737500Y-134112500D03*
X246082501Y-134842500D03*
D13*
X245427500Y-135572500D02*
X246737502Y-134112500D01*
D12*
X251777500Y-133032500D03*
X251757500Y-133322500D03*
D13*
X251737500Y-133612500D02*
X251777500Y-133032500D01*
D10*
X260032500Y-124142500D03*
D11*
X257492500Y-124142500D03*
D12*
X256262500Y-115062500D03*
X255607501Y-115792500D03*
D13*
X254952500Y-116522500D02*
X256262502Y-115062500D01*
D12*
X261302500Y-113982500D03*
X261282500Y-114272500D03*
D13*
X261262500Y-114562500D02*
X261302500Y-113982500D01*
D10*
X250507500Y-105092500D03*
D11*
X247967500Y-105092500D03*
D12*
X246737500Y-96012500D03*
X246082501Y-96742500D03*
D13*
X245427500Y-97472500D02*
X246737502Y-96012500D01*
D12*
X251777500Y-94932500D03*
X251757500Y-95222500D03*
D13*
X251737500Y-95512500D02*
X251777500Y-94932500D01*
D10*
X250507500Y-86042500D03*
D11*
X247967500Y-86042500D03*
D12*
X246737500Y-76962500D03*
X246082501Y-77692500D03*
D13*
X245427500Y-78422500D02*
X246737502Y-76962500D01*
D12*
X251777500Y-75882500D03*
X251757500Y-76172500D03*
D13*
X251737500Y-76462500D02*
X251777500Y-75882500D01*
D10*
X231457500Y-162242500D03*
D11*
X228917500Y-162242500D03*
D12*
X227687500Y-153162500D03*
X227032501Y-153892500D03*
D13*
X226377500Y-154622500D02*
X227687502Y-153162500D01*
D12*
X232727500Y-152082500D03*
X232707500Y-152372500D03*
D13*
X232687500Y-152662500D02*
X232727500Y-152082500D01*
D10*
X231457500Y-143192500D03*
D11*
X228917500Y-143192500D03*
D12*
X227687500Y-134112500D03*
X227032501Y-134842500D03*
D13*
X226377500Y-135572500D02*
X227687502Y-134112500D01*
D12*
X232727500Y-133032500D03*
X232707500Y-133322500D03*
D13*
X232687500Y-133612500D02*
X232727500Y-133032500D01*
D10*
X240982500Y-124142500D03*
D11*
X238442500Y-124142500D03*
D12*
X237212500Y-115062500D03*
X236557501Y-115792500D03*
D13*
X235902500Y-116522500D02*
X237212502Y-115062500D01*
D12*
X242252500Y-113982500D03*
X242232500Y-114272500D03*
D13*
X242212500Y-114562500D02*
X242252500Y-113982500D01*
D10*
X231457500Y-105092500D03*
D11*
X228917500Y-105092500D03*
D12*
X227687500Y-96012500D03*
X227032501Y-96742500D03*
D13*
X226377500Y-97472500D02*
X227687502Y-96012500D01*
D12*
X232727500Y-94932500D03*
X232707500Y-95222500D03*
D13*
X232687500Y-95512500D02*
X232727500Y-94932500D01*
D10*
X231457500Y-86042500D03*
D11*
X228917500Y-86042500D03*
D12*
X227687500Y-76962500D03*
X227032501Y-77692500D03*
D13*
X226377500Y-78422500D02*
X227687502Y-76962500D01*
D12*
X232727500Y-75882500D03*
X232707500Y-76172500D03*
D13*
X232687500Y-76462500D02*
X232727500Y-75882500D01*
D10*
X212407500Y-162242500D03*
D11*
X209867500Y-162242500D03*
D12*
X208637500Y-153162500D03*
X207982501Y-153892500D03*
D13*
X207327500Y-154622500D02*
X208637502Y-153162500D01*
D12*
X213677500Y-152082500D03*
X213657500Y-152372500D03*
D13*
X213637500Y-152662500D02*
X213677500Y-152082500D01*
D10*
X212407500Y-143192500D03*
D11*
X209867500Y-143192500D03*
D12*
X208637500Y-134112500D03*
X207982501Y-134842500D03*
D13*
X207327500Y-135572500D02*
X208637502Y-134112500D01*
D12*
X213677500Y-133032500D03*
X213657500Y-133322500D03*
D13*
X213637500Y-133612500D02*
X213677500Y-133032500D01*
D10*
X221932500Y-124142500D03*
D11*
X219392500Y-124142500D03*
D12*
X218162500Y-115062500D03*
X217507501Y-115792500D03*
D13*
X216852500Y-116522500D02*
X218162502Y-115062500D01*
D12*
X223202500Y-113982500D03*
X223182500Y-114272500D03*
D13*
X223162500Y-114562500D02*
X223202500Y-113982500D01*
D10*
X193357500Y-162242500D03*
D11*
X190817500Y-162242500D03*
D12*
X189587500Y-153162500D03*
X188932501Y-153892500D03*
D13*
X188277500Y-154622500D02*
X189587502Y-153162500D01*
D12*
X194627500Y-152082500D03*
X194607500Y-152372500D03*
D13*
X194587500Y-152662500D02*
X194627500Y-152082500D01*
D10*
X193357500Y-143192500D03*
D11*
X190817500Y-143192500D03*
D12*
X189587500Y-134112500D03*
X188932501Y-134842500D03*
D13*
X188277500Y-135572500D02*
X189587502Y-134112500D01*
D12*
X194627500Y-133032500D03*
X194607500Y-133322500D03*
D13*
X194587500Y-133612500D02*
X194627500Y-133032500D01*
D10*
X202882500Y-124142500D03*
D11*
X200342500Y-124142500D03*
D12*
X199112500Y-115062500D03*
X198457501Y-115792500D03*
D13*
X197802500Y-116522500D02*
X199112502Y-115062500D01*
D12*
X204152500Y-113982500D03*
X204132500Y-114272500D03*
D13*
X204112500Y-114562500D02*
X204152500Y-113982500D01*
D14*
X371252750Y-176086750D03*
X371252750Y-183386750D03*
X366752750Y-183386750D03*
X366752750Y-176086750D03*
D12*
X213657500Y-95222500D03*
D13*
X213637500Y-95512500D02*
X213677500Y-94932500D01*
D12*
X213677500Y-94932500D03*
X207982501Y-96742500D03*
D13*
X207327500Y-97472500D02*
X208637502Y-96012500D01*
D12*
X208637500Y-96012500D03*
D11*
X209867500Y-105092500D03*
D10*
X212407500Y-105092500D03*
D12*
X213657500Y-76172500D03*
D13*
X213637500Y-76462500D02*
X213677500Y-75882500D01*
D12*
X213677500Y-75882500D03*
X207982501Y-77692500D03*
D13*
X207327500Y-78422500D02*
X208637502Y-76962500D01*
D12*
X208637500Y-76962500D03*
D11*
X209867500Y-86042500D03*
D10*
X212407500Y-86042500D03*
D12*
X194607500Y-95222500D03*
D13*
X194587500Y-95512500D02*
X194627500Y-94932500D01*
D12*
X194627500Y-94932500D03*
X188932501Y-96742500D03*
D13*
X188277500Y-97472500D02*
X189587502Y-96012500D01*
D12*
X189587500Y-96012500D03*
D11*
X190817500Y-105092500D03*
D10*
X193357500Y-105092500D03*
D15*
X343287250Y-198479750D03*
X363759750Y-185705750D03*
X363759750Y-182403750D03*
X338867750Y-177958750D03*
X350297750Y-184181750D03*
X345614250Y-197008750D03*
X340772750Y-197008750D03*
X336708750Y-197135750D03*
X349916750Y-194849750D03*
X349916750Y-182403750D03*
X352837750Y-181514750D03*
X351186750Y-182784750D03*
X351383324Y-197332324D03*
X350743877Y-186897217D03*
X360426000Y-178816000D03*
X360426000Y-171577000D03*
X358140000Y-169291000D03*
X363220000Y-164338000D03*
X371475000Y-88138000D03*
X351285250Y-187738001D03*
X354023043Y-188319921D03*
X353950532Y-183745468D03*
X354619939Y-180848000D03*
X364637367Y-163977367D03*
X371221000Y-105029000D03*
X188214000Y-167513000D03*
X207518000Y-167386000D03*
X359949750Y-186086750D03*
X359949750Y-179990750D03*
X344823750Y-196218250D03*
X347884750Y-196218250D03*
X349535750Y-196881750D03*
X352015823Y-198106888D03*
X358933750Y-186086750D03*
X358933750Y-181768750D03*
X351285250Y-188738004D03*
X352866250Y-188756948D03*
X354781000Y-184772775D03*
X355346939Y-181736061D03*
X367434900Y-161821900D03*
X364871000Y-120777000D03*
X351282000Y-189738000D03*
X353060000Y-189738000D03*
X355508000Y-185713479D03*
X356384593Y-181768751D03*
X368173000Y-160909000D03*
X371221000Y-143637000D03*
X351285250Y-190754000D03*
X353060000Y-190754000D03*
X356235000Y-184785000D03*
X357505000Y-181737000D03*
X226822000Y-167259000D03*
X250317000Y-167259000D03*
X274447000Y-167386000D03*
X340360000Y-180975000D03*
X305943000Y-168656000D03*
X336680049Y-177120911D03*
X324231000Y-168275000D03*
X341122000Y-160528000D03*
X354330000Y-160782000D03*
X355219000Y-157480000D03*
X356362000Y-160210401D03*
X355346000Y-153924000D03*
D16*
X363759750Y-185705750D02*
X363759750Y-182403750D01*
X338867750Y-177958750D02*
X349916750Y-177958750D01*
X349916750Y-183800750D02*
X350297750Y-184181750D01*
X349916750Y-183800750D02*
X349916750Y-194849750D01*
X349916750Y-194849750D02*
X349916750Y-195357750D01*
X349916750Y-195357750D02*
X348265750Y-197008750D01*
X346614750Y-197008750D02*
X345614250Y-197008750D01*
X348265750Y-197008750D02*
X346614750Y-197008750D01*
X336835750Y-197008750D02*
X336708750Y-197135750D01*
X341915750Y-197008750D02*
X336835750Y-197008750D01*
X341915750Y-197008750D02*
X340772750Y-197008750D01*
X346614750Y-197008750D02*
X341915750Y-197008750D01*
X349916750Y-177958750D02*
X349916750Y-182403750D01*
X349916750Y-182403750D02*
X349916750Y-183800750D01*
X352837750Y-181514750D02*
X352456750Y-181514750D01*
X352456750Y-181514750D02*
X351186750Y-182784750D01*
X349916750Y-195357750D02*
X349916750Y-195865750D01*
X350983325Y-196932325D02*
X351383324Y-197332324D01*
X349916750Y-195865750D02*
X350983325Y-196932325D01*
D17*
X360676751Y-179066751D02*
X360426000Y-178816000D01*
X360676751Y-186435711D02*
X360676751Y-179066751D01*
X350743877Y-186897217D02*
X360215245Y-186897217D01*
X360215245Y-186897217D02*
X360676751Y-186435711D01*
X360426000Y-171577000D02*
X360026001Y-171177001D01*
X360026001Y-171177001D02*
X358140000Y-169291000D01*
X371475000Y-100918602D02*
X371475000Y-88138000D01*
X363593399Y-134373601D02*
X363593399Y-108800203D01*
X360362500Y-137604500D02*
X363593399Y-134373601D01*
X360362500Y-143181162D02*
X360362500Y-137604500D01*
X362469338Y-164338000D02*
X360987999Y-162856661D01*
X363220000Y-164338000D02*
X362469338Y-164338000D01*
X360987999Y-162856661D02*
X360987999Y-156277067D01*
X360987999Y-156277067D02*
X362881661Y-154383405D01*
X363593399Y-108800203D02*
X371475000Y-100918602D01*
X362881661Y-154383405D02*
X362881661Y-145700323D01*
X362881661Y-145700323D02*
X360362500Y-143181162D01*
X351285250Y-187738001D02*
X353441123Y-187738001D01*
X353441123Y-187738001D02*
X354023043Y-188319921D01*
X353950532Y-183745468D02*
X353950532Y-181517407D01*
X353950532Y-181517407D02*
X354619939Y-180848000D01*
X372183010Y-105991010D02*
X371221000Y-105029000D01*
X372183010Y-158149752D02*
X372183010Y-105991010D01*
X364637367Y-163977367D02*
X366355395Y-163977367D01*
X366355395Y-163977367D02*
X372183010Y-158149752D01*
X188277500Y-154622500D02*
X188214000Y-154686000D01*
X188214000Y-154686000D02*
X188214000Y-166947315D01*
X188214000Y-166947315D02*
X188214000Y-167513000D01*
X207327500Y-94702500D02*
X208637500Y-96012500D01*
X207327500Y-78422500D02*
X207327500Y-94702500D01*
X216852500Y-115343490D02*
X216852500Y-116522500D01*
X207327500Y-105818490D02*
X216852500Y-115343490D01*
X207327500Y-97472500D02*
X207327500Y-105818490D01*
X216852500Y-125897500D02*
X208637500Y-134112500D01*
X216852500Y-116522500D02*
X216852500Y-125897500D01*
X207327500Y-151852500D02*
X208637500Y-153162500D01*
X207327500Y-135572500D02*
X207327500Y-151852500D01*
X207327500Y-154622500D02*
X207518000Y-154813000D01*
X207518000Y-166820315D02*
X207518000Y-167386000D01*
X207518000Y-154813000D02*
X207518000Y-166820315D01*
X359949750Y-186086750D02*
X359949750Y-179990750D01*
X344823750Y-196218250D02*
X347884750Y-196218250D01*
X349535750Y-196881750D02*
X350760888Y-198106888D01*
X350760888Y-198106888D02*
X352015823Y-198106888D01*
X358933750Y-186086750D02*
X358933750Y-181768750D01*
X351285250Y-188738004D02*
X352847306Y-188738004D01*
X352847306Y-188738004D02*
X352866250Y-188756948D01*
X354781000Y-184772775D02*
X354781000Y-182302000D01*
X354781000Y-182302000D02*
X355346939Y-181736061D01*
X367529501Y-123435501D02*
X364871000Y-120777000D01*
X367529501Y-137421537D02*
X367529501Y-123435501D01*
X367415499Y-137535539D02*
X367529501Y-137421537D01*
X367034901Y-161421901D02*
X367034901Y-156966137D01*
X367434900Y-161821900D02*
X367034901Y-161421901D01*
X367034901Y-156966137D02*
X367529501Y-156471537D01*
X367529501Y-156471537D02*
X367529501Y-138803463D01*
X367529501Y-138803463D02*
X367415499Y-138689461D01*
X367415499Y-138689461D02*
X367415499Y-137535539D01*
X351282000Y-189738000D02*
X353060000Y-189738000D01*
X355508000Y-185713479D02*
X355508000Y-182645344D01*
X355508000Y-182645344D02*
X356384593Y-181768751D01*
X371729000Y-144145000D02*
X371221000Y-143637000D01*
X368173000Y-160909000D02*
X371729000Y-157353000D01*
X371729000Y-157353000D02*
X371729000Y-144145000D01*
X351285250Y-190754000D02*
X353060000Y-190754000D01*
X356235000Y-184785000D02*
X356235000Y-183007000D01*
X356235000Y-183007000D02*
X357505000Y-181737000D01*
X227687500Y-94421510D02*
X227687500Y-96012500D01*
X227637999Y-94372009D02*
X227687500Y-94421510D01*
X227637999Y-79682999D02*
X227637999Y-94372009D01*
X226377500Y-78422500D02*
X227637999Y-79682999D01*
X237212500Y-113471510D02*
X237212500Y-115062500D01*
X237212500Y-108353898D02*
X237212500Y-113471510D01*
X232671601Y-103812999D02*
X237212500Y-108353898D01*
X229531661Y-103812999D02*
X232671601Y-103812999D01*
X226377500Y-100658838D02*
X229531661Y-103812999D01*
X226377500Y-97472500D02*
X226377500Y-100658838D01*
X226377500Y-135422500D02*
X226377500Y-135572500D01*
X235902500Y-125897500D02*
X226377500Y-135422500D01*
X235902500Y-116522500D02*
X235902500Y-125897500D01*
X228812499Y-152037501D02*
X227687500Y-153162500D01*
X232737001Y-148112999D02*
X228812499Y-152037501D01*
X232737001Y-137227067D02*
X232737001Y-148112999D01*
X231301533Y-135791599D02*
X232737001Y-137227067D01*
X226596599Y-135791599D02*
X231301533Y-135791599D01*
X226377500Y-135572500D02*
X226596599Y-135791599D01*
X226822000Y-155067000D02*
X226822000Y-166693315D01*
X226822000Y-166693315D02*
X226822000Y-167259000D01*
X226377500Y-154622500D02*
X226822000Y-155067000D01*
X246737500Y-94421510D02*
X246737500Y-96012500D01*
X246687999Y-94372009D02*
X246737500Y-94421510D01*
X246687999Y-79682999D02*
X246687999Y-94372009D01*
X245427500Y-78422500D02*
X246687999Y-79682999D01*
X254671510Y-115062500D02*
X256262500Y-115062500D01*
X245427500Y-105818490D02*
X254671510Y-115062500D01*
X245427500Y-97472500D02*
X245427500Y-105818490D01*
X254952500Y-125897500D02*
X246737500Y-134112500D01*
X254952500Y-116522500D02*
X254952500Y-125897500D01*
X245427500Y-147090000D02*
X251500000Y-153162500D01*
X245427500Y-135572500D02*
X245427500Y-147090000D01*
X250190000Y-154622500D02*
X250317000Y-154749500D01*
X250317000Y-154749500D02*
X250317000Y-166693315D01*
X250317000Y-166693315D02*
X250317000Y-167259000D01*
X264477500Y-94702500D02*
X265787500Y-96012500D01*
X264477500Y-78422500D02*
X264477500Y-94702500D01*
X273721510Y-115062500D02*
X275312500Y-115062500D01*
X264477500Y-105818490D02*
X273721510Y-115062500D01*
X264477500Y-97472500D02*
X264477500Y-105818490D01*
X265787500Y-132521510D02*
X265787500Y-134112500D01*
X265787500Y-124228538D02*
X265787500Y-132521510D01*
X272155539Y-117860499D02*
X265787500Y-124228538D01*
X273045501Y-117860499D02*
X272155539Y-117860499D01*
X274002500Y-116903500D02*
X273045501Y-117860499D01*
X274002500Y-116522500D02*
X274002500Y-116903500D01*
X264409501Y-145029501D02*
X274002500Y-154622500D01*
X264409501Y-135640499D02*
X264409501Y-145029501D01*
X264477500Y-135572500D02*
X264409501Y-135640499D01*
X274002500Y-154622500D02*
X274002500Y-166941500D01*
X274047001Y-166986001D02*
X274447000Y-167386000D01*
X274002500Y-166941500D02*
X274047001Y-166986001D01*
X284787999Y-96212001D02*
X283527500Y-97472500D01*
X284787999Y-79682999D02*
X284787999Y-96212001D01*
X283527500Y-78422500D02*
X284787999Y-79682999D01*
X293052500Y-115343490D02*
X293052500Y-116522500D01*
X283527500Y-105818490D02*
X293052500Y-115343490D01*
X283527500Y-97472500D02*
X283527500Y-105818490D01*
X283527500Y-135422500D02*
X283527500Y-135572500D01*
X293052500Y-125897500D02*
X283527500Y-135422500D01*
X293052500Y-116522500D02*
X293052500Y-125897500D01*
X295603838Y-154622500D02*
X297815000Y-154622500D01*
X283527500Y-142546162D02*
X295603838Y-154622500D01*
X283527500Y-135572500D02*
X283527500Y-142546162D01*
X305054000Y-167767000D02*
X305543001Y-168256001D01*
X299125000Y-153162500D02*
X301879500Y-153162500D01*
X305054000Y-156337000D02*
X305054000Y-167767000D01*
X301879500Y-153162500D02*
X305054000Y-156337000D01*
X305543001Y-168256001D02*
X305943000Y-168656000D01*
X340360000Y-180975000D02*
X336680049Y-177295049D01*
X336680049Y-177295049D02*
X336680049Y-177120911D01*
X302577500Y-78422500D02*
X302577500Y-97472500D01*
X311821510Y-115062500D02*
X313412500Y-115062500D01*
X303837999Y-107078989D02*
X311821510Y-115062500D01*
X303837999Y-104701999D02*
X303837999Y-107078989D01*
X302577500Y-103441500D02*
X303837999Y-104701999D01*
X302577500Y-97472500D02*
X302577500Y-103441500D01*
X305012499Y-132987501D02*
X303887500Y-134112500D01*
X312034501Y-125965499D02*
X305012499Y-132987501D01*
X312034501Y-116590499D02*
X312034501Y-125965499D01*
X312102500Y-116522500D02*
X312034501Y-116590499D01*
X321812501Y-152037501D02*
X322937500Y-153162500D01*
X311687999Y-141912999D02*
X321812501Y-152037501D01*
X306123999Y-141912999D02*
X311687999Y-141912999D01*
X302577500Y-138366500D02*
X306123999Y-141912999D01*
X302577500Y-135572500D02*
X302577500Y-138366500D01*
X321627500Y-165671500D02*
X323831001Y-167875001D01*
X323831001Y-167875001D02*
X324231000Y-168275000D01*
X321627500Y-154622500D02*
X321627500Y-165671500D01*
X321627500Y-94702500D02*
X322937500Y-96012500D01*
X321627500Y-78422500D02*
X321627500Y-94702500D01*
X331152500Y-107043898D02*
X331152500Y-116522500D01*
X327921601Y-103812999D02*
X331152500Y-107043898D01*
X324781661Y-103812999D02*
X327921601Y-103812999D01*
X321627500Y-100658838D02*
X324781661Y-103812999D01*
X321627500Y-97472500D02*
X321627500Y-100658838D01*
X321627500Y-125538538D02*
X321627500Y-135572500D01*
X329305539Y-117860499D02*
X321627500Y-125538538D01*
X330195501Y-117860499D02*
X329305539Y-117860499D01*
X331152500Y-116903500D02*
X330195501Y-117860499D01*
X331152500Y-116522500D02*
X331152500Y-116903500D01*
X340862501Y-152037501D02*
X341987500Y-153162500D01*
X327758401Y-138933401D02*
X340862501Y-152037501D01*
X327758401Y-136998467D02*
X327758401Y-138933401D01*
X326332434Y-135572500D02*
X327758401Y-136998467D01*
X321627500Y-135572500D02*
X326332434Y-135572500D01*
X341122000Y-155067000D02*
X340677500Y-154622500D01*
X341122000Y-160528000D02*
X341122000Y-155067000D01*
X340677500Y-94702500D02*
X341987500Y-96012500D01*
X340677500Y-78422500D02*
X340677500Y-94702500D01*
X349921510Y-115062500D02*
X351512500Y-115062500D01*
X340677500Y-105818490D02*
X349921510Y-115062500D01*
X340677500Y-97472500D02*
X340677500Y-105818490D01*
X340677500Y-125538538D02*
X340677500Y-135572500D01*
X349693538Y-116522500D02*
X340677500Y-125538538D01*
X350202500Y-116522500D02*
X349693538Y-116522500D01*
X361037500Y-151571510D02*
X361037500Y-153162500D01*
X361037500Y-151361462D02*
X361037500Y-151571510D01*
X345248538Y-135572500D02*
X361037500Y-151361462D01*
X340677500Y-135572500D02*
X345248538Y-135572500D01*
X354330000Y-160782000D02*
X355219000Y-159893000D01*
X355219000Y-159893000D02*
X355219000Y-157480000D01*
X359727500Y-94702500D02*
X361037500Y-96012500D01*
X359727500Y-78422500D02*
X359727500Y-94702500D01*
X361037500Y-132521510D02*
X361037500Y-134112500D01*
X360987999Y-132472009D02*
X361037500Y-132521510D01*
X360987999Y-100764999D02*
X360987999Y-132472009D01*
X359727500Y-99504500D02*
X360987999Y-100764999D01*
X359727500Y-97472500D02*
X359727500Y-99504500D01*
X356362000Y-160210401D02*
X356362000Y-154940000D01*
X356362000Y-154940000D02*
X355346000Y-153924000D01*
M02*
