G04 #@! TF.GenerationSoftware,KiCad,Pcbnew,(5.1.4)-1*
G04 #@! TF.CreationDate,2024-11-15T09:26:30-07:00*
G04 #@! TF.ProjectId,kicadNEWXboard,6b696361-644e-4455-9758-626f6172642e,rev?*
G04 #@! TF.SameCoordinates,Original*
G04 #@! TF.FileFunction,Legend,Top*
G04 #@! TF.FilePolarity,Positive*
%FSLAX46Y46*%
G04 Gerber Fmt 4.6, Leading zero omitted, Abs format (unit mm)*
G04 Created by KiCad (PCBNEW (5.1.4)-1) date 2024-11-15 09:26:30*
%MOMM*%
%LPD*%
G04 APERTURE LIST*
%ADD10C,0.375000*%
%ADD11C,1.852000*%
%ADD12C,4.089800*%
%ADD13O,1.802000X2.802000*%
G04 APERTURE END LIST*
D10*
X33740178Y-70766071D02*
X33897321Y-71051785D01*
X34211607Y-71051785D01*
X34368750Y-70766071D01*
X34447321Y-70194642D01*
X34447321Y-69908928D01*
X34368750Y-69337500D01*
X34211607Y-69051785D01*
X33975892Y-69051785D01*
X33818750Y-68766071D01*
X33740178Y-68194642D01*
X33740178Y-67908928D01*
X33818750Y-67337500D01*
X33975892Y-67051785D01*
X34211607Y-67051785D01*
X34368750Y-67337500D01*
X35390178Y-71051785D02*
X35233035Y-70766071D01*
X35154464Y-70480357D01*
X35075892Y-69908928D01*
X35075892Y-68194642D01*
X35154464Y-67623214D01*
X35233035Y-67337500D01*
X35390178Y-67051785D01*
X35625892Y-67051785D01*
X35783035Y-67337500D01*
X35861607Y-67623214D01*
X35940178Y-68194642D01*
X35940178Y-69908928D01*
X35861607Y-70480357D01*
X35783035Y-70766071D01*
X35625892Y-71051785D01*
X35390178Y-71051785D01*
X38533035Y-70766071D02*
X38375892Y-71051785D01*
X38061607Y-71051785D01*
X37904464Y-70766071D01*
X37825892Y-70194642D01*
X37825892Y-67908928D01*
X37904464Y-67337500D01*
X38061607Y-67051785D01*
X38375892Y-67051785D01*
X38533035Y-67337500D01*
X38611607Y-67908928D01*
X38611607Y-68480357D01*
X37825892Y-69051785D01*
X39318750Y-67051785D02*
X39318750Y-73051785D01*
X39318750Y-67337500D02*
X39475892Y-67051785D01*
X39790178Y-67051785D01*
X39947321Y-67337500D01*
X40025892Y-67623214D01*
X40104464Y-68194642D01*
X40104464Y-69908928D01*
X40025892Y-70480357D01*
X39947321Y-70766071D01*
X39790178Y-71051785D01*
X39475892Y-71051785D01*
X39318750Y-70766071D01*
X40811607Y-71051785D02*
X40811607Y-67051785D01*
X40811607Y-65051785D02*
X40733035Y-65337500D01*
X40811607Y-65623214D01*
X40890178Y-65337500D01*
X40811607Y-65051785D01*
X40811607Y-65623214D01*
X42304464Y-70766071D02*
X42147321Y-71051785D01*
X41833035Y-71051785D01*
X41675892Y-70766071D01*
X41597321Y-70480357D01*
X41518750Y-69908928D01*
X41518750Y-68194642D01*
X41597321Y-67623214D01*
X41675892Y-67337500D01*
X41833035Y-67051785D01*
X42147321Y-67051785D01*
X42304464Y-67337500D01*
X37511607Y-80426785D02*
X37511607Y-74426785D01*
X37511607Y-76712500D02*
X37668750Y-76426785D01*
X37983035Y-76426785D01*
X38140178Y-76712500D01*
X38218750Y-76998214D01*
X38297321Y-77569642D01*
X38297321Y-79283928D01*
X38218750Y-79855357D01*
X38140178Y-80141071D01*
X37983035Y-80426785D01*
X37668750Y-80426785D01*
X37511607Y-80141071D01*
X39004464Y-80426785D02*
X39004464Y-76426785D01*
X39004464Y-77569642D02*
X39083035Y-76998214D01*
X39161607Y-76712500D01*
X39318750Y-76426785D01*
X39475892Y-76426785D01*
X40733035Y-80426785D02*
X40733035Y-77283928D01*
X40654464Y-76712500D01*
X40497321Y-76426785D01*
X40183035Y-76426785D01*
X40025892Y-76712500D01*
X40733035Y-80141071D02*
X40575892Y-80426785D01*
X40183035Y-80426785D01*
X40025892Y-80141071D01*
X39947321Y-79569642D01*
X39947321Y-78998214D01*
X40025892Y-78426785D01*
X40183035Y-78141071D01*
X40575892Y-78141071D01*
X40733035Y-77855357D01*
X41518750Y-80426785D02*
X41518750Y-74426785D01*
X42225892Y-80426785D02*
X42225892Y-77283928D01*
X42147321Y-76712500D01*
X41990178Y-76426785D01*
X41754464Y-76426785D01*
X41597321Y-76712500D01*
X41518750Y-76998214D01*
%LPC*%
D11*
X220980000Y-92868750D03*
X210820000Y-92868750D03*
D12*
X215900000Y-92868750D03*
D11*
X49530000Y-35718750D03*
X39370000Y-35718750D03*
D12*
X44450000Y-35718750D03*
D11*
X220980000Y-54768750D03*
X210820000Y-54768750D03*
D12*
X215900000Y-54768750D03*
D11*
X220980000Y-35718750D03*
X210820000Y-35718750D03*
D12*
X215900000Y-35718750D03*
D11*
X220980000Y-111918750D03*
X210820000Y-111918750D03*
D12*
X215900000Y-111918750D03*
D11*
X201930000Y-92868750D03*
X191770000Y-92868750D03*
D12*
X196850000Y-92868750D03*
D11*
X211455000Y-73818750D03*
X201295000Y-73818750D03*
D12*
X206375000Y-73818750D03*
D11*
X201930000Y-54768750D03*
X191770000Y-54768750D03*
D12*
X196850000Y-54768750D03*
D11*
X201930000Y-35718750D03*
X191770000Y-35718750D03*
D12*
X196850000Y-35718750D03*
D11*
X201930000Y-111918750D03*
X191770000Y-111918750D03*
D12*
X196850000Y-111918750D03*
D11*
X182880000Y-92868750D03*
X172720000Y-92868750D03*
D12*
X177800000Y-92868750D03*
D11*
X192405000Y-73818750D03*
X182245000Y-73818750D03*
D12*
X187325000Y-73818750D03*
D11*
X182880000Y-54768750D03*
X172720000Y-54768750D03*
D12*
X177800000Y-54768750D03*
D11*
X182880000Y-35718750D03*
X172720000Y-35718750D03*
D12*
X177800000Y-35718750D03*
D11*
X182880000Y-111918750D03*
X172720000Y-111918750D03*
D12*
X177800000Y-111918750D03*
D11*
X163830000Y-92868750D03*
X153670000Y-92868750D03*
D12*
X158750000Y-92868750D03*
D11*
X173355000Y-73818750D03*
X163195000Y-73818750D03*
D12*
X168275000Y-73818750D03*
D11*
X163830000Y-54768750D03*
X153670000Y-54768750D03*
D12*
X158750000Y-54768750D03*
D11*
X163830000Y-35718750D03*
X153670000Y-35718750D03*
D12*
X158750000Y-35718750D03*
D11*
X159067500Y-111918750D03*
X148907500Y-111918750D03*
D12*
X153987500Y-111918750D03*
D11*
X144780000Y-92868750D03*
X134620000Y-92868750D03*
D12*
X139700000Y-92868750D03*
D11*
X154305000Y-73818750D03*
X144145000Y-73818750D03*
D12*
X149225000Y-73818750D03*
D11*
X144780000Y-54768750D03*
X134620000Y-54768750D03*
D12*
X139700000Y-54768750D03*
D11*
X144780000Y-35718750D03*
X134620000Y-35718750D03*
D12*
X139700000Y-35718750D03*
D11*
X135255000Y-111918750D03*
X125095000Y-111918750D03*
D12*
X130175000Y-111918750D03*
D11*
X125730000Y-92868750D03*
X115570000Y-92868750D03*
D12*
X120650000Y-92868750D03*
D11*
X135255000Y-73818750D03*
X125095000Y-73818750D03*
D12*
X130175000Y-73818750D03*
D11*
X125730000Y-54768750D03*
X115570000Y-54768750D03*
D12*
X120650000Y-54768750D03*
D11*
X125730000Y-35718750D03*
X115570000Y-35718750D03*
D12*
X120650000Y-35718750D03*
D11*
X111442500Y-111918750D03*
X101282500Y-111918750D03*
D12*
X106362500Y-111918750D03*
D11*
X106680000Y-92868750D03*
X96520000Y-92868750D03*
D12*
X101600000Y-92868750D03*
D11*
X116205000Y-73818750D03*
X106045000Y-73818750D03*
D12*
X111125000Y-73818750D03*
D11*
X106680000Y-54768750D03*
X96520000Y-54768750D03*
D12*
X101600000Y-54768750D03*
D11*
X106680000Y-35718750D03*
X96520000Y-35718750D03*
D12*
X101600000Y-35718750D03*
D11*
X87630000Y-111918750D03*
X77470000Y-111918750D03*
D12*
X82550000Y-111918750D03*
D11*
X87630000Y-92868750D03*
X77470000Y-92868750D03*
D12*
X82550000Y-92868750D03*
D11*
X97155000Y-73818750D03*
X86995000Y-73818750D03*
D12*
X92075000Y-73818750D03*
D11*
X87630000Y-54768750D03*
X77470000Y-54768750D03*
D12*
X82550000Y-54768750D03*
D11*
X87630000Y-35718750D03*
X77470000Y-35718750D03*
D12*
X82550000Y-35718750D03*
D11*
X68580000Y-111918750D03*
X58420000Y-111918750D03*
D12*
X63500000Y-111918750D03*
D11*
X68580000Y-92868750D03*
X58420000Y-92868750D03*
D12*
X63500000Y-92868750D03*
D11*
X78105000Y-73818750D03*
X67945000Y-73818750D03*
D12*
X73025000Y-73818750D03*
D11*
X49530000Y-111918750D03*
X39370000Y-111918750D03*
D12*
X44450000Y-111918750D03*
D11*
X49530000Y-92868750D03*
X39370000Y-92868750D03*
D12*
X44450000Y-92868750D03*
D11*
X59055000Y-73818750D03*
X48895000Y-73818750D03*
D12*
X53975000Y-73818750D03*
D11*
X68580000Y-54768750D03*
X58420000Y-54768750D03*
D12*
X63500000Y-54768750D03*
D11*
X68580000Y-35718750D03*
X58420000Y-35718750D03*
D12*
X63500000Y-35718750D03*
D11*
X49530000Y-54768750D03*
X39370000Y-54768750D03*
D12*
X44450000Y-54768750D03*
D13*
X228252000Y-32440000D03*
X235552000Y-32440000D03*
X235552000Y-27940000D03*
X228252000Y-27940000D03*
M02*
