G04 #@! TF.GenerationSoftware,KiCad,Pcbnew,(5.1.4)-1*
G04 #@! TF.CreationDate,2024-11-14T09:52:14-07:00*
G04 #@! TF.ProjectId,kicadNEWXboard,6b696361-644e-4455-9758-626f6172642e,rev?*
G04 #@! TF.SameCoordinates,Original*
G04 #@! TF.FileFunction,Legend,Bot*
G04 #@! TF.FilePolarity,Positive*
%FSLAX46Y46*%
G04 Gerber Fmt 4.6, Leading zero omitted, Abs format (unit mm)*
G04 Created by KiCad (PCBNEW (5.1.4)-1) date 2024-11-14 09:52:14*
%MOMM*%
%LPD*%
G04 APERTURE LIST*
%ADD10C,0.120000*%
%ADD11C,0.150000*%
%ADD12C,1.852000*%
%ADD13R,2.007000X2.007000*%
%ADD14C,2.007000*%
%ADD15C,2.352000*%
%ADD16C,4.089800*%
%ADD17C,2.352000*%
%ADD18C,0.100000*%
%ADD19C,1.352000*%
%ADD20R,1.302000X1.002000*%
%ADD21O,2.802000X1.802000*%
%ADD22R,2.352000X0.602000*%
%ADD23R,1.302000X1.502000*%
%ADD24R,0.652000X1.602000*%
%ADD25R,1.602000X0.652000*%
%ADD26R,1.202000X1.902000*%
%ADD27C,1.077000*%
G04 APERTURE END LIST*
D10*
X358331686Y-184837750D02*
X359535814Y-184837750D01*
X358331686Y-183017750D02*
X359535814Y-183017750D01*
X220075000Y-83275000D02*
X220075000Y-79375000D01*
X218075000Y-83275000D02*
X218075000Y-79375000D01*
X220075000Y-83275000D02*
X218075000Y-83275000D01*
X201025000Y-83275000D02*
X201025000Y-79375000D01*
X199025000Y-83275000D02*
X199025000Y-79375000D01*
X201025000Y-83275000D02*
X199025000Y-83275000D01*
X372348000Y-140425000D02*
X372348000Y-136525000D01*
X370348000Y-140425000D02*
X370348000Y-136525000D01*
X372348000Y-140425000D02*
X370348000Y-140425000D01*
X372348000Y-102325000D02*
X372348000Y-98425000D01*
X370348000Y-102325000D02*
X370348000Y-98425000D01*
X372348000Y-102325000D02*
X370348000Y-102325000D01*
X372348000Y-83275000D02*
X372348000Y-79375000D01*
X370348000Y-83275000D02*
X370348000Y-79375000D01*
X372348000Y-83275000D02*
X370348000Y-83275000D01*
X372348000Y-159475000D02*
X372348000Y-155575000D01*
X370348000Y-159475000D02*
X370348000Y-155575000D01*
X372348000Y-159475000D02*
X370348000Y-159475000D01*
X353298000Y-140426000D02*
X353298000Y-136526000D01*
X351298000Y-140426000D02*
X351298000Y-136526000D01*
X353298000Y-140426000D02*
X351298000Y-140426000D01*
X362823000Y-121375000D02*
X362823000Y-117475000D01*
X360823000Y-121375000D02*
X360823000Y-117475000D01*
X362823000Y-121375000D02*
X360823000Y-121375000D01*
X353298000Y-102325000D02*
X353298000Y-98425000D01*
X351298000Y-102325000D02*
X351298000Y-98425000D01*
X353298000Y-102325000D02*
X351298000Y-102325000D01*
X353298000Y-83276000D02*
X353298000Y-79376000D01*
X351298000Y-83276000D02*
X351298000Y-79376000D01*
X353298000Y-83276000D02*
X351298000Y-83276000D01*
X353298000Y-159475000D02*
X353298000Y-155575000D01*
X351298000Y-159475000D02*
X351298000Y-155575000D01*
X353298000Y-159475000D02*
X351298000Y-159475000D01*
X334248000Y-140425000D02*
X334248000Y-136525000D01*
X332248000Y-140425000D02*
X332248000Y-136525000D01*
X334248000Y-140425000D02*
X332248000Y-140425000D01*
X343646000Y-121249000D02*
X343646000Y-117349000D01*
X341646000Y-121249000D02*
X341646000Y-117349000D01*
X343646000Y-121249000D02*
X341646000Y-121249000D01*
X334248000Y-102325000D02*
X334248000Y-98425000D01*
X332248000Y-102325000D02*
X332248000Y-98425000D01*
X334248000Y-102325000D02*
X332248000Y-102325000D01*
X334248000Y-83275000D02*
X334248000Y-79375000D01*
X332248000Y-83275000D02*
X332248000Y-79375000D01*
X334248000Y-83275000D02*
X332248000Y-83275000D01*
X334248000Y-159475000D02*
X334248000Y-155575000D01*
X332248000Y-159475000D02*
X332248000Y-155575000D01*
X334248000Y-159475000D02*
X332248000Y-159475000D01*
X315325000Y-140425000D02*
X315325000Y-136525000D01*
X313325000Y-140425000D02*
X313325000Y-136525000D01*
X315325000Y-140425000D02*
X313325000Y-140425000D01*
X324723000Y-121375000D02*
X324723000Y-117475000D01*
X322723000Y-121375000D02*
X322723000Y-117475000D01*
X324723000Y-121375000D02*
X322723000Y-121375000D01*
X315198000Y-102325000D02*
X315198000Y-98425000D01*
X313198000Y-102325000D02*
X313198000Y-98425000D01*
X315198000Y-102325000D02*
X313198000Y-102325000D01*
X315198000Y-83276000D02*
X315198000Y-79376000D01*
X313198000Y-83276000D02*
X313198000Y-79376000D01*
X315198000Y-83276000D02*
X313198000Y-83276000D01*
X310372000Y-159348000D02*
X310372000Y-155448000D01*
X308372000Y-159348000D02*
X308372000Y-155448000D01*
X310372000Y-159348000D02*
X308372000Y-159348000D01*
X296148000Y-140425000D02*
X296148000Y-136525000D01*
X294148000Y-140425000D02*
X294148000Y-136525000D01*
X296148000Y-140425000D02*
X294148000Y-140425000D01*
X305673000Y-121375000D02*
X305673000Y-117475000D01*
X303673000Y-121375000D02*
X303673000Y-117475000D01*
X305673000Y-121375000D02*
X303673000Y-121375000D01*
X296148000Y-102325000D02*
X296148000Y-98425000D01*
X294148000Y-102325000D02*
X294148000Y-98425000D01*
X296148000Y-102325000D02*
X294148000Y-102325000D01*
X296148000Y-83275000D02*
X296148000Y-79375000D01*
X294148000Y-83275000D02*
X294148000Y-79375000D01*
X296148000Y-83275000D02*
X294148000Y-83275000D01*
X286623000Y-159475000D02*
X286623000Y-155575000D01*
X284623000Y-159475000D02*
X284623000Y-155575000D01*
X286623000Y-159475000D02*
X284623000Y-159475000D01*
X277098000Y-140298000D02*
X277098000Y-136398000D01*
X275098000Y-140298000D02*
X275098000Y-136398000D01*
X277098000Y-140298000D02*
X275098000Y-140298000D01*
X286623000Y-121375000D02*
X286623000Y-117475000D01*
X284623000Y-121375000D02*
X284623000Y-117475000D01*
X286623000Y-121375000D02*
X284623000Y-121375000D01*
X277098000Y-102325000D02*
X277098000Y-98425000D01*
X275098000Y-102325000D02*
X275098000Y-98425000D01*
X277098000Y-102325000D02*
X275098000Y-102325000D01*
X277098000Y-83275000D02*
X277098000Y-79375000D01*
X275098000Y-83275000D02*
X275098000Y-79375000D01*
X277098000Y-83275000D02*
X275098000Y-83275000D01*
X262874000Y-159475000D02*
X262874000Y-155575000D01*
X260874000Y-159475000D02*
X260874000Y-155575000D01*
X262874000Y-159475000D02*
X260874000Y-159475000D01*
X258048000Y-140426000D02*
X258048000Y-136526000D01*
X256048000Y-140426000D02*
X256048000Y-136526000D01*
X258048000Y-140426000D02*
X256048000Y-140426000D01*
X267573000Y-121249000D02*
X267573000Y-117349000D01*
X265573000Y-121249000D02*
X265573000Y-117349000D01*
X267573000Y-121249000D02*
X265573000Y-121249000D01*
X258175000Y-102199000D02*
X258175000Y-98299000D01*
X256175000Y-102199000D02*
X256175000Y-98299000D01*
X258175000Y-102199000D02*
X256175000Y-102199000D01*
X258048000Y-83275000D02*
X258048000Y-79375000D01*
X256048000Y-83275000D02*
X256048000Y-79375000D01*
X258048000Y-83275000D02*
X256048000Y-83275000D01*
X238998000Y-159475000D02*
X238998000Y-155575000D01*
X236998000Y-159475000D02*
X236998000Y-155575000D01*
X238998000Y-159475000D02*
X236998000Y-159475000D01*
X238998000Y-140299000D02*
X238998000Y-136399000D01*
X236998000Y-140299000D02*
X236998000Y-136399000D01*
X238998000Y-140299000D02*
X236998000Y-140299000D01*
X248650000Y-121376000D02*
X248650000Y-117476000D01*
X246650000Y-121376000D02*
X246650000Y-117476000D01*
X248650000Y-121376000D02*
X246650000Y-121376000D01*
X239125000Y-102325000D02*
X239125000Y-98425000D01*
X237125000Y-102325000D02*
X237125000Y-98425000D01*
X239125000Y-102325000D02*
X237125000Y-102325000D01*
X238998000Y-83402000D02*
X238998000Y-79502000D01*
X236998000Y-83402000D02*
X236998000Y-79502000D01*
X238998000Y-83402000D02*
X236998000Y-83402000D01*
X219948000Y-159476000D02*
X219948000Y-155576000D01*
X217948000Y-159476000D02*
X217948000Y-155576000D01*
X219948000Y-159476000D02*
X217948000Y-159476000D01*
X219948000Y-140298000D02*
X219948000Y-136398000D01*
X217948000Y-140298000D02*
X217948000Y-136398000D01*
X219948000Y-140298000D02*
X217948000Y-140298000D01*
X229473000Y-121248000D02*
X229473000Y-117348000D01*
X227473000Y-121248000D02*
X227473000Y-117348000D01*
X229473000Y-121248000D02*
X227473000Y-121248000D01*
X200898000Y-159475000D02*
X200898000Y-155575000D01*
X198898000Y-159475000D02*
X198898000Y-155575000D01*
X200898000Y-159475000D02*
X198898000Y-159475000D01*
X200898000Y-140426000D02*
X200898000Y-136526000D01*
X198898000Y-140426000D02*
X198898000Y-136526000D01*
X200898000Y-140426000D02*
X198898000Y-140426000D01*
X210550000Y-121375000D02*
X210550000Y-117475000D01*
X208550000Y-121375000D02*
X208550000Y-117475000D01*
X210550000Y-121375000D02*
X208550000Y-121375000D01*
D11*
X371252750Y-175886750D02*
X365802750Y-175886750D01*
X371252750Y-183586750D02*
X365802750Y-183586750D01*
X365802750Y-175886750D02*
X365802750Y-183586750D01*
D10*
X327827000Y-182097750D02*
X331127000Y-182097750D01*
X331127000Y-182097750D02*
X331127000Y-186097750D01*
D11*
X347662250Y-194246250D02*
X347087250Y-194246250D01*
X347662250Y-183896250D02*
X346987250Y-183896250D01*
X337312250Y-183896250D02*
X337987250Y-183896250D01*
X337312250Y-194246250D02*
X337987250Y-194246250D01*
X347662250Y-194246250D02*
X347662250Y-193571250D01*
X337312250Y-194246250D02*
X337312250Y-193571250D01*
X337312250Y-183896250D02*
X337312250Y-184571250D01*
X347662250Y-183896250D02*
X347662250Y-184571250D01*
X347087250Y-194246250D02*
X347087250Y-195521250D01*
X369585750Y-192690750D02*
G75*
G03X369585750Y-192690750I-1000000J0D01*
G01*
X371185750Y-190090750D02*
X365985750Y-190090750D01*
X371185750Y-195290750D02*
X371185750Y-190090750D01*
X365985750Y-195290750D02*
X371185750Y-195290750D01*
X365985750Y-190090750D02*
X365985750Y-195290750D01*
D10*
X347967828Y-178899750D02*
X347450672Y-178899750D01*
X347967828Y-180319750D02*
X347450672Y-180319750D01*
X336126828Y-199092750D02*
X335609672Y-199092750D01*
X336126828Y-200512750D02*
X335609672Y-200512750D01*
X358254828Y-190075750D02*
X357737672Y-190075750D01*
X358254828Y-191495750D02*
X357737672Y-191495750D01*
X358254828Y-193758750D02*
X357737672Y-193758750D01*
X358254828Y-195178750D02*
X357737672Y-195178750D01*
X220075000Y-102325000D02*
X220075000Y-98425000D01*
X218075000Y-102325000D02*
X218075000Y-98425000D01*
X220075000Y-102325000D02*
X218075000Y-102325000D01*
X201025000Y-102325000D02*
X201025000Y-98425000D01*
X199025000Y-102325000D02*
X199025000Y-98425000D01*
X201025000Y-102325000D02*
X199025000Y-102325000D01*
X352785750Y-193076328D02*
X352785750Y-192559172D01*
X351365750Y-193076328D02*
X351365750Y-192559172D01*
X341079828Y-197949750D02*
X340562672Y-197949750D01*
X341079828Y-199369750D02*
X340562672Y-199369750D01*
X351302250Y-184987672D02*
X351302250Y-185504828D01*
X352722250Y-184987672D02*
X352722250Y-185504828D01*
X329274672Y-189876500D02*
X329791828Y-189876500D01*
X329274672Y-188456500D02*
X329791828Y-188456500D01*
X329648078Y-178931500D02*
X329130922Y-178931500D01*
X329648078Y-180351500D02*
X329130922Y-180351500D01*
X334158328Y-196298750D02*
X333641172Y-196298750D01*
X334158328Y-197718750D02*
X333641172Y-197718750D01*
X338127078Y-178836250D02*
X337609922Y-178836250D01*
X338127078Y-180256250D02*
X337609922Y-180256250D01*
D11*
X359267083Y-185676321D02*
X359600416Y-185676321D01*
X359600416Y-186200130D02*
X359600416Y-185200130D01*
X359124226Y-185200130D01*
X358219464Y-186200130D02*
X358790892Y-186200130D01*
X358505178Y-186200130D02*
X358505178Y-185200130D01*
X358600416Y-185342988D01*
X358695654Y-185438226D01*
X358790892Y-185485845D01*
X221527380Y-80286904D02*
X220527380Y-80286904D01*
X220527380Y-80525000D01*
X220575000Y-80667857D01*
X220670238Y-80763095D01*
X220765476Y-80810714D01*
X220955952Y-80858333D01*
X221098809Y-80858333D01*
X221289285Y-80810714D01*
X221384523Y-80763095D01*
X221479761Y-80667857D01*
X221527380Y-80525000D01*
X221527380Y-80286904D01*
X220527380Y-81191666D02*
X220527380Y-81810714D01*
X220908333Y-81477380D01*
X220908333Y-81620238D01*
X220955952Y-81715476D01*
X221003571Y-81763095D01*
X221098809Y-81810714D01*
X221336904Y-81810714D01*
X221432142Y-81763095D01*
X221479761Y-81715476D01*
X221527380Y-81620238D01*
X221527380Y-81334523D01*
X221479761Y-81239285D01*
X221432142Y-81191666D01*
X202477380Y-80286904D02*
X201477380Y-80286904D01*
X201477380Y-80525000D01*
X201525000Y-80667857D01*
X201620238Y-80763095D01*
X201715476Y-80810714D01*
X201905952Y-80858333D01*
X202048809Y-80858333D01*
X202239285Y-80810714D01*
X202334523Y-80763095D01*
X202429761Y-80667857D01*
X202477380Y-80525000D01*
X202477380Y-80286904D01*
X202477380Y-81810714D02*
X202477380Y-81239285D01*
X202477380Y-81525000D02*
X201477380Y-81525000D01*
X201620238Y-81429761D01*
X201715476Y-81334523D01*
X201763095Y-81239285D01*
X373800380Y-136960714D02*
X372800380Y-136960714D01*
X372800380Y-137198809D01*
X372848000Y-137341666D01*
X372943238Y-137436904D01*
X373038476Y-137484523D01*
X373228952Y-137532142D01*
X373371809Y-137532142D01*
X373562285Y-137484523D01*
X373657523Y-137436904D01*
X373752761Y-137341666D01*
X373800380Y-137198809D01*
X373800380Y-136960714D01*
X373133714Y-138389285D02*
X373800380Y-138389285D01*
X372752761Y-138151190D02*
X373467047Y-137913095D01*
X373467047Y-138532142D01*
X373228952Y-139055952D02*
X373181333Y-138960714D01*
X373133714Y-138913095D01*
X373038476Y-138865476D01*
X372990857Y-138865476D01*
X372895619Y-138913095D01*
X372848000Y-138960714D01*
X372800380Y-139055952D01*
X372800380Y-139246428D01*
X372848000Y-139341666D01*
X372895619Y-139389285D01*
X372990857Y-139436904D01*
X373038476Y-139436904D01*
X373133714Y-139389285D01*
X373181333Y-139341666D01*
X373228952Y-139246428D01*
X373228952Y-139055952D01*
X373276571Y-138960714D01*
X373324190Y-138913095D01*
X373419428Y-138865476D01*
X373609904Y-138865476D01*
X373705142Y-138913095D01*
X373752761Y-138960714D01*
X373800380Y-139055952D01*
X373800380Y-139246428D01*
X373752761Y-139341666D01*
X373705142Y-139389285D01*
X373609904Y-139436904D01*
X373419428Y-139436904D01*
X373324190Y-139389285D01*
X373276571Y-139341666D01*
X373228952Y-139246428D01*
X373800380Y-98860714D02*
X372800380Y-98860714D01*
X372800380Y-99098809D01*
X372848000Y-99241666D01*
X372943238Y-99336904D01*
X373038476Y-99384523D01*
X373228952Y-99432142D01*
X373371809Y-99432142D01*
X373562285Y-99384523D01*
X373657523Y-99336904D01*
X373752761Y-99241666D01*
X373800380Y-99098809D01*
X373800380Y-98860714D01*
X373133714Y-100289285D02*
X373800380Y-100289285D01*
X372752761Y-100051190D02*
X373467047Y-99813095D01*
X373467047Y-100432142D01*
X372800380Y-100717857D02*
X372800380Y-101384523D01*
X373800380Y-100955952D01*
X373800380Y-79810714D02*
X372800380Y-79810714D01*
X372800380Y-80048809D01*
X372848000Y-80191666D01*
X372943238Y-80286904D01*
X373038476Y-80334523D01*
X373228952Y-80382142D01*
X373371809Y-80382142D01*
X373562285Y-80334523D01*
X373657523Y-80286904D01*
X373752761Y-80191666D01*
X373800380Y-80048809D01*
X373800380Y-79810714D01*
X373133714Y-81239285D02*
X373800380Y-81239285D01*
X372752761Y-81001190D02*
X373467047Y-80763095D01*
X373467047Y-81382142D01*
X372800380Y-82191666D02*
X372800380Y-82001190D01*
X372848000Y-81905952D01*
X372895619Y-81858333D01*
X373038476Y-81763095D01*
X373228952Y-81715476D01*
X373609904Y-81715476D01*
X373705142Y-81763095D01*
X373752761Y-81810714D01*
X373800380Y-81905952D01*
X373800380Y-82096428D01*
X373752761Y-82191666D01*
X373705142Y-82239285D01*
X373609904Y-82286904D01*
X373371809Y-82286904D01*
X373276571Y-82239285D01*
X373228952Y-82191666D01*
X373181333Y-82096428D01*
X373181333Y-81905952D01*
X373228952Y-81810714D01*
X373276571Y-81763095D01*
X373371809Y-81715476D01*
X373800380Y-156010714D02*
X372800380Y-156010714D01*
X372800380Y-156248809D01*
X372848000Y-156391666D01*
X372943238Y-156486904D01*
X373038476Y-156534523D01*
X373228952Y-156582142D01*
X373371809Y-156582142D01*
X373562285Y-156534523D01*
X373657523Y-156486904D01*
X373752761Y-156391666D01*
X373800380Y-156248809D01*
X373800380Y-156010714D01*
X373133714Y-157439285D02*
X373800380Y-157439285D01*
X372752761Y-157201190D02*
X373467047Y-156963095D01*
X373467047Y-157582142D01*
X372800380Y-158439285D02*
X372800380Y-157963095D01*
X373276571Y-157915476D01*
X373228952Y-157963095D01*
X373181333Y-158058333D01*
X373181333Y-158296428D01*
X373228952Y-158391666D01*
X373276571Y-158439285D01*
X373371809Y-158486904D01*
X373609904Y-158486904D01*
X373705142Y-158439285D01*
X373752761Y-158391666D01*
X373800380Y-158296428D01*
X373800380Y-158058333D01*
X373752761Y-157963095D01*
X373705142Y-157915476D01*
X354750380Y-136961714D02*
X353750380Y-136961714D01*
X353750380Y-137199809D01*
X353798000Y-137342666D01*
X353893238Y-137437904D01*
X353988476Y-137485523D01*
X354178952Y-137533142D01*
X354321809Y-137533142D01*
X354512285Y-137485523D01*
X354607523Y-137437904D01*
X354702761Y-137342666D01*
X354750380Y-137199809D01*
X354750380Y-136961714D01*
X354083714Y-138390285D02*
X354750380Y-138390285D01*
X353702761Y-138152190D02*
X354417047Y-137914095D01*
X354417047Y-138533142D01*
X354083714Y-139342666D02*
X354750380Y-139342666D01*
X353702761Y-139104571D02*
X354417047Y-138866476D01*
X354417047Y-139485523D01*
X364275380Y-117910714D02*
X363275380Y-117910714D01*
X363275380Y-118148809D01*
X363323000Y-118291666D01*
X363418238Y-118386904D01*
X363513476Y-118434523D01*
X363703952Y-118482142D01*
X363846809Y-118482142D01*
X364037285Y-118434523D01*
X364132523Y-118386904D01*
X364227761Y-118291666D01*
X364275380Y-118148809D01*
X364275380Y-117910714D01*
X363608714Y-119339285D02*
X364275380Y-119339285D01*
X363227761Y-119101190D02*
X363942047Y-118863095D01*
X363942047Y-119482142D01*
X363275380Y-119767857D02*
X363275380Y-120386904D01*
X363656333Y-120053571D01*
X363656333Y-120196428D01*
X363703952Y-120291666D01*
X363751571Y-120339285D01*
X363846809Y-120386904D01*
X364084904Y-120386904D01*
X364180142Y-120339285D01*
X364227761Y-120291666D01*
X364275380Y-120196428D01*
X364275380Y-119910714D01*
X364227761Y-119815476D01*
X364180142Y-119767857D01*
X354750380Y-98860714D02*
X353750380Y-98860714D01*
X353750380Y-99098809D01*
X353798000Y-99241666D01*
X353893238Y-99336904D01*
X353988476Y-99384523D01*
X354178952Y-99432142D01*
X354321809Y-99432142D01*
X354512285Y-99384523D01*
X354607523Y-99336904D01*
X354702761Y-99241666D01*
X354750380Y-99098809D01*
X354750380Y-98860714D01*
X354083714Y-100289285D02*
X354750380Y-100289285D01*
X353702761Y-100051190D02*
X354417047Y-99813095D01*
X354417047Y-100432142D01*
X353845619Y-100765476D02*
X353798000Y-100813095D01*
X353750380Y-100908333D01*
X353750380Y-101146428D01*
X353798000Y-101241666D01*
X353845619Y-101289285D01*
X353940857Y-101336904D01*
X354036095Y-101336904D01*
X354178952Y-101289285D01*
X354750380Y-100717857D01*
X354750380Y-101336904D01*
X354750380Y-79811714D02*
X353750380Y-79811714D01*
X353750380Y-80049809D01*
X353798000Y-80192666D01*
X353893238Y-80287904D01*
X353988476Y-80335523D01*
X354178952Y-80383142D01*
X354321809Y-80383142D01*
X354512285Y-80335523D01*
X354607523Y-80287904D01*
X354702761Y-80192666D01*
X354750380Y-80049809D01*
X354750380Y-79811714D01*
X354083714Y-81240285D02*
X354750380Y-81240285D01*
X353702761Y-81002190D02*
X354417047Y-80764095D01*
X354417047Y-81383142D01*
X354750380Y-82287904D02*
X354750380Y-81716476D01*
X354750380Y-82002190D02*
X353750380Y-82002190D01*
X353893238Y-81906952D01*
X353988476Y-81811714D01*
X354036095Y-81716476D01*
X354750380Y-156010714D02*
X353750380Y-156010714D01*
X353750380Y-156248809D01*
X353798000Y-156391666D01*
X353893238Y-156486904D01*
X353988476Y-156534523D01*
X354178952Y-156582142D01*
X354321809Y-156582142D01*
X354512285Y-156534523D01*
X354607523Y-156486904D01*
X354702761Y-156391666D01*
X354750380Y-156248809D01*
X354750380Y-156010714D01*
X354083714Y-157439285D02*
X354750380Y-157439285D01*
X353702761Y-157201190D02*
X354417047Y-156963095D01*
X354417047Y-157582142D01*
X353750380Y-158153571D02*
X353750380Y-158248809D01*
X353798000Y-158344047D01*
X353845619Y-158391666D01*
X353940857Y-158439285D01*
X354131333Y-158486904D01*
X354369428Y-158486904D01*
X354559904Y-158439285D01*
X354655142Y-158391666D01*
X354702761Y-158344047D01*
X354750380Y-158248809D01*
X354750380Y-158153571D01*
X354702761Y-158058333D01*
X354655142Y-158010714D01*
X354559904Y-157963095D01*
X354369428Y-157915476D01*
X354131333Y-157915476D01*
X353940857Y-157963095D01*
X353845619Y-158010714D01*
X353798000Y-158058333D01*
X353750380Y-158153571D01*
X335700380Y-136960714D02*
X334700380Y-136960714D01*
X334700380Y-137198809D01*
X334748000Y-137341666D01*
X334843238Y-137436904D01*
X334938476Y-137484523D01*
X335128952Y-137532142D01*
X335271809Y-137532142D01*
X335462285Y-137484523D01*
X335557523Y-137436904D01*
X335652761Y-137341666D01*
X335700380Y-137198809D01*
X335700380Y-136960714D01*
X334700380Y-137865476D02*
X334700380Y-138484523D01*
X335081333Y-138151190D01*
X335081333Y-138294047D01*
X335128952Y-138389285D01*
X335176571Y-138436904D01*
X335271809Y-138484523D01*
X335509904Y-138484523D01*
X335605142Y-138436904D01*
X335652761Y-138389285D01*
X335700380Y-138294047D01*
X335700380Y-138008333D01*
X335652761Y-137913095D01*
X335605142Y-137865476D01*
X335700380Y-138960714D02*
X335700380Y-139151190D01*
X335652761Y-139246428D01*
X335605142Y-139294047D01*
X335462285Y-139389285D01*
X335271809Y-139436904D01*
X334890857Y-139436904D01*
X334795619Y-139389285D01*
X334748000Y-139341666D01*
X334700380Y-139246428D01*
X334700380Y-139055952D01*
X334748000Y-138960714D01*
X334795619Y-138913095D01*
X334890857Y-138865476D01*
X335128952Y-138865476D01*
X335224190Y-138913095D01*
X335271809Y-138960714D01*
X335319428Y-139055952D01*
X335319428Y-139246428D01*
X335271809Y-139341666D01*
X335224190Y-139389285D01*
X335128952Y-139436904D01*
X345098380Y-117784714D02*
X344098380Y-117784714D01*
X344098380Y-118022809D01*
X344146000Y-118165666D01*
X344241238Y-118260904D01*
X344336476Y-118308523D01*
X344526952Y-118356142D01*
X344669809Y-118356142D01*
X344860285Y-118308523D01*
X344955523Y-118260904D01*
X345050761Y-118165666D01*
X345098380Y-118022809D01*
X345098380Y-117784714D01*
X344098380Y-118689476D02*
X344098380Y-119308523D01*
X344479333Y-118975190D01*
X344479333Y-119118047D01*
X344526952Y-119213285D01*
X344574571Y-119260904D01*
X344669809Y-119308523D01*
X344907904Y-119308523D01*
X345003142Y-119260904D01*
X345050761Y-119213285D01*
X345098380Y-119118047D01*
X345098380Y-118832333D01*
X345050761Y-118737095D01*
X345003142Y-118689476D01*
X344526952Y-119879952D02*
X344479333Y-119784714D01*
X344431714Y-119737095D01*
X344336476Y-119689476D01*
X344288857Y-119689476D01*
X344193619Y-119737095D01*
X344146000Y-119784714D01*
X344098380Y-119879952D01*
X344098380Y-120070428D01*
X344146000Y-120165666D01*
X344193619Y-120213285D01*
X344288857Y-120260904D01*
X344336476Y-120260904D01*
X344431714Y-120213285D01*
X344479333Y-120165666D01*
X344526952Y-120070428D01*
X344526952Y-119879952D01*
X344574571Y-119784714D01*
X344622190Y-119737095D01*
X344717428Y-119689476D01*
X344907904Y-119689476D01*
X345003142Y-119737095D01*
X345050761Y-119784714D01*
X345098380Y-119879952D01*
X345098380Y-120070428D01*
X345050761Y-120165666D01*
X345003142Y-120213285D01*
X344907904Y-120260904D01*
X344717428Y-120260904D01*
X344622190Y-120213285D01*
X344574571Y-120165666D01*
X344526952Y-120070428D01*
X335700380Y-98860714D02*
X334700380Y-98860714D01*
X334700380Y-99098809D01*
X334748000Y-99241666D01*
X334843238Y-99336904D01*
X334938476Y-99384523D01*
X335128952Y-99432142D01*
X335271809Y-99432142D01*
X335462285Y-99384523D01*
X335557523Y-99336904D01*
X335652761Y-99241666D01*
X335700380Y-99098809D01*
X335700380Y-98860714D01*
X334700380Y-99765476D02*
X334700380Y-100384523D01*
X335081333Y-100051190D01*
X335081333Y-100194047D01*
X335128952Y-100289285D01*
X335176571Y-100336904D01*
X335271809Y-100384523D01*
X335509904Y-100384523D01*
X335605142Y-100336904D01*
X335652761Y-100289285D01*
X335700380Y-100194047D01*
X335700380Y-99908333D01*
X335652761Y-99813095D01*
X335605142Y-99765476D01*
X334700380Y-100717857D02*
X334700380Y-101384523D01*
X335700380Y-100955952D01*
X335700380Y-79810714D02*
X334700380Y-79810714D01*
X334700380Y-80048809D01*
X334748000Y-80191666D01*
X334843238Y-80286904D01*
X334938476Y-80334523D01*
X335128952Y-80382142D01*
X335271809Y-80382142D01*
X335462285Y-80334523D01*
X335557523Y-80286904D01*
X335652761Y-80191666D01*
X335700380Y-80048809D01*
X335700380Y-79810714D01*
X334700380Y-80715476D02*
X334700380Y-81334523D01*
X335081333Y-81001190D01*
X335081333Y-81144047D01*
X335128952Y-81239285D01*
X335176571Y-81286904D01*
X335271809Y-81334523D01*
X335509904Y-81334523D01*
X335605142Y-81286904D01*
X335652761Y-81239285D01*
X335700380Y-81144047D01*
X335700380Y-80858333D01*
X335652761Y-80763095D01*
X335605142Y-80715476D01*
X334700380Y-82191666D02*
X334700380Y-82001190D01*
X334748000Y-81905952D01*
X334795619Y-81858333D01*
X334938476Y-81763095D01*
X335128952Y-81715476D01*
X335509904Y-81715476D01*
X335605142Y-81763095D01*
X335652761Y-81810714D01*
X335700380Y-81905952D01*
X335700380Y-82096428D01*
X335652761Y-82191666D01*
X335605142Y-82239285D01*
X335509904Y-82286904D01*
X335271809Y-82286904D01*
X335176571Y-82239285D01*
X335128952Y-82191666D01*
X335081333Y-82096428D01*
X335081333Y-81905952D01*
X335128952Y-81810714D01*
X335176571Y-81763095D01*
X335271809Y-81715476D01*
X335700380Y-156010714D02*
X334700380Y-156010714D01*
X334700380Y-156248809D01*
X334748000Y-156391666D01*
X334843238Y-156486904D01*
X334938476Y-156534523D01*
X335128952Y-156582142D01*
X335271809Y-156582142D01*
X335462285Y-156534523D01*
X335557523Y-156486904D01*
X335652761Y-156391666D01*
X335700380Y-156248809D01*
X335700380Y-156010714D01*
X334700380Y-156915476D02*
X334700380Y-157534523D01*
X335081333Y-157201190D01*
X335081333Y-157344047D01*
X335128952Y-157439285D01*
X335176571Y-157486904D01*
X335271809Y-157534523D01*
X335509904Y-157534523D01*
X335605142Y-157486904D01*
X335652761Y-157439285D01*
X335700380Y-157344047D01*
X335700380Y-157058333D01*
X335652761Y-156963095D01*
X335605142Y-156915476D01*
X334700380Y-158439285D02*
X334700380Y-157963095D01*
X335176571Y-157915476D01*
X335128952Y-157963095D01*
X335081333Y-158058333D01*
X335081333Y-158296428D01*
X335128952Y-158391666D01*
X335176571Y-158439285D01*
X335271809Y-158486904D01*
X335509904Y-158486904D01*
X335605142Y-158439285D01*
X335652761Y-158391666D01*
X335700380Y-158296428D01*
X335700380Y-158058333D01*
X335652761Y-157963095D01*
X335605142Y-157915476D01*
X316777380Y-136960714D02*
X315777380Y-136960714D01*
X315777380Y-137198809D01*
X315825000Y-137341666D01*
X315920238Y-137436904D01*
X316015476Y-137484523D01*
X316205952Y-137532142D01*
X316348809Y-137532142D01*
X316539285Y-137484523D01*
X316634523Y-137436904D01*
X316729761Y-137341666D01*
X316777380Y-137198809D01*
X316777380Y-136960714D01*
X315777380Y-137865476D02*
X315777380Y-138484523D01*
X316158333Y-138151190D01*
X316158333Y-138294047D01*
X316205952Y-138389285D01*
X316253571Y-138436904D01*
X316348809Y-138484523D01*
X316586904Y-138484523D01*
X316682142Y-138436904D01*
X316729761Y-138389285D01*
X316777380Y-138294047D01*
X316777380Y-138008333D01*
X316729761Y-137913095D01*
X316682142Y-137865476D01*
X316110714Y-139341666D02*
X316777380Y-139341666D01*
X315729761Y-139103571D02*
X316444047Y-138865476D01*
X316444047Y-139484523D01*
X326175380Y-117910714D02*
X325175380Y-117910714D01*
X325175380Y-118148809D01*
X325223000Y-118291666D01*
X325318238Y-118386904D01*
X325413476Y-118434523D01*
X325603952Y-118482142D01*
X325746809Y-118482142D01*
X325937285Y-118434523D01*
X326032523Y-118386904D01*
X326127761Y-118291666D01*
X326175380Y-118148809D01*
X326175380Y-117910714D01*
X325175380Y-118815476D02*
X325175380Y-119434523D01*
X325556333Y-119101190D01*
X325556333Y-119244047D01*
X325603952Y-119339285D01*
X325651571Y-119386904D01*
X325746809Y-119434523D01*
X325984904Y-119434523D01*
X326080142Y-119386904D01*
X326127761Y-119339285D01*
X326175380Y-119244047D01*
X326175380Y-118958333D01*
X326127761Y-118863095D01*
X326080142Y-118815476D01*
X325175380Y-119767857D02*
X325175380Y-120386904D01*
X325556333Y-120053571D01*
X325556333Y-120196428D01*
X325603952Y-120291666D01*
X325651571Y-120339285D01*
X325746809Y-120386904D01*
X325984904Y-120386904D01*
X326080142Y-120339285D01*
X326127761Y-120291666D01*
X326175380Y-120196428D01*
X326175380Y-119910714D01*
X326127761Y-119815476D01*
X326080142Y-119767857D01*
X316650380Y-98860714D02*
X315650380Y-98860714D01*
X315650380Y-99098809D01*
X315698000Y-99241666D01*
X315793238Y-99336904D01*
X315888476Y-99384523D01*
X316078952Y-99432142D01*
X316221809Y-99432142D01*
X316412285Y-99384523D01*
X316507523Y-99336904D01*
X316602761Y-99241666D01*
X316650380Y-99098809D01*
X316650380Y-98860714D01*
X315650380Y-99765476D02*
X315650380Y-100384523D01*
X316031333Y-100051190D01*
X316031333Y-100194047D01*
X316078952Y-100289285D01*
X316126571Y-100336904D01*
X316221809Y-100384523D01*
X316459904Y-100384523D01*
X316555142Y-100336904D01*
X316602761Y-100289285D01*
X316650380Y-100194047D01*
X316650380Y-99908333D01*
X316602761Y-99813095D01*
X316555142Y-99765476D01*
X315745619Y-100765476D02*
X315698000Y-100813095D01*
X315650380Y-100908333D01*
X315650380Y-101146428D01*
X315698000Y-101241666D01*
X315745619Y-101289285D01*
X315840857Y-101336904D01*
X315936095Y-101336904D01*
X316078952Y-101289285D01*
X316650380Y-100717857D01*
X316650380Y-101336904D01*
X316650380Y-79811714D02*
X315650380Y-79811714D01*
X315650380Y-80049809D01*
X315698000Y-80192666D01*
X315793238Y-80287904D01*
X315888476Y-80335523D01*
X316078952Y-80383142D01*
X316221809Y-80383142D01*
X316412285Y-80335523D01*
X316507523Y-80287904D01*
X316602761Y-80192666D01*
X316650380Y-80049809D01*
X316650380Y-79811714D01*
X315650380Y-80716476D02*
X315650380Y-81335523D01*
X316031333Y-81002190D01*
X316031333Y-81145047D01*
X316078952Y-81240285D01*
X316126571Y-81287904D01*
X316221809Y-81335523D01*
X316459904Y-81335523D01*
X316555142Y-81287904D01*
X316602761Y-81240285D01*
X316650380Y-81145047D01*
X316650380Y-80859333D01*
X316602761Y-80764095D01*
X316555142Y-80716476D01*
X316650380Y-82287904D02*
X316650380Y-81716476D01*
X316650380Y-82002190D02*
X315650380Y-82002190D01*
X315793238Y-81906952D01*
X315888476Y-81811714D01*
X315936095Y-81716476D01*
X311824380Y-155883714D02*
X310824380Y-155883714D01*
X310824380Y-156121809D01*
X310872000Y-156264666D01*
X310967238Y-156359904D01*
X311062476Y-156407523D01*
X311252952Y-156455142D01*
X311395809Y-156455142D01*
X311586285Y-156407523D01*
X311681523Y-156359904D01*
X311776761Y-156264666D01*
X311824380Y-156121809D01*
X311824380Y-155883714D01*
X310824380Y-156788476D02*
X310824380Y-157407523D01*
X311205333Y-157074190D01*
X311205333Y-157217047D01*
X311252952Y-157312285D01*
X311300571Y-157359904D01*
X311395809Y-157407523D01*
X311633904Y-157407523D01*
X311729142Y-157359904D01*
X311776761Y-157312285D01*
X311824380Y-157217047D01*
X311824380Y-156931333D01*
X311776761Y-156836095D01*
X311729142Y-156788476D01*
X310824380Y-158026571D02*
X310824380Y-158121809D01*
X310872000Y-158217047D01*
X310919619Y-158264666D01*
X311014857Y-158312285D01*
X311205333Y-158359904D01*
X311443428Y-158359904D01*
X311633904Y-158312285D01*
X311729142Y-158264666D01*
X311776761Y-158217047D01*
X311824380Y-158121809D01*
X311824380Y-158026571D01*
X311776761Y-157931333D01*
X311729142Y-157883714D01*
X311633904Y-157836095D01*
X311443428Y-157788476D01*
X311205333Y-157788476D01*
X311014857Y-157836095D01*
X310919619Y-157883714D01*
X310872000Y-157931333D01*
X310824380Y-158026571D01*
X297600380Y-136960714D02*
X296600380Y-136960714D01*
X296600380Y-137198809D01*
X296648000Y-137341666D01*
X296743238Y-137436904D01*
X296838476Y-137484523D01*
X297028952Y-137532142D01*
X297171809Y-137532142D01*
X297362285Y-137484523D01*
X297457523Y-137436904D01*
X297552761Y-137341666D01*
X297600380Y-137198809D01*
X297600380Y-136960714D01*
X296695619Y-137913095D02*
X296648000Y-137960714D01*
X296600380Y-138055952D01*
X296600380Y-138294047D01*
X296648000Y-138389285D01*
X296695619Y-138436904D01*
X296790857Y-138484523D01*
X296886095Y-138484523D01*
X297028952Y-138436904D01*
X297600380Y-137865476D01*
X297600380Y-138484523D01*
X297600380Y-138960714D02*
X297600380Y-139151190D01*
X297552761Y-139246428D01*
X297505142Y-139294047D01*
X297362285Y-139389285D01*
X297171809Y-139436904D01*
X296790857Y-139436904D01*
X296695619Y-139389285D01*
X296648000Y-139341666D01*
X296600380Y-139246428D01*
X296600380Y-139055952D01*
X296648000Y-138960714D01*
X296695619Y-138913095D01*
X296790857Y-138865476D01*
X297028952Y-138865476D01*
X297124190Y-138913095D01*
X297171809Y-138960714D01*
X297219428Y-139055952D01*
X297219428Y-139246428D01*
X297171809Y-139341666D01*
X297124190Y-139389285D01*
X297028952Y-139436904D01*
X307125380Y-117910714D02*
X306125380Y-117910714D01*
X306125380Y-118148809D01*
X306173000Y-118291666D01*
X306268238Y-118386904D01*
X306363476Y-118434523D01*
X306553952Y-118482142D01*
X306696809Y-118482142D01*
X306887285Y-118434523D01*
X306982523Y-118386904D01*
X307077761Y-118291666D01*
X307125380Y-118148809D01*
X307125380Y-117910714D01*
X306220619Y-118863095D02*
X306173000Y-118910714D01*
X306125380Y-119005952D01*
X306125380Y-119244047D01*
X306173000Y-119339285D01*
X306220619Y-119386904D01*
X306315857Y-119434523D01*
X306411095Y-119434523D01*
X306553952Y-119386904D01*
X307125380Y-118815476D01*
X307125380Y-119434523D01*
X306553952Y-120005952D02*
X306506333Y-119910714D01*
X306458714Y-119863095D01*
X306363476Y-119815476D01*
X306315857Y-119815476D01*
X306220619Y-119863095D01*
X306173000Y-119910714D01*
X306125380Y-120005952D01*
X306125380Y-120196428D01*
X306173000Y-120291666D01*
X306220619Y-120339285D01*
X306315857Y-120386904D01*
X306363476Y-120386904D01*
X306458714Y-120339285D01*
X306506333Y-120291666D01*
X306553952Y-120196428D01*
X306553952Y-120005952D01*
X306601571Y-119910714D01*
X306649190Y-119863095D01*
X306744428Y-119815476D01*
X306934904Y-119815476D01*
X307030142Y-119863095D01*
X307077761Y-119910714D01*
X307125380Y-120005952D01*
X307125380Y-120196428D01*
X307077761Y-120291666D01*
X307030142Y-120339285D01*
X306934904Y-120386904D01*
X306744428Y-120386904D01*
X306649190Y-120339285D01*
X306601571Y-120291666D01*
X306553952Y-120196428D01*
X297600380Y-98860714D02*
X296600380Y-98860714D01*
X296600380Y-99098809D01*
X296648000Y-99241666D01*
X296743238Y-99336904D01*
X296838476Y-99384523D01*
X297028952Y-99432142D01*
X297171809Y-99432142D01*
X297362285Y-99384523D01*
X297457523Y-99336904D01*
X297552761Y-99241666D01*
X297600380Y-99098809D01*
X297600380Y-98860714D01*
X296695619Y-99813095D02*
X296648000Y-99860714D01*
X296600380Y-99955952D01*
X296600380Y-100194047D01*
X296648000Y-100289285D01*
X296695619Y-100336904D01*
X296790857Y-100384523D01*
X296886095Y-100384523D01*
X297028952Y-100336904D01*
X297600380Y-99765476D01*
X297600380Y-100384523D01*
X296600380Y-100717857D02*
X296600380Y-101384523D01*
X297600380Y-100955952D01*
X297600380Y-79810714D02*
X296600380Y-79810714D01*
X296600380Y-80048809D01*
X296648000Y-80191666D01*
X296743238Y-80286904D01*
X296838476Y-80334523D01*
X297028952Y-80382142D01*
X297171809Y-80382142D01*
X297362285Y-80334523D01*
X297457523Y-80286904D01*
X297552761Y-80191666D01*
X297600380Y-80048809D01*
X297600380Y-79810714D01*
X296695619Y-80763095D02*
X296648000Y-80810714D01*
X296600380Y-80905952D01*
X296600380Y-81144047D01*
X296648000Y-81239285D01*
X296695619Y-81286904D01*
X296790857Y-81334523D01*
X296886095Y-81334523D01*
X297028952Y-81286904D01*
X297600380Y-80715476D01*
X297600380Y-81334523D01*
X296600380Y-82191666D02*
X296600380Y-82001190D01*
X296648000Y-81905952D01*
X296695619Y-81858333D01*
X296838476Y-81763095D01*
X297028952Y-81715476D01*
X297409904Y-81715476D01*
X297505142Y-81763095D01*
X297552761Y-81810714D01*
X297600380Y-81905952D01*
X297600380Y-82096428D01*
X297552761Y-82191666D01*
X297505142Y-82239285D01*
X297409904Y-82286904D01*
X297171809Y-82286904D01*
X297076571Y-82239285D01*
X297028952Y-82191666D01*
X296981333Y-82096428D01*
X296981333Y-81905952D01*
X297028952Y-81810714D01*
X297076571Y-81763095D01*
X297171809Y-81715476D01*
X288075380Y-156010714D02*
X287075380Y-156010714D01*
X287075380Y-156248809D01*
X287123000Y-156391666D01*
X287218238Y-156486904D01*
X287313476Y-156534523D01*
X287503952Y-156582142D01*
X287646809Y-156582142D01*
X287837285Y-156534523D01*
X287932523Y-156486904D01*
X288027761Y-156391666D01*
X288075380Y-156248809D01*
X288075380Y-156010714D01*
X287170619Y-156963095D02*
X287123000Y-157010714D01*
X287075380Y-157105952D01*
X287075380Y-157344047D01*
X287123000Y-157439285D01*
X287170619Y-157486904D01*
X287265857Y-157534523D01*
X287361095Y-157534523D01*
X287503952Y-157486904D01*
X288075380Y-156915476D01*
X288075380Y-157534523D01*
X287075380Y-158439285D02*
X287075380Y-157963095D01*
X287551571Y-157915476D01*
X287503952Y-157963095D01*
X287456333Y-158058333D01*
X287456333Y-158296428D01*
X287503952Y-158391666D01*
X287551571Y-158439285D01*
X287646809Y-158486904D01*
X287884904Y-158486904D01*
X287980142Y-158439285D01*
X288027761Y-158391666D01*
X288075380Y-158296428D01*
X288075380Y-158058333D01*
X288027761Y-157963095D01*
X287980142Y-157915476D01*
X278550380Y-136833714D02*
X277550380Y-136833714D01*
X277550380Y-137071809D01*
X277598000Y-137214666D01*
X277693238Y-137309904D01*
X277788476Y-137357523D01*
X277978952Y-137405142D01*
X278121809Y-137405142D01*
X278312285Y-137357523D01*
X278407523Y-137309904D01*
X278502761Y-137214666D01*
X278550380Y-137071809D01*
X278550380Y-136833714D01*
X277645619Y-137786095D02*
X277598000Y-137833714D01*
X277550380Y-137928952D01*
X277550380Y-138167047D01*
X277598000Y-138262285D01*
X277645619Y-138309904D01*
X277740857Y-138357523D01*
X277836095Y-138357523D01*
X277978952Y-138309904D01*
X278550380Y-137738476D01*
X278550380Y-138357523D01*
X277883714Y-139214666D02*
X278550380Y-139214666D01*
X277502761Y-138976571D02*
X278217047Y-138738476D01*
X278217047Y-139357523D01*
X288075380Y-117910714D02*
X287075380Y-117910714D01*
X287075380Y-118148809D01*
X287123000Y-118291666D01*
X287218238Y-118386904D01*
X287313476Y-118434523D01*
X287503952Y-118482142D01*
X287646809Y-118482142D01*
X287837285Y-118434523D01*
X287932523Y-118386904D01*
X288027761Y-118291666D01*
X288075380Y-118148809D01*
X288075380Y-117910714D01*
X287170619Y-118863095D02*
X287123000Y-118910714D01*
X287075380Y-119005952D01*
X287075380Y-119244047D01*
X287123000Y-119339285D01*
X287170619Y-119386904D01*
X287265857Y-119434523D01*
X287361095Y-119434523D01*
X287503952Y-119386904D01*
X288075380Y-118815476D01*
X288075380Y-119434523D01*
X287075380Y-119767857D02*
X287075380Y-120386904D01*
X287456333Y-120053571D01*
X287456333Y-120196428D01*
X287503952Y-120291666D01*
X287551571Y-120339285D01*
X287646809Y-120386904D01*
X287884904Y-120386904D01*
X287980142Y-120339285D01*
X288027761Y-120291666D01*
X288075380Y-120196428D01*
X288075380Y-119910714D01*
X288027761Y-119815476D01*
X287980142Y-119767857D01*
X278550380Y-98860714D02*
X277550380Y-98860714D01*
X277550380Y-99098809D01*
X277598000Y-99241666D01*
X277693238Y-99336904D01*
X277788476Y-99384523D01*
X277978952Y-99432142D01*
X278121809Y-99432142D01*
X278312285Y-99384523D01*
X278407523Y-99336904D01*
X278502761Y-99241666D01*
X278550380Y-99098809D01*
X278550380Y-98860714D01*
X277645619Y-99813095D02*
X277598000Y-99860714D01*
X277550380Y-99955952D01*
X277550380Y-100194047D01*
X277598000Y-100289285D01*
X277645619Y-100336904D01*
X277740857Y-100384523D01*
X277836095Y-100384523D01*
X277978952Y-100336904D01*
X278550380Y-99765476D01*
X278550380Y-100384523D01*
X277645619Y-100765476D02*
X277598000Y-100813095D01*
X277550380Y-100908333D01*
X277550380Y-101146428D01*
X277598000Y-101241666D01*
X277645619Y-101289285D01*
X277740857Y-101336904D01*
X277836095Y-101336904D01*
X277978952Y-101289285D01*
X278550380Y-100717857D01*
X278550380Y-101336904D01*
X278550380Y-79810714D02*
X277550380Y-79810714D01*
X277550380Y-80048809D01*
X277598000Y-80191666D01*
X277693238Y-80286904D01*
X277788476Y-80334523D01*
X277978952Y-80382142D01*
X278121809Y-80382142D01*
X278312285Y-80334523D01*
X278407523Y-80286904D01*
X278502761Y-80191666D01*
X278550380Y-80048809D01*
X278550380Y-79810714D01*
X277645619Y-80763095D02*
X277598000Y-80810714D01*
X277550380Y-80905952D01*
X277550380Y-81144047D01*
X277598000Y-81239285D01*
X277645619Y-81286904D01*
X277740857Y-81334523D01*
X277836095Y-81334523D01*
X277978952Y-81286904D01*
X278550380Y-80715476D01*
X278550380Y-81334523D01*
X278550380Y-82286904D02*
X278550380Y-81715476D01*
X278550380Y-82001190D02*
X277550380Y-82001190D01*
X277693238Y-81905952D01*
X277788476Y-81810714D01*
X277836095Y-81715476D01*
X264326380Y-156010714D02*
X263326380Y-156010714D01*
X263326380Y-156248809D01*
X263374000Y-156391666D01*
X263469238Y-156486904D01*
X263564476Y-156534523D01*
X263754952Y-156582142D01*
X263897809Y-156582142D01*
X264088285Y-156534523D01*
X264183523Y-156486904D01*
X264278761Y-156391666D01*
X264326380Y-156248809D01*
X264326380Y-156010714D01*
X263421619Y-156963095D02*
X263374000Y-157010714D01*
X263326380Y-157105952D01*
X263326380Y-157344047D01*
X263374000Y-157439285D01*
X263421619Y-157486904D01*
X263516857Y-157534523D01*
X263612095Y-157534523D01*
X263754952Y-157486904D01*
X264326380Y-156915476D01*
X264326380Y-157534523D01*
X263326380Y-158153571D02*
X263326380Y-158248809D01*
X263374000Y-158344047D01*
X263421619Y-158391666D01*
X263516857Y-158439285D01*
X263707333Y-158486904D01*
X263945428Y-158486904D01*
X264135904Y-158439285D01*
X264231142Y-158391666D01*
X264278761Y-158344047D01*
X264326380Y-158248809D01*
X264326380Y-158153571D01*
X264278761Y-158058333D01*
X264231142Y-158010714D01*
X264135904Y-157963095D01*
X263945428Y-157915476D01*
X263707333Y-157915476D01*
X263516857Y-157963095D01*
X263421619Y-158010714D01*
X263374000Y-158058333D01*
X263326380Y-158153571D01*
X259500380Y-136961714D02*
X258500380Y-136961714D01*
X258500380Y-137199809D01*
X258548000Y-137342666D01*
X258643238Y-137437904D01*
X258738476Y-137485523D01*
X258928952Y-137533142D01*
X259071809Y-137533142D01*
X259262285Y-137485523D01*
X259357523Y-137437904D01*
X259452761Y-137342666D01*
X259500380Y-137199809D01*
X259500380Y-136961714D01*
X259500380Y-138485523D02*
X259500380Y-137914095D01*
X259500380Y-138199809D02*
X258500380Y-138199809D01*
X258643238Y-138104571D01*
X258738476Y-138009333D01*
X258786095Y-137914095D01*
X259500380Y-138961714D02*
X259500380Y-139152190D01*
X259452761Y-139247428D01*
X259405142Y-139295047D01*
X259262285Y-139390285D01*
X259071809Y-139437904D01*
X258690857Y-139437904D01*
X258595619Y-139390285D01*
X258548000Y-139342666D01*
X258500380Y-139247428D01*
X258500380Y-139056952D01*
X258548000Y-138961714D01*
X258595619Y-138914095D01*
X258690857Y-138866476D01*
X258928952Y-138866476D01*
X259024190Y-138914095D01*
X259071809Y-138961714D01*
X259119428Y-139056952D01*
X259119428Y-139247428D01*
X259071809Y-139342666D01*
X259024190Y-139390285D01*
X258928952Y-139437904D01*
X269025380Y-117784714D02*
X268025380Y-117784714D01*
X268025380Y-118022809D01*
X268073000Y-118165666D01*
X268168238Y-118260904D01*
X268263476Y-118308523D01*
X268453952Y-118356142D01*
X268596809Y-118356142D01*
X268787285Y-118308523D01*
X268882523Y-118260904D01*
X268977761Y-118165666D01*
X269025380Y-118022809D01*
X269025380Y-117784714D01*
X269025380Y-119308523D02*
X269025380Y-118737095D01*
X269025380Y-119022809D02*
X268025380Y-119022809D01*
X268168238Y-118927571D01*
X268263476Y-118832333D01*
X268311095Y-118737095D01*
X268453952Y-119879952D02*
X268406333Y-119784714D01*
X268358714Y-119737095D01*
X268263476Y-119689476D01*
X268215857Y-119689476D01*
X268120619Y-119737095D01*
X268073000Y-119784714D01*
X268025380Y-119879952D01*
X268025380Y-120070428D01*
X268073000Y-120165666D01*
X268120619Y-120213285D01*
X268215857Y-120260904D01*
X268263476Y-120260904D01*
X268358714Y-120213285D01*
X268406333Y-120165666D01*
X268453952Y-120070428D01*
X268453952Y-119879952D01*
X268501571Y-119784714D01*
X268549190Y-119737095D01*
X268644428Y-119689476D01*
X268834904Y-119689476D01*
X268930142Y-119737095D01*
X268977761Y-119784714D01*
X269025380Y-119879952D01*
X269025380Y-120070428D01*
X268977761Y-120165666D01*
X268930142Y-120213285D01*
X268834904Y-120260904D01*
X268644428Y-120260904D01*
X268549190Y-120213285D01*
X268501571Y-120165666D01*
X268453952Y-120070428D01*
X259627380Y-98734714D02*
X258627380Y-98734714D01*
X258627380Y-98972809D01*
X258675000Y-99115666D01*
X258770238Y-99210904D01*
X258865476Y-99258523D01*
X259055952Y-99306142D01*
X259198809Y-99306142D01*
X259389285Y-99258523D01*
X259484523Y-99210904D01*
X259579761Y-99115666D01*
X259627380Y-98972809D01*
X259627380Y-98734714D01*
X259627380Y-100258523D02*
X259627380Y-99687095D01*
X259627380Y-99972809D02*
X258627380Y-99972809D01*
X258770238Y-99877571D01*
X258865476Y-99782333D01*
X258913095Y-99687095D01*
X258627380Y-100591857D02*
X258627380Y-101258523D01*
X259627380Y-100829952D01*
X259500380Y-79810714D02*
X258500380Y-79810714D01*
X258500380Y-80048809D01*
X258548000Y-80191666D01*
X258643238Y-80286904D01*
X258738476Y-80334523D01*
X258928952Y-80382142D01*
X259071809Y-80382142D01*
X259262285Y-80334523D01*
X259357523Y-80286904D01*
X259452761Y-80191666D01*
X259500380Y-80048809D01*
X259500380Y-79810714D01*
X259500380Y-81334523D02*
X259500380Y-80763095D01*
X259500380Y-81048809D02*
X258500380Y-81048809D01*
X258643238Y-80953571D01*
X258738476Y-80858333D01*
X258786095Y-80763095D01*
X258500380Y-82191666D02*
X258500380Y-82001190D01*
X258548000Y-81905952D01*
X258595619Y-81858333D01*
X258738476Y-81763095D01*
X258928952Y-81715476D01*
X259309904Y-81715476D01*
X259405142Y-81763095D01*
X259452761Y-81810714D01*
X259500380Y-81905952D01*
X259500380Y-82096428D01*
X259452761Y-82191666D01*
X259405142Y-82239285D01*
X259309904Y-82286904D01*
X259071809Y-82286904D01*
X258976571Y-82239285D01*
X258928952Y-82191666D01*
X258881333Y-82096428D01*
X258881333Y-81905952D01*
X258928952Y-81810714D01*
X258976571Y-81763095D01*
X259071809Y-81715476D01*
X240450380Y-156010714D02*
X239450380Y-156010714D01*
X239450380Y-156248809D01*
X239498000Y-156391666D01*
X239593238Y-156486904D01*
X239688476Y-156534523D01*
X239878952Y-156582142D01*
X240021809Y-156582142D01*
X240212285Y-156534523D01*
X240307523Y-156486904D01*
X240402761Y-156391666D01*
X240450380Y-156248809D01*
X240450380Y-156010714D01*
X240450380Y-157534523D02*
X240450380Y-156963095D01*
X240450380Y-157248809D02*
X239450380Y-157248809D01*
X239593238Y-157153571D01*
X239688476Y-157058333D01*
X239736095Y-156963095D01*
X239450380Y-158439285D02*
X239450380Y-157963095D01*
X239926571Y-157915476D01*
X239878952Y-157963095D01*
X239831333Y-158058333D01*
X239831333Y-158296428D01*
X239878952Y-158391666D01*
X239926571Y-158439285D01*
X240021809Y-158486904D01*
X240259904Y-158486904D01*
X240355142Y-158439285D01*
X240402761Y-158391666D01*
X240450380Y-158296428D01*
X240450380Y-158058333D01*
X240402761Y-157963095D01*
X240355142Y-157915476D01*
X240450380Y-136834714D02*
X239450380Y-136834714D01*
X239450380Y-137072809D01*
X239498000Y-137215666D01*
X239593238Y-137310904D01*
X239688476Y-137358523D01*
X239878952Y-137406142D01*
X240021809Y-137406142D01*
X240212285Y-137358523D01*
X240307523Y-137310904D01*
X240402761Y-137215666D01*
X240450380Y-137072809D01*
X240450380Y-136834714D01*
X240450380Y-138358523D02*
X240450380Y-137787095D01*
X240450380Y-138072809D02*
X239450380Y-138072809D01*
X239593238Y-137977571D01*
X239688476Y-137882333D01*
X239736095Y-137787095D01*
X239783714Y-139215666D02*
X240450380Y-139215666D01*
X239402761Y-138977571D02*
X240117047Y-138739476D01*
X240117047Y-139358523D01*
X250102380Y-117911714D02*
X249102380Y-117911714D01*
X249102380Y-118149809D01*
X249150000Y-118292666D01*
X249245238Y-118387904D01*
X249340476Y-118435523D01*
X249530952Y-118483142D01*
X249673809Y-118483142D01*
X249864285Y-118435523D01*
X249959523Y-118387904D01*
X250054761Y-118292666D01*
X250102380Y-118149809D01*
X250102380Y-117911714D01*
X250102380Y-119435523D02*
X250102380Y-118864095D01*
X250102380Y-119149809D02*
X249102380Y-119149809D01*
X249245238Y-119054571D01*
X249340476Y-118959333D01*
X249388095Y-118864095D01*
X249102380Y-119768857D02*
X249102380Y-120387904D01*
X249483333Y-120054571D01*
X249483333Y-120197428D01*
X249530952Y-120292666D01*
X249578571Y-120340285D01*
X249673809Y-120387904D01*
X249911904Y-120387904D01*
X250007142Y-120340285D01*
X250054761Y-120292666D01*
X250102380Y-120197428D01*
X250102380Y-119911714D01*
X250054761Y-119816476D01*
X250007142Y-119768857D01*
X240577380Y-98860714D02*
X239577380Y-98860714D01*
X239577380Y-99098809D01*
X239625000Y-99241666D01*
X239720238Y-99336904D01*
X239815476Y-99384523D01*
X240005952Y-99432142D01*
X240148809Y-99432142D01*
X240339285Y-99384523D01*
X240434523Y-99336904D01*
X240529761Y-99241666D01*
X240577380Y-99098809D01*
X240577380Y-98860714D01*
X240577380Y-100384523D02*
X240577380Y-99813095D01*
X240577380Y-100098809D02*
X239577380Y-100098809D01*
X239720238Y-100003571D01*
X239815476Y-99908333D01*
X239863095Y-99813095D01*
X239672619Y-100765476D02*
X239625000Y-100813095D01*
X239577380Y-100908333D01*
X239577380Y-101146428D01*
X239625000Y-101241666D01*
X239672619Y-101289285D01*
X239767857Y-101336904D01*
X239863095Y-101336904D01*
X240005952Y-101289285D01*
X240577380Y-100717857D01*
X240577380Y-101336904D01*
X240450380Y-79937714D02*
X239450380Y-79937714D01*
X239450380Y-80175809D01*
X239498000Y-80318666D01*
X239593238Y-80413904D01*
X239688476Y-80461523D01*
X239878952Y-80509142D01*
X240021809Y-80509142D01*
X240212285Y-80461523D01*
X240307523Y-80413904D01*
X240402761Y-80318666D01*
X240450380Y-80175809D01*
X240450380Y-79937714D01*
X240450380Y-81461523D02*
X240450380Y-80890095D01*
X240450380Y-81175809D02*
X239450380Y-81175809D01*
X239593238Y-81080571D01*
X239688476Y-80985333D01*
X239736095Y-80890095D01*
X240450380Y-82413904D02*
X240450380Y-81842476D01*
X240450380Y-82128190D02*
X239450380Y-82128190D01*
X239593238Y-82032952D01*
X239688476Y-81937714D01*
X239736095Y-81842476D01*
X221400380Y-156011714D02*
X220400380Y-156011714D01*
X220400380Y-156249809D01*
X220448000Y-156392666D01*
X220543238Y-156487904D01*
X220638476Y-156535523D01*
X220828952Y-156583142D01*
X220971809Y-156583142D01*
X221162285Y-156535523D01*
X221257523Y-156487904D01*
X221352761Y-156392666D01*
X221400380Y-156249809D01*
X221400380Y-156011714D01*
X221400380Y-157535523D02*
X221400380Y-156964095D01*
X221400380Y-157249809D02*
X220400380Y-157249809D01*
X220543238Y-157154571D01*
X220638476Y-157059333D01*
X220686095Y-156964095D01*
X220400380Y-158154571D02*
X220400380Y-158249809D01*
X220448000Y-158345047D01*
X220495619Y-158392666D01*
X220590857Y-158440285D01*
X220781333Y-158487904D01*
X221019428Y-158487904D01*
X221209904Y-158440285D01*
X221305142Y-158392666D01*
X221352761Y-158345047D01*
X221400380Y-158249809D01*
X221400380Y-158154571D01*
X221352761Y-158059333D01*
X221305142Y-158011714D01*
X221209904Y-157964095D01*
X221019428Y-157916476D01*
X220781333Y-157916476D01*
X220590857Y-157964095D01*
X220495619Y-158011714D01*
X220448000Y-158059333D01*
X220400380Y-158154571D01*
X221400380Y-137309904D02*
X220400380Y-137309904D01*
X220400380Y-137548000D01*
X220448000Y-137690857D01*
X220543238Y-137786095D01*
X220638476Y-137833714D01*
X220828952Y-137881333D01*
X220971809Y-137881333D01*
X221162285Y-137833714D01*
X221257523Y-137786095D01*
X221352761Y-137690857D01*
X221400380Y-137548000D01*
X221400380Y-137309904D01*
X221400380Y-138357523D02*
X221400380Y-138548000D01*
X221352761Y-138643238D01*
X221305142Y-138690857D01*
X221162285Y-138786095D01*
X220971809Y-138833714D01*
X220590857Y-138833714D01*
X220495619Y-138786095D01*
X220448000Y-138738476D01*
X220400380Y-138643238D01*
X220400380Y-138452761D01*
X220448000Y-138357523D01*
X220495619Y-138309904D01*
X220590857Y-138262285D01*
X220828952Y-138262285D01*
X220924190Y-138309904D01*
X220971809Y-138357523D01*
X221019428Y-138452761D01*
X221019428Y-138643238D01*
X220971809Y-138738476D01*
X220924190Y-138786095D01*
X220828952Y-138833714D01*
X230925380Y-118259904D02*
X229925380Y-118259904D01*
X229925380Y-118498000D01*
X229973000Y-118640857D01*
X230068238Y-118736095D01*
X230163476Y-118783714D01*
X230353952Y-118831333D01*
X230496809Y-118831333D01*
X230687285Y-118783714D01*
X230782523Y-118736095D01*
X230877761Y-118640857D01*
X230925380Y-118498000D01*
X230925380Y-118259904D01*
X230353952Y-119402761D02*
X230306333Y-119307523D01*
X230258714Y-119259904D01*
X230163476Y-119212285D01*
X230115857Y-119212285D01*
X230020619Y-119259904D01*
X229973000Y-119307523D01*
X229925380Y-119402761D01*
X229925380Y-119593238D01*
X229973000Y-119688476D01*
X230020619Y-119736095D01*
X230115857Y-119783714D01*
X230163476Y-119783714D01*
X230258714Y-119736095D01*
X230306333Y-119688476D01*
X230353952Y-119593238D01*
X230353952Y-119402761D01*
X230401571Y-119307523D01*
X230449190Y-119259904D01*
X230544428Y-119212285D01*
X230734904Y-119212285D01*
X230830142Y-119259904D01*
X230877761Y-119307523D01*
X230925380Y-119402761D01*
X230925380Y-119593238D01*
X230877761Y-119688476D01*
X230830142Y-119736095D01*
X230734904Y-119783714D01*
X230544428Y-119783714D01*
X230449190Y-119736095D01*
X230401571Y-119688476D01*
X230353952Y-119593238D01*
X202350380Y-156486904D02*
X201350380Y-156486904D01*
X201350380Y-156725000D01*
X201398000Y-156867857D01*
X201493238Y-156963095D01*
X201588476Y-157010714D01*
X201778952Y-157058333D01*
X201921809Y-157058333D01*
X202112285Y-157010714D01*
X202207523Y-156963095D01*
X202302761Y-156867857D01*
X202350380Y-156725000D01*
X202350380Y-156486904D01*
X201350380Y-157391666D02*
X201350380Y-158058333D01*
X202350380Y-157629761D01*
X202350380Y-137437904D02*
X201350380Y-137437904D01*
X201350380Y-137676000D01*
X201398000Y-137818857D01*
X201493238Y-137914095D01*
X201588476Y-137961714D01*
X201778952Y-138009333D01*
X201921809Y-138009333D01*
X202112285Y-137961714D01*
X202207523Y-137914095D01*
X202302761Y-137818857D01*
X202350380Y-137676000D01*
X202350380Y-137437904D01*
X201350380Y-138866476D02*
X201350380Y-138676000D01*
X201398000Y-138580761D01*
X201445619Y-138533142D01*
X201588476Y-138437904D01*
X201778952Y-138390285D01*
X202159904Y-138390285D01*
X202255142Y-138437904D01*
X202302761Y-138485523D01*
X202350380Y-138580761D01*
X202350380Y-138771238D01*
X202302761Y-138866476D01*
X202255142Y-138914095D01*
X202159904Y-138961714D01*
X201921809Y-138961714D01*
X201826571Y-138914095D01*
X201778952Y-138866476D01*
X201731333Y-138771238D01*
X201731333Y-138580761D01*
X201778952Y-138485523D01*
X201826571Y-138437904D01*
X201921809Y-138390285D01*
X212002380Y-118386904D02*
X211002380Y-118386904D01*
X211002380Y-118625000D01*
X211050000Y-118767857D01*
X211145238Y-118863095D01*
X211240476Y-118910714D01*
X211430952Y-118958333D01*
X211573809Y-118958333D01*
X211764285Y-118910714D01*
X211859523Y-118863095D01*
X211954761Y-118767857D01*
X212002380Y-118625000D01*
X212002380Y-118386904D01*
X211002380Y-119863095D02*
X211002380Y-119386904D01*
X211478571Y-119339285D01*
X211430952Y-119386904D01*
X211383333Y-119482142D01*
X211383333Y-119720238D01*
X211430952Y-119815476D01*
X211478571Y-119863095D01*
X211573809Y-119910714D01*
X211811904Y-119910714D01*
X211907142Y-119863095D01*
X211954761Y-119815476D01*
X212002380Y-119720238D01*
X212002380Y-119482142D01*
X211954761Y-119386904D01*
X211907142Y-119339285D01*
X368673130Y-177998654D02*
X369482654Y-177998654D01*
X369577892Y-178046273D01*
X369625511Y-178093892D01*
X369673130Y-178189130D01*
X369673130Y-178379607D01*
X369625511Y-178474845D01*
X369577892Y-178522464D01*
X369482654Y-178570083D01*
X368673130Y-178570083D01*
X369625511Y-178998654D02*
X369673130Y-179141511D01*
X369673130Y-179379607D01*
X369625511Y-179474845D01*
X369577892Y-179522464D01*
X369482654Y-179570083D01*
X369387416Y-179570083D01*
X369292178Y-179522464D01*
X369244559Y-179474845D01*
X369196940Y-179379607D01*
X369149321Y-179189130D01*
X369101702Y-179093892D01*
X369054083Y-179046273D01*
X368958845Y-178998654D01*
X368863607Y-178998654D01*
X368768369Y-179046273D01*
X368720750Y-179093892D01*
X368673130Y-179189130D01*
X368673130Y-179427226D01*
X368720750Y-179570083D01*
X369149321Y-180331988D02*
X369196940Y-180474845D01*
X369244559Y-180522464D01*
X369339797Y-180570083D01*
X369482654Y-180570083D01*
X369577892Y-180522464D01*
X369625511Y-180474845D01*
X369673130Y-180379607D01*
X369673130Y-179998654D01*
X368673130Y-179998654D01*
X368673130Y-180331988D01*
X368720750Y-180427226D01*
X368768369Y-180474845D01*
X368863607Y-180522464D01*
X368958845Y-180522464D01*
X369054083Y-180474845D01*
X369101702Y-180427226D01*
X369149321Y-180331988D01*
X369149321Y-179998654D01*
X369673130Y-181522464D02*
X369673130Y-180951035D01*
X369673130Y-181236750D02*
X368673130Y-181236750D01*
X368815988Y-181141511D01*
X368911226Y-181046273D01*
X368958845Y-180951035D01*
X327003190Y-183621559D02*
X327479380Y-183621559D01*
X326479380Y-183288226D02*
X327003190Y-183621559D01*
X326479380Y-183954892D01*
X327479380Y-184812035D02*
X327479380Y-184240607D01*
X327479380Y-184526321D02*
X326479380Y-184526321D01*
X326622238Y-184431083D01*
X326717476Y-184335845D01*
X326765095Y-184240607D01*
X349389630Y-188309345D02*
X350199154Y-188309345D01*
X350294392Y-188356964D01*
X350342011Y-188404583D01*
X350389630Y-188499821D01*
X350389630Y-188690297D01*
X350342011Y-188785535D01*
X350294392Y-188833154D01*
X350199154Y-188880773D01*
X349389630Y-188880773D01*
X350389630Y-189880773D02*
X350389630Y-189309345D01*
X350389630Y-189595059D02*
X349389630Y-189595059D01*
X349532488Y-189499821D01*
X349627726Y-189404583D01*
X349675345Y-189309345D01*
X373054511Y-191357416D02*
X373102130Y-191500273D01*
X373102130Y-191738369D01*
X373054511Y-191833607D01*
X373006892Y-191881226D01*
X372911654Y-191928845D01*
X372816416Y-191928845D01*
X372721178Y-191881226D01*
X372673559Y-191833607D01*
X372625940Y-191738369D01*
X372578321Y-191547892D01*
X372530702Y-191452654D01*
X372483083Y-191405035D01*
X372387845Y-191357416D01*
X372292607Y-191357416D01*
X372197369Y-191405035D01*
X372149750Y-191452654D01*
X372102130Y-191547892D01*
X372102130Y-191785988D01*
X372149750Y-191928845D01*
X372102130Y-192262178D02*
X373102130Y-192500273D01*
X372387845Y-192690750D01*
X373102130Y-192881226D01*
X372102130Y-193119321D01*
X373102130Y-194024083D02*
X373102130Y-193452654D01*
X373102130Y-193738369D02*
X372102130Y-193738369D01*
X372244988Y-193643130D01*
X372340226Y-193547892D01*
X372387845Y-193452654D01*
X347875916Y-178412130D02*
X348209250Y-177935940D01*
X348447345Y-178412130D02*
X348447345Y-177412130D01*
X348066392Y-177412130D01*
X347971154Y-177459750D01*
X347923535Y-177507369D01*
X347875916Y-177602607D01*
X347875916Y-177745464D01*
X347923535Y-177840702D01*
X347971154Y-177888321D01*
X348066392Y-177935940D01*
X348447345Y-177935940D01*
X347018773Y-177745464D02*
X347018773Y-178412130D01*
X347256869Y-177364511D02*
X347494964Y-178078797D01*
X346875916Y-178078797D01*
X336034916Y-198605130D02*
X336368250Y-198128940D01*
X336606345Y-198605130D02*
X336606345Y-197605130D01*
X336225392Y-197605130D01*
X336130154Y-197652750D01*
X336082535Y-197700369D01*
X336034916Y-197795607D01*
X336034916Y-197938464D01*
X336082535Y-198033702D01*
X336130154Y-198081321D01*
X336225392Y-198128940D01*
X336606345Y-198128940D01*
X335701583Y-197605130D02*
X335082535Y-197605130D01*
X335415869Y-197986083D01*
X335273011Y-197986083D01*
X335177773Y-198033702D01*
X335130154Y-198081321D01*
X335082535Y-198176559D01*
X335082535Y-198414654D01*
X335130154Y-198509892D01*
X335177773Y-198557511D01*
X335273011Y-198605130D01*
X335558726Y-198605130D01*
X335653964Y-198557511D01*
X335701583Y-198509892D01*
X358162916Y-189588130D02*
X358496250Y-189111940D01*
X358734345Y-189588130D02*
X358734345Y-188588130D01*
X358353392Y-188588130D01*
X358258154Y-188635750D01*
X358210535Y-188683369D01*
X358162916Y-188778607D01*
X358162916Y-188921464D01*
X358210535Y-189016702D01*
X358258154Y-189064321D01*
X358353392Y-189111940D01*
X358734345Y-189111940D01*
X357781964Y-188683369D02*
X357734345Y-188635750D01*
X357639107Y-188588130D01*
X357401011Y-188588130D01*
X357305773Y-188635750D01*
X357258154Y-188683369D01*
X357210535Y-188778607D01*
X357210535Y-188873845D01*
X357258154Y-189016702D01*
X357829583Y-189588130D01*
X357210535Y-189588130D01*
X358162916Y-193271130D02*
X358496250Y-192794940D01*
X358734345Y-193271130D02*
X358734345Y-192271130D01*
X358353392Y-192271130D01*
X358258154Y-192318750D01*
X358210535Y-192366369D01*
X358162916Y-192461607D01*
X358162916Y-192604464D01*
X358210535Y-192699702D01*
X358258154Y-192747321D01*
X358353392Y-192794940D01*
X358734345Y-192794940D01*
X357210535Y-193271130D02*
X357781964Y-193271130D01*
X357496250Y-193271130D02*
X357496250Y-192271130D01*
X357591488Y-192413988D01*
X357686726Y-192509226D01*
X357781964Y-192556845D01*
X221527380Y-99336904D02*
X220527380Y-99336904D01*
X220527380Y-99575000D01*
X220575000Y-99717857D01*
X220670238Y-99813095D01*
X220765476Y-99860714D01*
X220955952Y-99908333D01*
X221098809Y-99908333D01*
X221289285Y-99860714D01*
X221384523Y-99813095D01*
X221479761Y-99717857D01*
X221527380Y-99575000D01*
X221527380Y-99336904D01*
X220860714Y-100765476D02*
X221527380Y-100765476D01*
X220479761Y-100527380D02*
X221194047Y-100289285D01*
X221194047Y-100908333D01*
X202477380Y-99336904D02*
X201477380Y-99336904D01*
X201477380Y-99575000D01*
X201525000Y-99717857D01*
X201620238Y-99813095D01*
X201715476Y-99860714D01*
X201905952Y-99908333D01*
X202048809Y-99908333D01*
X202239285Y-99860714D01*
X202334523Y-99813095D01*
X202429761Y-99717857D01*
X202477380Y-99575000D01*
X202477380Y-99336904D01*
X201572619Y-100289285D02*
X201525000Y-100336904D01*
X201477380Y-100432142D01*
X201477380Y-100670238D01*
X201525000Y-100765476D01*
X201572619Y-100813095D01*
X201667857Y-100860714D01*
X201763095Y-100860714D01*
X201905952Y-100813095D01*
X202477380Y-100241666D01*
X202477380Y-100860714D01*
X354082892Y-192651083D02*
X354130511Y-192603464D01*
X354178130Y-192460607D01*
X354178130Y-192365369D01*
X354130511Y-192222511D01*
X354035273Y-192127273D01*
X353940035Y-192079654D01*
X353749559Y-192032035D01*
X353606702Y-192032035D01*
X353416226Y-192079654D01*
X353320988Y-192127273D01*
X353225750Y-192222511D01*
X353178130Y-192365369D01*
X353178130Y-192460607D01*
X353225750Y-192603464D01*
X353273369Y-192651083D01*
X353178130Y-192984416D02*
X353178130Y-193651083D01*
X354178130Y-193222511D01*
X340987916Y-197366892D02*
X341035535Y-197414511D01*
X341178392Y-197462130D01*
X341273630Y-197462130D01*
X341416488Y-197414511D01*
X341511726Y-197319273D01*
X341559345Y-197224035D01*
X341606964Y-197033559D01*
X341606964Y-196890702D01*
X341559345Y-196700226D01*
X341511726Y-196604988D01*
X341416488Y-196509750D01*
X341273630Y-196462130D01*
X341178392Y-196462130D01*
X341035535Y-196509750D01*
X340987916Y-196557369D01*
X340130773Y-196462130D02*
X340321250Y-196462130D01*
X340416488Y-196509750D01*
X340464107Y-196557369D01*
X340559345Y-196700226D01*
X340606964Y-196890702D01*
X340606964Y-197271654D01*
X340559345Y-197366892D01*
X340511726Y-197414511D01*
X340416488Y-197462130D01*
X340226011Y-197462130D01*
X340130773Y-197414511D01*
X340083154Y-197366892D01*
X340035535Y-197271654D01*
X340035535Y-197033559D01*
X340083154Y-196938321D01*
X340130773Y-196890702D01*
X340226011Y-196843083D01*
X340416488Y-196843083D01*
X340511726Y-196890702D01*
X340559345Y-196938321D01*
X340606964Y-197033559D01*
X350719392Y-185079583D02*
X350767011Y-185031964D01*
X350814630Y-184889107D01*
X350814630Y-184793869D01*
X350767011Y-184651011D01*
X350671773Y-184555773D01*
X350576535Y-184508154D01*
X350386059Y-184460535D01*
X350243202Y-184460535D01*
X350052726Y-184508154D01*
X349957488Y-184555773D01*
X349862250Y-184651011D01*
X349814630Y-184793869D01*
X349814630Y-184889107D01*
X349862250Y-185031964D01*
X349909869Y-185079583D01*
X349814630Y-185984345D02*
X349814630Y-185508154D01*
X350290821Y-185460535D01*
X350243202Y-185508154D01*
X350195583Y-185603392D01*
X350195583Y-185841488D01*
X350243202Y-185936726D01*
X350290821Y-185984345D01*
X350386059Y-186031964D01*
X350624154Y-186031964D01*
X350719392Y-185984345D01*
X350767011Y-185936726D01*
X350814630Y-185841488D01*
X350814630Y-185603392D01*
X350767011Y-185508154D01*
X350719392Y-185460535D01*
X329699916Y-191173642D02*
X329747535Y-191221261D01*
X329890392Y-191268880D01*
X329985630Y-191268880D01*
X330128488Y-191221261D01*
X330223726Y-191126023D01*
X330271345Y-191030785D01*
X330318964Y-190840309D01*
X330318964Y-190697452D01*
X330271345Y-190506976D01*
X330223726Y-190411738D01*
X330128488Y-190316500D01*
X329985630Y-190268880D01*
X329890392Y-190268880D01*
X329747535Y-190316500D01*
X329699916Y-190364119D01*
X328842773Y-190602214D02*
X328842773Y-191268880D01*
X329080869Y-190221261D02*
X329318964Y-190935547D01*
X328699916Y-190935547D01*
X329556166Y-178348642D02*
X329603785Y-178396261D01*
X329746642Y-178443880D01*
X329841880Y-178443880D01*
X329984738Y-178396261D01*
X330079976Y-178301023D01*
X330127595Y-178205785D01*
X330175214Y-178015309D01*
X330175214Y-177872452D01*
X330127595Y-177681976D01*
X330079976Y-177586738D01*
X329984738Y-177491500D01*
X329841880Y-177443880D01*
X329746642Y-177443880D01*
X329603785Y-177491500D01*
X329556166Y-177539119D01*
X329222833Y-177443880D02*
X328603785Y-177443880D01*
X328937119Y-177824833D01*
X328794261Y-177824833D01*
X328699023Y-177872452D01*
X328651404Y-177920071D01*
X328603785Y-178015309D01*
X328603785Y-178253404D01*
X328651404Y-178348642D01*
X328699023Y-178396261D01*
X328794261Y-178443880D01*
X329079976Y-178443880D01*
X329175214Y-178396261D01*
X329222833Y-178348642D01*
X334066416Y-195715892D02*
X334114035Y-195763511D01*
X334256892Y-195811130D01*
X334352130Y-195811130D01*
X334494988Y-195763511D01*
X334590226Y-195668273D01*
X334637845Y-195573035D01*
X334685464Y-195382559D01*
X334685464Y-195239702D01*
X334637845Y-195049226D01*
X334590226Y-194953988D01*
X334494988Y-194858750D01*
X334352130Y-194811130D01*
X334256892Y-194811130D01*
X334114035Y-194858750D01*
X334066416Y-194906369D01*
X333685464Y-194906369D02*
X333637845Y-194858750D01*
X333542607Y-194811130D01*
X333304511Y-194811130D01*
X333209273Y-194858750D01*
X333161654Y-194906369D01*
X333114035Y-195001607D01*
X333114035Y-195096845D01*
X333161654Y-195239702D01*
X333733083Y-195811130D01*
X333114035Y-195811130D01*
X338035166Y-178253392D02*
X338082785Y-178301011D01*
X338225642Y-178348630D01*
X338320880Y-178348630D01*
X338463738Y-178301011D01*
X338558976Y-178205773D01*
X338606595Y-178110535D01*
X338654214Y-177920059D01*
X338654214Y-177777202D01*
X338606595Y-177586726D01*
X338558976Y-177491488D01*
X338463738Y-177396250D01*
X338320880Y-177348630D01*
X338225642Y-177348630D01*
X338082785Y-177396250D01*
X338035166Y-177443869D01*
X337082785Y-178348630D02*
X337654214Y-178348630D01*
X337368500Y-178348630D02*
X337368500Y-177348630D01*
X337463738Y-177491488D01*
X337558976Y-177586726D01*
X337654214Y-177634345D01*
%LPC*%
D12*
X368617500Y-138112500D03*
X358457500Y-138112500D03*
D13*
X364807500Y-143192500D03*
D14*
X362267500Y-143192500D03*
D15*
X361037500Y-134112500D03*
D16*
X363537500Y-138112500D03*
D15*
X360382501Y-134842500D03*
D17*
X359727500Y-135572500D02*
X361037502Y-134112500D01*
D15*
X366077500Y-133032500D03*
X366057500Y-133322500D03*
D17*
X366037500Y-133612500D02*
X366077500Y-133032500D01*
D18*
G36*
X357965854Y-183003052D02*
G01*
X357992102Y-183006946D01*
X358017843Y-183013393D01*
X358042828Y-183022333D01*
X358066816Y-183033678D01*
X358089576Y-183047321D01*
X358110890Y-183063128D01*
X358130552Y-183080948D01*
X358148372Y-183100610D01*
X358164179Y-183121924D01*
X358177822Y-183144684D01*
X358189167Y-183168672D01*
X358198107Y-183193657D01*
X358204554Y-183219398D01*
X358208448Y-183245646D01*
X358209750Y-183272150D01*
X358209750Y-184583350D01*
X358208448Y-184609854D01*
X358204554Y-184636102D01*
X358198107Y-184661843D01*
X358189167Y-184686828D01*
X358177822Y-184710816D01*
X358164179Y-184733576D01*
X358148372Y-184754890D01*
X358130552Y-184774552D01*
X358110890Y-184792372D01*
X358089576Y-184808179D01*
X358066816Y-184821822D01*
X358042828Y-184833167D01*
X358017843Y-184842107D01*
X357992102Y-184848554D01*
X357965854Y-184852448D01*
X357939350Y-184853750D01*
X357128150Y-184853750D01*
X357101646Y-184852448D01*
X357075398Y-184848554D01*
X357049657Y-184842107D01*
X357024672Y-184833167D01*
X357000684Y-184821822D01*
X356977924Y-184808179D01*
X356956610Y-184792372D01*
X356936948Y-184774552D01*
X356919128Y-184754890D01*
X356903321Y-184733576D01*
X356889678Y-184710816D01*
X356878333Y-184686828D01*
X356869393Y-184661843D01*
X356862946Y-184636102D01*
X356859052Y-184609854D01*
X356857750Y-184583350D01*
X356857750Y-183272150D01*
X356859052Y-183245646D01*
X356862946Y-183219398D01*
X356869393Y-183193657D01*
X356878333Y-183168672D01*
X356889678Y-183144684D01*
X356903321Y-183121924D01*
X356919128Y-183100610D01*
X356936948Y-183080948D01*
X356956610Y-183063128D01*
X356977924Y-183047321D01*
X357000684Y-183033678D01*
X357024672Y-183022333D01*
X357049657Y-183013393D01*
X357075398Y-183006946D01*
X357101646Y-183003052D01*
X357128150Y-183001750D01*
X357939350Y-183001750D01*
X357965854Y-183003052D01*
X357965854Y-183003052D01*
G37*
D19*
X357533750Y-183927750D03*
D18*
G36*
X360765854Y-183003052D02*
G01*
X360792102Y-183006946D01*
X360817843Y-183013393D01*
X360842828Y-183022333D01*
X360866816Y-183033678D01*
X360889576Y-183047321D01*
X360910890Y-183063128D01*
X360930552Y-183080948D01*
X360948372Y-183100610D01*
X360964179Y-183121924D01*
X360977822Y-183144684D01*
X360989167Y-183168672D01*
X360998107Y-183193657D01*
X361004554Y-183219398D01*
X361008448Y-183245646D01*
X361009750Y-183272150D01*
X361009750Y-184583350D01*
X361008448Y-184609854D01*
X361004554Y-184636102D01*
X360998107Y-184661843D01*
X360989167Y-184686828D01*
X360977822Y-184710816D01*
X360964179Y-184733576D01*
X360948372Y-184754890D01*
X360930552Y-184774552D01*
X360910890Y-184792372D01*
X360889576Y-184808179D01*
X360866816Y-184821822D01*
X360842828Y-184833167D01*
X360817843Y-184842107D01*
X360792102Y-184848554D01*
X360765854Y-184852448D01*
X360739350Y-184853750D01*
X359928150Y-184853750D01*
X359901646Y-184852448D01*
X359875398Y-184848554D01*
X359849657Y-184842107D01*
X359824672Y-184833167D01*
X359800684Y-184821822D01*
X359777924Y-184808179D01*
X359756610Y-184792372D01*
X359736948Y-184774552D01*
X359719128Y-184754890D01*
X359703321Y-184733576D01*
X359689678Y-184710816D01*
X359678333Y-184686828D01*
X359669393Y-184661843D01*
X359662946Y-184636102D01*
X359659052Y-184609854D01*
X359657750Y-184583350D01*
X359657750Y-183272150D01*
X359659052Y-183245646D01*
X359662946Y-183219398D01*
X359669393Y-183193657D01*
X359678333Y-183168672D01*
X359689678Y-183144684D01*
X359703321Y-183121924D01*
X359719128Y-183100610D01*
X359736948Y-183080948D01*
X359756610Y-183063128D01*
X359777924Y-183047321D01*
X359800684Y-183033678D01*
X359824672Y-183022333D01*
X359849657Y-183013393D01*
X359875398Y-183006946D01*
X359901646Y-183003052D01*
X359928150Y-183001750D01*
X360739350Y-183001750D01*
X360765854Y-183003052D01*
X360765854Y-183003052D01*
G37*
D19*
X360333750Y-183927750D03*
D20*
X219075000Y-79375000D03*
X219075000Y-82675000D03*
D15*
X194607500Y-76172500D03*
D17*
X194587500Y-76462500D02*
X194627500Y-75882500D01*
D15*
X194627500Y-75882500D03*
X188932501Y-77692500D03*
D17*
X188277500Y-78422500D02*
X189587502Y-76962500D01*
D16*
X192087500Y-80962500D03*
D15*
X189587500Y-76962500D03*
D14*
X190817500Y-86042500D03*
D13*
X193357500Y-86042500D03*
D12*
X187007500Y-80962500D03*
X197167500Y-80962500D03*
D20*
X200025000Y-79375000D03*
X200025000Y-82675000D03*
D12*
X368617500Y-100012500D03*
X358457500Y-100012500D03*
D13*
X364807500Y-105092500D03*
D14*
X362267500Y-105092500D03*
D15*
X361037500Y-96012500D03*
D16*
X363537500Y-100012500D03*
D15*
X360382501Y-96742500D03*
D17*
X359727500Y-97472500D02*
X361037502Y-96012500D01*
D15*
X366077500Y-94932500D03*
X366057500Y-95222500D03*
D17*
X366037500Y-95512500D02*
X366077500Y-94932500D01*
D12*
X368617500Y-80962500D03*
X358457500Y-80962500D03*
D13*
X364807500Y-86042500D03*
D14*
X362267500Y-86042500D03*
D15*
X361037500Y-76962500D03*
D16*
X363537500Y-80962500D03*
D15*
X360382501Y-77692500D03*
D17*
X359727500Y-78422500D02*
X361037502Y-76962500D01*
D15*
X366077500Y-75882500D03*
X366057500Y-76172500D03*
D17*
X366037500Y-76462500D02*
X366077500Y-75882500D01*
D12*
X368617500Y-157162500D03*
X358457500Y-157162500D03*
D13*
X364807500Y-162242500D03*
D14*
X362267500Y-162242500D03*
D15*
X361037500Y-153162500D03*
D16*
X363537500Y-157162500D03*
D15*
X360382501Y-153892500D03*
D17*
X359727500Y-154622500D02*
X361037502Y-153162500D01*
D15*
X366077500Y-152082500D03*
X366057500Y-152372500D03*
D17*
X366037500Y-152662500D02*
X366077500Y-152082500D01*
D12*
X349567500Y-138112500D03*
X339407500Y-138112500D03*
D13*
X345757500Y-143192500D03*
D14*
X343217500Y-143192500D03*
D15*
X341987500Y-134112500D03*
D16*
X344487500Y-138112500D03*
D15*
X341332501Y-134842500D03*
D17*
X340677500Y-135572500D02*
X341987502Y-134112500D01*
D15*
X347027500Y-133032500D03*
X347007500Y-133322500D03*
D17*
X346987500Y-133612500D02*
X347027500Y-133032500D01*
D12*
X359092500Y-119062500D03*
X348932500Y-119062500D03*
D13*
X355282500Y-124142500D03*
D14*
X352742500Y-124142500D03*
D15*
X351512500Y-115062500D03*
D16*
X354012500Y-119062500D03*
D15*
X350857501Y-115792500D03*
D17*
X350202500Y-116522500D02*
X351512502Y-115062500D01*
D15*
X356552500Y-113982500D03*
X356532500Y-114272500D03*
D17*
X356512500Y-114562500D02*
X356552500Y-113982500D01*
D12*
X349567500Y-100012500D03*
X339407500Y-100012500D03*
D13*
X345757500Y-105092500D03*
D14*
X343217500Y-105092500D03*
D15*
X341987500Y-96012500D03*
D16*
X344487500Y-100012500D03*
D15*
X341332501Y-96742500D03*
D17*
X340677500Y-97472500D02*
X341987502Y-96012500D01*
D15*
X347027500Y-94932500D03*
X347007500Y-95222500D03*
D17*
X346987500Y-95512500D02*
X347027500Y-94932500D01*
D12*
X349567500Y-80962500D03*
X339407500Y-80962500D03*
D13*
X345757500Y-86042500D03*
D14*
X343217500Y-86042500D03*
D15*
X341987500Y-76962500D03*
D16*
X344487500Y-80962500D03*
D15*
X341332501Y-77692500D03*
D17*
X340677500Y-78422500D02*
X341987502Y-76962500D01*
D15*
X347027500Y-75882500D03*
X347007500Y-76172500D03*
D17*
X346987500Y-76462500D02*
X347027500Y-75882500D01*
D12*
X349567500Y-157162500D03*
X339407500Y-157162500D03*
D13*
X345757500Y-162242500D03*
D14*
X343217500Y-162242500D03*
D15*
X341987500Y-153162500D03*
D16*
X344487500Y-157162500D03*
D15*
X341332501Y-153892500D03*
D17*
X340677500Y-154622500D02*
X341987502Y-153162500D01*
D15*
X347027500Y-152082500D03*
X347007500Y-152372500D03*
D17*
X346987500Y-152662500D02*
X347027500Y-152082500D01*
D12*
X330517500Y-138112500D03*
X320357500Y-138112500D03*
D13*
X326707500Y-143192500D03*
D14*
X324167500Y-143192500D03*
D15*
X322937500Y-134112500D03*
D16*
X325437500Y-138112500D03*
D15*
X322282501Y-134842500D03*
D17*
X321627500Y-135572500D02*
X322937502Y-134112500D01*
D15*
X327977500Y-133032500D03*
X327957500Y-133322500D03*
D17*
X327937500Y-133612500D02*
X327977500Y-133032500D01*
D12*
X340042500Y-119062500D03*
X329882500Y-119062500D03*
D13*
X336232500Y-124142500D03*
D14*
X333692500Y-124142500D03*
D15*
X332462500Y-115062500D03*
D16*
X334962500Y-119062500D03*
D15*
X331807501Y-115792500D03*
D17*
X331152500Y-116522500D02*
X332462502Y-115062500D01*
D15*
X337502500Y-113982500D03*
X337482500Y-114272500D03*
D17*
X337462500Y-114562500D02*
X337502500Y-113982500D01*
D12*
X330517500Y-100012500D03*
X320357500Y-100012500D03*
D13*
X326707500Y-105092500D03*
D14*
X324167500Y-105092500D03*
D15*
X322937500Y-96012500D03*
D16*
X325437500Y-100012500D03*
D15*
X322282501Y-96742500D03*
D17*
X321627500Y-97472500D02*
X322937502Y-96012500D01*
D15*
X327977500Y-94932500D03*
X327957500Y-95222500D03*
D17*
X327937500Y-95512500D02*
X327977500Y-94932500D01*
D12*
X330517500Y-80962500D03*
X320357500Y-80962500D03*
D13*
X326707500Y-86042500D03*
D14*
X324167500Y-86042500D03*
D15*
X322937500Y-76962500D03*
D16*
X325437500Y-80962500D03*
D15*
X322282501Y-77692500D03*
D17*
X321627500Y-78422500D02*
X322937502Y-76962500D01*
D15*
X327977500Y-75882500D03*
X327957500Y-76172500D03*
D17*
X327937500Y-76462500D02*
X327977500Y-75882500D01*
D12*
X330517500Y-157162500D03*
X320357500Y-157162500D03*
D13*
X326707500Y-162242500D03*
D14*
X324167500Y-162242500D03*
D15*
X322937500Y-153162500D03*
D16*
X325437500Y-157162500D03*
D15*
X322282501Y-153892500D03*
D17*
X321627500Y-154622500D02*
X322937502Y-153162500D01*
D15*
X327977500Y-152082500D03*
X327957500Y-152372500D03*
D17*
X327937500Y-152662500D02*
X327977500Y-152082500D01*
D12*
X311467500Y-138112500D03*
X301307500Y-138112500D03*
D13*
X307657500Y-143192500D03*
D14*
X305117500Y-143192500D03*
D15*
X303887500Y-134112500D03*
D16*
X306387500Y-138112500D03*
D15*
X303232501Y-134842500D03*
D17*
X302577500Y-135572500D02*
X303887502Y-134112500D01*
D15*
X308927500Y-133032500D03*
X308907500Y-133322500D03*
D17*
X308887500Y-133612500D02*
X308927500Y-133032500D01*
D12*
X320992500Y-119062500D03*
X310832500Y-119062500D03*
D13*
X317182500Y-124142500D03*
D14*
X314642500Y-124142500D03*
D15*
X313412500Y-115062500D03*
D16*
X315912500Y-119062500D03*
D15*
X312757501Y-115792500D03*
D17*
X312102500Y-116522500D02*
X313412502Y-115062500D01*
D15*
X318452500Y-113982500D03*
X318432500Y-114272500D03*
D17*
X318412500Y-114562500D02*
X318452500Y-113982500D01*
D12*
X311467500Y-100012500D03*
X301307500Y-100012500D03*
D13*
X307657500Y-105092500D03*
D14*
X305117500Y-105092500D03*
D15*
X303887500Y-96012500D03*
D16*
X306387500Y-100012500D03*
D15*
X303232501Y-96742500D03*
D17*
X302577500Y-97472500D02*
X303887502Y-96012500D01*
D15*
X308927500Y-94932500D03*
X308907500Y-95222500D03*
D17*
X308887500Y-95512500D02*
X308927500Y-94932500D01*
D12*
X311467500Y-80962500D03*
X301307500Y-80962500D03*
D13*
X307657500Y-86042500D03*
D14*
X305117500Y-86042500D03*
D15*
X303887500Y-76962500D03*
D16*
X306387500Y-80962500D03*
D15*
X303232501Y-77692500D03*
D17*
X302577500Y-78422500D02*
X303887502Y-76962500D01*
D15*
X308927500Y-75882500D03*
X308907500Y-76172500D03*
D17*
X308887500Y-76462500D02*
X308927500Y-75882500D01*
D12*
X306705000Y-157162500D03*
X296545000Y-157162500D03*
D13*
X302895000Y-162242500D03*
D14*
X300355000Y-162242500D03*
D15*
X299125000Y-153162500D03*
D16*
X301625000Y-157162500D03*
D15*
X298470001Y-153892500D03*
D17*
X297815000Y-154622500D02*
X299125002Y-153162500D01*
D15*
X304165000Y-152082500D03*
X304145000Y-152372500D03*
D17*
X304125000Y-152662500D02*
X304165000Y-152082500D01*
D12*
X292417500Y-138112500D03*
X282257500Y-138112500D03*
D13*
X288607500Y-143192500D03*
D14*
X286067500Y-143192500D03*
D15*
X284837500Y-134112500D03*
D16*
X287337500Y-138112500D03*
D15*
X284182501Y-134842500D03*
D17*
X283527500Y-135572500D02*
X284837502Y-134112500D01*
D15*
X289877500Y-133032500D03*
X289857500Y-133322500D03*
D17*
X289837500Y-133612500D02*
X289877500Y-133032500D01*
D12*
X301942500Y-119062500D03*
X291782500Y-119062500D03*
D13*
X298132500Y-124142500D03*
D14*
X295592500Y-124142500D03*
D15*
X294362500Y-115062500D03*
D16*
X296862500Y-119062500D03*
D15*
X293707501Y-115792500D03*
D17*
X293052500Y-116522500D02*
X294362502Y-115062500D01*
D15*
X299402500Y-113982500D03*
X299382500Y-114272500D03*
D17*
X299362500Y-114562500D02*
X299402500Y-113982500D01*
D12*
X292417500Y-100012500D03*
X282257500Y-100012500D03*
D13*
X288607500Y-105092500D03*
D14*
X286067500Y-105092500D03*
D15*
X284837500Y-96012500D03*
D16*
X287337500Y-100012500D03*
D15*
X284182501Y-96742500D03*
D17*
X283527500Y-97472500D02*
X284837502Y-96012500D01*
D15*
X289877500Y-94932500D03*
X289857500Y-95222500D03*
D17*
X289837500Y-95512500D02*
X289877500Y-94932500D01*
D12*
X292417500Y-80962500D03*
X282257500Y-80962500D03*
D13*
X288607500Y-86042500D03*
D14*
X286067500Y-86042500D03*
D15*
X284837500Y-76962500D03*
D16*
X287337500Y-80962500D03*
D15*
X284182501Y-77692500D03*
D17*
X283527500Y-78422500D02*
X284837502Y-76962500D01*
D15*
X289877500Y-75882500D03*
X289857500Y-76172500D03*
D17*
X289837500Y-76462500D02*
X289877500Y-75882500D01*
D12*
X282892500Y-157162500D03*
X272732500Y-157162500D03*
D13*
X279082500Y-162242500D03*
D14*
X276542500Y-162242500D03*
D15*
X275312500Y-153162500D03*
D16*
X277812500Y-157162500D03*
D15*
X274657501Y-153892500D03*
D17*
X274002500Y-154622500D02*
X275312502Y-153162500D01*
D15*
X280352500Y-152082500D03*
X280332500Y-152372500D03*
D17*
X280312500Y-152662500D02*
X280352500Y-152082500D01*
D12*
X273367500Y-138112500D03*
X263207500Y-138112500D03*
D13*
X269557500Y-143192500D03*
D14*
X267017500Y-143192500D03*
D15*
X265787500Y-134112500D03*
D16*
X268287500Y-138112500D03*
D15*
X265132501Y-134842500D03*
D17*
X264477500Y-135572500D02*
X265787502Y-134112500D01*
D15*
X270827500Y-133032500D03*
X270807500Y-133322500D03*
D17*
X270787500Y-133612500D02*
X270827500Y-133032500D01*
D12*
X282892500Y-119062500D03*
X272732500Y-119062500D03*
D13*
X279082500Y-124142500D03*
D14*
X276542500Y-124142500D03*
D15*
X275312500Y-115062500D03*
D16*
X277812500Y-119062500D03*
D15*
X274657501Y-115792500D03*
D17*
X274002500Y-116522500D02*
X275312502Y-115062500D01*
D15*
X280352500Y-113982500D03*
X280332500Y-114272500D03*
D17*
X280312500Y-114562500D02*
X280352500Y-113982500D01*
D12*
X273367500Y-100012500D03*
X263207500Y-100012500D03*
D13*
X269557500Y-105092500D03*
D14*
X267017500Y-105092500D03*
D15*
X265787500Y-96012500D03*
D16*
X268287500Y-100012500D03*
D15*
X265132501Y-96742500D03*
D17*
X264477500Y-97472500D02*
X265787502Y-96012500D01*
D15*
X270827500Y-94932500D03*
X270807500Y-95222500D03*
D17*
X270787500Y-95512500D02*
X270827500Y-94932500D01*
D12*
X273367500Y-80962500D03*
X263207500Y-80962500D03*
D13*
X269557500Y-86042500D03*
D14*
X267017500Y-86042500D03*
D15*
X265787500Y-76962500D03*
D16*
X268287500Y-80962500D03*
D15*
X265132501Y-77692500D03*
D17*
X264477500Y-78422500D02*
X265787502Y-76962500D01*
D15*
X270827500Y-75882500D03*
X270807500Y-76172500D03*
D17*
X270787500Y-76462500D02*
X270827500Y-75882500D01*
D12*
X259080000Y-157162500D03*
X248920000Y-157162500D03*
D13*
X255270000Y-162242500D03*
D14*
X252730000Y-162242500D03*
D15*
X251500000Y-153162500D03*
D16*
X254000000Y-157162500D03*
D15*
X250845001Y-153892500D03*
D17*
X250190000Y-154622500D02*
X251500002Y-153162500D01*
D15*
X256540000Y-152082500D03*
X256520000Y-152372500D03*
D17*
X256500000Y-152662500D02*
X256540000Y-152082500D01*
D12*
X254317500Y-138112500D03*
X244157500Y-138112500D03*
D13*
X250507500Y-143192500D03*
D14*
X247967500Y-143192500D03*
D15*
X246737500Y-134112500D03*
D16*
X249237500Y-138112500D03*
D15*
X246082501Y-134842500D03*
D17*
X245427500Y-135572500D02*
X246737502Y-134112500D01*
D15*
X251777500Y-133032500D03*
X251757500Y-133322500D03*
D17*
X251737500Y-133612500D02*
X251777500Y-133032500D01*
D12*
X263842500Y-119062500D03*
X253682500Y-119062500D03*
D13*
X260032500Y-124142500D03*
D14*
X257492500Y-124142500D03*
D15*
X256262500Y-115062500D03*
D16*
X258762500Y-119062500D03*
D15*
X255607501Y-115792500D03*
D17*
X254952500Y-116522500D02*
X256262502Y-115062500D01*
D15*
X261302500Y-113982500D03*
X261282500Y-114272500D03*
D17*
X261262500Y-114562500D02*
X261302500Y-113982500D01*
D12*
X254317500Y-100012500D03*
X244157500Y-100012500D03*
D13*
X250507500Y-105092500D03*
D14*
X247967500Y-105092500D03*
D15*
X246737500Y-96012500D03*
D16*
X249237500Y-100012500D03*
D15*
X246082501Y-96742500D03*
D17*
X245427500Y-97472500D02*
X246737502Y-96012500D01*
D15*
X251777500Y-94932500D03*
X251757500Y-95222500D03*
D17*
X251737500Y-95512500D02*
X251777500Y-94932500D01*
D12*
X254317500Y-80962500D03*
X244157500Y-80962500D03*
D13*
X250507500Y-86042500D03*
D14*
X247967500Y-86042500D03*
D15*
X246737500Y-76962500D03*
D16*
X249237500Y-80962500D03*
D15*
X246082501Y-77692500D03*
D17*
X245427500Y-78422500D02*
X246737502Y-76962500D01*
D15*
X251777500Y-75882500D03*
X251757500Y-76172500D03*
D17*
X251737500Y-76462500D02*
X251777500Y-75882500D01*
D12*
X235267500Y-157162500D03*
X225107500Y-157162500D03*
D13*
X231457500Y-162242500D03*
D14*
X228917500Y-162242500D03*
D15*
X227687500Y-153162500D03*
D16*
X230187500Y-157162500D03*
D15*
X227032501Y-153892500D03*
D17*
X226377500Y-154622500D02*
X227687502Y-153162500D01*
D15*
X232727500Y-152082500D03*
X232707500Y-152372500D03*
D17*
X232687500Y-152662500D02*
X232727500Y-152082500D01*
D12*
X235267500Y-138112500D03*
X225107500Y-138112500D03*
D13*
X231457500Y-143192500D03*
D14*
X228917500Y-143192500D03*
D15*
X227687500Y-134112500D03*
D16*
X230187500Y-138112500D03*
D15*
X227032501Y-134842500D03*
D17*
X226377500Y-135572500D02*
X227687502Y-134112500D01*
D15*
X232727500Y-133032500D03*
X232707500Y-133322500D03*
D17*
X232687500Y-133612500D02*
X232727500Y-133032500D01*
D12*
X244792500Y-119062500D03*
X234632500Y-119062500D03*
D13*
X240982500Y-124142500D03*
D14*
X238442500Y-124142500D03*
D15*
X237212500Y-115062500D03*
D16*
X239712500Y-119062500D03*
D15*
X236557501Y-115792500D03*
D17*
X235902500Y-116522500D02*
X237212502Y-115062500D01*
D15*
X242252500Y-113982500D03*
X242232500Y-114272500D03*
D17*
X242212500Y-114562500D02*
X242252500Y-113982500D01*
D12*
X235267500Y-100012500D03*
X225107500Y-100012500D03*
D13*
X231457500Y-105092500D03*
D14*
X228917500Y-105092500D03*
D15*
X227687500Y-96012500D03*
D16*
X230187500Y-100012500D03*
D15*
X227032501Y-96742500D03*
D17*
X226377500Y-97472500D02*
X227687502Y-96012500D01*
D15*
X232727500Y-94932500D03*
X232707500Y-95222500D03*
D17*
X232687500Y-95512500D02*
X232727500Y-94932500D01*
D12*
X235267500Y-80962500D03*
X225107500Y-80962500D03*
D13*
X231457500Y-86042500D03*
D14*
X228917500Y-86042500D03*
D15*
X227687500Y-76962500D03*
D16*
X230187500Y-80962500D03*
D15*
X227032501Y-77692500D03*
D17*
X226377500Y-78422500D02*
X227687502Y-76962500D01*
D15*
X232727500Y-75882500D03*
X232707500Y-76172500D03*
D17*
X232687500Y-76462500D02*
X232727500Y-75882500D01*
D12*
X216217500Y-157162500D03*
X206057500Y-157162500D03*
D13*
X212407500Y-162242500D03*
D14*
X209867500Y-162242500D03*
D15*
X208637500Y-153162500D03*
D16*
X211137500Y-157162500D03*
D15*
X207982501Y-153892500D03*
D17*
X207327500Y-154622500D02*
X208637502Y-153162500D01*
D15*
X213677500Y-152082500D03*
X213657500Y-152372500D03*
D17*
X213637500Y-152662500D02*
X213677500Y-152082500D01*
D12*
X216217500Y-138112500D03*
X206057500Y-138112500D03*
D13*
X212407500Y-143192500D03*
D14*
X209867500Y-143192500D03*
D15*
X208637500Y-134112500D03*
D16*
X211137500Y-138112500D03*
D15*
X207982501Y-134842500D03*
D17*
X207327500Y-135572500D02*
X208637502Y-134112500D01*
D15*
X213677500Y-133032500D03*
X213657500Y-133322500D03*
D17*
X213637500Y-133612500D02*
X213677500Y-133032500D01*
D12*
X225742500Y-119062500D03*
X215582500Y-119062500D03*
D13*
X221932500Y-124142500D03*
D14*
X219392500Y-124142500D03*
D15*
X218162500Y-115062500D03*
D16*
X220662500Y-119062500D03*
D15*
X217507501Y-115792500D03*
D17*
X216852500Y-116522500D02*
X218162502Y-115062500D01*
D15*
X223202500Y-113982500D03*
X223182500Y-114272500D03*
D17*
X223162500Y-114562500D02*
X223202500Y-113982500D01*
D12*
X197167500Y-157162500D03*
X187007500Y-157162500D03*
D13*
X193357500Y-162242500D03*
D14*
X190817500Y-162242500D03*
D15*
X189587500Y-153162500D03*
D16*
X192087500Y-157162500D03*
D15*
X188932501Y-153892500D03*
D17*
X188277500Y-154622500D02*
X189587502Y-153162500D01*
D15*
X194627500Y-152082500D03*
X194607500Y-152372500D03*
D17*
X194587500Y-152662500D02*
X194627500Y-152082500D01*
D12*
X197167500Y-138112500D03*
X187007500Y-138112500D03*
D13*
X193357500Y-143192500D03*
D14*
X190817500Y-143192500D03*
D15*
X189587500Y-134112500D03*
D16*
X192087500Y-138112500D03*
D15*
X188932501Y-134842500D03*
D17*
X188277500Y-135572500D02*
X189587502Y-134112500D01*
D15*
X194627500Y-133032500D03*
X194607500Y-133322500D03*
D17*
X194587500Y-133612500D02*
X194627500Y-133032500D01*
D12*
X206692500Y-119062500D03*
X196532500Y-119062500D03*
D13*
X202882500Y-124142500D03*
D14*
X200342500Y-124142500D03*
D15*
X199112500Y-115062500D03*
D16*
X201612500Y-119062500D03*
D15*
X198457501Y-115792500D03*
D17*
X197802500Y-116522500D02*
X199112502Y-115062500D01*
D15*
X204152500Y-113982500D03*
X204132500Y-114272500D03*
D17*
X204112500Y-114562500D02*
X204152500Y-113982500D01*
D20*
X371348000Y-136525000D03*
X371348000Y-139825000D03*
X371348000Y-98425000D03*
X371348000Y-101725000D03*
X371348000Y-79375000D03*
X371348000Y-82675000D03*
X371348000Y-155575000D03*
X371348000Y-158875000D03*
X352298000Y-136526000D03*
X352298000Y-139826000D03*
X361823000Y-117475000D03*
X361823000Y-120775000D03*
X352298000Y-98425000D03*
X352298000Y-101725000D03*
X352298000Y-79376000D03*
X352298000Y-82676000D03*
X352298000Y-155575000D03*
X352298000Y-158875000D03*
X333248000Y-136525000D03*
X333248000Y-139825000D03*
X342646000Y-117349000D03*
X342646000Y-120649000D03*
X333248000Y-98425000D03*
X333248000Y-101725000D03*
X333248000Y-79375000D03*
X333248000Y-82675000D03*
X333248000Y-155575000D03*
X333248000Y-158875000D03*
X314325000Y-136525000D03*
X314325000Y-139825000D03*
X323723000Y-117475000D03*
X323723000Y-120775000D03*
X314198000Y-98425000D03*
X314198000Y-101725000D03*
X314198000Y-79376000D03*
X314198000Y-82676000D03*
X309372000Y-155448000D03*
X309372000Y-158748000D03*
X295148000Y-136525000D03*
X295148000Y-139825000D03*
X304673000Y-117475000D03*
X304673000Y-120775000D03*
X295148000Y-98425000D03*
X295148000Y-101725000D03*
X295148000Y-79375000D03*
X295148000Y-82675000D03*
X285623000Y-155575000D03*
X285623000Y-158875000D03*
X276098000Y-136398000D03*
X276098000Y-139698000D03*
X285623000Y-117475000D03*
X285623000Y-120775000D03*
X276098000Y-98425000D03*
X276098000Y-101725000D03*
X276098000Y-79375000D03*
X276098000Y-82675000D03*
X261874000Y-155575000D03*
X261874000Y-158875000D03*
X257048000Y-136526000D03*
X257048000Y-139826000D03*
X266573000Y-117349000D03*
X266573000Y-120649000D03*
X257175000Y-98299000D03*
X257175000Y-101599000D03*
X257048000Y-79375000D03*
X257048000Y-82675000D03*
X237998000Y-155575000D03*
X237998000Y-158875000D03*
X237998000Y-136399000D03*
X237998000Y-139699000D03*
X247650000Y-117476000D03*
X247650000Y-120776000D03*
X238125000Y-98425000D03*
X238125000Y-101725000D03*
X237998000Y-79502000D03*
X237998000Y-82802000D03*
X218948000Y-155576000D03*
X218948000Y-158876000D03*
X218948000Y-136398000D03*
X218948000Y-139698000D03*
X228473000Y-117348000D03*
X228473000Y-120648000D03*
X199898000Y-155575000D03*
X199898000Y-158875000D03*
X199898000Y-136526000D03*
X199898000Y-139826000D03*
X209550000Y-117475000D03*
X209550000Y-120775000D03*
D21*
X371252750Y-176086750D03*
X371252750Y-183386750D03*
X366752750Y-183386750D03*
X366752750Y-176086750D03*
D22*
X366752750Y-178136750D03*
X366752750Y-178936750D03*
X366752750Y-179736750D03*
X366752750Y-180536750D03*
X366752750Y-181336750D03*
D15*
X213657500Y-95222500D03*
D17*
X213637500Y-95512500D02*
X213677500Y-94932500D01*
D15*
X213677500Y-94932500D03*
X207982501Y-96742500D03*
D17*
X207327500Y-97472500D02*
X208637502Y-96012500D01*
D16*
X211137500Y-100012500D03*
D15*
X208637500Y-96012500D03*
D14*
X209867500Y-105092500D03*
D13*
X212407500Y-105092500D03*
D12*
X206057500Y-100012500D03*
X216217500Y-100012500D03*
D23*
X330327000Y-182997750D03*
X330327000Y-185197750D03*
X328627000Y-185197750D03*
X328627000Y-182997750D03*
D24*
X346487250Y-194771250D03*
X345687250Y-194771250D03*
X344887250Y-194771250D03*
X344087250Y-194771250D03*
X343287250Y-194771250D03*
X342487250Y-194771250D03*
X341687250Y-194771250D03*
X340887250Y-194771250D03*
X340087250Y-194771250D03*
X339287250Y-194771250D03*
X338487250Y-194771250D03*
D25*
X336787250Y-193071250D03*
X336787250Y-192271250D03*
X336787250Y-191471250D03*
X336787250Y-190671250D03*
X336787250Y-189871250D03*
X336787250Y-189071250D03*
X336787250Y-188271250D03*
X336787250Y-187471250D03*
X336787250Y-186671250D03*
X336787250Y-185871250D03*
X336787250Y-185071250D03*
D24*
X338487250Y-183371250D03*
X339287250Y-183371250D03*
X340087250Y-183371250D03*
X340887250Y-183371250D03*
X341687250Y-183371250D03*
X342487250Y-183371250D03*
X343287250Y-183371250D03*
X344087250Y-183371250D03*
X344887250Y-183371250D03*
X345687250Y-183371250D03*
X346487250Y-183371250D03*
D25*
X348187250Y-185071250D03*
X348187250Y-185871250D03*
X348187250Y-186671250D03*
X348187250Y-187471250D03*
X348187250Y-188271250D03*
X348187250Y-189071250D03*
X348187250Y-189871250D03*
X348187250Y-190671250D03*
X348187250Y-191471250D03*
X348187250Y-192271250D03*
X348187250Y-193071250D03*
D26*
X370435750Y-195790750D03*
X366735750Y-189590750D03*
X366735750Y-195790750D03*
X370435750Y-189590750D03*
D18*
G36*
X348942391Y-178860047D02*
G01*
X348968528Y-178863924D01*
X348994159Y-178870344D01*
X349019038Y-178879245D01*
X349042924Y-178890543D01*
X349065587Y-178904127D01*
X349086810Y-178919867D01*
X349106389Y-178937611D01*
X349124133Y-178957190D01*
X349139873Y-178978413D01*
X349153457Y-179001076D01*
X349164755Y-179024962D01*
X349173656Y-179049841D01*
X349180076Y-179075472D01*
X349183953Y-179101609D01*
X349185250Y-179128000D01*
X349185250Y-180091500D01*
X349183953Y-180117891D01*
X349180076Y-180144028D01*
X349173656Y-180169659D01*
X349164755Y-180194538D01*
X349153457Y-180218424D01*
X349139873Y-180241087D01*
X349124133Y-180262310D01*
X349106389Y-180281889D01*
X349086810Y-180299633D01*
X349065587Y-180315373D01*
X349042924Y-180328957D01*
X349019038Y-180340255D01*
X348994159Y-180349156D01*
X348968528Y-180355576D01*
X348942391Y-180359453D01*
X348916000Y-180360750D01*
X348377500Y-180360750D01*
X348351109Y-180359453D01*
X348324972Y-180355576D01*
X348299341Y-180349156D01*
X348274462Y-180340255D01*
X348250576Y-180328957D01*
X348227913Y-180315373D01*
X348206690Y-180299633D01*
X348187111Y-180281889D01*
X348169367Y-180262310D01*
X348153627Y-180241087D01*
X348140043Y-180218424D01*
X348128745Y-180194538D01*
X348119844Y-180169659D01*
X348113424Y-180144028D01*
X348109547Y-180117891D01*
X348108250Y-180091500D01*
X348108250Y-179128000D01*
X348109547Y-179101609D01*
X348113424Y-179075472D01*
X348119844Y-179049841D01*
X348128745Y-179024962D01*
X348140043Y-179001076D01*
X348153627Y-178978413D01*
X348169367Y-178957190D01*
X348187111Y-178937611D01*
X348206690Y-178919867D01*
X348227913Y-178904127D01*
X348250576Y-178890543D01*
X348274462Y-178879245D01*
X348299341Y-178870344D01*
X348324972Y-178863924D01*
X348351109Y-178860047D01*
X348377500Y-178858750D01*
X348916000Y-178858750D01*
X348942391Y-178860047D01*
X348942391Y-178860047D01*
G37*
D27*
X348646750Y-179609750D03*
D18*
G36*
X347067391Y-178860047D02*
G01*
X347093528Y-178863924D01*
X347119159Y-178870344D01*
X347144038Y-178879245D01*
X347167924Y-178890543D01*
X347190587Y-178904127D01*
X347211810Y-178919867D01*
X347231389Y-178937611D01*
X347249133Y-178957190D01*
X347264873Y-178978413D01*
X347278457Y-179001076D01*
X347289755Y-179024962D01*
X347298656Y-179049841D01*
X347305076Y-179075472D01*
X347308953Y-179101609D01*
X347310250Y-179128000D01*
X347310250Y-180091500D01*
X347308953Y-180117891D01*
X347305076Y-180144028D01*
X347298656Y-180169659D01*
X347289755Y-180194538D01*
X347278457Y-180218424D01*
X347264873Y-180241087D01*
X347249133Y-180262310D01*
X347231389Y-180281889D01*
X347211810Y-180299633D01*
X347190587Y-180315373D01*
X347167924Y-180328957D01*
X347144038Y-180340255D01*
X347119159Y-180349156D01*
X347093528Y-180355576D01*
X347067391Y-180359453D01*
X347041000Y-180360750D01*
X346502500Y-180360750D01*
X346476109Y-180359453D01*
X346449972Y-180355576D01*
X346424341Y-180349156D01*
X346399462Y-180340255D01*
X346375576Y-180328957D01*
X346352913Y-180315373D01*
X346331690Y-180299633D01*
X346312111Y-180281889D01*
X346294367Y-180262310D01*
X346278627Y-180241087D01*
X346265043Y-180218424D01*
X346253745Y-180194538D01*
X346244844Y-180169659D01*
X346238424Y-180144028D01*
X346234547Y-180117891D01*
X346233250Y-180091500D01*
X346233250Y-179128000D01*
X346234547Y-179101609D01*
X346238424Y-179075472D01*
X346244844Y-179049841D01*
X346253745Y-179024962D01*
X346265043Y-179001076D01*
X346278627Y-178978413D01*
X346294367Y-178957190D01*
X346312111Y-178937611D01*
X346331690Y-178919867D01*
X346352913Y-178904127D01*
X346375576Y-178890543D01*
X346399462Y-178879245D01*
X346424341Y-178870344D01*
X346449972Y-178863924D01*
X346476109Y-178860047D01*
X346502500Y-178858750D01*
X347041000Y-178858750D01*
X347067391Y-178860047D01*
X347067391Y-178860047D01*
G37*
D27*
X346771750Y-179609750D03*
D18*
G36*
X337101391Y-199053047D02*
G01*
X337127528Y-199056924D01*
X337153159Y-199063344D01*
X337178038Y-199072245D01*
X337201924Y-199083543D01*
X337224587Y-199097127D01*
X337245810Y-199112867D01*
X337265389Y-199130611D01*
X337283133Y-199150190D01*
X337298873Y-199171413D01*
X337312457Y-199194076D01*
X337323755Y-199217962D01*
X337332656Y-199242841D01*
X337339076Y-199268472D01*
X337342953Y-199294609D01*
X337344250Y-199321000D01*
X337344250Y-200284500D01*
X337342953Y-200310891D01*
X337339076Y-200337028D01*
X337332656Y-200362659D01*
X337323755Y-200387538D01*
X337312457Y-200411424D01*
X337298873Y-200434087D01*
X337283133Y-200455310D01*
X337265389Y-200474889D01*
X337245810Y-200492633D01*
X337224587Y-200508373D01*
X337201924Y-200521957D01*
X337178038Y-200533255D01*
X337153159Y-200542156D01*
X337127528Y-200548576D01*
X337101391Y-200552453D01*
X337075000Y-200553750D01*
X336536500Y-200553750D01*
X336510109Y-200552453D01*
X336483972Y-200548576D01*
X336458341Y-200542156D01*
X336433462Y-200533255D01*
X336409576Y-200521957D01*
X336386913Y-200508373D01*
X336365690Y-200492633D01*
X336346111Y-200474889D01*
X336328367Y-200455310D01*
X336312627Y-200434087D01*
X336299043Y-200411424D01*
X336287745Y-200387538D01*
X336278844Y-200362659D01*
X336272424Y-200337028D01*
X336268547Y-200310891D01*
X336267250Y-200284500D01*
X336267250Y-199321000D01*
X336268547Y-199294609D01*
X336272424Y-199268472D01*
X336278844Y-199242841D01*
X336287745Y-199217962D01*
X336299043Y-199194076D01*
X336312627Y-199171413D01*
X336328367Y-199150190D01*
X336346111Y-199130611D01*
X336365690Y-199112867D01*
X336386913Y-199097127D01*
X336409576Y-199083543D01*
X336433462Y-199072245D01*
X336458341Y-199063344D01*
X336483972Y-199056924D01*
X336510109Y-199053047D01*
X336536500Y-199051750D01*
X337075000Y-199051750D01*
X337101391Y-199053047D01*
X337101391Y-199053047D01*
G37*
D27*
X336805750Y-199802750D03*
D18*
G36*
X335226391Y-199053047D02*
G01*
X335252528Y-199056924D01*
X335278159Y-199063344D01*
X335303038Y-199072245D01*
X335326924Y-199083543D01*
X335349587Y-199097127D01*
X335370810Y-199112867D01*
X335390389Y-199130611D01*
X335408133Y-199150190D01*
X335423873Y-199171413D01*
X335437457Y-199194076D01*
X335448755Y-199217962D01*
X335457656Y-199242841D01*
X335464076Y-199268472D01*
X335467953Y-199294609D01*
X335469250Y-199321000D01*
X335469250Y-200284500D01*
X335467953Y-200310891D01*
X335464076Y-200337028D01*
X335457656Y-200362659D01*
X335448755Y-200387538D01*
X335437457Y-200411424D01*
X335423873Y-200434087D01*
X335408133Y-200455310D01*
X335390389Y-200474889D01*
X335370810Y-200492633D01*
X335349587Y-200508373D01*
X335326924Y-200521957D01*
X335303038Y-200533255D01*
X335278159Y-200542156D01*
X335252528Y-200548576D01*
X335226391Y-200552453D01*
X335200000Y-200553750D01*
X334661500Y-200553750D01*
X334635109Y-200552453D01*
X334608972Y-200548576D01*
X334583341Y-200542156D01*
X334558462Y-200533255D01*
X334534576Y-200521957D01*
X334511913Y-200508373D01*
X334490690Y-200492633D01*
X334471111Y-200474889D01*
X334453367Y-200455310D01*
X334437627Y-200434087D01*
X334424043Y-200411424D01*
X334412745Y-200387538D01*
X334403844Y-200362659D01*
X334397424Y-200337028D01*
X334393547Y-200310891D01*
X334392250Y-200284500D01*
X334392250Y-199321000D01*
X334393547Y-199294609D01*
X334397424Y-199268472D01*
X334403844Y-199242841D01*
X334412745Y-199217962D01*
X334424043Y-199194076D01*
X334437627Y-199171413D01*
X334453367Y-199150190D01*
X334471111Y-199130611D01*
X334490690Y-199112867D01*
X334511913Y-199097127D01*
X334534576Y-199083543D01*
X334558462Y-199072245D01*
X334583341Y-199063344D01*
X334608972Y-199056924D01*
X334635109Y-199053047D01*
X334661500Y-199051750D01*
X335200000Y-199051750D01*
X335226391Y-199053047D01*
X335226391Y-199053047D01*
G37*
D27*
X334930750Y-199802750D03*
D18*
G36*
X359229391Y-190036047D02*
G01*
X359255528Y-190039924D01*
X359281159Y-190046344D01*
X359306038Y-190055245D01*
X359329924Y-190066543D01*
X359352587Y-190080127D01*
X359373810Y-190095867D01*
X359393389Y-190113611D01*
X359411133Y-190133190D01*
X359426873Y-190154413D01*
X359440457Y-190177076D01*
X359451755Y-190200962D01*
X359460656Y-190225841D01*
X359467076Y-190251472D01*
X359470953Y-190277609D01*
X359472250Y-190304000D01*
X359472250Y-191267500D01*
X359470953Y-191293891D01*
X359467076Y-191320028D01*
X359460656Y-191345659D01*
X359451755Y-191370538D01*
X359440457Y-191394424D01*
X359426873Y-191417087D01*
X359411133Y-191438310D01*
X359393389Y-191457889D01*
X359373810Y-191475633D01*
X359352587Y-191491373D01*
X359329924Y-191504957D01*
X359306038Y-191516255D01*
X359281159Y-191525156D01*
X359255528Y-191531576D01*
X359229391Y-191535453D01*
X359203000Y-191536750D01*
X358664500Y-191536750D01*
X358638109Y-191535453D01*
X358611972Y-191531576D01*
X358586341Y-191525156D01*
X358561462Y-191516255D01*
X358537576Y-191504957D01*
X358514913Y-191491373D01*
X358493690Y-191475633D01*
X358474111Y-191457889D01*
X358456367Y-191438310D01*
X358440627Y-191417087D01*
X358427043Y-191394424D01*
X358415745Y-191370538D01*
X358406844Y-191345659D01*
X358400424Y-191320028D01*
X358396547Y-191293891D01*
X358395250Y-191267500D01*
X358395250Y-190304000D01*
X358396547Y-190277609D01*
X358400424Y-190251472D01*
X358406844Y-190225841D01*
X358415745Y-190200962D01*
X358427043Y-190177076D01*
X358440627Y-190154413D01*
X358456367Y-190133190D01*
X358474111Y-190113611D01*
X358493690Y-190095867D01*
X358514913Y-190080127D01*
X358537576Y-190066543D01*
X358561462Y-190055245D01*
X358586341Y-190046344D01*
X358611972Y-190039924D01*
X358638109Y-190036047D01*
X358664500Y-190034750D01*
X359203000Y-190034750D01*
X359229391Y-190036047D01*
X359229391Y-190036047D01*
G37*
D27*
X358933750Y-190785750D03*
D18*
G36*
X357354391Y-190036047D02*
G01*
X357380528Y-190039924D01*
X357406159Y-190046344D01*
X357431038Y-190055245D01*
X357454924Y-190066543D01*
X357477587Y-190080127D01*
X357498810Y-190095867D01*
X357518389Y-190113611D01*
X357536133Y-190133190D01*
X357551873Y-190154413D01*
X357565457Y-190177076D01*
X357576755Y-190200962D01*
X357585656Y-190225841D01*
X357592076Y-190251472D01*
X357595953Y-190277609D01*
X357597250Y-190304000D01*
X357597250Y-191267500D01*
X357595953Y-191293891D01*
X357592076Y-191320028D01*
X357585656Y-191345659D01*
X357576755Y-191370538D01*
X357565457Y-191394424D01*
X357551873Y-191417087D01*
X357536133Y-191438310D01*
X357518389Y-191457889D01*
X357498810Y-191475633D01*
X357477587Y-191491373D01*
X357454924Y-191504957D01*
X357431038Y-191516255D01*
X357406159Y-191525156D01*
X357380528Y-191531576D01*
X357354391Y-191535453D01*
X357328000Y-191536750D01*
X356789500Y-191536750D01*
X356763109Y-191535453D01*
X356736972Y-191531576D01*
X356711341Y-191525156D01*
X356686462Y-191516255D01*
X356662576Y-191504957D01*
X356639913Y-191491373D01*
X356618690Y-191475633D01*
X356599111Y-191457889D01*
X356581367Y-191438310D01*
X356565627Y-191417087D01*
X356552043Y-191394424D01*
X356540745Y-191370538D01*
X356531844Y-191345659D01*
X356525424Y-191320028D01*
X356521547Y-191293891D01*
X356520250Y-191267500D01*
X356520250Y-190304000D01*
X356521547Y-190277609D01*
X356525424Y-190251472D01*
X356531844Y-190225841D01*
X356540745Y-190200962D01*
X356552043Y-190177076D01*
X356565627Y-190154413D01*
X356581367Y-190133190D01*
X356599111Y-190113611D01*
X356618690Y-190095867D01*
X356639913Y-190080127D01*
X356662576Y-190066543D01*
X356686462Y-190055245D01*
X356711341Y-190046344D01*
X356736972Y-190039924D01*
X356763109Y-190036047D01*
X356789500Y-190034750D01*
X357328000Y-190034750D01*
X357354391Y-190036047D01*
X357354391Y-190036047D01*
G37*
D27*
X357058750Y-190785750D03*
D18*
G36*
X359229391Y-193719047D02*
G01*
X359255528Y-193722924D01*
X359281159Y-193729344D01*
X359306038Y-193738245D01*
X359329924Y-193749543D01*
X359352587Y-193763127D01*
X359373810Y-193778867D01*
X359393389Y-193796611D01*
X359411133Y-193816190D01*
X359426873Y-193837413D01*
X359440457Y-193860076D01*
X359451755Y-193883962D01*
X359460656Y-193908841D01*
X359467076Y-193934472D01*
X359470953Y-193960609D01*
X359472250Y-193987000D01*
X359472250Y-194950500D01*
X359470953Y-194976891D01*
X359467076Y-195003028D01*
X359460656Y-195028659D01*
X359451755Y-195053538D01*
X359440457Y-195077424D01*
X359426873Y-195100087D01*
X359411133Y-195121310D01*
X359393389Y-195140889D01*
X359373810Y-195158633D01*
X359352587Y-195174373D01*
X359329924Y-195187957D01*
X359306038Y-195199255D01*
X359281159Y-195208156D01*
X359255528Y-195214576D01*
X359229391Y-195218453D01*
X359203000Y-195219750D01*
X358664500Y-195219750D01*
X358638109Y-195218453D01*
X358611972Y-195214576D01*
X358586341Y-195208156D01*
X358561462Y-195199255D01*
X358537576Y-195187957D01*
X358514913Y-195174373D01*
X358493690Y-195158633D01*
X358474111Y-195140889D01*
X358456367Y-195121310D01*
X358440627Y-195100087D01*
X358427043Y-195077424D01*
X358415745Y-195053538D01*
X358406844Y-195028659D01*
X358400424Y-195003028D01*
X358396547Y-194976891D01*
X358395250Y-194950500D01*
X358395250Y-193987000D01*
X358396547Y-193960609D01*
X358400424Y-193934472D01*
X358406844Y-193908841D01*
X358415745Y-193883962D01*
X358427043Y-193860076D01*
X358440627Y-193837413D01*
X358456367Y-193816190D01*
X358474111Y-193796611D01*
X358493690Y-193778867D01*
X358514913Y-193763127D01*
X358537576Y-193749543D01*
X358561462Y-193738245D01*
X358586341Y-193729344D01*
X358611972Y-193722924D01*
X358638109Y-193719047D01*
X358664500Y-193717750D01*
X359203000Y-193717750D01*
X359229391Y-193719047D01*
X359229391Y-193719047D01*
G37*
D27*
X358933750Y-194468750D03*
D18*
G36*
X357354391Y-193719047D02*
G01*
X357380528Y-193722924D01*
X357406159Y-193729344D01*
X357431038Y-193738245D01*
X357454924Y-193749543D01*
X357477587Y-193763127D01*
X357498810Y-193778867D01*
X357518389Y-193796611D01*
X357536133Y-193816190D01*
X357551873Y-193837413D01*
X357565457Y-193860076D01*
X357576755Y-193883962D01*
X357585656Y-193908841D01*
X357592076Y-193934472D01*
X357595953Y-193960609D01*
X357597250Y-193987000D01*
X357597250Y-194950500D01*
X357595953Y-194976891D01*
X357592076Y-195003028D01*
X357585656Y-195028659D01*
X357576755Y-195053538D01*
X357565457Y-195077424D01*
X357551873Y-195100087D01*
X357536133Y-195121310D01*
X357518389Y-195140889D01*
X357498810Y-195158633D01*
X357477587Y-195174373D01*
X357454924Y-195187957D01*
X357431038Y-195199255D01*
X357406159Y-195208156D01*
X357380528Y-195214576D01*
X357354391Y-195218453D01*
X357328000Y-195219750D01*
X356789500Y-195219750D01*
X356763109Y-195218453D01*
X356736972Y-195214576D01*
X356711341Y-195208156D01*
X356686462Y-195199255D01*
X356662576Y-195187957D01*
X356639913Y-195174373D01*
X356618690Y-195158633D01*
X356599111Y-195140889D01*
X356581367Y-195121310D01*
X356565627Y-195100087D01*
X356552043Y-195077424D01*
X356540745Y-195053538D01*
X356531844Y-195028659D01*
X356525424Y-195003028D01*
X356521547Y-194976891D01*
X356520250Y-194950500D01*
X356520250Y-193987000D01*
X356521547Y-193960609D01*
X356525424Y-193934472D01*
X356531844Y-193908841D01*
X356540745Y-193883962D01*
X356552043Y-193860076D01*
X356565627Y-193837413D01*
X356581367Y-193816190D01*
X356599111Y-193796611D01*
X356618690Y-193778867D01*
X356639913Y-193763127D01*
X356662576Y-193749543D01*
X356686462Y-193738245D01*
X356711341Y-193729344D01*
X356736972Y-193722924D01*
X356763109Y-193719047D01*
X356789500Y-193717750D01*
X357328000Y-193717750D01*
X357354391Y-193719047D01*
X357354391Y-193719047D01*
G37*
D27*
X357058750Y-194468750D03*
D15*
X213657500Y-76172500D03*
D17*
X213637500Y-76462500D02*
X213677500Y-75882500D01*
D15*
X213677500Y-75882500D03*
X207982501Y-77692500D03*
D17*
X207327500Y-78422500D02*
X208637502Y-76962500D01*
D16*
X211137500Y-80962500D03*
D15*
X208637500Y-76962500D03*
D14*
X209867500Y-86042500D03*
D13*
X212407500Y-86042500D03*
D12*
X206057500Y-80962500D03*
X216217500Y-80962500D03*
D15*
X194607500Y-95222500D03*
D17*
X194587500Y-95512500D02*
X194627500Y-94932500D01*
D15*
X194627500Y-94932500D03*
X188932501Y-96742500D03*
D17*
X188277500Y-97472500D02*
X189587502Y-96012500D01*
D16*
X192087500Y-100012500D03*
D15*
X189587500Y-96012500D03*
D14*
X190817500Y-105092500D03*
D13*
X193357500Y-105092500D03*
D12*
X187007500Y-100012500D03*
X197167500Y-100012500D03*
D20*
X219075000Y-98425000D03*
X219075000Y-101725000D03*
X200025000Y-98425000D03*
X200025000Y-101725000D03*
D18*
G36*
X352583891Y-193218047D02*
G01*
X352610028Y-193221924D01*
X352635659Y-193228344D01*
X352660538Y-193237245D01*
X352684424Y-193248543D01*
X352707087Y-193262127D01*
X352728310Y-193277867D01*
X352747889Y-193295611D01*
X352765633Y-193315190D01*
X352781373Y-193336413D01*
X352794957Y-193359076D01*
X352806255Y-193382962D01*
X352815156Y-193407841D01*
X352821576Y-193433472D01*
X352825453Y-193459609D01*
X352826750Y-193486000D01*
X352826750Y-194024500D01*
X352825453Y-194050891D01*
X352821576Y-194077028D01*
X352815156Y-194102659D01*
X352806255Y-194127538D01*
X352794957Y-194151424D01*
X352781373Y-194174087D01*
X352765633Y-194195310D01*
X352747889Y-194214889D01*
X352728310Y-194232633D01*
X352707087Y-194248373D01*
X352684424Y-194261957D01*
X352660538Y-194273255D01*
X352635659Y-194282156D01*
X352610028Y-194288576D01*
X352583891Y-194292453D01*
X352557500Y-194293750D01*
X351594000Y-194293750D01*
X351567609Y-194292453D01*
X351541472Y-194288576D01*
X351515841Y-194282156D01*
X351490962Y-194273255D01*
X351467076Y-194261957D01*
X351444413Y-194248373D01*
X351423190Y-194232633D01*
X351403611Y-194214889D01*
X351385867Y-194195310D01*
X351370127Y-194174087D01*
X351356543Y-194151424D01*
X351345245Y-194127538D01*
X351336344Y-194102659D01*
X351329924Y-194077028D01*
X351326047Y-194050891D01*
X351324750Y-194024500D01*
X351324750Y-193486000D01*
X351326047Y-193459609D01*
X351329924Y-193433472D01*
X351336344Y-193407841D01*
X351345245Y-193382962D01*
X351356543Y-193359076D01*
X351370127Y-193336413D01*
X351385867Y-193315190D01*
X351403611Y-193295611D01*
X351423190Y-193277867D01*
X351444413Y-193262127D01*
X351467076Y-193248543D01*
X351490962Y-193237245D01*
X351515841Y-193228344D01*
X351541472Y-193221924D01*
X351567609Y-193218047D01*
X351594000Y-193216750D01*
X352557500Y-193216750D01*
X352583891Y-193218047D01*
X352583891Y-193218047D01*
G37*
D27*
X352075750Y-193755250D03*
D18*
G36*
X352583891Y-191343047D02*
G01*
X352610028Y-191346924D01*
X352635659Y-191353344D01*
X352660538Y-191362245D01*
X352684424Y-191373543D01*
X352707087Y-191387127D01*
X352728310Y-191402867D01*
X352747889Y-191420611D01*
X352765633Y-191440190D01*
X352781373Y-191461413D01*
X352794957Y-191484076D01*
X352806255Y-191507962D01*
X352815156Y-191532841D01*
X352821576Y-191558472D01*
X352825453Y-191584609D01*
X352826750Y-191611000D01*
X352826750Y-192149500D01*
X352825453Y-192175891D01*
X352821576Y-192202028D01*
X352815156Y-192227659D01*
X352806255Y-192252538D01*
X352794957Y-192276424D01*
X352781373Y-192299087D01*
X352765633Y-192320310D01*
X352747889Y-192339889D01*
X352728310Y-192357633D01*
X352707087Y-192373373D01*
X352684424Y-192386957D01*
X352660538Y-192398255D01*
X352635659Y-192407156D01*
X352610028Y-192413576D01*
X352583891Y-192417453D01*
X352557500Y-192418750D01*
X351594000Y-192418750D01*
X351567609Y-192417453D01*
X351541472Y-192413576D01*
X351515841Y-192407156D01*
X351490962Y-192398255D01*
X351467076Y-192386957D01*
X351444413Y-192373373D01*
X351423190Y-192357633D01*
X351403611Y-192339889D01*
X351385867Y-192320310D01*
X351370127Y-192299087D01*
X351356543Y-192276424D01*
X351345245Y-192252538D01*
X351336344Y-192227659D01*
X351329924Y-192202028D01*
X351326047Y-192175891D01*
X351324750Y-192149500D01*
X351324750Y-191611000D01*
X351326047Y-191584609D01*
X351329924Y-191558472D01*
X351336344Y-191532841D01*
X351345245Y-191507962D01*
X351356543Y-191484076D01*
X351370127Y-191461413D01*
X351385867Y-191440190D01*
X351403611Y-191420611D01*
X351423190Y-191402867D01*
X351444413Y-191387127D01*
X351467076Y-191373543D01*
X351490962Y-191362245D01*
X351515841Y-191353344D01*
X351541472Y-191346924D01*
X351567609Y-191343047D01*
X351594000Y-191341750D01*
X352557500Y-191341750D01*
X352583891Y-191343047D01*
X352583891Y-191343047D01*
G37*
D27*
X352075750Y-191880250D03*
D18*
G36*
X342054391Y-197910047D02*
G01*
X342080528Y-197913924D01*
X342106159Y-197920344D01*
X342131038Y-197929245D01*
X342154924Y-197940543D01*
X342177587Y-197954127D01*
X342198810Y-197969867D01*
X342218389Y-197987611D01*
X342236133Y-198007190D01*
X342251873Y-198028413D01*
X342265457Y-198051076D01*
X342276755Y-198074962D01*
X342285656Y-198099841D01*
X342292076Y-198125472D01*
X342295953Y-198151609D01*
X342297250Y-198178000D01*
X342297250Y-199141500D01*
X342295953Y-199167891D01*
X342292076Y-199194028D01*
X342285656Y-199219659D01*
X342276755Y-199244538D01*
X342265457Y-199268424D01*
X342251873Y-199291087D01*
X342236133Y-199312310D01*
X342218389Y-199331889D01*
X342198810Y-199349633D01*
X342177587Y-199365373D01*
X342154924Y-199378957D01*
X342131038Y-199390255D01*
X342106159Y-199399156D01*
X342080528Y-199405576D01*
X342054391Y-199409453D01*
X342028000Y-199410750D01*
X341489500Y-199410750D01*
X341463109Y-199409453D01*
X341436972Y-199405576D01*
X341411341Y-199399156D01*
X341386462Y-199390255D01*
X341362576Y-199378957D01*
X341339913Y-199365373D01*
X341318690Y-199349633D01*
X341299111Y-199331889D01*
X341281367Y-199312310D01*
X341265627Y-199291087D01*
X341252043Y-199268424D01*
X341240745Y-199244538D01*
X341231844Y-199219659D01*
X341225424Y-199194028D01*
X341221547Y-199167891D01*
X341220250Y-199141500D01*
X341220250Y-198178000D01*
X341221547Y-198151609D01*
X341225424Y-198125472D01*
X341231844Y-198099841D01*
X341240745Y-198074962D01*
X341252043Y-198051076D01*
X341265627Y-198028413D01*
X341281367Y-198007190D01*
X341299111Y-197987611D01*
X341318690Y-197969867D01*
X341339913Y-197954127D01*
X341362576Y-197940543D01*
X341386462Y-197929245D01*
X341411341Y-197920344D01*
X341436972Y-197913924D01*
X341463109Y-197910047D01*
X341489500Y-197908750D01*
X342028000Y-197908750D01*
X342054391Y-197910047D01*
X342054391Y-197910047D01*
G37*
D27*
X341758750Y-198659750D03*
D18*
G36*
X340179391Y-197910047D02*
G01*
X340205528Y-197913924D01*
X340231159Y-197920344D01*
X340256038Y-197929245D01*
X340279924Y-197940543D01*
X340302587Y-197954127D01*
X340323810Y-197969867D01*
X340343389Y-197987611D01*
X340361133Y-198007190D01*
X340376873Y-198028413D01*
X340390457Y-198051076D01*
X340401755Y-198074962D01*
X340410656Y-198099841D01*
X340417076Y-198125472D01*
X340420953Y-198151609D01*
X340422250Y-198178000D01*
X340422250Y-199141500D01*
X340420953Y-199167891D01*
X340417076Y-199194028D01*
X340410656Y-199219659D01*
X340401755Y-199244538D01*
X340390457Y-199268424D01*
X340376873Y-199291087D01*
X340361133Y-199312310D01*
X340343389Y-199331889D01*
X340323810Y-199349633D01*
X340302587Y-199365373D01*
X340279924Y-199378957D01*
X340256038Y-199390255D01*
X340231159Y-199399156D01*
X340205528Y-199405576D01*
X340179391Y-199409453D01*
X340153000Y-199410750D01*
X339614500Y-199410750D01*
X339588109Y-199409453D01*
X339561972Y-199405576D01*
X339536341Y-199399156D01*
X339511462Y-199390255D01*
X339487576Y-199378957D01*
X339464913Y-199365373D01*
X339443690Y-199349633D01*
X339424111Y-199331889D01*
X339406367Y-199312310D01*
X339390627Y-199291087D01*
X339377043Y-199268424D01*
X339365745Y-199244538D01*
X339356844Y-199219659D01*
X339350424Y-199194028D01*
X339346547Y-199167891D01*
X339345250Y-199141500D01*
X339345250Y-198178000D01*
X339346547Y-198151609D01*
X339350424Y-198125472D01*
X339356844Y-198099841D01*
X339365745Y-198074962D01*
X339377043Y-198051076D01*
X339390627Y-198028413D01*
X339406367Y-198007190D01*
X339424111Y-197987611D01*
X339443690Y-197969867D01*
X339464913Y-197954127D01*
X339487576Y-197940543D01*
X339511462Y-197929245D01*
X339536341Y-197920344D01*
X339561972Y-197913924D01*
X339588109Y-197910047D01*
X339614500Y-197908750D01*
X340153000Y-197908750D01*
X340179391Y-197910047D01*
X340179391Y-197910047D01*
G37*
D27*
X339883750Y-198659750D03*
D18*
G36*
X352520391Y-183771547D02*
G01*
X352546528Y-183775424D01*
X352572159Y-183781844D01*
X352597038Y-183790745D01*
X352620924Y-183802043D01*
X352643587Y-183815627D01*
X352664810Y-183831367D01*
X352684389Y-183849111D01*
X352702133Y-183868690D01*
X352717873Y-183889913D01*
X352731457Y-183912576D01*
X352742755Y-183936462D01*
X352751656Y-183961341D01*
X352758076Y-183986972D01*
X352761953Y-184013109D01*
X352763250Y-184039500D01*
X352763250Y-184578000D01*
X352761953Y-184604391D01*
X352758076Y-184630528D01*
X352751656Y-184656159D01*
X352742755Y-184681038D01*
X352731457Y-184704924D01*
X352717873Y-184727587D01*
X352702133Y-184748810D01*
X352684389Y-184768389D01*
X352664810Y-184786133D01*
X352643587Y-184801873D01*
X352620924Y-184815457D01*
X352597038Y-184826755D01*
X352572159Y-184835656D01*
X352546528Y-184842076D01*
X352520391Y-184845953D01*
X352494000Y-184847250D01*
X351530500Y-184847250D01*
X351504109Y-184845953D01*
X351477972Y-184842076D01*
X351452341Y-184835656D01*
X351427462Y-184826755D01*
X351403576Y-184815457D01*
X351380913Y-184801873D01*
X351359690Y-184786133D01*
X351340111Y-184768389D01*
X351322367Y-184748810D01*
X351306627Y-184727587D01*
X351293043Y-184704924D01*
X351281745Y-184681038D01*
X351272844Y-184656159D01*
X351266424Y-184630528D01*
X351262547Y-184604391D01*
X351261250Y-184578000D01*
X351261250Y-184039500D01*
X351262547Y-184013109D01*
X351266424Y-183986972D01*
X351272844Y-183961341D01*
X351281745Y-183936462D01*
X351293043Y-183912576D01*
X351306627Y-183889913D01*
X351322367Y-183868690D01*
X351340111Y-183849111D01*
X351359690Y-183831367D01*
X351380913Y-183815627D01*
X351403576Y-183802043D01*
X351427462Y-183790745D01*
X351452341Y-183781844D01*
X351477972Y-183775424D01*
X351504109Y-183771547D01*
X351530500Y-183770250D01*
X352494000Y-183770250D01*
X352520391Y-183771547D01*
X352520391Y-183771547D01*
G37*
D27*
X352012250Y-184308750D03*
D18*
G36*
X352520391Y-185646547D02*
G01*
X352546528Y-185650424D01*
X352572159Y-185656844D01*
X352597038Y-185665745D01*
X352620924Y-185677043D01*
X352643587Y-185690627D01*
X352664810Y-185706367D01*
X352684389Y-185724111D01*
X352702133Y-185743690D01*
X352717873Y-185764913D01*
X352731457Y-185787576D01*
X352742755Y-185811462D01*
X352751656Y-185836341D01*
X352758076Y-185861972D01*
X352761953Y-185888109D01*
X352763250Y-185914500D01*
X352763250Y-186453000D01*
X352761953Y-186479391D01*
X352758076Y-186505528D01*
X352751656Y-186531159D01*
X352742755Y-186556038D01*
X352731457Y-186579924D01*
X352717873Y-186602587D01*
X352702133Y-186623810D01*
X352684389Y-186643389D01*
X352664810Y-186661133D01*
X352643587Y-186676873D01*
X352620924Y-186690457D01*
X352597038Y-186701755D01*
X352572159Y-186710656D01*
X352546528Y-186717076D01*
X352520391Y-186720953D01*
X352494000Y-186722250D01*
X351530500Y-186722250D01*
X351504109Y-186720953D01*
X351477972Y-186717076D01*
X351452341Y-186710656D01*
X351427462Y-186701755D01*
X351403576Y-186690457D01*
X351380913Y-186676873D01*
X351359690Y-186661133D01*
X351340111Y-186643389D01*
X351322367Y-186623810D01*
X351306627Y-186602587D01*
X351293043Y-186579924D01*
X351281745Y-186556038D01*
X351272844Y-186531159D01*
X351266424Y-186505528D01*
X351262547Y-186479391D01*
X351261250Y-186453000D01*
X351261250Y-185914500D01*
X351262547Y-185888109D01*
X351266424Y-185861972D01*
X351272844Y-185836341D01*
X351281745Y-185811462D01*
X351293043Y-185787576D01*
X351306627Y-185764913D01*
X351322367Y-185743690D01*
X351340111Y-185724111D01*
X351359690Y-185706367D01*
X351380913Y-185690627D01*
X351403576Y-185677043D01*
X351427462Y-185665745D01*
X351452341Y-185656844D01*
X351477972Y-185650424D01*
X351504109Y-185646547D01*
X351530500Y-185645250D01*
X352494000Y-185645250D01*
X352520391Y-185646547D01*
X352520391Y-185646547D01*
G37*
D27*
X352012250Y-186183750D03*
D18*
G36*
X328891391Y-188416797D02*
G01*
X328917528Y-188420674D01*
X328943159Y-188427094D01*
X328968038Y-188435995D01*
X328991924Y-188447293D01*
X329014587Y-188460877D01*
X329035810Y-188476617D01*
X329055389Y-188494361D01*
X329073133Y-188513940D01*
X329088873Y-188535163D01*
X329102457Y-188557826D01*
X329113755Y-188581712D01*
X329122656Y-188606591D01*
X329129076Y-188632222D01*
X329132953Y-188658359D01*
X329134250Y-188684750D01*
X329134250Y-189648250D01*
X329132953Y-189674641D01*
X329129076Y-189700778D01*
X329122656Y-189726409D01*
X329113755Y-189751288D01*
X329102457Y-189775174D01*
X329088873Y-189797837D01*
X329073133Y-189819060D01*
X329055389Y-189838639D01*
X329035810Y-189856383D01*
X329014587Y-189872123D01*
X328991924Y-189885707D01*
X328968038Y-189897005D01*
X328943159Y-189905906D01*
X328917528Y-189912326D01*
X328891391Y-189916203D01*
X328865000Y-189917500D01*
X328326500Y-189917500D01*
X328300109Y-189916203D01*
X328273972Y-189912326D01*
X328248341Y-189905906D01*
X328223462Y-189897005D01*
X328199576Y-189885707D01*
X328176913Y-189872123D01*
X328155690Y-189856383D01*
X328136111Y-189838639D01*
X328118367Y-189819060D01*
X328102627Y-189797837D01*
X328089043Y-189775174D01*
X328077745Y-189751288D01*
X328068844Y-189726409D01*
X328062424Y-189700778D01*
X328058547Y-189674641D01*
X328057250Y-189648250D01*
X328057250Y-188684750D01*
X328058547Y-188658359D01*
X328062424Y-188632222D01*
X328068844Y-188606591D01*
X328077745Y-188581712D01*
X328089043Y-188557826D01*
X328102627Y-188535163D01*
X328118367Y-188513940D01*
X328136111Y-188494361D01*
X328155690Y-188476617D01*
X328176913Y-188460877D01*
X328199576Y-188447293D01*
X328223462Y-188435995D01*
X328248341Y-188427094D01*
X328273972Y-188420674D01*
X328300109Y-188416797D01*
X328326500Y-188415500D01*
X328865000Y-188415500D01*
X328891391Y-188416797D01*
X328891391Y-188416797D01*
G37*
D27*
X328595750Y-189166500D03*
D18*
G36*
X330766391Y-188416797D02*
G01*
X330792528Y-188420674D01*
X330818159Y-188427094D01*
X330843038Y-188435995D01*
X330866924Y-188447293D01*
X330889587Y-188460877D01*
X330910810Y-188476617D01*
X330930389Y-188494361D01*
X330948133Y-188513940D01*
X330963873Y-188535163D01*
X330977457Y-188557826D01*
X330988755Y-188581712D01*
X330997656Y-188606591D01*
X331004076Y-188632222D01*
X331007953Y-188658359D01*
X331009250Y-188684750D01*
X331009250Y-189648250D01*
X331007953Y-189674641D01*
X331004076Y-189700778D01*
X330997656Y-189726409D01*
X330988755Y-189751288D01*
X330977457Y-189775174D01*
X330963873Y-189797837D01*
X330948133Y-189819060D01*
X330930389Y-189838639D01*
X330910810Y-189856383D01*
X330889587Y-189872123D01*
X330866924Y-189885707D01*
X330843038Y-189897005D01*
X330818159Y-189905906D01*
X330792528Y-189912326D01*
X330766391Y-189916203D01*
X330740000Y-189917500D01*
X330201500Y-189917500D01*
X330175109Y-189916203D01*
X330148972Y-189912326D01*
X330123341Y-189905906D01*
X330098462Y-189897005D01*
X330074576Y-189885707D01*
X330051913Y-189872123D01*
X330030690Y-189856383D01*
X330011111Y-189838639D01*
X329993367Y-189819060D01*
X329977627Y-189797837D01*
X329964043Y-189775174D01*
X329952745Y-189751288D01*
X329943844Y-189726409D01*
X329937424Y-189700778D01*
X329933547Y-189674641D01*
X329932250Y-189648250D01*
X329932250Y-188684750D01*
X329933547Y-188658359D01*
X329937424Y-188632222D01*
X329943844Y-188606591D01*
X329952745Y-188581712D01*
X329964043Y-188557826D01*
X329977627Y-188535163D01*
X329993367Y-188513940D01*
X330011111Y-188494361D01*
X330030690Y-188476617D01*
X330051913Y-188460877D01*
X330074576Y-188447293D01*
X330098462Y-188435995D01*
X330123341Y-188427094D01*
X330148972Y-188420674D01*
X330175109Y-188416797D01*
X330201500Y-188415500D01*
X330740000Y-188415500D01*
X330766391Y-188416797D01*
X330766391Y-188416797D01*
G37*
D27*
X330470750Y-189166500D03*
D18*
G36*
X330622641Y-178891797D02*
G01*
X330648778Y-178895674D01*
X330674409Y-178902094D01*
X330699288Y-178910995D01*
X330723174Y-178922293D01*
X330745837Y-178935877D01*
X330767060Y-178951617D01*
X330786639Y-178969361D01*
X330804383Y-178988940D01*
X330820123Y-179010163D01*
X330833707Y-179032826D01*
X330845005Y-179056712D01*
X330853906Y-179081591D01*
X330860326Y-179107222D01*
X330864203Y-179133359D01*
X330865500Y-179159750D01*
X330865500Y-180123250D01*
X330864203Y-180149641D01*
X330860326Y-180175778D01*
X330853906Y-180201409D01*
X330845005Y-180226288D01*
X330833707Y-180250174D01*
X330820123Y-180272837D01*
X330804383Y-180294060D01*
X330786639Y-180313639D01*
X330767060Y-180331383D01*
X330745837Y-180347123D01*
X330723174Y-180360707D01*
X330699288Y-180372005D01*
X330674409Y-180380906D01*
X330648778Y-180387326D01*
X330622641Y-180391203D01*
X330596250Y-180392500D01*
X330057750Y-180392500D01*
X330031359Y-180391203D01*
X330005222Y-180387326D01*
X329979591Y-180380906D01*
X329954712Y-180372005D01*
X329930826Y-180360707D01*
X329908163Y-180347123D01*
X329886940Y-180331383D01*
X329867361Y-180313639D01*
X329849617Y-180294060D01*
X329833877Y-180272837D01*
X329820293Y-180250174D01*
X329808995Y-180226288D01*
X329800094Y-180201409D01*
X329793674Y-180175778D01*
X329789797Y-180149641D01*
X329788500Y-180123250D01*
X329788500Y-179159750D01*
X329789797Y-179133359D01*
X329793674Y-179107222D01*
X329800094Y-179081591D01*
X329808995Y-179056712D01*
X329820293Y-179032826D01*
X329833877Y-179010163D01*
X329849617Y-178988940D01*
X329867361Y-178969361D01*
X329886940Y-178951617D01*
X329908163Y-178935877D01*
X329930826Y-178922293D01*
X329954712Y-178910995D01*
X329979591Y-178902094D01*
X330005222Y-178895674D01*
X330031359Y-178891797D01*
X330057750Y-178890500D01*
X330596250Y-178890500D01*
X330622641Y-178891797D01*
X330622641Y-178891797D01*
G37*
D27*
X330327000Y-179641500D03*
D18*
G36*
X328747641Y-178891797D02*
G01*
X328773778Y-178895674D01*
X328799409Y-178902094D01*
X328824288Y-178910995D01*
X328848174Y-178922293D01*
X328870837Y-178935877D01*
X328892060Y-178951617D01*
X328911639Y-178969361D01*
X328929383Y-178988940D01*
X328945123Y-179010163D01*
X328958707Y-179032826D01*
X328970005Y-179056712D01*
X328978906Y-179081591D01*
X328985326Y-179107222D01*
X328989203Y-179133359D01*
X328990500Y-179159750D01*
X328990500Y-180123250D01*
X328989203Y-180149641D01*
X328985326Y-180175778D01*
X328978906Y-180201409D01*
X328970005Y-180226288D01*
X328958707Y-180250174D01*
X328945123Y-180272837D01*
X328929383Y-180294060D01*
X328911639Y-180313639D01*
X328892060Y-180331383D01*
X328870837Y-180347123D01*
X328848174Y-180360707D01*
X328824288Y-180372005D01*
X328799409Y-180380906D01*
X328773778Y-180387326D01*
X328747641Y-180391203D01*
X328721250Y-180392500D01*
X328182750Y-180392500D01*
X328156359Y-180391203D01*
X328130222Y-180387326D01*
X328104591Y-180380906D01*
X328079712Y-180372005D01*
X328055826Y-180360707D01*
X328033163Y-180347123D01*
X328011940Y-180331383D01*
X327992361Y-180313639D01*
X327974617Y-180294060D01*
X327958877Y-180272837D01*
X327945293Y-180250174D01*
X327933995Y-180226288D01*
X327925094Y-180201409D01*
X327918674Y-180175778D01*
X327914797Y-180149641D01*
X327913500Y-180123250D01*
X327913500Y-179159750D01*
X327914797Y-179133359D01*
X327918674Y-179107222D01*
X327925094Y-179081591D01*
X327933995Y-179056712D01*
X327945293Y-179032826D01*
X327958877Y-179010163D01*
X327974617Y-178988940D01*
X327992361Y-178969361D01*
X328011940Y-178951617D01*
X328033163Y-178935877D01*
X328055826Y-178922293D01*
X328079712Y-178910995D01*
X328104591Y-178902094D01*
X328130222Y-178895674D01*
X328156359Y-178891797D01*
X328182750Y-178890500D01*
X328721250Y-178890500D01*
X328747641Y-178891797D01*
X328747641Y-178891797D01*
G37*
D27*
X328452000Y-179641500D03*
D18*
G36*
X335132891Y-196259047D02*
G01*
X335159028Y-196262924D01*
X335184659Y-196269344D01*
X335209538Y-196278245D01*
X335233424Y-196289543D01*
X335256087Y-196303127D01*
X335277310Y-196318867D01*
X335296889Y-196336611D01*
X335314633Y-196356190D01*
X335330373Y-196377413D01*
X335343957Y-196400076D01*
X335355255Y-196423962D01*
X335364156Y-196448841D01*
X335370576Y-196474472D01*
X335374453Y-196500609D01*
X335375750Y-196527000D01*
X335375750Y-197490500D01*
X335374453Y-197516891D01*
X335370576Y-197543028D01*
X335364156Y-197568659D01*
X335355255Y-197593538D01*
X335343957Y-197617424D01*
X335330373Y-197640087D01*
X335314633Y-197661310D01*
X335296889Y-197680889D01*
X335277310Y-197698633D01*
X335256087Y-197714373D01*
X335233424Y-197727957D01*
X335209538Y-197739255D01*
X335184659Y-197748156D01*
X335159028Y-197754576D01*
X335132891Y-197758453D01*
X335106500Y-197759750D01*
X334568000Y-197759750D01*
X334541609Y-197758453D01*
X334515472Y-197754576D01*
X334489841Y-197748156D01*
X334464962Y-197739255D01*
X334441076Y-197727957D01*
X334418413Y-197714373D01*
X334397190Y-197698633D01*
X334377611Y-197680889D01*
X334359867Y-197661310D01*
X334344127Y-197640087D01*
X334330543Y-197617424D01*
X334319245Y-197593538D01*
X334310344Y-197568659D01*
X334303924Y-197543028D01*
X334300047Y-197516891D01*
X334298750Y-197490500D01*
X334298750Y-196527000D01*
X334300047Y-196500609D01*
X334303924Y-196474472D01*
X334310344Y-196448841D01*
X334319245Y-196423962D01*
X334330543Y-196400076D01*
X334344127Y-196377413D01*
X334359867Y-196356190D01*
X334377611Y-196336611D01*
X334397190Y-196318867D01*
X334418413Y-196303127D01*
X334441076Y-196289543D01*
X334464962Y-196278245D01*
X334489841Y-196269344D01*
X334515472Y-196262924D01*
X334541609Y-196259047D01*
X334568000Y-196257750D01*
X335106500Y-196257750D01*
X335132891Y-196259047D01*
X335132891Y-196259047D01*
G37*
D27*
X334837250Y-197008750D03*
D18*
G36*
X333257891Y-196259047D02*
G01*
X333284028Y-196262924D01*
X333309659Y-196269344D01*
X333334538Y-196278245D01*
X333358424Y-196289543D01*
X333381087Y-196303127D01*
X333402310Y-196318867D01*
X333421889Y-196336611D01*
X333439633Y-196356190D01*
X333455373Y-196377413D01*
X333468957Y-196400076D01*
X333480255Y-196423962D01*
X333489156Y-196448841D01*
X333495576Y-196474472D01*
X333499453Y-196500609D01*
X333500750Y-196527000D01*
X333500750Y-197490500D01*
X333499453Y-197516891D01*
X333495576Y-197543028D01*
X333489156Y-197568659D01*
X333480255Y-197593538D01*
X333468957Y-197617424D01*
X333455373Y-197640087D01*
X333439633Y-197661310D01*
X333421889Y-197680889D01*
X333402310Y-197698633D01*
X333381087Y-197714373D01*
X333358424Y-197727957D01*
X333334538Y-197739255D01*
X333309659Y-197748156D01*
X333284028Y-197754576D01*
X333257891Y-197758453D01*
X333231500Y-197759750D01*
X332693000Y-197759750D01*
X332666609Y-197758453D01*
X332640472Y-197754576D01*
X332614841Y-197748156D01*
X332589962Y-197739255D01*
X332566076Y-197727957D01*
X332543413Y-197714373D01*
X332522190Y-197698633D01*
X332502611Y-197680889D01*
X332484867Y-197661310D01*
X332469127Y-197640087D01*
X332455543Y-197617424D01*
X332444245Y-197593538D01*
X332435344Y-197568659D01*
X332428924Y-197543028D01*
X332425047Y-197516891D01*
X332423750Y-197490500D01*
X332423750Y-196527000D01*
X332425047Y-196500609D01*
X332428924Y-196474472D01*
X332435344Y-196448841D01*
X332444245Y-196423962D01*
X332455543Y-196400076D01*
X332469127Y-196377413D01*
X332484867Y-196356190D01*
X332502611Y-196336611D01*
X332522190Y-196318867D01*
X332543413Y-196303127D01*
X332566076Y-196289543D01*
X332589962Y-196278245D01*
X332614841Y-196269344D01*
X332640472Y-196262924D01*
X332666609Y-196259047D01*
X332693000Y-196257750D01*
X333231500Y-196257750D01*
X333257891Y-196259047D01*
X333257891Y-196259047D01*
G37*
D27*
X332962250Y-197008750D03*
D18*
G36*
X339101641Y-178796547D02*
G01*
X339127778Y-178800424D01*
X339153409Y-178806844D01*
X339178288Y-178815745D01*
X339202174Y-178827043D01*
X339224837Y-178840627D01*
X339246060Y-178856367D01*
X339265639Y-178874111D01*
X339283383Y-178893690D01*
X339299123Y-178914913D01*
X339312707Y-178937576D01*
X339324005Y-178961462D01*
X339332906Y-178986341D01*
X339339326Y-179011972D01*
X339343203Y-179038109D01*
X339344500Y-179064500D01*
X339344500Y-180028000D01*
X339343203Y-180054391D01*
X339339326Y-180080528D01*
X339332906Y-180106159D01*
X339324005Y-180131038D01*
X339312707Y-180154924D01*
X339299123Y-180177587D01*
X339283383Y-180198810D01*
X339265639Y-180218389D01*
X339246060Y-180236133D01*
X339224837Y-180251873D01*
X339202174Y-180265457D01*
X339178288Y-180276755D01*
X339153409Y-180285656D01*
X339127778Y-180292076D01*
X339101641Y-180295953D01*
X339075250Y-180297250D01*
X338536750Y-180297250D01*
X338510359Y-180295953D01*
X338484222Y-180292076D01*
X338458591Y-180285656D01*
X338433712Y-180276755D01*
X338409826Y-180265457D01*
X338387163Y-180251873D01*
X338365940Y-180236133D01*
X338346361Y-180218389D01*
X338328617Y-180198810D01*
X338312877Y-180177587D01*
X338299293Y-180154924D01*
X338287995Y-180131038D01*
X338279094Y-180106159D01*
X338272674Y-180080528D01*
X338268797Y-180054391D01*
X338267500Y-180028000D01*
X338267500Y-179064500D01*
X338268797Y-179038109D01*
X338272674Y-179011972D01*
X338279094Y-178986341D01*
X338287995Y-178961462D01*
X338299293Y-178937576D01*
X338312877Y-178914913D01*
X338328617Y-178893690D01*
X338346361Y-178874111D01*
X338365940Y-178856367D01*
X338387163Y-178840627D01*
X338409826Y-178827043D01*
X338433712Y-178815745D01*
X338458591Y-178806844D01*
X338484222Y-178800424D01*
X338510359Y-178796547D01*
X338536750Y-178795250D01*
X339075250Y-178795250D01*
X339101641Y-178796547D01*
X339101641Y-178796547D01*
G37*
D27*
X338806000Y-179546250D03*
D18*
G36*
X337226641Y-178796547D02*
G01*
X337252778Y-178800424D01*
X337278409Y-178806844D01*
X337303288Y-178815745D01*
X337327174Y-178827043D01*
X337349837Y-178840627D01*
X337371060Y-178856367D01*
X337390639Y-178874111D01*
X337408383Y-178893690D01*
X337424123Y-178914913D01*
X337437707Y-178937576D01*
X337449005Y-178961462D01*
X337457906Y-178986341D01*
X337464326Y-179011972D01*
X337468203Y-179038109D01*
X337469500Y-179064500D01*
X337469500Y-180028000D01*
X337468203Y-180054391D01*
X337464326Y-180080528D01*
X337457906Y-180106159D01*
X337449005Y-180131038D01*
X337437707Y-180154924D01*
X337424123Y-180177587D01*
X337408383Y-180198810D01*
X337390639Y-180218389D01*
X337371060Y-180236133D01*
X337349837Y-180251873D01*
X337327174Y-180265457D01*
X337303288Y-180276755D01*
X337278409Y-180285656D01*
X337252778Y-180292076D01*
X337226641Y-180295953D01*
X337200250Y-180297250D01*
X336661750Y-180297250D01*
X336635359Y-180295953D01*
X336609222Y-180292076D01*
X336583591Y-180285656D01*
X336558712Y-180276755D01*
X336534826Y-180265457D01*
X336512163Y-180251873D01*
X336490940Y-180236133D01*
X336471361Y-180218389D01*
X336453617Y-180198810D01*
X336437877Y-180177587D01*
X336424293Y-180154924D01*
X336412995Y-180131038D01*
X336404094Y-180106159D01*
X336397674Y-180080528D01*
X336393797Y-180054391D01*
X336392500Y-180028000D01*
X336392500Y-179064500D01*
X336393797Y-179038109D01*
X336397674Y-179011972D01*
X336404094Y-178986341D01*
X336412995Y-178961462D01*
X336424293Y-178937576D01*
X336437877Y-178914913D01*
X336453617Y-178893690D01*
X336471361Y-178874111D01*
X336490940Y-178856367D01*
X336512163Y-178840627D01*
X336534826Y-178827043D01*
X336558712Y-178815745D01*
X336583591Y-178806844D01*
X336609222Y-178800424D01*
X336635359Y-178796547D01*
X336661750Y-178795250D01*
X337200250Y-178795250D01*
X337226641Y-178796547D01*
X337226641Y-178796547D01*
G37*
D27*
X336931000Y-179546250D03*
M02*
