M48
; DRILL file {KiCad (5.1.4)-1} date 11/15/2024 9:26:33 AM
; FORMAT={-:-/ absolute / inch / decimal}
; #@! TF.CreationDate,2024-11-15T09:26:33-07:00
; #@! TF.GenerationSoftware,Kicad,Pcbnew,(5.1.4)-1
; #@! TF.FileFunction,Plated,1,2,PTH
FMAT,2
INCH
T1C0.0157
T2C0.0276
T3C0.0579
%
G90
G05
T1
X1.5975Y-4.8137
X2.3575Y-4.8087
X3.1175Y-4.8037
X4.0425Y-4.8037
X4.9925Y-4.8087
X6.2325Y-4.8006
X6.965Y-4.75
X7.285Y-5.065
X7.435Y-5.58
X7.53Y-5.0
X7.53Y-5.615
X7.6175Y-4.5388
X7.6213Y-5.58
X7.725Y-5.615
X7.9625Y-5.0312
X7.9625Y-5.5213
X7.965Y-5.6068
X7.9775Y-5.1013
X8.0125Y-5.0462
X8.0357Y-5.63
X8.0557Y-5.6639
X8.1001Y-5.18
X8.1337Y-5.4062
X8.1375Y-4.5488
X8.1725Y-4.4188
X8.1775Y-4.2787
X8.2175Y-4.5262
X8.4875Y-4.6887
X8.5433Y-4.6746
X8.5525Y-2.9737
X8.575Y-5.115
X8.635Y-4.585
X8.715Y-4.545
X8.775Y-4.83
X8.7914Y-3.8737
X8.795Y-5.265
X8.8025Y-2.3537
X8.81Y-4.995
X8.81Y-5.185
X8.8125Y-1.6887
X8.9252Y-4.8302
X9.0673Y-1.36
X9.205Y-1.36
T3
X4.975Y-2.8062
X5.0266Y-2.7488
X5.2234Y-2.7291
X5.225Y-2.7062
X6.1Y-2.0562
X6.1516Y-1.9988
X6.3484Y-1.9791
X6.35Y-1.9563
X6.85Y-1.3062
X6.9016Y-1.2488
X7.0984Y-1.2291
X7.1Y-1.2063
X4.975Y-4.3062
X5.0266Y-4.2488
X5.2234Y-4.2291
X5.225Y-4.2062
X5.35Y-1.3062
X5.4016Y-1.2488
X5.5984Y-1.2291
X5.6Y-1.2063
X8.35Y-1.3062
X8.4016Y-1.2488
X8.5984Y-1.2291
X8.6Y-1.2063
X4.6Y-2.0562
X4.6516Y-1.9988
X4.8484Y-1.9791
X4.85Y-1.9563
X8.35Y-4.3062
X8.4016Y-4.2488
X8.5984Y-4.2291
X8.6Y-4.2062
X5.725Y-2.8062
X5.7766Y-2.7488
X5.9734Y-2.7291
X5.975Y-2.7062
X2.35Y-1.3062
X2.4016Y-1.2488
X2.5984Y-1.2291
X2.6Y-1.2063
X1.6Y-4.3062
X1.6516Y-4.2488
X1.8484Y-4.2291
X1.85Y-4.2062
X7.975Y-2.8062
X8.0266Y-2.7488
X8.2234Y-2.7291
X8.225Y-2.7062
X3.1Y-1.3062
X3.1516Y-1.2488
X3.3484Y-1.2291
X3.35Y-1.2063
X3.85Y-3.5562
X3.9016Y-3.4988
X4.0984Y-3.4791
X4.1Y-3.4562
X3.1Y-3.5562
X3.1516Y-3.4988
X3.3484Y-3.4791
X3.35Y-3.4562
X5.35Y-3.5562
X5.4016Y-3.4988
X5.5984Y-3.4791
X5.6Y-3.4562
X1.975Y-2.8062
X2.0266Y-2.7488
X2.2234Y-2.7291
X2.225Y-2.7062
X6.475Y-2.8062
X6.5266Y-2.7488
X6.7234Y-2.7291
X6.725Y-2.7062
X3.85Y-2.0562
X3.9016Y-1.9988
X4.0984Y-1.9791
X4.1Y-1.9563
X3.85Y-1.3062
X3.9016Y-1.2488
X4.0984Y-1.2291
X4.1Y-1.2063
X3.1Y-4.3062
X3.1516Y-4.2488
X3.3484Y-4.2291
X3.35Y-4.2062
X8.35Y-3.5562
X8.4016Y-3.4988
X8.5984Y-3.4791
X8.6Y-3.4562
X7.6Y-4.3062
X7.6516Y-4.2488
X7.8484Y-4.2291
X7.85Y-4.2062
X2.35Y-3.5562
X2.4016Y-3.4988
X2.5984Y-3.4791
X2.6Y-3.4562
X7.6Y-2.0562
X7.6516Y-1.9988
X7.8484Y-1.9791
X7.85Y-1.9563
X7.6Y-1.3062
X7.6516Y-1.2488
X7.8484Y-1.2291
X7.85Y-1.2063
X4.0375Y-4.3062
X4.0891Y-4.2488
X4.2859Y-4.2291
X4.2875Y-4.2062
X1.6Y-1.3062
X1.6516Y-1.2488
X1.8484Y-1.2291
X1.85Y-1.2063
X2.725Y-2.8062
X2.7766Y-2.7488
X2.9734Y-2.7291
X2.975Y-2.7062
X6.1Y-1.3062
X6.1516Y-1.2488
X6.3484Y-1.2291
X6.35Y-1.2063
X2.35Y-2.0562
X2.4016Y-1.9988
X2.5984Y-1.9791
X2.6Y-1.9563
X6.85Y-4.3062
X6.9016Y-4.2488
X7.0984Y-4.2291
X7.1Y-4.2062
X4.6Y-3.5562
X4.6516Y-3.4988
X4.8484Y-3.4791
X4.85Y-3.4562
X4.6Y-1.3062
X4.6516Y-1.2488
X4.8484Y-1.2291
X4.85Y-1.2063
X5.9125Y-4.3062
X5.9641Y-4.2488
X6.1609Y-4.2291
X6.1625Y-4.2062
X2.35Y-4.3062
X2.4016Y-4.2488
X2.5984Y-4.2291
X2.6Y-4.2062
X6.1Y-3.5562
X6.1516Y-3.4988
X6.3484Y-3.4791
X6.35Y-3.4562
X1.6Y-3.5562
X1.6516Y-3.4988
X1.8484Y-3.4791
X1.85Y-3.4562
X4.225Y-2.8062
X4.2766Y-2.7488
X4.4734Y-2.7291
X4.475Y-2.7062
X7.225Y-2.8062
X7.2766Y-2.7488
X7.4734Y-2.7291
X7.475Y-2.7062
X7.6Y-3.5562
X7.6516Y-3.4988
X7.8484Y-3.4791
X7.85Y-3.4562
X5.35Y-2.0562
X5.4016Y-1.9988
X5.5984Y-1.9791
X5.6Y-1.9563
X8.35Y-2.0562
X8.4016Y-1.9988
X8.5984Y-1.9791
X8.6Y-1.9563
X1.6Y-2.0562
X1.6516Y-1.9988
X1.8484Y-1.9791
X1.85Y-1.9563
X6.85Y-3.5562
X6.9016Y-3.4988
X7.0984Y-3.4791
X7.1Y-3.4562
X3.475Y-2.8062
X3.5266Y-2.7488
X3.7234Y-2.7291
X3.725Y-2.7062
X3.1Y-2.0562
X3.1516Y-1.9988
X3.3484Y-1.9791
X3.35Y-1.9563
X6.85Y-2.0562
X6.9016Y-1.9988
X7.0984Y-1.9791
X7.1Y-1.9563
T2
G00X8.9863Y-1.0764
M15
G01X8.9863Y-1.1236
M16
G05
G00X8.9863Y-1.2535
M15
G01X8.9863Y-1.3008
M16
G05
G00X9.2737Y-1.0764
M15
G01X9.2737Y-1.1236
M16
G05
G00X9.2737Y-1.2535
M15
G01X9.2737Y-1.3008
M16
G05
T0
M30
