M48
; DRILL file {KiCad (5.1.4)-1} date 11/15/2024 9:26:33 AM
; FORMAT={-:-/ absolute / inch / decimal}
; #@! TF.CreationDate,2024-11-15T09:26:33-07:00
; #@! TF.GenerationSoftware,Kicad,Pcbnew,(5.1.4)-1
; #@! TF.FileFunction,NonPlated,1,2,NPTH
FMAT,2
INCH
T1C0.0689
T2C0.1570
%
G90
G05
T1
X4.925Y-2.9062
X5.325Y-2.9062
X6.05Y-2.1562
X6.45Y-2.1562
X6.8Y-1.4062
X7.2Y-1.4062
X4.925Y-4.4062
X5.325Y-4.4062
X5.3Y-1.4062
X5.7Y-1.4062
X8.3Y-1.4062
X8.7Y-1.4062
X4.55Y-2.1562
X4.95Y-2.1562
X8.3Y-4.4062
X8.7Y-4.4062
X5.675Y-2.9062
X6.075Y-2.9062
X2.3Y-1.4062
X2.7Y-1.4062
X1.55Y-4.4062
X1.95Y-4.4062
X7.925Y-2.9062
X8.325Y-2.9062
X3.05Y-1.4062
X3.45Y-1.4062
X3.8Y-3.6562
X4.2Y-3.6562
X3.05Y-3.6562
X3.45Y-3.6562
X5.3Y-3.6562
X5.7Y-3.6562
X1.925Y-2.9062
X2.325Y-2.9062
X6.425Y-2.9062
X6.825Y-2.9062
X3.8Y-2.1562
X4.2Y-2.1562
X3.8Y-1.4062
X4.2Y-1.4062
X3.05Y-4.4062
X3.45Y-4.4062
X8.3Y-3.6562
X8.7Y-3.6562
X7.55Y-4.4062
X7.95Y-4.4062
X2.3Y-3.6562
X2.7Y-3.6562
X7.55Y-2.1562
X7.95Y-2.1562
X7.55Y-1.4062
X7.95Y-1.4062
X3.9875Y-4.4062
X4.3875Y-4.4062
X1.55Y-1.4062
X1.95Y-1.4062
X2.675Y-2.9062
X3.075Y-2.9062
X6.05Y-1.4062
X6.45Y-1.4062
X2.3Y-2.1562
X2.7Y-2.1562
X6.8Y-4.4062
X7.2Y-4.4062
X4.55Y-3.6562
X4.95Y-3.6562
X4.55Y-1.4062
X4.95Y-1.4062
X5.8625Y-4.4062
X6.2625Y-4.4062
X2.3Y-4.4062
X2.7Y-4.4062
X6.05Y-3.6562
X6.45Y-3.6562
X1.55Y-3.6562
X1.95Y-3.6562
X4.175Y-2.9062
X4.575Y-2.9062
X7.175Y-2.9062
X7.575Y-2.9062
X7.55Y-3.6562
X7.95Y-3.6562
X5.3Y-2.1562
X5.7Y-2.1562
X8.3Y-2.1562
X8.7Y-2.1562
X1.55Y-2.1562
X1.95Y-2.1562
X6.8Y-3.6562
X7.2Y-3.6562
X3.425Y-2.9062
X3.825Y-2.9062
X3.05Y-2.1562
X3.45Y-2.1562
X6.8Y-2.1562
X7.2Y-2.1562
T2
X8.5Y-1.4062
X4.75Y-2.1562
X8.5Y-4.4062
X5.875Y-2.9062
X2.5Y-1.4062
X1.75Y-4.4062
X8.125Y-2.9062
X3.25Y-1.4062
X4.0Y-3.6562
X3.25Y-3.6562
X5.5Y-3.6562
X2.125Y-2.9062
X6.625Y-2.9062
X4.0Y-2.1562
X4.0Y-1.4062
X3.25Y-4.4062
X8.5Y-3.6562
X7.75Y-4.4062
X2.5Y-3.6562
X7.75Y-2.1562
X7.75Y-1.4062
X4.1875Y-4.4062
X1.75Y-1.4062
X2.875Y-2.9062
X6.25Y-1.4062
X2.5Y-2.1562
X7.0Y-4.4062
X4.75Y-3.6562
X4.75Y-1.4062
X6.0625Y-4.4062
X2.5Y-4.4062
X6.25Y-3.6562
X1.75Y-3.6562
X4.375Y-2.9062
X7.375Y-2.9062
X7.75Y-3.6562
X5.5Y-2.1562
X8.5Y-2.1562
X1.75Y-2.1562
X7.0Y-3.6562
X3.625Y-2.9062
X3.25Y-2.1562
X7.0Y-2.1562
X5.125Y-2.9062
X6.25Y-2.1562
X7.0Y-1.4062
X5.125Y-4.4062
X5.5Y-1.4062
T0
M30
