G04 #@! TF.GenerationSoftware,KiCad,Pcbnew,(5.1.4)-1*
G04 #@! TF.CreationDate,2024-11-15T09:26:30-07:00*
G04 #@! TF.ProjectId,kicadNEWXboard,6b696361-644e-4455-9758-626f6172642e,rev?*
G04 #@! TF.SameCoordinates,Original*
G04 #@! TF.FileFunction,Soldermask,Top*
G04 #@! TF.FilePolarity,Negative*
%FSLAX46Y46*%
G04 Gerber Fmt 4.6, Leading zero omitted, Abs format (unit mm)*
G04 Created by KiCad (PCBNEW (5.1.4)-1) date 2024-11-15 09:26:30*
%MOMM*%
%LPD*%
G04 APERTURE LIST*
%ADD10C,0.020000*%
G04 APERTURE END LIST*
D10*
G36*
X216496474Y-109952434D02*
G01*
X216714474Y-110042733D01*
X216868623Y-110106583D01*
X217203548Y-110330373D01*
X217488377Y-110615202D01*
X217712167Y-110950127D01*
X217744562Y-111028336D01*
X217866316Y-111322276D01*
X217944900Y-111717344D01*
X217944900Y-112120156D01*
X217866316Y-112515224D01*
X217815451Y-112638022D01*
X217712167Y-112887373D01*
X217488377Y-113222298D01*
X217203548Y-113507127D01*
X216868623Y-113730917D01*
X216714474Y-113794767D01*
X216496474Y-113885066D01*
X216101406Y-113963650D01*
X215698594Y-113963650D01*
X215303526Y-113885066D01*
X215085526Y-113794767D01*
X214931377Y-113730917D01*
X214596452Y-113507127D01*
X214311623Y-113222298D01*
X214087833Y-112887373D01*
X213984549Y-112638022D01*
X213933684Y-112515224D01*
X213855100Y-112120156D01*
X213855100Y-111717344D01*
X213933684Y-111322276D01*
X214055438Y-111028336D01*
X214087833Y-110950127D01*
X214311623Y-110615202D01*
X214596452Y-110330373D01*
X214931377Y-110106583D01*
X215085526Y-110042733D01*
X215303526Y-109952434D01*
X215698594Y-109873850D01*
X216101406Y-109873850D01*
X216496474Y-109952434D01*
X216496474Y-109952434D01*
G37*
G36*
X197446474Y-109952434D02*
G01*
X197664474Y-110042733D01*
X197818623Y-110106583D01*
X198153548Y-110330373D01*
X198438377Y-110615202D01*
X198662167Y-110950127D01*
X198694562Y-111028336D01*
X198816316Y-111322276D01*
X198894900Y-111717344D01*
X198894900Y-112120156D01*
X198816316Y-112515224D01*
X198765451Y-112638022D01*
X198662167Y-112887373D01*
X198438377Y-113222298D01*
X198153548Y-113507127D01*
X197818623Y-113730917D01*
X197664474Y-113794767D01*
X197446474Y-113885066D01*
X197051406Y-113963650D01*
X196648594Y-113963650D01*
X196253526Y-113885066D01*
X196035526Y-113794767D01*
X195881377Y-113730917D01*
X195546452Y-113507127D01*
X195261623Y-113222298D01*
X195037833Y-112887373D01*
X194934549Y-112638022D01*
X194883684Y-112515224D01*
X194805100Y-112120156D01*
X194805100Y-111717344D01*
X194883684Y-111322276D01*
X195005438Y-111028336D01*
X195037833Y-110950127D01*
X195261623Y-110615202D01*
X195546452Y-110330373D01*
X195881377Y-110106583D01*
X196035526Y-110042733D01*
X196253526Y-109952434D01*
X196648594Y-109873850D01*
X197051406Y-109873850D01*
X197446474Y-109952434D01*
X197446474Y-109952434D01*
G37*
G36*
X45046474Y-109952434D02*
G01*
X45264474Y-110042733D01*
X45418623Y-110106583D01*
X45753548Y-110330373D01*
X46038377Y-110615202D01*
X46262167Y-110950127D01*
X46294562Y-111028336D01*
X46416316Y-111322276D01*
X46494900Y-111717344D01*
X46494900Y-112120156D01*
X46416316Y-112515224D01*
X46365451Y-112638022D01*
X46262167Y-112887373D01*
X46038377Y-113222298D01*
X45753548Y-113507127D01*
X45418623Y-113730917D01*
X45264474Y-113794767D01*
X45046474Y-113885066D01*
X44651406Y-113963650D01*
X44248594Y-113963650D01*
X43853526Y-113885066D01*
X43635526Y-113794767D01*
X43481377Y-113730917D01*
X43146452Y-113507127D01*
X42861623Y-113222298D01*
X42637833Y-112887373D01*
X42534549Y-112638022D01*
X42483684Y-112515224D01*
X42405100Y-112120156D01*
X42405100Y-111717344D01*
X42483684Y-111322276D01*
X42605438Y-111028336D01*
X42637833Y-110950127D01*
X42861623Y-110615202D01*
X43146452Y-110330373D01*
X43481377Y-110106583D01*
X43635526Y-110042733D01*
X43853526Y-109952434D01*
X44248594Y-109873850D01*
X44651406Y-109873850D01*
X45046474Y-109952434D01*
X45046474Y-109952434D01*
G37*
G36*
X64096474Y-109952434D02*
G01*
X64314474Y-110042733D01*
X64468623Y-110106583D01*
X64803548Y-110330373D01*
X65088377Y-110615202D01*
X65312167Y-110950127D01*
X65344562Y-111028336D01*
X65466316Y-111322276D01*
X65544900Y-111717344D01*
X65544900Y-112120156D01*
X65466316Y-112515224D01*
X65415451Y-112638022D01*
X65312167Y-112887373D01*
X65088377Y-113222298D01*
X64803548Y-113507127D01*
X64468623Y-113730917D01*
X64314474Y-113794767D01*
X64096474Y-113885066D01*
X63701406Y-113963650D01*
X63298594Y-113963650D01*
X62903526Y-113885066D01*
X62685526Y-113794767D01*
X62531377Y-113730917D01*
X62196452Y-113507127D01*
X61911623Y-113222298D01*
X61687833Y-112887373D01*
X61584549Y-112638022D01*
X61533684Y-112515224D01*
X61455100Y-112120156D01*
X61455100Y-111717344D01*
X61533684Y-111322276D01*
X61655438Y-111028336D01*
X61687833Y-110950127D01*
X61911623Y-110615202D01*
X62196452Y-110330373D01*
X62531377Y-110106583D01*
X62685526Y-110042733D01*
X62903526Y-109952434D01*
X63298594Y-109873850D01*
X63701406Y-109873850D01*
X64096474Y-109952434D01*
X64096474Y-109952434D01*
G37*
G36*
X83146474Y-109952434D02*
G01*
X83364474Y-110042733D01*
X83518623Y-110106583D01*
X83853548Y-110330373D01*
X84138377Y-110615202D01*
X84362167Y-110950127D01*
X84394562Y-111028336D01*
X84516316Y-111322276D01*
X84594900Y-111717344D01*
X84594900Y-112120156D01*
X84516316Y-112515224D01*
X84465451Y-112638022D01*
X84362167Y-112887373D01*
X84138377Y-113222298D01*
X83853548Y-113507127D01*
X83518623Y-113730917D01*
X83364474Y-113794767D01*
X83146474Y-113885066D01*
X82751406Y-113963650D01*
X82348594Y-113963650D01*
X81953526Y-113885066D01*
X81735526Y-113794767D01*
X81581377Y-113730917D01*
X81246452Y-113507127D01*
X80961623Y-113222298D01*
X80737833Y-112887373D01*
X80634549Y-112638022D01*
X80583684Y-112515224D01*
X80505100Y-112120156D01*
X80505100Y-111717344D01*
X80583684Y-111322276D01*
X80705438Y-111028336D01*
X80737833Y-110950127D01*
X80961623Y-110615202D01*
X81246452Y-110330373D01*
X81581377Y-110106583D01*
X81735526Y-110042733D01*
X81953526Y-109952434D01*
X82348594Y-109873850D01*
X82751406Y-109873850D01*
X83146474Y-109952434D01*
X83146474Y-109952434D01*
G37*
G36*
X130771474Y-109952434D02*
G01*
X130989474Y-110042733D01*
X131143623Y-110106583D01*
X131478548Y-110330373D01*
X131763377Y-110615202D01*
X131987167Y-110950127D01*
X132019562Y-111028336D01*
X132141316Y-111322276D01*
X132219900Y-111717344D01*
X132219900Y-112120156D01*
X132141316Y-112515224D01*
X132090451Y-112638022D01*
X131987167Y-112887373D01*
X131763377Y-113222298D01*
X131478548Y-113507127D01*
X131143623Y-113730917D01*
X130989474Y-113794767D01*
X130771474Y-113885066D01*
X130376406Y-113963650D01*
X129973594Y-113963650D01*
X129578526Y-113885066D01*
X129360526Y-113794767D01*
X129206377Y-113730917D01*
X128871452Y-113507127D01*
X128586623Y-113222298D01*
X128362833Y-112887373D01*
X128259549Y-112638022D01*
X128208684Y-112515224D01*
X128130100Y-112120156D01*
X128130100Y-111717344D01*
X128208684Y-111322276D01*
X128330438Y-111028336D01*
X128362833Y-110950127D01*
X128586623Y-110615202D01*
X128871452Y-110330373D01*
X129206377Y-110106583D01*
X129360526Y-110042733D01*
X129578526Y-109952434D01*
X129973594Y-109873850D01*
X130376406Y-109873850D01*
X130771474Y-109952434D01*
X130771474Y-109952434D01*
G37*
G36*
X154583974Y-109952434D02*
G01*
X154801974Y-110042733D01*
X154956123Y-110106583D01*
X155291048Y-110330373D01*
X155575877Y-110615202D01*
X155799667Y-110950127D01*
X155832062Y-111028336D01*
X155953816Y-111322276D01*
X156032400Y-111717344D01*
X156032400Y-112120156D01*
X155953816Y-112515224D01*
X155902951Y-112638022D01*
X155799667Y-112887373D01*
X155575877Y-113222298D01*
X155291048Y-113507127D01*
X154956123Y-113730917D01*
X154801974Y-113794767D01*
X154583974Y-113885066D01*
X154188906Y-113963650D01*
X153786094Y-113963650D01*
X153391026Y-113885066D01*
X153173026Y-113794767D01*
X153018877Y-113730917D01*
X152683952Y-113507127D01*
X152399123Y-113222298D01*
X152175333Y-112887373D01*
X152072049Y-112638022D01*
X152021184Y-112515224D01*
X151942600Y-112120156D01*
X151942600Y-111717344D01*
X152021184Y-111322276D01*
X152142938Y-111028336D01*
X152175333Y-110950127D01*
X152399123Y-110615202D01*
X152683952Y-110330373D01*
X153018877Y-110106583D01*
X153173026Y-110042733D01*
X153391026Y-109952434D01*
X153786094Y-109873850D01*
X154188906Y-109873850D01*
X154583974Y-109952434D01*
X154583974Y-109952434D01*
G37*
G36*
X178396474Y-109952434D02*
G01*
X178614474Y-110042733D01*
X178768623Y-110106583D01*
X179103548Y-110330373D01*
X179388377Y-110615202D01*
X179612167Y-110950127D01*
X179644562Y-111028336D01*
X179766316Y-111322276D01*
X179844900Y-111717344D01*
X179844900Y-112120156D01*
X179766316Y-112515224D01*
X179715451Y-112638022D01*
X179612167Y-112887373D01*
X179388377Y-113222298D01*
X179103548Y-113507127D01*
X178768623Y-113730917D01*
X178614474Y-113794767D01*
X178396474Y-113885066D01*
X178001406Y-113963650D01*
X177598594Y-113963650D01*
X177203526Y-113885066D01*
X176985526Y-113794767D01*
X176831377Y-113730917D01*
X176496452Y-113507127D01*
X176211623Y-113222298D01*
X175987833Y-112887373D01*
X175884549Y-112638022D01*
X175833684Y-112515224D01*
X175755100Y-112120156D01*
X175755100Y-111717344D01*
X175833684Y-111322276D01*
X175955438Y-111028336D01*
X175987833Y-110950127D01*
X176211623Y-110615202D01*
X176496452Y-110330373D01*
X176831377Y-110106583D01*
X176985526Y-110042733D01*
X177203526Y-109952434D01*
X177598594Y-109873850D01*
X178001406Y-109873850D01*
X178396474Y-109952434D01*
X178396474Y-109952434D01*
G37*
G36*
X106958974Y-109952434D02*
G01*
X107176974Y-110042733D01*
X107331123Y-110106583D01*
X107666048Y-110330373D01*
X107950877Y-110615202D01*
X108174667Y-110950127D01*
X108207062Y-111028336D01*
X108328816Y-111322276D01*
X108407400Y-111717344D01*
X108407400Y-112120156D01*
X108328816Y-112515224D01*
X108277951Y-112638022D01*
X108174667Y-112887373D01*
X107950877Y-113222298D01*
X107666048Y-113507127D01*
X107331123Y-113730917D01*
X107176974Y-113794767D01*
X106958974Y-113885066D01*
X106563906Y-113963650D01*
X106161094Y-113963650D01*
X105766026Y-113885066D01*
X105548026Y-113794767D01*
X105393877Y-113730917D01*
X105058952Y-113507127D01*
X104774123Y-113222298D01*
X104550333Y-112887373D01*
X104447049Y-112638022D01*
X104396184Y-112515224D01*
X104317600Y-112120156D01*
X104317600Y-111717344D01*
X104396184Y-111322276D01*
X104517938Y-111028336D01*
X104550333Y-110950127D01*
X104774123Y-110615202D01*
X105058952Y-110330373D01*
X105393877Y-110106583D01*
X105548026Y-110042733D01*
X105766026Y-109952434D01*
X106161094Y-109873850D01*
X106563906Y-109873850D01*
X106958974Y-109952434D01*
X106958974Y-109952434D01*
G37*
G36*
X202200104Y-111028335D02*
G01*
X202368626Y-111098139D01*
X202520291Y-111199478D01*
X202649272Y-111328459D01*
X202750611Y-111480124D01*
X202820415Y-111648646D01*
X202856000Y-111827547D01*
X202856000Y-112009953D01*
X202820415Y-112188854D01*
X202750611Y-112357376D01*
X202649272Y-112509041D01*
X202520291Y-112638022D01*
X202368626Y-112739361D01*
X202200104Y-112809165D01*
X202021203Y-112844750D01*
X201838797Y-112844750D01*
X201659896Y-112809165D01*
X201491374Y-112739361D01*
X201339709Y-112638022D01*
X201210728Y-112509041D01*
X201109389Y-112357376D01*
X201039585Y-112188854D01*
X201004000Y-112009953D01*
X201004000Y-111827547D01*
X201039585Y-111648646D01*
X201109389Y-111480124D01*
X201210728Y-111328459D01*
X201339709Y-111199478D01*
X201491374Y-111098139D01*
X201659896Y-111028335D01*
X201838797Y-110992750D01*
X202021203Y-110992750D01*
X202200104Y-111028335D01*
X202200104Y-111028335D01*
G37*
G36*
X183150104Y-111028335D02*
G01*
X183318626Y-111098139D01*
X183470291Y-111199478D01*
X183599272Y-111328459D01*
X183700611Y-111480124D01*
X183770415Y-111648646D01*
X183806000Y-111827547D01*
X183806000Y-112009953D01*
X183770415Y-112188854D01*
X183700611Y-112357376D01*
X183599272Y-112509041D01*
X183470291Y-112638022D01*
X183318626Y-112739361D01*
X183150104Y-112809165D01*
X182971203Y-112844750D01*
X182788797Y-112844750D01*
X182609896Y-112809165D01*
X182441374Y-112739361D01*
X182289709Y-112638022D01*
X182160728Y-112509041D01*
X182059389Y-112357376D01*
X181989585Y-112188854D01*
X181954000Y-112009953D01*
X181954000Y-111827547D01*
X181989585Y-111648646D01*
X182059389Y-111480124D01*
X182160728Y-111328459D01*
X182289709Y-111199478D01*
X182441374Y-111098139D01*
X182609896Y-111028335D01*
X182788797Y-110992750D01*
X182971203Y-110992750D01*
X183150104Y-111028335D01*
X183150104Y-111028335D01*
G37*
G36*
X172990104Y-111028335D02*
G01*
X173158626Y-111098139D01*
X173310291Y-111199478D01*
X173439272Y-111328459D01*
X173540611Y-111480124D01*
X173610415Y-111648646D01*
X173646000Y-111827547D01*
X173646000Y-112009953D01*
X173610415Y-112188854D01*
X173540611Y-112357376D01*
X173439272Y-112509041D01*
X173310291Y-112638022D01*
X173158626Y-112739361D01*
X172990104Y-112809165D01*
X172811203Y-112844750D01*
X172628797Y-112844750D01*
X172449896Y-112809165D01*
X172281374Y-112739361D01*
X172129709Y-112638022D01*
X172000728Y-112509041D01*
X171899389Y-112357376D01*
X171829585Y-112188854D01*
X171794000Y-112009953D01*
X171794000Y-111827547D01*
X171829585Y-111648646D01*
X171899389Y-111480124D01*
X172000728Y-111328459D01*
X172129709Y-111199478D01*
X172281374Y-111098139D01*
X172449896Y-111028335D01*
X172628797Y-110992750D01*
X172811203Y-110992750D01*
X172990104Y-111028335D01*
X172990104Y-111028335D01*
G37*
G36*
X159337604Y-111028335D02*
G01*
X159506126Y-111098139D01*
X159657791Y-111199478D01*
X159786772Y-111328459D01*
X159888111Y-111480124D01*
X159957915Y-111648646D01*
X159993500Y-111827547D01*
X159993500Y-112009953D01*
X159957915Y-112188854D01*
X159888111Y-112357376D01*
X159786772Y-112509041D01*
X159657791Y-112638022D01*
X159506126Y-112739361D01*
X159337604Y-112809165D01*
X159158703Y-112844750D01*
X158976297Y-112844750D01*
X158797396Y-112809165D01*
X158628874Y-112739361D01*
X158477209Y-112638022D01*
X158348228Y-112509041D01*
X158246889Y-112357376D01*
X158177085Y-112188854D01*
X158141500Y-112009953D01*
X158141500Y-111827547D01*
X158177085Y-111648646D01*
X158246889Y-111480124D01*
X158348228Y-111328459D01*
X158477209Y-111199478D01*
X158628874Y-111098139D01*
X158797396Y-111028335D01*
X158976297Y-110992750D01*
X159158703Y-110992750D01*
X159337604Y-111028335D01*
X159337604Y-111028335D01*
G37*
G36*
X149177604Y-111028335D02*
G01*
X149346126Y-111098139D01*
X149497791Y-111199478D01*
X149626772Y-111328459D01*
X149728111Y-111480124D01*
X149797915Y-111648646D01*
X149833500Y-111827547D01*
X149833500Y-112009953D01*
X149797915Y-112188854D01*
X149728111Y-112357376D01*
X149626772Y-112509041D01*
X149497791Y-112638022D01*
X149346126Y-112739361D01*
X149177604Y-112809165D01*
X148998703Y-112844750D01*
X148816297Y-112844750D01*
X148637396Y-112809165D01*
X148468874Y-112739361D01*
X148317209Y-112638022D01*
X148188228Y-112509041D01*
X148086889Y-112357376D01*
X148017085Y-112188854D01*
X147981500Y-112009953D01*
X147981500Y-111827547D01*
X148017085Y-111648646D01*
X148086889Y-111480124D01*
X148188228Y-111328459D01*
X148317209Y-111199478D01*
X148468874Y-111098139D01*
X148637396Y-111028335D01*
X148816297Y-110992750D01*
X148998703Y-110992750D01*
X149177604Y-111028335D01*
X149177604Y-111028335D01*
G37*
G36*
X135525104Y-111028335D02*
G01*
X135693626Y-111098139D01*
X135845291Y-111199478D01*
X135974272Y-111328459D01*
X136075611Y-111480124D01*
X136145415Y-111648646D01*
X136181000Y-111827547D01*
X136181000Y-112009953D01*
X136145415Y-112188854D01*
X136075611Y-112357376D01*
X135974272Y-112509041D01*
X135845291Y-112638022D01*
X135693626Y-112739361D01*
X135525104Y-112809165D01*
X135346203Y-112844750D01*
X135163797Y-112844750D01*
X134984896Y-112809165D01*
X134816374Y-112739361D01*
X134664709Y-112638022D01*
X134535728Y-112509041D01*
X134434389Y-112357376D01*
X134364585Y-112188854D01*
X134329000Y-112009953D01*
X134329000Y-111827547D01*
X134364585Y-111648646D01*
X134434389Y-111480124D01*
X134535728Y-111328459D01*
X134664709Y-111199478D01*
X134816374Y-111098139D01*
X134984896Y-111028335D01*
X135163797Y-110992750D01*
X135346203Y-110992750D01*
X135525104Y-111028335D01*
X135525104Y-111028335D01*
G37*
G36*
X192040104Y-111028335D02*
G01*
X192208626Y-111098139D01*
X192360291Y-111199478D01*
X192489272Y-111328459D01*
X192590611Y-111480124D01*
X192660415Y-111648646D01*
X192696000Y-111827547D01*
X192696000Y-112009953D01*
X192660415Y-112188854D01*
X192590611Y-112357376D01*
X192489272Y-112509041D01*
X192360291Y-112638022D01*
X192208626Y-112739361D01*
X192040104Y-112809165D01*
X191861203Y-112844750D01*
X191678797Y-112844750D01*
X191499896Y-112809165D01*
X191331374Y-112739361D01*
X191179709Y-112638022D01*
X191050728Y-112509041D01*
X190949389Y-112357376D01*
X190879585Y-112188854D01*
X190844000Y-112009953D01*
X190844000Y-111827547D01*
X190879585Y-111648646D01*
X190949389Y-111480124D01*
X191050728Y-111328459D01*
X191179709Y-111199478D01*
X191331374Y-111098139D01*
X191499896Y-111028335D01*
X191678797Y-110992750D01*
X191861203Y-110992750D01*
X192040104Y-111028335D01*
X192040104Y-111028335D01*
G37*
G36*
X111712604Y-111028335D02*
G01*
X111881126Y-111098139D01*
X112032791Y-111199478D01*
X112161772Y-111328459D01*
X112263111Y-111480124D01*
X112332915Y-111648646D01*
X112368500Y-111827547D01*
X112368500Y-112009953D01*
X112332915Y-112188854D01*
X112263111Y-112357376D01*
X112161772Y-112509041D01*
X112032791Y-112638022D01*
X111881126Y-112739361D01*
X111712604Y-112809165D01*
X111533703Y-112844750D01*
X111351297Y-112844750D01*
X111172396Y-112809165D01*
X111003874Y-112739361D01*
X110852209Y-112638022D01*
X110723228Y-112509041D01*
X110621889Y-112357376D01*
X110552085Y-112188854D01*
X110516500Y-112009953D01*
X110516500Y-111827547D01*
X110552085Y-111648646D01*
X110621889Y-111480124D01*
X110723228Y-111328459D01*
X110852209Y-111199478D01*
X111003874Y-111098139D01*
X111172396Y-111028335D01*
X111351297Y-110992750D01*
X111533703Y-110992750D01*
X111712604Y-111028335D01*
X111712604Y-111028335D01*
G37*
G36*
X211090104Y-111028335D02*
G01*
X211258626Y-111098139D01*
X211410291Y-111199478D01*
X211539272Y-111328459D01*
X211640611Y-111480124D01*
X211710415Y-111648646D01*
X211746000Y-111827547D01*
X211746000Y-112009953D01*
X211710415Y-112188854D01*
X211640611Y-112357376D01*
X211539272Y-112509041D01*
X211410291Y-112638022D01*
X211258626Y-112739361D01*
X211090104Y-112809165D01*
X210911203Y-112844750D01*
X210728797Y-112844750D01*
X210549896Y-112809165D01*
X210381374Y-112739361D01*
X210229709Y-112638022D01*
X210100728Y-112509041D01*
X209999389Y-112357376D01*
X209929585Y-112188854D01*
X209894000Y-112009953D01*
X209894000Y-111827547D01*
X209929585Y-111648646D01*
X209999389Y-111480124D01*
X210100728Y-111328459D01*
X210229709Y-111199478D01*
X210381374Y-111098139D01*
X210549896Y-111028335D01*
X210728797Y-110992750D01*
X210911203Y-110992750D01*
X211090104Y-111028335D01*
X211090104Y-111028335D01*
G37*
G36*
X49800104Y-111028335D02*
G01*
X49968626Y-111098139D01*
X50120291Y-111199478D01*
X50249272Y-111328459D01*
X50350611Y-111480124D01*
X50420415Y-111648646D01*
X50456000Y-111827547D01*
X50456000Y-112009953D01*
X50420415Y-112188854D01*
X50350611Y-112357376D01*
X50249272Y-112509041D01*
X50120291Y-112638022D01*
X49968626Y-112739361D01*
X49800104Y-112809165D01*
X49621203Y-112844750D01*
X49438797Y-112844750D01*
X49259896Y-112809165D01*
X49091374Y-112739361D01*
X48939709Y-112638022D01*
X48810728Y-112509041D01*
X48709389Y-112357376D01*
X48639585Y-112188854D01*
X48604000Y-112009953D01*
X48604000Y-111827547D01*
X48639585Y-111648646D01*
X48709389Y-111480124D01*
X48810728Y-111328459D01*
X48939709Y-111199478D01*
X49091374Y-111098139D01*
X49259896Y-111028335D01*
X49438797Y-110992750D01*
X49621203Y-110992750D01*
X49800104Y-111028335D01*
X49800104Y-111028335D01*
G37*
G36*
X221250104Y-111028335D02*
G01*
X221418626Y-111098139D01*
X221570291Y-111199478D01*
X221699272Y-111328459D01*
X221800611Y-111480124D01*
X221870415Y-111648646D01*
X221906000Y-111827547D01*
X221906000Y-112009953D01*
X221870415Y-112188854D01*
X221800611Y-112357376D01*
X221699272Y-112509041D01*
X221570291Y-112638022D01*
X221418626Y-112739361D01*
X221250104Y-112809165D01*
X221071203Y-112844750D01*
X220888797Y-112844750D01*
X220709896Y-112809165D01*
X220541374Y-112739361D01*
X220389709Y-112638022D01*
X220260728Y-112509041D01*
X220159389Y-112357376D01*
X220089585Y-112188854D01*
X220054000Y-112009953D01*
X220054000Y-111827547D01*
X220089585Y-111648646D01*
X220159389Y-111480124D01*
X220260728Y-111328459D01*
X220389709Y-111199478D01*
X220541374Y-111098139D01*
X220709896Y-111028335D01*
X220888797Y-110992750D01*
X221071203Y-110992750D01*
X221250104Y-111028335D01*
X221250104Y-111028335D01*
G37*
G36*
X58690104Y-111028335D02*
G01*
X58858626Y-111098139D01*
X59010291Y-111199478D01*
X59139272Y-111328459D01*
X59240611Y-111480124D01*
X59310415Y-111648646D01*
X59346000Y-111827547D01*
X59346000Y-112009953D01*
X59310415Y-112188854D01*
X59240611Y-112357376D01*
X59139272Y-112509041D01*
X59010291Y-112638022D01*
X58858626Y-112739361D01*
X58690104Y-112809165D01*
X58511203Y-112844750D01*
X58328797Y-112844750D01*
X58149896Y-112809165D01*
X57981374Y-112739361D01*
X57829709Y-112638022D01*
X57700728Y-112509041D01*
X57599389Y-112357376D01*
X57529585Y-112188854D01*
X57494000Y-112009953D01*
X57494000Y-111827547D01*
X57529585Y-111648646D01*
X57599389Y-111480124D01*
X57700728Y-111328459D01*
X57829709Y-111199478D01*
X57981374Y-111098139D01*
X58149896Y-111028335D01*
X58328797Y-110992750D01*
X58511203Y-110992750D01*
X58690104Y-111028335D01*
X58690104Y-111028335D01*
G37*
G36*
X125365104Y-111028335D02*
G01*
X125533626Y-111098139D01*
X125685291Y-111199478D01*
X125814272Y-111328459D01*
X125915611Y-111480124D01*
X125985415Y-111648646D01*
X126021000Y-111827547D01*
X126021000Y-112009953D01*
X125985415Y-112188854D01*
X125915611Y-112357376D01*
X125814272Y-112509041D01*
X125685291Y-112638022D01*
X125533626Y-112739361D01*
X125365104Y-112809165D01*
X125186203Y-112844750D01*
X125003797Y-112844750D01*
X124824896Y-112809165D01*
X124656374Y-112739361D01*
X124504709Y-112638022D01*
X124375728Y-112509041D01*
X124274389Y-112357376D01*
X124204585Y-112188854D01*
X124169000Y-112009953D01*
X124169000Y-111827547D01*
X124204585Y-111648646D01*
X124274389Y-111480124D01*
X124375728Y-111328459D01*
X124504709Y-111199478D01*
X124656374Y-111098139D01*
X124824896Y-111028335D01*
X125003797Y-110992750D01*
X125186203Y-110992750D01*
X125365104Y-111028335D01*
X125365104Y-111028335D01*
G37*
G36*
X77740104Y-111028335D02*
G01*
X77908626Y-111098139D01*
X78060291Y-111199478D01*
X78189272Y-111328459D01*
X78290611Y-111480124D01*
X78360415Y-111648646D01*
X78396000Y-111827547D01*
X78396000Y-112009953D01*
X78360415Y-112188854D01*
X78290611Y-112357376D01*
X78189272Y-112509041D01*
X78060291Y-112638022D01*
X77908626Y-112739361D01*
X77740104Y-112809165D01*
X77561203Y-112844750D01*
X77378797Y-112844750D01*
X77199896Y-112809165D01*
X77031374Y-112739361D01*
X76879709Y-112638022D01*
X76750728Y-112509041D01*
X76649389Y-112357376D01*
X76579585Y-112188854D01*
X76544000Y-112009953D01*
X76544000Y-111827547D01*
X76579585Y-111648646D01*
X76649389Y-111480124D01*
X76750728Y-111328459D01*
X76879709Y-111199478D01*
X77031374Y-111098139D01*
X77199896Y-111028335D01*
X77378797Y-110992750D01*
X77561203Y-110992750D01*
X77740104Y-111028335D01*
X77740104Y-111028335D01*
G37*
G36*
X87900104Y-111028335D02*
G01*
X88068626Y-111098139D01*
X88220291Y-111199478D01*
X88349272Y-111328459D01*
X88450611Y-111480124D01*
X88520415Y-111648646D01*
X88556000Y-111827547D01*
X88556000Y-112009953D01*
X88520415Y-112188854D01*
X88450611Y-112357376D01*
X88349272Y-112509041D01*
X88220291Y-112638022D01*
X88068626Y-112739361D01*
X87900104Y-112809165D01*
X87721203Y-112844750D01*
X87538797Y-112844750D01*
X87359896Y-112809165D01*
X87191374Y-112739361D01*
X87039709Y-112638022D01*
X86910728Y-112509041D01*
X86809389Y-112357376D01*
X86739585Y-112188854D01*
X86704000Y-112009953D01*
X86704000Y-111827547D01*
X86739585Y-111648646D01*
X86809389Y-111480124D01*
X86910728Y-111328459D01*
X87039709Y-111199478D01*
X87191374Y-111098139D01*
X87359896Y-111028335D01*
X87538797Y-110992750D01*
X87721203Y-110992750D01*
X87900104Y-111028335D01*
X87900104Y-111028335D01*
G37*
G36*
X101552604Y-111028335D02*
G01*
X101721126Y-111098139D01*
X101872791Y-111199478D01*
X102001772Y-111328459D01*
X102103111Y-111480124D01*
X102172915Y-111648646D01*
X102208500Y-111827547D01*
X102208500Y-112009953D01*
X102172915Y-112188854D01*
X102103111Y-112357376D01*
X102001772Y-112509041D01*
X101872791Y-112638022D01*
X101721126Y-112739361D01*
X101552604Y-112809165D01*
X101373703Y-112844750D01*
X101191297Y-112844750D01*
X101012396Y-112809165D01*
X100843874Y-112739361D01*
X100692209Y-112638022D01*
X100563228Y-112509041D01*
X100461889Y-112357376D01*
X100392085Y-112188854D01*
X100356500Y-112009953D01*
X100356500Y-111827547D01*
X100392085Y-111648646D01*
X100461889Y-111480124D01*
X100563228Y-111328459D01*
X100692209Y-111199478D01*
X100843874Y-111098139D01*
X101012396Y-111028335D01*
X101191297Y-110992750D01*
X101373703Y-110992750D01*
X101552604Y-111028335D01*
X101552604Y-111028335D01*
G37*
G36*
X68850104Y-111028335D02*
G01*
X69018626Y-111098139D01*
X69170291Y-111199478D01*
X69299272Y-111328459D01*
X69400611Y-111480124D01*
X69470415Y-111648646D01*
X69506000Y-111827547D01*
X69506000Y-112009953D01*
X69470415Y-112188854D01*
X69400611Y-112357376D01*
X69299272Y-112509041D01*
X69170291Y-112638022D01*
X69018626Y-112739361D01*
X68850104Y-112809165D01*
X68671203Y-112844750D01*
X68488797Y-112844750D01*
X68309896Y-112809165D01*
X68141374Y-112739361D01*
X67989709Y-112638022D01*
X67860728Y-112509041D01*
X67759389Y-112357376D01*
X67689585Y-112188854D01*
X67654000Y-112009953D01*
X67654000Y-111827547D01*
X67689585Y-111648646D01*
X67759389Y-111480124D01*
X67860728Y-111328459D01*
X67989709Y-111199478D01*
X68141374Y-111098139D01*
X68309896Y-111028335D01*
X68488797Y-110992750D01*
X68671203Y-110992750D01*
X68850104Y-111028335D01*
X68850104Y-111028335D01*
G37*
G36*
X39640104Y-111028335D02*
G01*
X39808626Y-111098139D01*
X39960291Y-111199478D01*
X40089272Y-111328459D01*
X40190611Y-111480124D01*
X40260415Y-111648646D01*
X40296000Y-111827547D01*
X40296000Y-112009953D01*
X40260415Y-112188854D01*
X40190611Y-112357376D01*
X40089272Y-112509041D01*
X39960291Y-112638022D01*
X39808626Y-112739361D01*
X39640104Y-112809165D01*
X39461203Y-112844750D01*
X39278797Y-112844750D01*
X39099896Y-112809165D01*
X38931374Y-112739361D01*
X38779709Y-112638022D01*
X38650728Y-112509041D01*
X38549389Y-112357376D01*
X38479585Y-112188854D01*
X38444000Y-112009953D01*
X38444000Y-111827547D01*
X38479585Y-111648646D01*
X38549389Y-111480124D01*
X38650728Y-111328459D01*
X38779709Y-111199478D01*
X38931374Y-111098139D01*
X39099896Y-111028335D01*
X39278797Y-110992750D01*
X39461203Y-110992750D01*
X39640104Y-111028335D01*
X39640104Y-111028335D01*
G37*
G36*
X216496474Y-90902434D02*
G01*
X216714474Y-90992733D01*
X216868623Y-91056583D01*
X217203548Y-91280373D01*
X217488377Y-91565202D01*
X217712167Y-91900127D01*
X217744562Y-91978336D01*
X217866316Y-92272276D01*
X217944900Y-92667344D01*
X217944900Y-93070156D01*
X217866316Y-93465224D01*
X217815451Y-93588022D01*
X217712167Y-93837373D01*
X217488377Y-94172298D01*
X217203548Y-94457127D01*
X216868623Y-94680917D01*
X216714474Y-94744767D01*
X216496474Y-94835066D01*
X216101406Y-94913650D01*
X215698594Y-94913650D01*
X215303526Y-94835066D01*
X215085526Y-94744767D01*
X214931377Y-94680917D01*
X214596452Y-94457127D01*
X214311623Y-94172298D01*
X214087833Y-93837373D01*
X213984549Y-93588022D01*
X213933684Y-93465224D01*
X213855100Y-93070156D01*
X213855100Y-92667344D01*
X213933684Y-92272276D01*
X214055438Y-91978336D01*
X214087833Y-91900127D01*
X214311623Y-91565202D01*
X214596452Y-91280373D01*
X214931377Y-91056583D01*
X215085526Y-90992733D01*
X215303526Y-90902434D01*
X215698594Y-90823850D01*
X216101406Y-90823850D01*
X216496474Y-90902434D01*
X216496474Y-90902434D01*
G37*
G36*
X64096474Y-90902434D02*
G01*
X64314474Y-90992733D01*
X64468623Y-91056583D01*
X64803548Y-91280373D01*
X65088377Y-91565202D01*
X65312167Y-91900127D01*
X65344562Y-91978336D01*
X65466316Y-92272276D01*
X65544900Y-92667344D01*
X65544900Y-93070156D01*
X65466316Y-93465224D01*
X65415451Y-93588022D01*
X65312167Y-93837373D01*
X65088377Y-94172298D01*
X64803548Y-94457127D01*
X64468623Y-94680917D01*
X64314474Y-94744767D01*
X64096474Y-94835066D01*
X63701406Y-94913650D01*
X63298594Y-94913650D01*
X62903526Y-94835066D01*
X62685526Y-94744767D01*
X62531377Y-94680917D01*
X62196452Y-94457127D01*
X61911623Y-94172298D01*
X61687833Y-93837373D01*
X61584549Y-93588022D01*
X61533684Y-93465224D01*
X61455100Y-93070156D01*
X61455100Y-92667344D01*
X61533684Y-92272276D01*
X61655438Y-91978336D01*
X61687833Y-91900127D01*
X61911623Y-91565202D01*
X62196452Y-91280373D01*
X62531377Y-91056583D01*
X62685526Y-90992733D01*
X62903526Y-90902434D01*
X63298594Y-90823850D01*
X63701406Y-90823850D01*
X64096474Y-90902434D01*
X64096474Y-90902434D01*
G37*
G36*
X83146474Y-90902434D02*
G01*
X83364474Y-90992733D01*
X83518623Y-91056583D01*
X83853548Y-91280373D01*
X84138377Y-91565202D01*
X84362167Y-91900127D01*
X84394562Y-91978336D01*
X84516316Y-92272276D01*
X84594900Y-92667344D01*
X84594900Y-93070156D01*
X84516316Y-93465224D01*
X84465451Y-93588022D01*
X84362167Y-93837373D01*
X84138377Y-94172298D01*
X83853548Y-94457127D01*
X83518623Y-94680917D01*
X83364474Y-94744767D01*
X83146474Y-94835066D01*
X82751406Y-94913650D01*
X82348594Y-94913650D01*
X81953526Y-94835066D01*
X81735526Y-94744767D01*
X81581377Y-94680917D01*
X81246452Y-94457127D01*
X80961623Y-94172298D01*
X80737833Y-93837373D01*
X80634549Y-93588022D01*
X80583684Y-93465224D01*
X80505100Y-93070156D01*
X80505100Y-92667344D01*
X80583684Y-92272276D01*
X80705438Y-91978336D01*
X80737833Y-91900127D01*
X80961623Y-91565202D01*
X81246452Y-91280373D01*
X81581377Y-91056583D01*
X81735526Y-90992733D01*
X81953526Y-90902434D01*
X82348594Y-90823850D01*
X82751406Y-90823850D01*
X83146474Y-90902434D01*
X83146474Y-90902434D01*
G37*
G36*
X102196474Y-90902434D02*
G01*
X102414474Y-90992733D01*
X102568623Y-91056583D01*
X102903548Y-91280373D01*
X103188377Y-91565202D01*
X103412167Y-91900127D01*
X103444562Y-91978336D01*
X103566316Y-92272276D01*
X103644900Y-92667344D01*
X103644900Y-93070156D01*
X103566316Y-93465224D01*
X103515451Y-93588022D01*
X103412167Y-93837373D01*
X103188377Y-94172298D01*
X102903548Y-94457127D01*
X102568623Y-94680917D01*
X102414474Y-94744767D01*
X102196474Y-94835066D01*
X101801406Y-94913650D01*
X101398594Y-94913650D01*
X101003526Y-94835066D01*
X100785526Y-94744767D01*
X100631377Y-94680917D01*
X100296452Y-94457127D01*
X100011623Y-94172298D01*
X99787833Y-93837373D01*
X99684549Y-93588022D01*
X99633684Y-93465224D01*
X99555100Y-93070156D01*
X99555100Y-92667344D01*
X99633684Y-92272276D01*
X99755438Y-91978336D01*
X99787833Y-91900127D01*
X100011623Y-91565202D01*
X100296452Y-91280373D01*
X100631377Y-91056583D01*
X100785526Y-90992733D01*
X101003526Y-90902434D01*
X101398594Y-90823850D01*
X101801406Y-90823850D01*
X102196474Y-90902434D01*
X102196474Y-90902434D01*
G37*
G36*
X45046474Y-90902434D02*
G01*
X45264474Y-90992733D01*
X45418623Y-91056583D01*
X45753548Y-91280373D01*
X46038377Y-91565202D01*
X46262167Y-91900127D01*
X46294562Y-91978336D01*
X46416316Y-92272276D01*
X46494900Y-92667344D01*
X46494900Y-93070156D01*
X46416316Y-93465224D01*
X46365451Y-93588022D01*
X46262167Y-93837373D01*
X46038377Y-94172298D01*
X45753548Y-94457127D01*
X45418623Y-94680917D01*
X45264474Y-94744767D01*
X45046474Y-94835066D01*
X44651406Y-94913650D01*
X44248594Y-94913650D01*
X43853526Y-94835066D01*
X43635526Y-94744767D01*
X43481377Y-94680917D01*
X43146452Y-94457127D01*
X42861623Y-94172298D01*
X42637833Y-93837373D01*
X42534549Y-93588022D01*
X42483684Y-93465224D01*
X42405100Y-93070156D01*
X42405100Y-92667344D01*
X42483684Y-92272276D01*
X42605438Y-91978336D01*
X42637833Y-91900127D01*
X42861623Y-91565202D01*
X43146452Y-91280373D01*
X43481377Y-91056583D01*
X43635526Y-90992733D01*
X43853526Y-90902434D01*
X44248594Y-90823850D01*
X44651406Y-90823850D01*
X45046474Y-90902434D01*
X45046474Y-90902434D01*
G37*
G36*
X178396474Y-90902434D02*
G01*
X178614474Y-90992733D01*
X178768623Y-91056583D01*
X179103548Y-91280373D01*
X179388377Y-91565202D01*
X179612167Y-91900127D01*
X179644562Y-91978336D01*
X179766316Y-92272276D01*
X179844900Y-92667344D01*
X179844900Y-93070156D01*
X179766316Y-93465224D01*
X179715451Y-93588022D01*
X179612167Y-93837373D01*
X179388377Y-94172298D01*
X179103548Y-94457127D01*
X178768623Y-94680917D01*
X178614474Y-94744767D01*
X178396474Y-94835066D01*
X178001406Y-94913650D01*
X177598594Y-94913650D01*
X177203526Y-94835066D01*
X176985526Y-94744767D01*
X176831377Y-94680917D01*
X176496452Y-94457127D01*
X176211623Y-94172298D01*
X175987833Y-93837373D01*
X175884549Y-93588022D01*
X175833684Y-93465224D01*
X175755100Y-93070156D01*
X175755100Y-92667344D01*
X175833684Y-92272276D01*
X175955438Y-91978336D01*
X175987833Y-91900127D01*
X176211623Y-91565202D01*
X176496452Y-91280373D01*
X176831377Y-91056583D01*
X176985526Y-90992733D01*
X177203526Y-90902434D01*
X177598594Y-90823850D01*
X178001406Y-90823850D01*
X178396474Y-90902434D01*
X178396474Y-90902434D01*
G37*
G36*
X159346474Y-90902434D02*
G01*
X159564474Y-90992733D01*
X159718623Y-91056583D01*
X160053548Y-91280373D01*
X160338377Y-91565202D01*
X160562167Y-91900127D01*
X160594562Y-91978336D01*
X160716316Y-92272276D01*
X160794900Y-92667344D01*
X160794900Y-93070156D01*
X160716316Y-93465224D01*
X160665451Y-93588022D01*
X160562167Y-93837373D01*
X160338377Y-94172298D01*
X160053548Y-94457127D01*
X159718623Y-94680917D01*
X159564474Y-94744767D01*
X159346474Y-94835066D01*
X158951406Y-94913650D01*
X158548594Y-94913650D01*
X158153526Y-94835066D01*
X157935526Y-94744767D01*
X157781377Y-94680917D01*
X157446452Y-94457127D01*
X157161623Y-94172298D01*
X156937833Y-93837373D01*
X156834549Y-93588022D01*
X156783684Y-93465224D01*
X156705100Y-93070156D01*
X156705100Y-92667344D01*
X156783684Y-92272276D01*
X156905438Y-91978336D01*
X156937833Y-91900127D01*
X157161623Y-91565202D01*
X157446452Y-91280373D01*
X157781377Y-91056583D01*
X157935526Y-90992733D01*
X158153526Y-90902434D01*
X158548594Y-90823850D01*
X158951406Y-90823850D01*
X159346474Y-90902434D01*
X159346474Y-90902434D01*
G37*
G36*
X140296474Y-90902434D02*
G01*
X140514474Y-90992733D01*
X140668623Y-91056583D01*
X141003548Y-91280373D01*
X141288377Y-91565202D01*
X141512167Y-91900127D01*
X141544562Y-91978336D01*
X141666316Y-92272276D01*
X141744900Y-92667344D01*
X141744900Y-93070156D01*
X141666316Y-93465224D01*
X141615451Y-93588022D01*
X141512167Y-93837373D01*
X141288377Y-94172298D01*
X141003548Y-94457127D01*
X140668623Y-94680917D01*
X140514474Y-94744767D01*
X140296474Y-94835066D01*
X139901406Y-94913650D01*
X139498594Y-94913650D01*
X139103526Y-94835066D01*
X138885526Y-94744767D01*
X138731377Y-94680917D01*
X138396452Y-94457127D01*
X138111623Y-94172298D01*
X137887833Y-93837373D01*
X137784549Y-93588022D01*
X137733684Y-93465224D01*
X137655100Y-93070156D01*
X137655100Y-92667344D01*
X137733684Y-92272276D01*
X137855438Y-91978336D01*
X137887833Y-91900127D01*
X138111623Y-91565202D01*
X138396452Y-91280373D01*
X138731377Y-91056583D01*
X138885526Y-90992733D01*
X139103526Y-90902434D01*
X139498594Y-90823850D01*
X139901406Y-90823850D01*
X140296474Y-90902434D01*
X140296474Y-90902434D01*
G37*
G36*
X197446474Y-90902434D02*
G01*
X197664474Y-90992733D01*
X197818623Y-91056583D01*
X198153548Y-91280373D01*
X198438377Y-91565202D01*
X198662167Y-91900127D01*
X198694562Y-91978336D01*
X198816316Y-92272276D01*
X198894900Y-92667344D01*
X198894900Y-93070156D01*
X198816316Y-93465224D01*
X198765451Y-93588022D01*
X198662167Y-93837373D01*
X198438377Y-94172298D01*
X198153548Y-94457127D01*
X197818623Y-94680917D01*
X197664474Y-94744767D01*
X197446474Y-94835066D01*
X197051406Y-94913650D01*
X196648594Y-94913650D01*
X196253526Y-94835066D01*
X196035526Y-94744767D01*
X195881377Y-94680917D01*
X195546452Y-94457127D01*
X195261623Y-94172298D01*
X195037833Y-93837373D01*
X194934549Y-93588022D01*
X194883684Y-93465224D01*
X194805100Y-93070156D01*
X194805100Y-92667344D01*
X194883684Y-92272276D01*
X195005438Y-91978336D01*
X195037833Y-91900127D01*
X195261623Y-91565202D01*
X195546452Y-91280373D01*
X195881377Y-91056583D01*
X196035526Y-90992733D01*
X196253526Y-90902434D01*
X196648594Y-90823850D01*
X197051406Y-90823850D01*
X197446474Y-90902434D01*
X197446474Y-90902434D01*
G37*
G36*
X121246474Y-90902434D02*
G01*
X121464474Y-90992733D01*
X121618623Y-91056583D01*
X121953548Y-91280373D01*
X122238377Y-91565202D01*
X122462167Y-91900127D01*
X122494562Y-91978336D01*
X122616316Y-92272276D01*
X122694900Y-92667344D01*
X122694900Y-93070156D01*
X122616316Y-93465224D01*
X122565451Y-93588022D01*
X122462167Y-93837373D01*
X122238377Y-94172298D01*
X121953548Y-94457127D01*
X121618623Y-94680917D01*
X121464474Y-94744767D01*
X121246474Y-94835066D01*
X120851406Y-94913650D01*
X120448594Y-94913650D01*
X120053526Y-94835066D01*
X119835526Y-94744767D01*
X119681377Y-94680917D01*
X119346452Y-94457127D01*
X119061623Y-94172298D01*
X118837833Y-93837373D01*
X118734549Y-93588022D01*
X118683684Y-93465224D01*
X118605100Y-93070156D01*
X118605100Y-92667344D01*
X118683684Y-92272276D01*
X118805438Y-91978336D01*
X118837833Y-91900127D01*
X119061623Y-91565202D01*
X119346452Y-91280373D01*
X119681377Y-91056583D01*
X119835526Y-90992733D01*
X120053526Y-90902434D01*
X120448594Y-90823850D01*
X120851406Y-90823850D01*
X121246474Y-90902434D01*
X121246474Y-90902434D01*
G37*
G36*
X39640104Y-91978335D02*
G01*
X39808626Y-92048139D01*
X39960291Y-92149478D01*
X40089272Y-92278459D01*
X40190611Y-92430124D01*
X40260415Y-92598646D01*
X40296000Y-92777547D01*
X40296000Y-92959953D01*
X40260415Y-93138854D01*
X40190611Y-93307376D01*
X40089272Y-93459041D01*
X39960291Y-93588022D01*
X39808626Y-93689361D01*
X39640104Y-93759165D01*
X39461203Y-93794750D01*
X39278797Y-93794750D01*
X39099896Y-93759165D01*
X38931374Y-93689361D01*
X38779709Y-93588022D01*
X38650728Y-93459041D01*
X38549389Y-93307376D01*
X38479585Y-93138854D01*
X38444000Y-92959953D01*
X38444000Y-92777547D01*
X38479585Y-92598646D01*
X38549389Y-92430124D01*
X38650728Y-92278459D01*
X38779709Y-92149478D01*
X38931374Y-92048139D01*
X39099896Y-91978335D01*
X39278797Y-91942750D01*
X39461203Y-91942750D01*
X39640104Y-91978335D01*
X39640104Y-91978335D01*
G37*
G36*
X58690104Y-91978335D02*
G01*
X58858626Y-92048139D01*
X59010291Y-92149478D01*
X59139272Y-92278459D01*
X59240611Y-92430124D01*
X59310415Y-92598646D01*
X59346000Y-92777547D01*
X59346000Y-92959953D01*
X59310415Y-93138854D01*
X59240611Y-93307376D01*
X59139272Y-93459041D01*
X59010291Y-93588022D01*
X58858626Y-93689361D01*
X58690104Y-93759165D01*
X58511203Y-93794750D01*
X58328797Y-93794750D01*
X58149896Y-93759165D01*
X57981374Y-93689361D01*
X57829709Y-93588022D01*
X57700728Y-93459041D01*
X57599389Y-93307376D01*
X57529585Y-93138854D01*
X57494000Y-92959953D01*
X57494000Y-92777547D01*
X57529585Y-92598646D01*
X57599389Y-92430124D01*
X57700728Y-92278459D01*
X57829709Y-92149478D01*
X57981374Y-92048139D01*
X58149896Y-91978335D01*
X58328797Y-91942750D01*
X58511203Y-91942750D01*
X58690104Y-91978335D01*
X58690104Y-91978335D01*
G37*
G36*
X68850104Y-91978335D02*
G01*
X69018626Y-92048139D01*
X69170291Y-92149478D01*
X69299272Y-92278459D01*
X69400611Y-92430124D01*
X69470415Y-92598646D01*
X69506000Y-92777547D01*
X69506000Y-92959953D01*
X69470415Y-93138854D01*
X69400611Y-93307376D01*
X69299272Y-93459041D01*
X69170291Y-93588022D01*
X69018626Y-93689361D01*
X68850104Y-93759165D01*
X68671203Y-93794750D01*
X68488797Y-93794750D01*
X68309896Y-93759165D01*
X68141374Y-93689361D01*
X67989709Y-93588022D01*
X67860728Y-93459041D01*
X67759389Y-93307376D01*
X67689585Y-93138854D01*
X67654000Y-92959953D01*
X67654000Y-92777547D01*
X67689585Y-92598646D01*
X67759389Y-92430124D01*
X67860728Y-92278459D01*
X67989709Y-92149478D01*
X68141374Y-92048139D01*
X68309896Y-91978335D01*
X68488797Y-91942750D01*
X68671203Y-91942750D01*
X68850104Y-91978335D01*
X68850104Y-91978335D01*
G37*
G36*
X202200104Y-91978335D02*
G01*
X202368626Y-92048139D01*
X202520291Y-92149478D01*
X202649272Y-92278459D01*
X202750611Y-92430124D01*
X202820415Y-92598646D01*
X202856000Y-92777547D01*
X202856000Y-92959953D01*
X202820415Y-93138854D01*
X202750611Y-93307376D01*
X202649272Y-93459041D01*
X202520291Y-93588022D01*
X202368626Y-93689361D01*
X202200104Y-93759165D01*
X202021203Y-93794750D01*
X201838797Y-93794750D01*
X201659896Y-93759165D01*
X201491374Y-93689361D01*
X201339709Y-93588022D01*
X201210728Y-93459041D01*
X201109389Y-93307376D01*
X201039585Y-93138854D01*
X201004000Y-92959953D01*
X201004000Y-92777547D01*
X201039585Y-92598646D01*
X201109389Y-92430124D01*
X201210728Y-92278459D01*
X201339709Y-92149478D01*
X201491374Y-92048139D01*
X201659896Y-91978335D01*
X201838797Y-91942750D01*
X202021203Y-91942750D01*
X202200104Y-91978335D01*
X202200104Y-91978335D01*
G37*
G36*
X77740104Y-91978335D02*
G01*
X77908626Y-92048139D01*
X78060291Y-92149478D01*
X78189272Y-92278459D01*
X78290611Y-92430124D01*
X78360415Y-92598646D01*
X78396000Y-92777547D01*
X78396000Y-92959953D01*
X78360415Y-93138854D01*
X78290611Y-93307376D01*
X78189272Y-93459041D01*
X78060291Y-93588022D01*
X77908626Y-93689361D01*
X77740104Y-93759165D01*
X77561203Y-93794750D01*
X77378797Y-93794750D01*
X77199896Y-93759165D01*
X77031374Y-93689361D01*
X76879709Y-93588022D01*
X76750728Y-93459041D01*
X76649389Y-93307376D01*
X76579585Y-93138854D01*
X76544000Y-92959953D01*
X76544000Y-92777547D01*
X76579585Y-92598646D01*
X76649389Y-92430124D01*
X76750728Y-92278459D01*
X76879709Y-92149478D01*
X77031374Y-92048139D01*
X77199896Y-91978335D01*
X77378797Y-91942750D01*
X77561203Y-91942750D01*
X77740104Y-91978335D01*
X77740104Y-91978335D01*
G37*
G36*
X87900104Y-91978335D02*
G01*
X88068626Y-92048139D01*
X88220291Y-92149478D01*
X88349272Y-92278459D01*
X88450611Y-92430124D01*
X88520415Y-92598646D01*
X88556000Y-92777547D01*
X88556000Y-92959953D01*
X88520415Y-93138854D01*
X88450611Y-93307376D01*
X88349272Y-93459041D01*
X88220291Y-93588022D01*
X88068626Y-93689361D01*
X87900104Y-93759165D01*
X87721203Y-93794750D01*
X87538797Y-93794750D01*
X87359896Y-93759165D01*
X87191374Y-93689361D01*
X87039709Y-93588022D01*
X86910728Y-93459041D01*
X86809389Y-93307376D01*
X86739585Y-93138854D01*
X86704000Y-92959953D01*
X86704000Y-92777547D01*
X86739585Y-92598646D01*
X86809389Y-92430124D01*
X86910728Y-92278459D01*
X87039709Y-92149478D01*
X87191374Y-92048139D01*
X87359896Y-91978335D01*
X87538797Y-91942750D01*
X87721203Y-91942750D01*
X87900104Y-91978335D01*
X87900104Y-91978335D01*
G37*
G36*
X96790104Y-91978335D02*
G01*
X96958626Y-92048139D01*
X97110291Y-92149478D01*
X97239272Y-92278459D01*
X97340611Y-92430124D01*
X97410415Y-92598646D01*
X97446000Y-92777547D01*
X97446000Y-92959953D01*
X97410415Y-93138854D01*
X97340611Y-93307376D01*
X97239272Y-93459041D01*
X97110291Y-93588022D01*
X96958626Y-93689361D01*
X96790104Y-93759165D01*
X96611203Y-93794750D01*
X96428797Y-93794750D01*
X96249896Y-93759165D01*
X96081374Y-93689361D01*
X95929709Y-93588022D01*
X95800728Y-93459041D01*
X95699389Y-93307376D01*
X95629585Y-93138854D01*
X95594000Y-92959953D01*
X95594000Y-92777547D01*
X95629585Y-92598646D01*
X95699389Y-92430124D01*
X95800728Y-92278459D01*
X95929709Y-92149478D01*
X96081374Y-92048139D01*
X96249896Y-91978335D01*
X96428797Y-91942750D01*
X96611203Y-91942750D01*
X96790104Y-91978335D01*
X96790104Y-91978335D01*
G37*
G36*
X106950104Y-91978335D02*
G01*
X107118626Y-92048139D01*
X107270291Y-92149478D01*
X107399272Y-92278459D01*
X107500611Y-92430124D01*
X107570415Y-92598646D01*
X107606000Y-92777547D01*
X107606000Y-92959953D01*
X107570415Y-93138854D01*
X107500611Y-93307376D01*
X107399272Y-93459041D01*
X107270291Y-93588022D01*
X107118626Y-93689361D01*
X106950104Y-93759165D01*
X106771203Y-93794750D01*
X106588797Y-93794750D01*
X106409896Y-93759165D01*
X106241374Y-93689361D01*
X106089709Y-93588022D01*
X105960728Y-93459041D01*
X105859389Y-93307376D01*
X105789585Y-93138854D01*
X105754000Y-92959953D01*
X105754000Y-92777547D01*
X105789585Y-92598646D01*
X105859389Y-92430124D01*
X105960728Y-92278459D01*
X106089709Y-92149478D01*
X106241374Y-92048139D01*
X106409896Y-91978335D01*
X106588797Y-91942750D01*
X106771203Y-91942750D01*
X106950104Y-91978335D01*
X106950104Y-91978335D01*
G37*
G36*
X115840104Y-91978335D02*
G01*
X116008626Y-92048139D01*
X116160291Y-92149478D01*
X116289272Y-92278459D01*
X116390611Y-92430124D01*
X116460415Y-92598646D01*
X116496000Y-92777547D01*
X116496000Y-92959953D01*
X116460415Y-93138854D01*
X116390611Y-93307376D01*
X116289272Y-93459041D01*
X116160291Y-93588022D01*
X116008626Y-93689361D01*
X115840104Y-93759165D01*
X115661203Y-93794750D01*
X115478797Y-93794750D01*
X115299896Y-93759165D01*
X115131374Y-93689361D01*
X114979709Y-93588022D01*
X114850728Y-93459041D01*
X114749389Y-93307376D01*
X114679585Y-93138854D01*
X114644000Y-92959953D01*
X114644000Y-92777547D01*
X114679585Y-92598646D01*
X114749389Y-92430124D01*
X114850728Y-92278459D01*
X114979709Y-92149478D01*
X115131374Y-92048139D01*
X115299896Y-91978335D01*
X115478797Y-91942750D01*
X115661203Y-91942750D01*
X115840104Y-91978335D01*
X115840104Y-91978335D01*
G37*
G36*
X126000104Y-91978335D02*
G01*
X126168626Y-92048139D01*
X126320291Y-92149478D01*
X126449272Y-92278459D01*
X126550611Y-92430124D01*
X126620415Y-92598646D01*
X126656000Y-92777547D01*
X126656000Y-92959953D01*
X126620415Y-93138854D01*
X126550611Y-93307376D01*
X126449272Y-93459041D01*
X126320291Y-93588022D01*
X126168626Y-93689361D01*
X126000104Y-93759165D01*
X125821203Y-93794750D01*
X125638797Y-93794750D01*
X125459896Y-93759165D01*
X125291374Y-93689361D01*
X125139709Y-93588022D01*
X125010728Y-93459041D01*
X124909389Y-93307376D01*
X124839585Y-93138854D01*
X124804000Y-92959953D01*
X124804000Y-92777547D01*
X124839585Y-92598646D01*
X124909389Y-92430124D01*
X125010728Y-92278459D01*
X125139709Y-92149478D01*
X125291374Y-92048139D01*
X125459896Y-91978335D01*
X125638797Y-91942750D01*
X125821203Y-91942750D01*
X126000104Y-91978335D01*
X126000104Y-91978335D01*
G37*
G36*
X145050104Y-91978335D02*
G01*
X145218626Y-92048139D01*
X145370291Y-92149478D01*
X145499272Y-92278459D01*
X145600611Y-92430124D01*
X145670415Y-92598646D01*
X145706000Y-92777547D01*
X145706000Y-92959953D01*
X145670415Y-93138854D01*
X145600611Y-93307376D01*
X145499272Y-93459041D01*
X145370291Y-93588022D01*
X145218626Y-93689361D01*
X145050104Y-93759165D01*
X144871203Y-93794750D01*
X144688797Y-93794750D01*
X144509896Y-93759165D01*
X144341374Y-93689361D01*
X144189709Y-93588022D01*
X144060728Y-93459041D01*
X143959389Y-93307376D01*
X143889585Y-93138854D01*
X143854000Y-92959953D01*
X143854000Y-92777547D01*
X143889585Y-92598646D01*
X143959389Y-92430124D01*
X144060728Y-92278459D01*
X144189709Y-92149478D01*
X144341374Y-92048139D01*
X144509896Y-91978335D01*
X144688797Y-91942750D01*
X144871203Y-91942750D01*
X145050104Y-91978335D01*
X145050104Y-91978335D01*
G37*
G36*
X153940104Y-91978335D02*
G01*
X154108626Y-92048139D01*
X154260291Y-92149478D01*
X154389272Y-92278459D01*
X154490611Y-92430124D01*
X154560415Y-92598646D01*
X154596000Y-92777547D01*
X154596000Y-92959953D01*
X154560415Y-93138854D01*
X154490611Y-93307376D01*
X154389272Y-93459041D01*
X154260291Y-93588022D01*
X154108626Y-93689361D01*
X153940104Y-93759165D01*
X153761203Y-93794750D01*
X153578797Y-93794750D01*
X153399896Y-93759165D01*
X153231374Y-93689361D01*
X153079709Y-93588022D01*
X152950728Y-93459041D01*
X152849389Y-93307376D01*
X152779585Y-93138854D01*
X152744000Y-92959953D01*
X152744000Y-92777547D01*
X152779585Y-92598646D01*
X152849389Y-92430124D01*
X152950728Y-92278459D01*
X153079709Y-92149478D01*
X153231374Y-92048139D01*
X153399896Y-91978335D01*
X153578797Y-91942750D01*
X153761203Y-91942750D01*
X153940104Y-91978335D01*
X153940104Y-91978335D01*
G37*
G36*
X164100104Y-91978335D02*
G01*
X164268626Y-92048139D01*
X164420291Y-92149478D01*
X164549272Y-92278459D01*
X164650611Y-92430124D01*
X164720415Y-92598646D01*
X164756000Y-92777547D01*
X164756000Y-92959953D01*
X164720415Y-93138854D01*
X164650611Y-93307376D01*
X164549272Y-93459041D01*
X164420291Y-93588022D01*
X164268626Y-93689361D01*
X164100104Y-93759165D01*
X163921203Y-93794750D01*
X163738797Y-93794750D01*
X163559896Y-93759165D01*
X163391374Y-93689361D01*
X163239709Y-93588022D01*
X163110728Y-93459041D01*
X163009389Y-93307376D01*
X162939585Y-93138854D01*
X162904000Y-92959953D01*
X162904000Y-92777547D01*
X162939585Y-92598646D01*
X163009389Y-92430124D01*
X163110728Y-92278459D01*
X163239709Y-92149478D01*
X163391374Y-92048139D01*
X163559896Y-91978335D01*
X163738797Y-91942750D01*
X163921203Y-91942750D01*
X164100104Y-91978335D01*
X164100104Y-91978335D01*
G37*
G36*
X172990104Y-91978335D02*
G01*
X173158626Y-92048139D01*
X173310291Y-92149478D01*
X173439272Y-92278459D01*
X173540611Y-92430124D01*
X173610415Y-92598646D01*
X173646000Y-92777547D01*
X173646000Y-92959953D01*
X173610415Y-93138854D01*
X173540611Y-93307376D01*
X173439272Y-93459041D01*
X173310291Y-93588022D01*
X173158626Y-93689361D01*
X172990104Y-93759165D01*
X172811203Y-93794750D01*
X172628797Y-93794750D01*
X172449896Y-93759165D01*
X172281374Y-93689361D01*
X172129709Y-93588022D01*
X172000728Y-93459041D01*
X171899389Y-93307376D01*
X171829585Y-93138854D01*
X171794000Y-92959953D01*
X171794000Y-92777547D01*
X171829585Y-92598646D01*
X171899389Y-92430124D01*
X172000728Y-92278459D01*
X172129709Y-92149478D01*
X172281374Y-92048139D01*
X172449896Y-91978335D01*
X172628797Y-91942750D01*
X172811203Y-91942750D01*
X172990104Y-91978335D01*
X172990104Y-91978335D01*
G37*
G36*
X221250104Y-91978335D02*
G01*
X221418626Y-92048139D01*
X221570291Y-92149478D01*
X221699272Y-92278459D01*
X221800611Y-92430124D01*
X221870415Y-92598646D01*
X221906000Y-92777547D01*
X221906000Y-92959953D01*
X221870415Y-93138854D01*
X221800611Y-93307376D01*
X221699272Y-93459041D01*
X221570291Y-93588022D01*
X221418626Y-93689361D01*
X221250104Y-93759165D01*
X221071203Y-93794750D01*
X220888797Y-93794750D01*
X220709896Y-93759165D01*
X220541374Y-93689361D01*
X220389709Y-93588022D01*
X220260728Y-93459041D01*
X220159389Y-93307376D01*
X220089585Y-93138854D01*
X220054000Y-92959953D01*
X220054000Y-92777547D01*
X220089585Y-92598646D01*
X220159389Y-92430124D01*
X220260728Y-92278459D01*
X220389709Y-92149478D01*
X220541374Y-92048139D01*
X220709896Y-91978335D01*
X220888797Y-91942750D01*
X221071203Y-91942750D01*
X221250104Y-91978335D01*
X221250104Y-91978335D01*
G37*
G36*
X192040104Y-91978335D02*
G01*
X192208626Y-92048139D01*
X192360291Y-92149478D01*
X192489272Y-92278459D01*
X192590611Y-92430124D01*
X192660415Y-92598646D01*
X192696000Y-92777547D01*
X192696000Y-92959953D01*
X192660415Y-93138854D01*
X192590611Y-93307376D01*
X192489272Y-93459041D01*
X192360291Y-93588022D01*
X192208626Y-93689361D01*
X192040104Y-93759165D01*
X191861203Y-93794750D01*
X191678797Y-93794750D01*
X191499896Y-93759165D01*
X191331374Y-93689361D01*
X191179709Y-93588022D01*
X191050728Y-93459041D01*
X190949389Y-93307376D01*
X190879585Y-93138854D01*
X190844000Y-92959953D01*
X190844000Y-92777547D01*
X190879585Y-92598646D01*
X190949389Y-92430124D01*
X191050728Y-92278459D01*
X191179709Y-92149478D01*
X191331374Y-92048139D01*
X191499896Y-91978335D01*
X191678797Y-91942750D01*
X191861203Y-91942750D01*
X192040104Y-91978335D01*
X192040104Y-91978335D01*
G37*
G36*
X211090104Y-91978335D02*
G01*
X211258626Y-92048139D01*
X211410291Y-92149478D01*
X211539272Y-92278459D01*
X211640611Y-92430124D01*
X211710415Y-92598646D01*
X211746000Y-92777547D01*
X211746000Y-92959953D01*
X211710415Y-93138854D01*
X211640611Y-93307376D01*
X211539272Y-93459041D01*
X211410291Y-93588022D01*
X211258626Y-93689361D01*
X211090104Y-93759165D01*
X210911203Y-93794750D01*
X210728797Y-93794750D01*
X210549896Y-93759165D01*
X210381374Y-93689361D01*
X210229709Y-93588022D01*
X210100728Y-93459041D01*
X209999389Y-93307376D01*
X209929585Y-93138854D01*
X209894000Y-92959953D01*
X209894000Y-92777547D01*
X209929585Y-92598646D01*
X209999389Y-92430124D01*
X210100728Y-92278459D01*
X210229709Y-92149478D01*
X210381374Y-92048139D01*
X210549896Y-91978335D01*
X210728797Y-91942750D01*
X210911203Y-91942750D01*
X211090104Y-91978335D01*
X211090104Y-91978335D01*
G37*
G36*
X183150104Y-91978335D02*
G01*
X183318626Y-92048139D01*
X183470291Y-92149478D01*
X183599272Y-92278459D01*
X183700611Y-92430124D01*
X183770415Y-92598646D01*
X183806000Y-92777547D01*
X183806000Y-92959953D01*
X183770415Y-93138854D01*
X183700611Y-93307376D01*
X183599272Y-93459041D01*
X183470291Y-93588022D01*
X183318626Y-93689361D01*
X183150104Y-93759165D01*
X182971203Y-93794750D01*
X182788797Y-93794750D01*
X182609896Y-93759165D01*
X182441374Y-93689361D01*
X182289709Y-93588022D01*
X182160728Y-93459041D01*
X182059389Y-93307376D01*
X181989585Y-93138854D01*
X181954000Y-92959953D01*
X181954000Y-92777547D01*
X181989585Y-92598646D01*
X182059389Y-92430124D01*
X182160728Y-92278459D01*
X182289709Y-92149478D01*
X182441374Y-92048139D01*
X182609896Y-91978335D01*
X182788797Y-91942750D01*
X182971203Y-91942750D01*
X183150104Y-91978335D01*
X183150104Y-91978335D01*
G37*
G36*
X49800104Y-91978335D02*
G01*
X49968626Y-92048139D01*
X50120291Y-92149478D01*
X50249272Y-92278459D01*
X50350611Y-92430124D01*
X50420415Y-92598646D01*
X50456000Y-92777547D01*
X50456000Y-92959953D01*
X50420415Y-93138854D01*
X50350611Y-93307376D01*
X50249272Y-93459041D01*
X50120291Y-93588022D01*
X49968626Y-93689361D01*
X49800104Y-93759165D01*
X49621203Y-93794750D01*
X49438797Y-93794750D01*
X49259896Y-93759165D01*
X49091374Y-93689361D01*
X48939709Y-93588022D01*
X48810728Y-93459041D01*
X48709389Y-93307376D01*
X48639585Y-93138854D01*
X48604000Y-92959953D01*
X48604000Y-92777547D01*
X48639585Y-92598646D01*
X48709389Y-92430124D01*
X48810728Y-92278459D01*
X48939709Y-92149478D01*
X49091374Y-92048139D01*
X49259896Y-91978335D01*
X49438797Y-91942750D01*
X49621203Y-91942750D01*
X49800104Y-91978335D01*
X49800104Y-91978335D01*
G37*
G36*
X134890104Y-91978335D02*
G01*
X135058626Y-92048139D01*
X135210291Y-92149478D01*
X135339272Y-92278459D01*
X135440611Y-92430124D01*
X135510415Y-92598646D01*
X135546000Y-92777547D01*
X135546000Y-92959953D01*
X135510415Y-93138854D01*
X135440611Y-93307376D01*
X135339272Y-93459041D01*
X135210291Y-93588022D01*
X135058626Y-93689361D01*
X134890104Y-93759165D01*
X134711203Y-93794750D01*
X134528797Y-93794750D01*
X134349896Y-93759165D01*
X134181374Y-93689361D01*
X134029709Y-93588022D01*
X133900728Y-93459041D01*
X133799389Y-93307376D01*
X133729585Y-93138854D01*
X133694000Y-92959953D01*
X133694000Y-92777547D01*
X133729585Y-92598646D01*
X133799389Y-92430124D01*
X133900728Y-92278459D01*
X134029709Y-92149478D01*
X134181374Y-92048139D01*
X134349896Y-91978335D01*
X134528797Y-91942750D01*
X134711203Y-91942750D01*
X134890104Y-91978335D01*
X134890104Y-91978335D01*
G37*
G36*
X130771474Y-71852434D02*
G01*
X130989474Y-71942733D01*
X131143623Y-72006583D01*
X131478548Y-72230373D01*
X131763377Y-72515202D01*
X131987167Y-72850127D01*
X132019562Y-72928336D01*
X132141316Y-73222276D01*
X132219900Y-73617344D01*
X132219900Y-74020156D01*
X132141316Y-74415224D01*
X132090451Y-74538022D01*
X131987167Y-74787373D01*
X131763377Y-75122298D01*
X131478548Y-75407127D01*
X131143623Y-75630917D01*
X130989474Y-75694767D01*
X130771474Y-75785066D01*
X130376406Y-75863650D01*
X129973594Y-75863650D01*
X129578526Y-75785066D01*
X129360526Y-75694767D01*
X129206377Y-75630917D01*
X128871452Y-75407127D01*
X128586623Y-75122298D01*
X128362833Y-74787373D01*
X128259549Y-74538022D01*
X128208684Y-74415224D01*
X128130100Y-74020156D01*
X128130100Y-73617344D01*
X128208684Y-73222276D01*
X128330438Y-72928336D01*
X128362833Y-72850127D01*
X128586623Y-72515202D01*
X128871452Y-72230373D01*
X129206377Y-72006583D01*
X129360526Y-71942733D01*
X129578526Y-71852434D01*
X129973594Y-71773850D01*
X130376406Y-71773850D01*
X130771474Y-71852434D01*
X130771474Y-71852434D01*
G37*
G36*
X54571474Y-71852434D02*
G01*
X54789474Y-71942733D01*
X54943623Y-72006583D01*
X55278548Y-72230373D01*
X55563377Y-72515202D01*
X55787167Y-72850127D01*
X55819562Y-72928336D01*
X55941316Y-73222276D01*
X56019900Y-73617344D01*
X56019900Y-74020156D01*
X55941316Y-74415224D01*
X55890451Y-74538022D01*
X55787167Y-74787373D01*
X55563377Y-75122298D01*
X55278548Y-75407127D01*
X54943623Y-75630917D01*
X54789474Y-75694767D01*
X54571474Y-75785066D01*
X54176406Y-75863650D01*
X53773594Y-75863650D01*
X53378526Y-75785066D01*
X53160526Y-75694767D01*
X53006377Y-75630917D01*
X52671452Y-75407127D01*
X52386623Y-75122298D01*
X52162833Y-74787373D01*
X52059549Y-74538022D01*
X52008684Y-74415224D01*
X51930100Y-74020156D01*
X51930100Y-73617344D01*
X52008684Y-73222276D01*
X52130438Y-72928336D01*
X52162833Y-72850127D01*
X52386623Y-72515202D01*
X52671452Y-72230373D01*
X53006377Y-72006583D01*
X53160526Y-71942733D01*
X53378526Y-71852434D01*
X53773594Y-71773850D01*
X54176406Y-71773850D01*
X54571474Y-71852434D01*
X54571474Y-71852434D01*
G37*
G36*
X168871474Y-71852434D02*
G01*
X169089474Y-71942733D01*
X169243623Y-72006583D01*
X169578548Y-72230373D01*
X169863377Y-72515202D01*
X170087167Y-72850127D01*
X170119562Y-72928336D01*
X170241316Y-73222276D01*
X170319900Y-73617344D01*
X170319900Y-74020156D01*
X170241316Y-74415224D01*
X170190451Y-74538022D01*
X170087167Y-74787373D01*
X169863377Y-75122298D01*
X169578548Y-75407127D01*
X169243623Y-75630917D01*
X169089474Y-75694767D01*
X168871474Y-75785066D01*
X168476406Y-75863650D01*
X168073594Y-75863650D01*
X167678526Y-75785066D01*
X167460526Y-75694767D01*
X167306377Y-75630917D01*
X166971452Y-75407127D01*
X166686623Y-75122298D01*
X166462833Y-74787373D01*
X166359549Y-74538022D01*
X166308684Y-74415224D01*
X166230100Y-74020156D01*
X166230100Y-73617344D01*
X166308684Y-73222276D01*
X166430438Y-72928336D01*
X166462833Y-72850127D01*
X166686623Y-72515202D01*
X166971452Y-72230373D01*
X167306377Y-72006583D01*
X167460526Y-71942733D01*
X167678526Y-71852434D01*
X168073594Y-71773850D01*
X168476406Y-71773850D01*
X168871474Y-71852434D01*
X168871474Y-71852434D01*
G37*
G36*
X187921474Y-71852434D02*
G01*
X188139474Y-71942733D01*
X188293623Y-72006583D01*
X188628548Y-72230373D01*
X188913377Y-72515202D01*
X189137167Y-72850127D01*
X189169562Y-72928336D01*
X189291316Y-73222276D01*
X189369900Y-73617344D01*
X189369900Y-74020156D01*
X189291316Y-74415224D01*
X189240451Y-74538022D01*
X189137167Y-74787373D01*
X188913377Y-75122298D01*
X188628548Y-75407127D01*
X188293623Y-75630917D01*
X188139474Y-75694767D01*
X187921474Y-75785066D01*
X187526406Y-75863650D01*
X187123594Y-75863650D01*
X186728526Y-75785066D01*
X186510526Y-75694767D01*
X186356377Y-75630917D01*
X186021452Y-75407127D01*
X185736623Y-75122298D01*
X185512833Y-74787373D01*
X185409549Y-74538022D01*
X185358684Y-74415224D01*
X185280100Y-74020156D01*
X185280100Y-73617344D01*
X185358684Y-73222276D01*
X185480438Y-72928336D01*
X185512833Y-72850127D01*
X185736623Y-72515202D01*
X186021452Y-72230373D01*
X186356377Y-72006583D01*
X186510526Y-71942733D01*
X186728526Y-71852434D01*
X187123594Y-71773850D01*
X187526406Y-71773850D01*
X187921474Y-71852434D01*
X187921474Y-71852434D01*
G37*
G36*
X206971474Y-71852434D02*
G01*
X207189474Y-71942733D01*
X207343623Y-72006583D01*
X207678548Y-72230373D01*
X207963377Y-72515202D01*
X208187167Y-72850127D01*
X208219562Y-72928336D01*
X208341316Y-73222276D01*
X208419900Y-73617344D01*
X208419900Y-74020156D01*
X208341316Y-74415224D01*
X208290451Y-74538022D01*
X208187167Y-74787373D01*
X207963377Y-75122298D01*
X207678548Y-75407127D01*
X207343623Y-75630917D01*
X207189474Y-75694767D01*
X206971474Y-75785066D01*
X206576406Y-75863650D01*
X206173594Y-75863650D01*
X205778526Y-75785066D01*
X205560526Y-75694767D01*
X205406377Y-75630917D01*
X205071452Y-75407127D01*
X204786623Y-75122298D01*
X204562833Y-74787373D01*
X204459549Y-74538022D01*
X204408684Y-74415224D01*
X204330100Y-74020156D01*
X204330100Y-73617344D01*
X204408684Y-73222276D01*
X204530438Y-72928336D01*
X204562833Y-72850127D01*
X204786623Y-72515202D01*
X205071452Y-72230373D01*
X205406377Y-72006583D01*
X205560526Y-71942733D01*
X205778526Y-71852434D01*
X206173594Y-71773850D01*
X206576406Y-71773850D01*
X206971474Y-71852434D01*
X206971474Y-71852434D01*
G37*
G36*
X149821474Y-71852434D02*
G01*
X150039474Y-71942733D01*
X150193623Y-72006583D01*
X150528548Y-72230373D01*
X150813377Y-72515202D01*
X151037167Y-72850127D01*
X151069562Y-72928336D01*
X151191316Y-73222276D01*
X151269900Y-73617344D01*
X151269900Y-74020156D01*
X151191316Y-74415224D01*
X151140451Y-74538022D01*
X151037167Y-74787373D01*
X150813377Y-75122298D01*
X150528548Y-75407127D01*
X150193623Y-75630917D01*
X150039474Y-75694767D01*
X149821474Y-75785066D01*
X149426406Y-75863650D01*
X149023594Y-75863650D01*
X148628526Y-75785066D01*
X148410526Y-75694767D01*
X148256377Y-75630917D01*
X147921452Y-75407127D01*
X147636623Y-75122298D01*
X147412833Y-74787373D01*
X147309549Y-74538022D01*
X147258684Y-74415224D01*
X147180100Y-74020156D01*
X147180100Y-73617344D01*
X147258684Y-73222276D01*
X147380438Y-72928336D01*
X147412833Y-72850127D01*
X147636623Y-72515202D01*
X147921452Y-72230373D01*
X148256377Y-72006583D01*
X148410526Y-71942733D01*
X148628526Y-71852434D01*
X149023594Y-71773850D01*
X149426406Y-71773850D01*
X149821474Y-71852434D01*
X149821474Y-71852434D01*
G37*
G36*
X92671474Y-71852434D02*
G01*
X92889474Y-71942733D01*
X93043623Y-72006583D01*
X93378548Y-72230373D01*
X93663377Y-72515202D01*
X93887167Y-72850127D01*
X93919562Y-72928336D01*
X94041316Y-73222276D01*
X94119900Y-73617344D01*
X94119900Y-74020156D01*
X94041316Y-74415224D01*
X93990451Y-74538022D01*
X93887167Y-74787373D01*
X93663377Y-75122298D01*
X93378548Y-75407127D01*
X93043623Y-75630917D01*
X92889474Y-75694767D01*
X92671474Y-75785066D01*
X92276406Y-75863650D01*
X91873594Y-75863650D01*
X91478526Y-75785066D01*
X91260526Y-75694767D01*
X91106377Y-75630917D01*
X90771452Y-75407127D01*
X90486623Y-75122298D01*
X90262833Y-74787373D01*
X90159549Y-74538022D01*
X90108684Y-74415224D01*
X90030100Y-74020156D01*
X90030100Y-73617344D01*
X90108684Y-73222276D01*
X90230438Y-72928336D01*
X90262833Y-72850127D01*
X90486623Y-72515202D01*
X90771452Y-72230373D01*
X91106377Y-72006583D01*
X91260526Y-71942733D01*
X91478526Y-71852434D01*
X91873594Y-71773850D01*
X92276406Y-71773850D01*
X92671474Y-71852434D01*
X92671474Y-71852434D01*
G37*
G36*
X73621474Y-71852434D02*
G01*
X73839474Y-71942733D01*
X73993623Y-72006583D01*
X74328548Y-72230373D01*
X74613377Y-72515202D01*
X74837167Y-72850127D01*
X74869562Y-72928336D01*
X74991316Y-73222276D01*
X75069900Y-73617344D01*
X75069900Y-74020156D01*
X74991316Y-74415224D01*
X74940451Y-74538022D01*
X74837167Y-74787373D01*
X74613377Y-75122298D01*
X74328548Y-75407127D01*
X73993623Y-75630917D01*
X73839474Y-75694767D01*
X73621474Y-75785066D01*
X73226406Y-75863650D01*
X72823594Y-75863650D01*
X72428526Y-75785066D01*
X72210526Y-75694767D01*
X72056377Y-75630917D01*
X71721452Y-75407127D01*
X71436623Y-75122298D01*
X71212833Y-74787373D01*
X71109549Y-74538022D01*
X71058684Y-74415224D01*
X70980100Y-74020156D01*
X70980100Y-73617344D01*
X71058684Y-73222276D01*
X71180438Y-72928336D01*
X71212833Y-72850127D01*
X71436623Y-72515202D01*
X71721452Y-72230373D01*
X72056377Y-72006583D01*
X72210526Y-71942733D01*
X72428526Y-71852434D01*
X72823594Y-71773850D01*
X73226406Y-71773850D01*
X73621474Y-71852434D01*
X73621474Y-71852434D01*
G37*
G36*
X111721474Y-71852434D02*
G01*
X111939474Y-71942733D01*
X112093623Y-72006583D01*
X112428548Y-72230373D01*
X112713377Y-72515202D01*
X112937167Y-72850127D01*
X112969562Y-72928336D01*
X113091316Y-73222276D01*
X113169900Y-73617344D01*
X113169900Y-74020156D01*
X113091316Y-74415224D01*
X113040451Y-74538022D01*
X112937167Y-74787373D01*
X112713377Y-75122298D01*
X112428548Y-75407127D01*
X112093623Y-75630917D01*
X111939474Y-75694767D01*
X111721474Y-75785066D01*
X111326406Y-75863650D01*
X110923594Y-75863650D01*
X110528526Y-75785066D01*
X110310526Y-75694767D01*
X110156377Y-75630917D01*
X109821452Y-75407127D01*
X109536623Y-75122298D01*
X109312833Y-74787373D01*
X109209549Y-74538022D01*
X109158684Y-74415224D01*
X109080100Y-74020156D01*
X109080100Y-73617344D01*
X109158684Y-73222276D01*
X109280438Y-72928336D01*
X109312833Y-72850127D01*
X109536623Y-72515202D01*
X109821452Y-72230373D01*
X110156377Y-72006583D01*
X110310526Y-71942733D01*
X110528526Y-71852434D01*
X110923594Y-71773850D01*
X111326406Y-71773850D01*
X111721474Y-71852434D01*
X111721474Y-71852434D01*
G37*
G36*
X97425104Y-72928335D02*
G01*
X97593626Y-72998139D01*
X97745291Y-73099478D01*
X97874272Y-73228459D01*
X97975611Y-73380124D01*
X98045415Y-73548646D01*
X98081000Y-73727547D01*
X98081000Y-73909953D01*
X98045415Y-74088854D01*
X97975611Y-74257376D01*
X97874272Y-74409041D01*
X97745291Y-74538022D01*
X97593626Y-74639361D01*
X97425104Y-74709165D01*
X97246203Y-74744750D01*
X97063797Y-74744750D01*
X96884896Y-74709165D01*
X96716374Y-74639361D01*
X96564709Y-74538022D01*
X96435728Y-74409041D01*
X96334389Y-74257376D01*
X96264585Y-74088854D01*
X96229000Y-73909953D01*
X96229000Y-73727547D01*
X96264585Y-73548646D01*
X96334389Y-73380124D01*
X96435728Y-73228459D01*
X96564709Y-73099478D01*
X96716374Y-72998139D01*
X96884896Y-72928335D01*
X97063797Y-72892750D01*
X97246203Y-72892750D01*
X97425104Y-72928335D01*
X97425104Y-72928335D01*
G37*
G36*
X106315104Y-72928335D02*
G01*
X106483626Y-72998139D01*
X106635291Y-73099478D01*
X106764272Y-73228459D01*
X106865611Y-73380124D01*
X106935415Y-73548646D01*
X106971000Y-73727547D01*
X106971000Y-73909953D01*
X106935415Y-74088854D01*
X106865611Y-74257376D01*
X106764272Y-74409041D01*
X106635291Y-74538022D01*
X106483626Y-74639361D01*
X106315104Y-74709165D01*
X106136203Y-74744750D01*
X105953797Y-74744750D01*
X105774896Y-74709165D01*
X105606374Y-74639361D01*
X105454709Y-74538022D01*
X105325728Y-74409041D01*
X105224389Y-74257376D01*
X105154585Y-74088854D01*
X105119000Y-73909953D01*
X105119000Y-73727547D01*
X105154585Y-73548646D01*
X105224389Y-73380124D01*
X105325728Y-73228459D01*
X105454709Y-73099478D01*
X105606374Y-72998139D01*
X105774896Y-72928335D01*
X105953797Y-72892750D01*
X106136203Y-72892750D01*
X106315104Y-72928335D01*
X106315104Y-72928335D01*
G37*
G36*
X125365104Y-72928335D02*
G01*
X125533626Y-72998139D01*
X125685291Y-73099478D01*
X125814272Y-73228459D01*
X125915611Y-73380124D01*
X125985415Y-73548646D01*
X126021000Y-73727547D01*
X126021000Y-73909953D01*
X125985415Y-74088854D01*
X125915611Y-74257376D01*
X125814272Y-74409041D01*
X125685291Y-74538022D01*
X125533626Y-74639361D01*
X125365104Y-74709165D01*
X125186203Y-74744750D01*
X125003797Y-74744750D01*
X124824896Y-74709165D01*
X124656374Y-74639361D01*
X124504709Y-74538022D01*
X124375728Y-74409041D01*
X124274389Y-74257376D01*
X124204585Y-74088854D01*
X124169000Y-73909953D01*
X124169000Y-73727547D01*
X124204585Y-73548646D01*
X124274389Y-73380124D01*
X124375728Y-73228459D01*
X124504709Y-73099478D01*
X124656374Y-72998139D01*
X124824896Y-72928335D01*
X125003797Y-72892750D01*
X125186203Y-72892750D01*
X125365104Y-72928335D01*
X125365104Y-72928335D01*
G37*
G36*
X173625104Y-72928335D02*
G01*
X173793626Y-72998139D01*
X173945291Y-73099478D01*
X174074272Y-73228459D01*
X174175611Y-73380124D01*
X174245415Y-73548646D01*
X174281000Y-73727547D01*
X174281000Y-73909953D01*
X174245415Y-74088854D01*
X174175611Y-74257376D01*
X174074272Y-74409041D01*
X173945291Y-74538022D01*
X173793626Y-74639361D01*
X173625104Y-74709165D01*
X173446203Y-74744750D01*
X173263797Y-74744750D01*
X173084896Y-74709165D01*
X172916374Y-74639361D01*
X172764709Y-74538022D01*
X172635728Y-74409041D01*
X172534389Y-74257376D01*
X172464585Y-74088854D01*
X172429000Y-73909953D01*
X172429000Y-73727547D01*
X172464585Y-73548646D01*
X172534389Y-73380124D01*
X172635728Y-73228459D01*
X172764709Y-73099478D01*
X172916374Y-72998139D01*
X173084896Y-72928335D01*
X173263797Y-72892750D01*
X173446203Y-72892750D01*
X173625104Y-72928335D01*
X173625104Y-72928335D01*
G37*
G36*
X116475104Y-72928335D02*
G01*
X116643626Y-72998139D01*
X116795291Y-73099478D01*
X116924272Y-73228459D01*
X117025611Y-73380124D01*
X117095415Y-73548646D01*
X117131000Y-73727547D01*
X117131000Y-73909953D01*
X117095415Y-74088854D01*
X117025611Y-74257376D01*
X116924272Y-74409041D01*
X116795291Y-74538022D01*
X116643626Y-74639361D01*
X116475104Y-74709165D01*
X116296203Y-74744750D01*
X116113797Y-74744750D01*
X115934896Y-74709165D01*
X115766374Y-74639361D01*
X115614709Y-74538022D01*
X115485728Y-74409041D01*
X115384389Y-74257376D01*
X115314585Y-74088854D01*
X115279000Y-73909953D01*
X115279000Y-73727547D01*
X115314585Y-73548646D01*
X115384389Y-73380124D01*
X115485728Y-73228459D01*
X115614709Y-73099478D01*
X115766374Y-72998139D01*
X115934896Y-72928335D01*
X116113797Y-72892750D01*
X116296203Y-72892750D01*
X116475104Y-72928335D01*
X116475104Y-72928335D01*
G37*
G36*
X87265104Y-72928335D02*
G01*
X87433626Y-72998139D01*
X87585291Y-73099478D01*
X87714272Y-73228459D01*
X87815611Y-73380124D01*
X87885415Y-73548646D01*
X87921000Y-73727547D01*
X87921000Y-73909953D01*
X87885415Y-74088854D01*
X87815611Y-74257376D01*
X87714272Y-74409041D01*
X87585291Y-74538022D01*
X87433626Y-74639361D01*
X87265104Y-74709165D01*
X87086203Y-74744750D01*
X86903797Y-74744750D01*
X86724896Y-74709165D01*
X86556374Y-74639361D01*
X86404709Y-74538022D01*
X86275728Y-74409041D01*
X86174389Y-74257376D01*
X86104585Y-74088854D01*
X86069000Y-73909953D01*
X86069000Y-73727547D01*
X86104585Y-73548646D01*
X86174389Y-73380124D01*
X86275728Y-73228459D01*
X86404709Y-73099478D01*
X86556374Y-72998139D01*
X86724896Y-72928335D01*
X86903797Y-72892750D01*
X87086203Y-72892750D01*
X87265104Y-72928335D01*
X87265104Y-72928335D01*
G37*
G36*
X78375104Y-72928335D02*
G01*
X78543626Y-72998139D01*
X78695291Y-73099478D01*
X78824272Y-73228459D01*
X78925611Y-73380124D01*
X78995415Y-73548646D01*
X79031000Y-73727547D01*
X79031000Y-73909953D01*
X78995415Y-74088854D01*
X78925611Y-74257376D01*
X78824272Y-74409041D01*
X78695291Y-74538022D01*
X78543626Y-74639361D01*
X78375104Y-74709165D01*
X78196203Y-74744750D01*
X78013797Y-74744750D01*
X77834896Y-74709165D01*
X77666374Y-74639361D01*
X77514709Y-74538022D01*
X77385728Y-74409041D01*
X77284389Y-74257376D01*
X77214585Y-74088854D01*
X77179000Y-73909953D01*
X77179000Y-73727547D01*
X77214585Y-73548646D01*
X77284389Y-73380124D01*
X77385728Y-73228459D01*
X77514709Y-73099478D01*
X77666374Y-72998139D01*
X77834896Y-72928335D01*
X78013797Y-72892750D01*
X78196203Y-72892750D01*
X78375104Y-72928335D01*
X78375104Y-72928335D01*
G37*
G36*
X68215104Y-72928335D02*
G01*
X68383626Y-72998139D01*
X68535291Y-73099478D01*
X68664272Y-73228459D01*
X68765611Y-73380124D01*
X68835415Y-73548646D01*
X68871000Y-73727547D01*
X68871000Y-73909953D01*
X68835415Y-74088854D01*
X68765611Y-74257376D01*
X68664272Y-74409041D01*
X68535291Y-74538022D01*
X68383626Y-74639361D01*
X68215104Y-74709165D01*
X68036203Y-74744750D01*
X67853797Y-74744750D01*
X67674896Y-74709165D01*
X67506374Y-74639361D01*
X67354709Y-74538022D01*
X67225728Y-74409041D01*
X67124389Y-74257376D01*
X67054585Y-74088854D01*
X67019000Y-73909953D01*
X67019000Y-73727547D01*
X67054585Y-73548646D01*
X67124389Y-73380124D01*
X67225728Y-73228459D01*
X67354709Y-73099478D01*
X67506374Y-72998139D01*
X67674896Y-72928335D01*
X67853797Y-72892750D01*
X68036203Y-72892750D01*
X68215104Y-72928335D01*
X68215104Y-72928335D01*
G37*
G36*
X49165104Y-72928335D02*
G01*
X49333626Y-72998139D01*
X49485291Y-73099478D01*
X49614272Y-73228459D01*
X49715611Y-73380124D01*
X49785415Y-73548646D01*
X49821000Y-73727547D01*
X49821000Y-73909953D01*
X49785415Y-74088854D01*
X49715611Y-74257376D01*
X49614272Y-74409041D01*
X49485291Y-74538022D01*
X49333626Y-74639361D01*
X49165104Y-74709165D01*
X48986203Y-74744750D01*
X48803797Y-74744750D01*
X48624896Y-74709165D01*
X48456374Y-74639361D01*
X48304709Y-74538022D01*
X48175728Y-74409041D01*
X48074389Y-74257376D01*
X48004585Y-74088854D01*
X47969000Y-73909953D01*
X47969000Y-73727547D01*
X48004585Y-73548646D01*
X48074389Y-73380124D01*
X48175728Y-73228459D01*
X48304709Y-73099478D01*
X48456374Y-72998139D01*
X48624896Y-72928335D01*
X48803797Y-72892750D01*
X48986203Y-72892750D01*
X49165104Y-72928335D01*
X49165104Y-72928335D01*
G37*
G36*
X135525104Y-72928335D02*
G01*
X135693626Y-72998139D01*
X135845291Y-73099478D01*
X135974272Y-73228459D01*
X136075611Y-73380124D01*
X136145415Y-73548646D01*
X136181000Y-73727547D01*
X136181000Y-73909953D01*
X136145415Y-74088854D01*
X136075611Y-74257376D01*
X135974272Y-74409041D01*
X135845291Y-74538022D01*
X135693626Y-74639361D01*
X135525104Y-74709165D01*
X135346203Y-74744750D01*
X135163797Y-74744750D01*
X134984896Y-74709165D01*
X134816374Y-74639361D01*
X134664709Y-74538022D01*
X134535728Y-74409041D01*
X134434389Y-74257376D01*
X134364585Y-74088854D01*
X134329000Y-73909953D01*
X134329000Y-73727547D01*
X134364585Y-73548646D01*
X134434389Y-73380124D01*
X134535728Y-73228459D01*
X134664709Y-73099478D01*
X134816374Y-72998139D01*
X134984896Y-72928335D01*
X135163797Y-72892750D01*
X135346203Y-72892750D01*
X135525104Y-72928335D01*
X135525104Y-72928335D01*
G37*
G36*
X154575104Y-72928335D02*
G01*
X154743626Y-72998139D01*
X154895291Y-73099478D01*
X155024272Y-73228459D01*
X155125611Y-73380124D01*
X155195415Y-73548646D01*
X155231000Y-73727547D01*
X155231000Y-73909953D01*
X155195415Y-74088854D01*
X155125611Y-74257376D01*
X155024272Y-74409041D01*
X154895291Y-74538022D01*
X154743626Y-74639361D01*
X154575104Y-74709165D01*
X154396203Y-74744750D01*
X154213797Y-74744750D01*
X154034896Y-74709165D01*
X153866374Y-74639361D01*
X153714709Y-74538022D01*
X153585728Y-74409041D01*
X153484389Y-74257376D01*
X153414585Y-74088854D01*
X153379000Y-73909953D01*
X153379000Y-73727547D01*
X153414585Y-73548646D01*
X153484389Y-73380124D01*
X153585728Y-73228459D01*
X153714709Y-73099478D01*
X153866374Y-72998139D01*
X154034896Y-72928335D01*
X154213797Y-72892750D01*
X154396203Y-72892750D01*
X154575104Y-72928335D01*
X154575104Y-72928335D01*
G37*
G36*
X211725104Y-72928335D02*
G01*
X211893626Y-72998139D01*
X212045291Y-73099478D01*
X212174272Y-73228459D01*
X212275611Y-73380124D01*
X212345415Y-73548646D01*
X212381000Y-73727547D01*
X212381000Y-73909953D01*
X212345415Y-74088854D01*
X212275611Y-74257376D01*
X212174272Y-74409041D01*
X212045291Y-74538022D01*
X211893626Y-74639361D01*
X211725104Y-74709165D01*
X211546203Y-74744750D01*
X211363797Y-74744750D01*
X211184896Y-74709165D01*
X211016374Y-74639361D01*
X210864709Y-74538022D01*
X210735728Y-74409041D01*
X210634389Y-74257376D01*
X210564585Y-74088854D01*
X210529000Y-73909953D01*
X210529000Y-73727547D01*
X210564585Y-73548646D01*
X210634389Y-73380124D01*
X210735728Y-73228459D01*
X210864709Y-73099478D01*
X211016374Y-72998139D01*
X211184896Y-72928335D01*
X211363797Y-72892750D01*
X211546203Y-72892750D01*
X211725104Y-72928335D01*
X211725104Y-72928335D01*
G37*
G36*
X144415104Y-72928335D02*
G01*
X144583626Y-72998139D01*
X144735291Y-73099478D01*
X144864272Y-73228459D01*
X144965611Y-73380124D01*
X145035415Y-73548646D01*
X145071000Y-73727547D01*
X145071000Y-73909953D01*
X145035415Y-74088854D01*
X144965611Y-74257376D01*
X144864272Y-74409041D01*
X144735291Y-74538022D01*
X144583626Y-74639361D01*
X144415104Y-74709165D01*
X144236203Y-74744750D01*
X144053797Y-74744750D01*
X143874896Y-74709165D01*
X143706374Y-74639361D01*
X143554709Y-74538022D01*
X143425728Y-74409041D01*
X143324389Y-74257376D01*
X143254585Y-74088854D01*
X143219000Y-73909953D01*
X143219000Y-73727547D01*
X143254585Y-73548646D01*
X143324389Y-73380124D01*
X143425728Y-73228459D01*
X143554709Y-73099478D01*
X143706374Y-72998139D01*
X143874896Y-72928335D01*
X144053797Y-72892750D01*
X144236203Y-72892750D01*
X144415104Y-72928335D01*
X144415104Y-72928335D01*
G37*
G36*
X182515104Y-72928335D02*
G01*
X182683626Y-72998139D01*
X182835291Y-73099478D01*
X182964272Y-73228459D01*
X183065611Y-73380124D01*
X183135415Y-73548646D01*
X183171000Y-73727547D01*
X183171000Y-73909953D01*
X183135415Y-74088854D01*
X183065611Y-74257376D01*
X182964272Y-74409041D01*
X182835291Y-74538022D01*
X182683626Y-74639361D01*
X182515104Y-74709165D01*
X182336203Y-74744750D01*
X182153797Y-74744750D01*
X181974896Y-74709165D01*
X181806374Y-74639361D01*
X181654709Y-74538022D01*
X181525728Y-74409041D01*
X181424389Y-74257376D01*
X181354585Y-74088854D01*
X181319000Y-73909953D01*
X181319000Y-73727547D01*
X181354585Y-73548646D01*
X181424389Y-73380124D01*
X181525728Y-73228459D01*
X181654709Y-73099478D01*
X181806374Y-72998139D01*
X181974896Y-72928335D01*
X182153797Y-72892750D01*
X182336203Y-72892750D01*
X182515104Y-72928335D01*
X182515104Y-72928335D01*
G37*
G36*
X201565104Y-72928335D02*
G01*
X201733626Y-72998139D01*
X201885291Y-73099478D01*
X202014272Y-73228459D01*
X202115611Y-73380124D01*
X202185415Y-73548646D01*
X202221000Y-73727547D01*
X202221000Y-73909953D01*
X202185415Y-74088854D01*
X202115611Y-74257376D01*
X202014272Y-74409041D01*
X201885291Y-74538022D01*
X201733626Y-74639361D01*
X201565104Y-74709165D01*
X201386203Y-74744750D01*
X201203797Y-74744750D01*
X201024896Y-74709165D01*
X200856374Y-74639361D01*
X200704709Y-74538022D01*
X200575728Y-74409041D01*
X200474389Y-74257376D01*
X200404585Y-74088854D01*
X200369000Y-73909953D01*
X200369000Y-73727547D01*
X200404585Y-73548646D01*
X200474389Y-73380124D01*
X200575728Y-73228459D01*
X200704709Y-73099478D01*
X200856374Y-72998139D01*
X201024896Y-72928335D01*
X201203797Y-72892750D01*
X201386203Y-72892750D01*
X201565104Y-72928335D01*
X201565104Y-72928335D01*
G37*
G36*
X192675104Y-72928335D02*
G01*
X192843626Y-72998139D01*
X192995291Y-73099478D01*
X193124272Y-73228459D01*
X193225611Y-73380124D01*
X193295415Y-73548646D01*
X193331000Y-73727547D01*
X193331000Y-73909953D01*
X193295415Y-74088854D01*
X193225611Y-74257376D01*
X193124272Y-74409041D01*
X192995291Y-74538022D01*
X192843626Y-74639361D01*
X192675104Y-74709165D01*
X192496203Y-74744750D01*
X192313797Y-74744750D01*
X192134896Y-74709165D01*
X191966374Y-74639361D01*
X191814709Y-74538022D01*
X191685728Y-74409041D01*
X191584389Y-74257376D01*
X191514585Y-74088854D01*
X191479000Y-73909953D01*
X191479000Y-73727547D01*
X191514585Y-73548646D01*
X191584389Y-73380124D01*
X191685728Y-73228459D01*
X191814709Y-73099478D01*
X191966374Y-72998139D01*
X192134896Y-72928335D01*
X192313797Y-72892750D01*
X192496203Y-72892750D01*
X192675104Y-72928335D01*
X192675104Y-72928335D01*
G37*
G36*
X163465104Y-72928335D02*
G01*
X163633626Y-72998139D01*
X163785291Y-73099478D01*
X163914272Y-73228459D01*
X164015611Y-73380124D01*
X164085415Y-73548646D01*
X164121000Y-73727547D01*
X164121000Y-73909953D01*
X164085415Y-74088854D01*
X164015611Y-74257376D01*
X163914272Y-74409041D01*
X163785291Y-74538022D01*
X163633626Y-74639361D01*
X163465104Y-74709165D01*
X163286203Y-74744750D01*
X163103797Y-74744750D01*
X162924896Y-74709165D01*
X162756374Y-74639361D01*
X162604709Y-74538022D01*
X162475728Y-74409041D01*
X162374389Y-74257376D01*
X162304585Y-74088854D01*
X162269000Y-73909953D01*
X162269000Y-73727547D01*
X162304585Y-73548646D01*
X162374389Y-73380124D01*
X162475728Y-73228459D01*
X162604709Y-73099478D01*
X162756374Y-72998139D01*
X162924896Y-72928335D01*
X163103797Y-72892750D01*
X163286203Y-72892750D01*
X163465104Y-72928335D01*
X163465104Y-72928335D01*
G37*
G36*
X59325104Y-72928335D02*
G01*
X59493626Y-72998139D01*
X59645291Y-73099478D01*
X59774272Y-73228459D01*
X59875611Y-73380124D01*
X59945415Y-73548646D01*
X59981000Y-73727547D01*
X59981000Y-73909953D01*
X59945415Y-74088854D01*
X59875611Y-74257376D01*
X59774272Y-74409041D01*
X59645291Y-74538022D01*
X59493626Y-74639361D01*
X59325104Y-74709165D01*
X59146203Y-74744750D01*
X58963797Y-74744750D01*
X58784896Y-74709165D01*
X58616374Y-74639361D01*
X58464709Y-74538022D01*
X58335728Y-74409041D01*
X58234389Y-74257376D01*
X58164585Y-74088854D01*
X58129000Y-73909953D01*
X58129000Y-73727547D01*
X58164585Y-73548646D01*
X58234389Y-73380124D01*
X58335728Y-73228459D01*
X58464709Y-73099478D01*
X58616374Y-72998139D01*
X58784896Y-72928335D01*
X58963797Y-72892750D01*
X59146203Y-72892750D01*
X59325104Y-72928335D01*
X59325104Y-72928335D01*
G37*
G36*
X64096474Y-52802434D02*
G01*
X64314474Y-52892733D01*
X64468623Y-52956583D01*
X64803548Y-53180373D01*
X65088377Y-53465202D01*
X65312167Y-53800127D01*
X65344562Y-53878336D01*
X65466316Y-54172276D01*
X65544900Y-54567344D01*
X65544900Y-54970156D01*
X65466316Y-55365224D01*
X65415451Y-55488022D01*
X65312167Y-55737373D01*
X65088377Y-56072298D01*
X64803548Y-56357127D01*
X64468623Y-56580917D01*
X64314474Y-56644767D01*
X64096474Y-56735066D01*
X63701406Y-56813650D01*
X63298594Y-56813650D01*
X62903526Y-56735066D01*
X62685526Y-56644767D01*
X62531377Y-56580917D01*
X62196452Y-56357127D01*
X61911623Y-56072298D01*
X61687833Y-55737373D01*
X61584549Y-55488022D01*
X61533684Y-55365224D01*
X61455100Y-54970156D01*
X61455100Y-54567344D01*
X61533684Y-54172276D01*
X61655438Y-53878336D01*
X61687833Y-53800127D01*
X61911623Y-53465202D01*
X62196452Y-53180373D01*
X62531377Y-52956583D01*
X62685526Y-52892733D01*
X62903526Y-52802434D01*
X63298594Y-52723850D01*
X63701406Y-52723850D01*
X64096474Y-52802434D01*
X64096474Y-52802434D01*
G37*
G36*
X140296474Y-52802434D02*
G01*
X140514474Y-52892733D01*
X140668623Y-52956583D01*
X141003548Y-53180373D01*
X141288377Y-53465202D01*
X141512167Y-53800127D01*
X141544562Y-53878336D01*
X141666316Y-54172276D01*
X141744900Y-54567344D01*
X141744900Y-54970156D01*
X141666316Y-55365224D01*
X141615451Y-55488022D01*
X141512167Y-55737373D01*
X141288377Y-56072298D01*
X141003548Y-56357127D01*
X140668623Y-56580917D01*
X140514474Y-56644767D01*
X140296474Y-56735066D01*
X139901406Y-56813650D01*
X139498594Y-56813650D01*
X139103526Y-56735066D01*
X138885526Y-56644767D01*
X138731377Y-56580917D01*
X138396452Y-56357127D01*
X138111623Y-56072298D01*
X137887833Y-55737373D01*
X137784549Y-55488022D01*
X137733684Y-55365224D01*
X137655100Y-54970156D01*
X137655100Y-54567344D01*
X137733684Y-54172276D01*
X137855438Y-53878336D01*
X137887833Y-53800127D01*
X138111623Y-53465202D01*
X138396452Y-53180373D01*
X138731377Y-52956583D01*
X138885526Y-52892733D01*
X139103526Y-52802434D01*
X139498594Y-52723850D01*
X139901406Y-52723850D01*
X140296474Y-52802434D01*
X140296474Y-52802434D01*
G37*
G36*
X45046474Y-52802434D02*
G01*
X45264474Y-52892733D01*
X45418623Y-52956583D01*
X45753548Y-53180373D01*
X46038377Y-53465202D01*
X46262167Y-53800127D01*
X46294562Y-53878336D01*
X46416316Y-54172276D01*
X46494900Y-54567344D01*
X46494900Y-54970156D01*
X46416316Y-55365224D01*
X46365451Y-55488022D01*
X46262167Y-55737373D01*
X46038377Y-56072298D01*
X45753548Y-56357127D01*
X45418623Y-56580917D01*
X45264474Y-56644767D01*
X45046474Y-56735066D01*
X44651406Y-56813650D01*
X44248594Y-56813650D01*
X43853526Y-56735066D01*
X43635526Y-56644767D01*
X43481377Y-56580917D01*
X43146452Y-56357127D01*
X42861623Y-56072298D01*
X42637833Y-55737373D01*
X42534549Y-55488022D01*
X42483684Y-55365224D01*
X42405100Y-54970156D01*
X42405100Y-54567344D01*
X42483684Y-54172276D01*
X42605438Y-53878336D01*
X42637833Y-53800127D01*
X42861623Y-53465202D01*
X43146452Y-53180373D01*
X43481377Y-52956583D01*
X43635526Y-52892733D01*
X43853526Y-52802434D01*
X44248594Y-52723850D01*
X44651406Y-52723850D01*
X45046474Y-52802434D01*
X45046474Y-52802434D01*
G37*
G36*
X197446474Y-52802434D02*
G01*
X197664474Y-52892733D01*
X197818623Y-52956583D01*
X198153548Y-53180373D01*
X198438377Y-53465202D01*
X198662167Y-53800127D01*
X198694562Y-53878336D01*
X198816316Y-54172276D01*
X198894900Y-54567344D01*
X198894900Y-54970156D01*
X198816316Y-55365224D01*
X198765451Y-55488022D01*
X198662167Y-55737373D01*
X198438377Y-56072298D01*
X198153548Y-56357127D01*
X197818623Y-56580917D01*
X197664474Y-56644767D01*
X197446474Y-56735066D01*
X197051406Y-56813650D01*
X196648594Y-56813650D01*
X196253526Y-56735066D01*
X196035526Y-56644767D01*
X195881377Y-56580917D01*
X195546452Y-56357127D01*
X195261623Y-56072298D01*
X195037833Y-55737373D01*
X194934549Y-55488022D01*
X194883684Y-55365224D01*
X194805100Y-54970156D01*
X194805100Y-54567344D01*
X194883684Y-54172276D01*
X195005438Y-53878336D01*
X195037833Y-53800127D01*
X195261623Y-53465202D01*
X195546452Y-53180373D01*
X195881377Y-52956583D01*
X196035526Y-52892733D01*
X196253526Y-52802434D01*
X196648594Y-52723850D01*
X197051406Y-52723850D01*
X197446474Y-52802434D01*
X197446474Y-52802434D01*
G37*
G36*
X121246474Y-52802434D02*
G01*
X121464474Y-52892733D01*
X121618623Y-52956583D01*
X121953548Y-53180373D01*
X122238377Y-53465202D01*
X122462167Y-53800127D01*
X122494562Y-53878336D01*
X122616316Y-54172276D01*
X122694900Y-54567344D01*
X122694900Y-54970156D01*
X122616316Y-55365224D01*
X122565451Y-55488022D01*
X122462167Y-55737373D01*
X122238377Y-56072298D01*
X121953548Y-56357127D01*
X121618623Y-56580917D01*
X121464474Y-56644767D01*
X121246474Y-56735066D01*
X120851406Y-56813650D01*
X120448594Y-56813650D01*
X120053526Y-56735066D01*
X119835526Y-56644767D01*
X119681377Y-56580917D01*
X119346452Y-56357127D01*
X119061623Y-56072298D01*
X118837833Y-55737373D01*
X118734549Y-55488022D01*
X118683684Y-55365224D01*
X118605100Y-54970156D01*
X118605100Y-54567344D01*
X118683684Y-54172276D01*
X118805438Y-53878336D01*
X118837833Y-53800127D01*
X119061623Y-53465202D01*
X119346452Y-53180373D01*
X119681377Y-52956583D01*
X119835526Y-52892733D01*
X120053526Y-52802434D01*
X120448594Y-52723850D01*
X120851406Y-52723850D01*
X121246474Y-52802434D01*
X121246474Y-52802434D01*
G37*
G36*
X102196474Y-52802434D02*
G01*
X102414474Y-52892733D01*
X102568623Y-52956583D01*
X102903548Y-53180373D01*
X103188377Y-53465202D01*
X103412167Y-53800127D01*
X103444562Y-53878336D01*
X103566316Y-54172276D01*
X103644900Y-54567344D01*
X103644900Y-54970156D01*
X103566316Y-55365224D01*
X103515451Y-55488022D01*
X103412167Y-55737373D01*
X103188377Y-56072298D01*
X102903548Y-56357127D01*
X102568623Y-56580917D01*
X102414474Y-56644767D01*
X102196474Y-56735066D01*
X101801406Y-56813650D01*
X101398594Y-56813650D01*
X101003526Y-56735066D01*
X100785526Y-56644767D01*
X100631377Y-56580917D01*
X100296452Y-56357127D01*
X100011623Y-56072298D01*
X99787833Y-55737373D01*
X99684549Y-55488022D01*
X99633684Y-55365224D01*
X99555100Y-54970156D01*
X99555100Y-54567344D01*
X99633684Y-54172276D01*
X99755438Y-53878336D01*
X99787833Y-53800127D01*
X100011623Y-53465202D01*
X100296452Y-53180373D01*
X100631377Y-52956583D01*
X100785526Y-52892733D01*
X101003526Y-52802434D01*
X101398594Y-52723850D01*
X101801406Y-52723850D01*
X102196474Y-52802434D01*
X102196474Y-52802434D01*
G37*
G36*
X83146474Y-52802434D02*
G01*
X83364474Y-52892733D01*
X83518623Y-52956583D01*
X83853548Y-53180373D01*
X84138377Y-53465202D01*
X84362167Y-53800127D01*
X84394562Y-53878336D01*
X84516316Y-54172276D01*
X84594900Y-54567344D01*
X84594900Y-54970156D01*
X84516316Y-55365224D01*
X84465451Y-55488022D01*
X84362167Y-55737373D01*
X84138377Y-56072298D01*
X83853548Y-56357127D01*
X83518623Y-56580917D01*
X83364474Y-56644767D01*
X83146474Y-56735066D01*
X82751406Y-56813650D01*
X82348594Y-56813650D01*
X81953526Y-56735066D01*
X81735526Y-56644767D01*
X81581377Y-56580917D01*
X81246452Y-56357127D01*
X80961623Y-56072298D01*
X80737833Y-55737373D01*
X80634549Y-55488022D01*
X80583684Y-55365224D01*
X80505100Y-54970156D01*
X80505100Y-54567344D01*
X80583684Y-54172276D01*
X80705438Y-53878336D01*
X80737833Y-53800127D01*
X80961623Y-53465202D01*
X81246452Y-53180373D01*
X81581377Y-52956583D01*
X81735526Y-52892733D01*
X81953526Y-52802434D01*
X82348594Y-52723850D01*
X82751406Y-52723850D01*
X83146474Y-52802434D01*
X83146474Y-52802434D01*
G37*
G36*
X178396474Y-52802434D02*
G01*
X178614474Y-52892733D01*
X178768623Y-52956583D01*
X179103548Y-53180373D01*
X179388377Y-53465202D01*
X179612167Y-53800127D01*
X179644562Y-53878336D01*
X179766316Y-54172276D01*
X179844900Y-54567344D01*
X179844900Y-54970156D01*
X179766316Y-55365224D01*
X179715451Y-55488022D01*
X179612167Y-55737373D01*
X179388377Y-56072298D01*
X179103548Y-56357127D01*
X178768623Y-56580917D01*
X178614474Y-56644767D01*
X178396474Y-56735066D01*
X178001406Y-56813650D01*
X177598594Y-56813650D01*
X177203526Y-56735066D01*
X176985526Y-56644767D01*
X176831377Y-56580917D01*
X176496452Y-56357127D01*
X176211623Y-56072298D01*
X175987833Y-55737373D01*
X175884549Y-55488022D01*
X175833684Y-55365224D01*
X175755100Y-54970156D01*
X175755100Y-54567344D01*
X175833684Y-54172276D01*
X175955438Y-53878336D01*
X175987833Y-53800127D01*
X176211623Y-53465202D01*
X176496452Y-53180373D01*
X176831377Y-52956583D01*
X176985526Y-52892733D01*
X177203526Y-52802434D01*
X177598594Y-52723850D01*
X178001406Y-52723850D01*
X178396474Y-52802434D01*
X178396474Y-52802434D01*
G37*
G36*
X216496474Y-52802434D02*
G01*
X216714474Y-52892733D01*
X216868623Y-52956583D01*
X217203548Y-53180373D01*
X217488377Y-53465202D01*
X217712167Y-53800127D01*
X217744562Y-53878336D01*
X217866316Y-54172276D01*
X217944900Y-54567344D01*
X217944900Y-54970156D01*
X217866316Y-55365224D01*
X217815451Y-55488022D01*
X217712167Y-55737373D01*
X217488377Y-56072298D01*
X217203548Y-56357127D01*
X216868623Y-56580917D01*
X216714474Y-56644767D01*
X216496474Y-56735066D01*
X216101406Y-56813650D01*
X215698594Y-56813650D01*
X215303526Y-56735066D01*
X215085526Y-56644767D01*
X214931377Y-56580917D01*
X214596452Y-56357127D01*
X214311623Y-56072298D01*
X214087833Y-55737373D01*
X213984549Y-55488022D01*
X213933684Y-55365224D01*
X213855100Y-54970156D01*
X213855100Y-54567344D01*
X213933684Y-54172276D01*
X214055438Y-53878336D01*
X214087833Y-53800127D01*
X214311623Y-53465202D01*
X214596452Y-53180373D01*
X214931377Y-52956583D01*
X215085526Y-52892733D01*
X215303526Y-52802434D01*
X215698594Y-52723850D01*
X216101406Y-52723850D01*
X216496474Y-52802434D01*
X216496474Y-52802434D01*
G37*
G36*
X159346474Y-52802434D02*
G01*
X159564474Y-52892733D01*
X159718623Y-52956583D01*
X160053548Y-53180373D01*
X160338377Y-53465202D01*
X160562167Y-53800127D01*
X160594562Y-53878336D01*
X160716316Y-54172276D01*
X160794900Y-54567344D01*
X160794900Y-54970156D01*
X160716316Y-55365224D01*
X160665451Y-55488022D01*
X160562167Y-55737373D01*
X160338377Y-56072298D01*
X160053548Y-56357127D01*
X159718623Y-56580917D01*
X159564474Y-56644767D01*
X159346474Y-56735066D01*
X158951406Y-56813650D01*
X158548594Y-56813650D01*
X158153526Y-56735066D01*
X157935526Y-56644767D01*
X157781377Y-56580917D01*
X157446452Y-56357127D01*
X157161623Y-56072298D01*
X156937833Y-55737373D01*
X156834549Y-55488022D01*
X156783684Y-55365224D01*
X156705100Y-54970156D01*
X156705100Y-54567344D01*
X156783684Y-54172276D01*
X156905438Y-53878336D01*
X156937833Y-53800127D01*
X157161623Y-53465202D01*
X157446452Y-53180373D01*
X157781377Y-52956583D01*
X157935526Y-52892733D01*
X158153526Y-52802434D01*
X158548594Y-52723850D01*
X158951406Y-52723850D01*
X159346474Y-52802434D01*
X159346474Y-52802434D01*
G37*
G36*
X183150104Y-53878335D02*
G01*
X183318626Y-53948139D01*
X183470291Y-54049478D01*
X183599272Y-54178459D01*
X183700611Y-54330124D01*
X183770415Y-54498646D01*
X183806000Y-54677547D01*
X183806000Y-54859953D01*
X183770415Y-55038854D01*
X183700611Y-55207376D01*
X183599272Y-55359041D01*
X183470291Y-55488022D01*
X183318626Y-55589361D01*
X183150104Y-55659165D01*
X182971203Y-55694750D01*
X182788797Y-55694750D01*
X182609896Y-55659165D01*
X182441374Y-55589361D01*
X182289709Y-55488022D01*
X182160728Y-55359041D01*
X182059389Y-55207376D01*
X181989585Y-55038854D01*
X181954000Y-54859953D01*
X181954000Y-54677547D01*
X181989585Y-54498646D01*
X182059389Y-54330124D01*
X182160728Y-54178459D01*
X182289709Y-54049478D01*
X182441374Y-53948139D01*
X182609896Y-53878335D01*
X182788797Y-53842750D01*
X182971203Y-53842750D01*
X183150104Y-53878335D01*
X183150104Y-53878335D01*
G37*
G36*
X192040104Y-53878335D02*
G01*
X192208626Y-53948139D01*
X192360291Y-54049478D01*
X192489272Y-54178459D01*
X192590611Y-54330124D01*
X192660415Y-54498646D01*
X192696000Y-54677547D01*
X192696000Y-54859953D01*
X192660415Y-55038854D01*
X192590611Y-55207376D01*
X192489272Y-55359041D01*
X192360291Y-55488022D01*
X192208626Y-55589361D01*
X192040104Y-55659165D01*
X191861203Y-55694750D01*
X191678797Y-55694750D01*
X191499896Y-55659165D01*
X191331374Y-55589361D01*
X191179709Y-55488022D01*
X191050728Y-55359041D01*
X190949389Y-55207376D01*
X190879585Y-55038854D01*
X190844000Y-54859953D01*
X190844000Y-54677547D01*
X190879585Y-54498646D01*
X190949389Y-54330124D01*
X191050728Y-54178459D01*
X191179709Y-54049478D01*
X191331374Y-53948139D01*
X191499896Y-53878335D01*
X191678797Y-53842750D01*
X191861203Y-53842750D01*
X192040104Y-53878335D01*
X192040104Y-53878335D01*
G37*
G36*
X202200104Y-53878335D02*
G01*
X202368626Y-53948139D01*
X202520291Y-54049478D01*
X202649272Y-54178459D01*
X202750611Y-54330124D01*
X202820415Y-54498646D01*
X202856000Y-54677547D01*
X202856000Y-54859953D01*
X202820415Y-55038854D01*
X202750611Y-55207376D01*
X202649272Y-55359041D01*
X202520291Y-55488022D01*
X202368626Y-55589361D01*
X202200104Y-55659165D01*
X202021203Y-55694750D01*
X201838797Y-55694750D01*
X201659896Y-55659165D01*
X201491374Y-55589361D01*
X201339709Y-55488022D01*
X201210728Y-55359041D01*
X201109389Y-55207376D01*
X201039585Y-55038854D01*
X201004000Y-54859953D01*
X201004000Y-54677547D01*
X201039585Y-54498646D01*
X201109389Y-54330124D01*
X201210728Y-54178459D01*
X201339709Y-54049478D01*
X201491374Y-53948139D01*
X201659896Y-53878335D01*
X201838797Y-53842750D01*
X202021203Y-53842750D01*
X202200104Y-53878335D01*
X202200104Y-53878335D01*
G37*
G36*
X153940104Y-53878335D02*
G01*
X154108626Y-53948139D01*
X154260291Y-54049478D01*
X154389272Y-54178459D01*
X154490611Y-54330124D01*
X154560415Y-54498646D01*
X154596000Y-54677547D01*
X154596000Y-54859953D01*
X154560415Y-55038854D01*
X154490611Y-55207376D01*
X154389272Y-55359041D01*
X154260291Y-55488022D01*
X154108626Y-55589361D01*
X153940104Y-55659165D01*
X153761203Y-55694750D01*
X153578797Y-55694750D01*
X153399896Y-55659165D01*
X153231374Y-55589361D01*
X153079709Y-55488022D01*
X152950728Y-55359041D01*
X152849389Y-55207376D01*
X152779585Y-55038854D01*
X152744000Y-54859953D01*
X152744000Y-54677547D01*
X152779585Y-54498646D01*
X152849389Y-54330124D01*
X152950728Y-54178459D01*
X153079709Y-54049478D01*
X153231374Y-53948139D01*
X153399896Y-53878335D01*
X153578797Y-53842750D01*
X153761203Y-53842750D01*
X153940104Y-53878335D01*
X153940104Y-53878335D01*
G37*
G36*
X221250104Y-53878335D02*
G01*
X221418626Y-53948139D01*
X221570291Y-54049478D01*
X221699272Y-54178459D01*
X221800611Y-54330124D01*
X221870415Y-54498646D01*
X221906000Y-54677547D01*
X221906000Y-54859953D01*
X221870415Y-55038854D01*
X221800611Y-55207376D01*
X221699272Y-55359041D01*
X221570291Y-55488022D01*
X221418626Y-55589361D01*
X221250104Y-55659165D01*
X221071203Y-55694750D01*
X220888797Y-55694750D01*
X220709896Y-55659165D01*
X220541374Y-55589361D01*
X220389709Y-55488022D01*
X220260728Y-55359041D01*
X220159389Y-55207376D01*
X220089585Y-55038854D01*
X220054000Y-54859953D01*
X220054000Y-54677547D01*
X220089585Y-54498646D01*
X220159389Y-54330124D01*
X220260728Y-54178459D01*
X220389709Y-54049478D01*
X220541374Y-53948139D01*
X220709896Y-53878335D01*
X220888797Y-53842750D01*
X221071203Y-53842750D01*
X221250104Y-53878335D01*
X221250104Y-53878335D01*
G37*
G36*
X164100104Y-53878335D02*
G01*
X164268626Y-53948139D01*
X164420291Y-54049478D01*
X164549272Y-54178459D01*
X164650611Y-54330124D01*
X164720415Y-54498646D01*
X164756000Y-54677547D01*
X164756000Y-54859953D01*
X164720415Y-55038854D01*
X164650611Y-55207376D01*
X164549272Y-55359041D01*
X164420291Y-55488022D01*
X164268626Y-55589361D01*
X164100104Y-55659165D01*
X163921203Y-55694750D01*
X163738797Y-55694750D01*
X163559896Y-55659165D01*
X163391374Y-55589361D01*
X163239709Y-55488022D01*
X163110728Y-55359041D01*
X163009389Y-55207376D01*
X162939585Y-55038854D01*
X162904000Y-54859953D01*
X162904000Y-54677547D01*
X162939585Y-54498646D01*
X163009389Y-54330124D01*
X163110728Y-54178459D01*
X163239709Y-54049478D01*
X163391374Y-53948139D01*
X163559896Y-53878335D01*
X163738797Y-53842750D01*
X163921203Y-53842750D01*
X164100104Y-53878335D01*
X164100104Y-53878335D01*
G37*
G36*
X172990104Y-53878335D02*
G01*
X173158626Y-53948139D01*
X173310291Y-54049478D01*
X173439272Y-54178459D01*
X173540611Y-54330124D01*
X173610415Y-54498646D01*
X173646000Y-54677547D01*
X173646000Y-54859953D01*
X173610415Y-55038854D01*
X173540611Y-55207376D01*
X173439272Y-55359041D01*
X173310291Y-55488022D01*
X173158626Y-55589361D01*
X172990104Y-55659165D01*
X172811203Y-55694750D01*
X172628797Y-55694750D01*
X172449896Y-55659165D01*
X172281374Y-55589361D01*
X172129709Y-55488022D01*
X172000728Y-55359041D01*
X171899389Y-55207376D01*
X171829585Y-55038854D01*
X171794000Y-54859953D01*
X171794000Y-54677547D01*
X171829585Y-54498646D01*
X171899389Y-54330124D01*
X172000728Y-54178459D01*
X172129709Y-54049478D01*
X172281374Y-53948139D01*
X172449896Y-53878335D01*
X172628797Y-53842750D01*
X172811203Y-53842750D01*
X172990104Y-53878335D01*
X172990104Y-53878335D01*
G37*
G36*
X145050104Y-53878335D02*
G01*
X145218626Y-53948139D01*
X145370291Y-54049478D01*
X145499272Y-54178459D01*
X145600611Y-54330124D01*
X145670415Y-54498646D01*
X145706000Y-54677547D01*
X145706000Y-54859953D01*
X145670415Y-55038854D01*
X145600611Y-55207376D01*
X145499272Y-55359041D01*
X145370291Y-55488022D01*
X145218626Y-55589361D01*
X145050104Y-55659165D01*
X144871203Y-55694750D01*
X144688797Y-55694750D01*
X144509896Y-55659165D01*
X144341374Y-55589361D01*
X144189709Y-55488022D01*
X144060728Y-55359041D01*
X143959389Y-55207376D01*
X143889585Y-55038854D01*
X143854000Y-54859953D01*
X143854000Y-54677547D01*
X143889585Y-54498646D01*
X143959389Y-54330124D01*
X144060728Y-54178459D01*
X144189709Y-54049478D01*
X144341374Y-53948139D01*
X144509896Y-53878335D01*
X144688797Y-53842750D01*
X144871203Y-53842750D01*
X145050104Y-53878335D01*
X145050104Y-53878335D01*
G37*
G36*
X134890104Y-53878335D02*
G01*
X135058626Y-53948139D01*
X135210291Y-54049478D01*
X135339272Y-54178459D01*
X135440611Y-54330124D01*
X135510415Y-54498646D01*
X135546000Y-54677547D01*
X135546000Y-54859953D01*
X135510415Y-55038854D01*
X135440611Y-55207376D01*
X135339272Y-55359041D01*
X135210291Y-55488022D01*
X135058626Y-55589361D01*
X134890104Y-55659165D01*
X134711203Y-55694750D01*
X134528797Y-55694750D01*
X134349896Y-55659165D01*
X134181374Y-55589361D01*
X134029709Y-55488022D01*
X133900728Y-55359041D01*
X133799389Y-55207376D01*
X133729585Y-55038854D01*
X133694000Y-54859953D01*
X133694000Y-54677547D01*
X133729585Y-54498646D01*
X133799389Y-54330124D01*
X133900728Y-54178459D01*
X134029709Y-54049478D01*
X134181374Y-53948139D01*
X134349896Y-53878335D01*
X134528797Y-53842750D01*
X134711203Y-53842750D01*
X134890104Y-53878335D01*
X134890104Y-53878335D01*
G37*
G36*
X126000104Y-53878335D02*
G01*
X126168626Y-53948139D01*
X126320291Y-54049478D01*
X126449272Y-54178459D01*
X126550611Y-54330124D01*
X126620415Y-54498646D01*
X126656000Y-54677547D01*
X126656000Y-54859953D01*
X126620415Y-55038854D01*
X126550611Y-55207376D01*
X126449272Y-55359041D01*
X126320291Y-55488022D01*
X126168626Y-55589361D01*
X126000104Y-55659165D01*
X125821203Y-55694750D01*
X125638797Y-55694750D01*
X125459896Y-55659165D01*
X125291374Y-55589361D01*
X125139709Y-55488022D01*
X125010728Y-55359041D01*
X124909389Y-55207376D01*
X124839585Y-55038854D01*
X124804000Y-54859953D01*
X124804000Y-54677547D01*
X124839585Y-54498646D01*
X124909389Y-54330124D01*
X125010728Y-54178459D01*
X125139709Y-54049478D01*
X125291374Y-53948139D01*
X125459896Y-53878335D01*
X125638797Y-53842750D01*
X125821203Y-53842750D01*
X126000104Y-53878335D01*
X126000104Y-53878335D01*
G37*
G36*
X96790104Y-53878335D02*
G01*
X96958626Y-53948139D01*
X97110291Y-54049478D01*
X97239272Y-54178459D01*
X97340611Y-54330124D01*
X97410415Y-54498646D01*
X97446000Y-54677547D01*
X97446000Y-54859953D01*
X97410415Y-55038854D01*
X97340611Y-55207376D01*
X97239272Y-55359041D01*
X97110291Y-55488022D01*
X96958626Y-55589361D01*
X96790104Y-55659165D01*
X96611203Y-55694750D01*
X96428797Y-55694750D01*
X96249896Y-55659165D01*
X96081374Y-55589361D01*
X95929709Y-55488022D01*
X95800728Y-55359041D01*
X95699389Y-55207376D01*
X95629585Y-55038854D01*
X95594000Y-54859953D01*
X95594000Y-54677547D01*
X95629585Y-54498646D01*
X95699389Y-54330124D01*
X95800728Y-54178459D01*
X95929709Y-54049478D01*
X96081374Y-53948139D01*
X96249896Y-53878335D01*
X96428797Y-53842750D01*
X96611203Y-53842750D01*
X96790104Y-53878335D01*
X96790104Y-53878335D01*
G37*
G36*
X87900104Y-53878335D02*
G01*
X88068626Y-53948139D01*
X88220291Y-54049478D01*
X88349272Y-54178459D01*
X88450611Y-54330124D01*
X88520415Y-54498646D01*
X88556000Y-54677547D01*
X88556000Y-54859953D01*
X88520415Y-55038854D01*
X88450611Y-55207376D01*
X88349272Y-55359041D01*
X88220291Y-55488022D01*
X88068626Y-55589361D01*
X87900104Y-55659165D01*
X87721203Y-55694750D01*
X87538797Y-55694750D01*
X87359896Y-55659165D01*
X87191374Y-55589361D01*
X87039709Y-55488022D01*
X86910728Y-55359041D01*
X86809389Y-55207376D01*
X86739585Y-55038854D01*
X86704000Y-54859953D01*
X86704000Y-54677547D01*
X86739585Y-54498646D01*
X86809389Y-54330124D01*
X86910728Y-54178459D01*
X87039709Y-54049478D01*
X87191374Y-53948139D01*
X87359896Y-53878335D01*
X87538797Y-53842750D01*
X87721203Y-53842750D01*
X87900104Y-53878335D01*
X87900104Y-53878335D01*
G37*
G36*
X77740104Y-53878335D02*
G01*
X77908626Y-53948139D01*
X78060291Y-54049478D01*
X78189272Y-54178459D01*
X78290611Y-54330124D01*
X78360415Y-54498646D01*
X78396000Y-54677547D01*
X78396000Y-54859953D01*
X78360415Y-55038854D01*
X78290611Y-55207376D01*
X78189272Y-55359041D01*
X78060291Y-55488022D01*
X77908626Y-55589361D01*
X77740104Y-55659165D01*
X77561203Y-55694750D01*
X77378797Y-55694750D01*
X77199896Y-55659165D01*
X77031374Y-55589361D01*
X76879709Y-55488022D01*
X76750728Y-55359041D01*
X76649389Y-55207376D01*
X76579585Y-55038854D01*
X76544000Y-54859953D01*
X76544000Y-54677547D01*
X76579585Y-54498646D01*
X76649389Y-54330124D01*
X76750728Y-54178459D01*
X76879709Y-54049478D01*
X77031374Y-53948139D01*
X77199896Y-53878335D01*
X77378797Y-53842750D01*
X77561203Y-53842750D01*
X77740104Y-53878335D01*
X77740104Y-53878335D01*
G37*
G36*
X211090104Y-53878335D02*
G01*
X211258626Y-53948139D01*
X211410291Y-54049478D01*
X211539272Y-54178459D01*
X211640611Y-54330124D01*
X211710415Y-54498646D01*
X211746000Y-54677547D01*
X211746000Y-54859953D01*
X211710415Y-55038854D01*
X211640611Y-55207376D01*
X211539272Y-55359041D01*
X211410291Y-55488022D01*
X211258626Y-55589361D01*
X211090104Y-55659165D01*
X210911203Y-55694750D01*
X210728797Y-55694750D01*
X210549896Y-55659165D01*
X210381374Y-55589361D01*
X210229709Y-55488022D01*
X210100728Y-55359041D01*
X209999389Y-55207376D01*
X209929585Y-55038854D01*
X209894000Y-54859953D01*
X209894000Y-54677547D01*
X209929585Y-54498646D01*
X209999389Y-54330124D01*
X210100728Y-54178459D01*
X210229709Y-54049478D01*
X210381374Y-53948139D01*
X210549896Y-53878335D01*
X210728797Y-53842750D01*
X210911203Y-53842750D01*
X211090104Y-53878335D01*
X211090104Y-53878335D01*
G37*
G36*
X68850104Y-53878335D02*
G01*
X69018626Y-53948139D01*
X69170291Y-54049478D01*
X69299272Y-54178459D01*
X69400611Y-54330124D01*
X69470415Y-54498646D01*
X69506000Y-54677547D01*
X69506000Y-54859953D01*
X69470415Y-55038854D01*
X69400611Y-55207376D01*
X69299272Y-55359041D01*
X69170291Y-55488022D01*
X69018626Y-55589361D01*
X68850104Y-55659165D01*
X68671203Y-55694750D01*
X68488797Y-55694750D01*
X68309896Y-55659165D01*
X68141374Y-55589361D01*
X67989709Y-55488022D01*
X67860728Y-55359041D01*
X67759389Y-55207376D01*
X67689585Y-55038854D01*
X67654000Y-54859953D01*
X67654000Y-54677547D01*
X67689585Y-54498646D01*
X67759389Y-54330124D01*
X67860728Y-54178459D01*
X67989709Y-54049478D01*
X68141374Y-53948139D01*
X68309896Y-53878335D01*
X68488797Y-53842750D01*
X68671203Y-53842750D01*
X68850104Y-53878335D01*
X68850104Y-53878335D01*
G37*
G36*
X58690104Y-53878335D02*
G01*
X58858626Y-53948139D01*
X59010291Y-54049478D01*
X59139272Y-54178459D01*
X59240611Y-54330124D01*
X59310415Y-54498646D01*
X59346000Y-54677547D01*
X59346000Y-54859953D01*
X59310415Y-55038854D01*
X59240611Y-55207376D01*
X59139272Y-55359041D01*
X59010291Y-55488022D01*
X58858626Y-55589361D01*
X58690104Y-55659165D01*
X58511203Y-55694750D01*
X58328797Y-55694750D01*
X58149896Y-55659165D01*
X57981374Y-55589361D01*
X57829709Y-55488022D01*
X57700728Y-55359041D01*
X57599389Y-55207376D01*
X57529585Y-55038854D01*
X57494000Y-54859953D01*
X57494000Y-54677547D01*
X57529585Y-54498646D01*
X57599389Y-54330124D01*
X57700728Y-54178459D01*
X57829709Y-54049478D01*
X57981374Y-53948139D01*
X58149896Y-53878335D01*
X58328797Y-53842750D01*
X58511203Y-53842750D01*
X58690104Y-53878335D01*
X58690104Y-53878335D01*
G37*
G36*
X49800104Y-53878335D02*
G01*
X49968626Y-53948139D01*
X50120291Y-54049478D01*
X50249272Y-54178459D01*
X50350611Y-54330124D01*
X50420415Y-54498646D01*
X50456000Y-54677547D01*
X50456000Y-54859953D01*
X50420415Y-55038854D01*
X50350611Y-55207376D01*
X50249272Y-55359041D01*
X50120291Y-55488022D01*
X49968626Y-55589361D01*
X49800104Y-55659165D01*
X49621203Y-55694750D01*
X49438797Y-55694750D01*
X49259896Y-55659165D01*
X49091374Y-55589361D01*
X48939709Y-55488022D01*
X48810728Y-55359041D01*
X48709389Y-55207376D01*
X48639585Y-55038854D01*
X48604000Y-54859953D01*
X48604000Y-54677547D01*
X48639585Y-54498646D01*
X48709389Y-54330124D01*
X48810728Y-54178459D01*
X48939709Y-54049478D01*
X49091374Y-53948139D01*
X49259896Y-53878335D01*
X49438797Y-53842750D01*
X49621203Y-53842750D01*
X49800104Y-53878335D01*
X49800104Y-53878335D01*
G37*
G36*
X39640104Y-53878335D02*
G01*
X39808626Y-53948139D01*
X39960291Y-54049478D01*
X40089272Y-54178459D01*
X40190611Y-54330124D01*
X40260415Y-54498646D01*
X40296000Y-54677547D01*
X40296000Y-54859953D01*
X40260415Y-55038854D01*
X40190611Y-55207376D01*
X40089272Y-55359041D01*
X39960291Y-55488022D01*
X39808626Y-55589361D01*
X39640104Y-55659165D01*
X39461203Y-55694750D01*
X39278797Y-55694750D01*
X39099896Y-55659165D01*
X38931374Y-55589361D01*
X38779709Y-55488022D01*
X38650728Y-55359041D01*
X38549389Y-55207376D01*
X38479585Y-55038854D01*
X38444000Y-54859953D01*
X38444000Y-54677547D01*
X38479585Y-54498646D01*
X38549389Y-54330124D01*
X38650728Y-54178459D01*
X38779709Y-54049478D01*
X38931374Y-53948139D01*
X39099896Y-53878335D01*
X39278797Y-53842750D01*
X39461203Y-53842750D01*
X39640104Y-53878335D01*
X39640104Y-53878335D01*
G37*
G36*
X115840104Y-53878335D02*
G01*
X116008626Y-53948139D01*
X116160291Y-54049478D01*
X116289272Y-54178459D01*
X116390611Y-54330124D01*
X116460415Y-54498646D01*
X116496000Y-54677547D01*
X116496000Y-54859953D01*
X116460415Y-55038854D01*
X116390611Y-55207376D01*
X116289272Y-55359041D01*
X116160291Y-55488022D01*
X116008626Y-55589361D01*
X115840104Y-55659165D01*
X115661203Y-55694750D01*
X115478797Y-55694750D01*
X115299896Y-55659165D01*
X115131374Y-55589361D01*
X114979709Y-55488022D01*
X114850728Y-55359041D01*
X114749389Y-55207376D01*
X114679585Y-55038854D01*
X114644000Y-54859953D01*
X114644000Y-54677547D01*
X114679585Y-54498646D01*
X114749389Y-54330124D01*
X114850728Y-54178459D01*
X114979709Y-54049478D01*
X115131374Y-53948139D01*
X115299896Y-53878335D01*
X115478797Y-53842750D01*
X115661203Y-53842750D01*
X115840104Y-53878335D01*
X115840104Y-53878335D01*
G37*
G36*
X106950104Y-53878335D02*
G01*
X107118626Y-53948139D01*
X107270291Y-54049478D01*
X107399272Y-54178459D01*
X107500611Y-54330124D01*
X107570415Y-54498646D01*
X107606000Y-54677547D01*
X107606000Y-54859953D01*
X107570415Y-55038854D01*
X107500611Y-55207376D01*
X107399272Y-55359041D01*
X107270291Y-55488022D01*
X107118626Y-55589361D01*
X106950104Y-55659165D01*
X106771203Y-55694750D01*
X106588797Y-55694750D01*
X106409896Y-55659165D01*
X106241374Y-55589361D01*
X106089709Y-55488022D01*
X105960728Y-55359041D01*
X105859389Y-55207376D01*
X105789585Y-55038854D01*
X105754000Y-54859953D01*
X105754000Y-54677547D01*
X105789585Y-54498646D01*
X105859389Y-54330124D01*
X105960728Y-54178459D01*
X106089709Y-54049478D01*
X106241374Y-53948139D01*
X106409896Y-53878335D01*
X106588797Y-53842750D01*
X106771203Y-53842750D01*
X106950104Y-53878335D01*
X106950104Y-53878335D01*
G37*
G36*
X140296474Y-33752434D02*
G01*
X140478817Y-33827963D01*
X140668623Y-33906583D01*
X141003548Y-34130373D01*
X141288377Y-34415202D01*
X141512167Y-34750127D01*
X141544562Y-34828336D01*
X141666316Y-35122276D01*
X141744900Y-35517344D01*
X141744900Y-35920156D01*
X141666316Y-36315224D01*
X141615451Y-36438022D01*
X141512167Y-36687373D01*
X141288377Y-37022298D01*
X141003548Y-37307127D01*
X140668623Y-37530917D01*
X140514474Y-37594767D01*
X140296474Y-37685066D01*
X139901406Y-37763650D01*
X139498594Y-37763650D01*
X139103526Y-37685066D01*
X138885526Y-37594767D01*
X138731377Y-37530917D01*
X138396452Y-37307127D01*
X138111623Y-37022298D01*
X137887833Y-36687373D01*
X137784549Y-36438022D01*
X137733684Y-36315224D01*
X137655100Y-35920156D01*
X137655100Y-35517344D01*
X137733684Y-35122276D01*
X137855438Y-34828336D01*
X137887833Y-34750127D01*
X138111623Y-34415202D01*
X138396452Y-34130373D01*
X138731377Y-33906583D01*
X138921183Y-33827963D01*
X139103526Y-33752434D01*
X139498594Y-33673850D01*
X139901406Y-33673850D01*
X140296474Y-33752434D01*
X140296474Y-33752434D01*
G37*
G36*
X216496474Y-33752434D02*
G01*
X216678817Y-33827963D01*
X216868623Y-33906583D01*
X217203548Y-34130373D01*
X217488377Y-34415202D01*
X217712167Y-34750127D01*
X217744562Y-34828336D01*
X217866316Y-35122276D01*
X217944900Y-35517344D01*
X217944900Y-35920156D01*
X217866316Y-36315224D01*
X217815451Y-36438022D01*
X217712167Y-36687373D01*
X217488377Y-37022298D01*
X217203548Y-37307127D01*
X216868623Y-37530917D01*
X216714474Y-37594767D01*
X216496474Y-37685066D01*
X216101406Y-37763650D01*
X215698594Y-37763650D01*
X215303526Y-37685066D01*
X215085526Y-37594767D01*
X214931377Y-37530917D01*
X214596452Y-37307127D01*
X214311623Y-37022298D01*
X214087833Y-36687373D01*
X213984549Y-36438022D01*
X213933684Y-36315224D01*
X213855100Y-35920156D01*
X213855100Y-35517344D01*
X213933684Y-35122276D01*
X214055438Y-34828336D01*
X214087833Y-34750127D01*
X214311623Y-34415202D01*
X214596452Y-34130373D01*
X214931377Y-33906583D01*
X215121183Y-33827963D01*
X215303526Y-33752434D01*
X215698594Y-33673850D01*
X216101406Y-33673850D01*
X216496474Y-33752434D01*
X216496474Y-33752434D01*
G37*
G36*
X197446474Y-33752434D02*
G01*
X197628817Y-33827963D01*
X197818623Y-33906583D01*
X198153548Y-34130373D01*
X198438377Y-34415202D01*
X198662167Y-34750127D01*
X198694562Y-34828336D01*
X198816316Y-35122276D01*
X198894900Y-35517344D01*
X198894900Y-35920156D01*
X198816316Y-36315224D01*
X198765451Y-36438022D01*
X198662167Y-36687373D01*
X198438377Y-37022298D01*
X198153548Y-37307127D01*
X197818623Y-37530917D01*
X197664474Y-37594767D01*
X197446474Y-37685066D01*
X197051406Y-37763650D01*
X196648594Y-37763650D01*
X196253526Y-37685066D01*
X196035526Y-37594767D01*
X195881377Y-37530917D01*
X195546452Y-37307127D01*
X195261623Y-37022298D01*
X195037833Y-36687373D01*
X194934549Y-36438022D01*
X194883684Y-36315224D01*
X194805100Y-35920156D01*
X194805100Y-35517344D01*
X194883684Y-35122276D01*
X195005438Y-34828336D01*
X195037833Y-34750127D01*
X195261623Y-34415202D01*
X195546452Y-34130373D01*
X195881377Y-33906583D01*
X196071183Y-33827963D01*
X196253526Y-33752434D01*
X196648594Y-33673850D01*
X197051406Y-33673850D01*
X197446474Y-33752434D01*
X197446474Y-33752434D01*
G37*
G36*
X178396474Y-33752434D02*
G01*
X178578817Y-33827963D01*
X178768623Y-33906583D01*
X179103548Y-34130373D01*
X179388377Y-34415202D01*
X179612167Y-34750127D01*
X179644562Y-34828336D01*
X179766316Y-35122276D01*
X179844900Y-35517344D01*
X179844900Y-35920156D01*
X179766316Y-36315224D01*
X179715451Y-36438022D01*
X179612167Y-36687373D01*
X179388377Y-37022298D01*
X179103548Y-37307127D01*
X178768623Y-37530917D01*
X178614474Y-37594767D01*
X178396474Y-37685066D01*
X178001406Y-37763650D01*
X177598594Y-37763650D01*
X177203526Y-37685066D01*
X176985526Y-37594767D01*
X176831377Y-37530917D01*
X176496452Y-37307127D01*
X176211623Y-37022298D01*
X175987833Y-36687373D01*
X175884549Y-36438022D01*
X175833684Y-36315224D01*
X175755100Y-35920156D01*
X175755100Y-35517344D01*
X175833684Y-35122276D01*
X175955438Y-34828336D01*
X175987833Y-34750127D01*
X176211623Y-34415202D01*
X176496452Y-34130373D01*
X176831377Y-33906583D01*
X177021183Y-33827963D01*
X177203526Y-33752434D01*
X177598594Y-33673850D01*
X178001406Y-33673850D01*
X178396474Y-33752434D01*
X178396474Y-33752434D01*
G37*
G36*
X159346474Y-33752434D02*
G01*
X159528817Y-33827963D01*
X159718623Y-33906583D01*
X160053548Y-34130373D01*
X160338377Y-34415202D01*
X160562167Y-34750127D01*
X160594562Y-34828336D01*
X160716316Y-35122276D01*
X160794900Y-35517344D01*
X160794900Y-35920156D01*
X160716316Y-36315224D01*
X160665451Y-36438022D01*
X160562167Y-36687373D01*
X160338377Y-37022298D01*
X160053548Y-37307127D01*
X159718623Y-37530917D01*
X159564474Y-37594767D01*
X159346474Y-37685066D01*
X158951406Y-37763650D01*
X158548594Y-37763650D01*
X158153526Y-37685066D01*
X157935526Y-37594767D01*
X157781377Y-37530917D01*
X157446452Y-37307127D01*
X157161623Y-37022298D01*
X156937833Y-36687373D01*
X156834549Y-36438022D01*
X156783684Y-36315224D01*
X156705100Y-35920156D01*
X156705100Y-35517344D01*
X156783684Y-35122276D01*
X156905438Y-34828336D01*
X156937833Y-34750127D01*
X157161623Y-34415202D01*
X157446452Y-34130373D01*
X157781377Y-33906583D01*
X157971183Y-33827963D01*
X158153526Y-33752434D01*
X158548594Y-33673850D01*
X158951406Y-33673850D01*
X159346474Y-33752434D01*
X159346474Y-33752434D01*
G37*
G36*
X121246474Y-33752434D02*
G01*
X121428817Y-33827963D01*
X121618623Y-33906583D01*
X121953548Y-34130373D01*
X122238377Y-34415202D01*
X122462167Y-34750127D01*
X122494562Y-34828336D01*
X122616316Y-35122276D01*
X122694900Y-35517344D01*
X122694900Y-35920156D01*
X122616316Y-36315224D01*
X122565451Y-36438022D01*
X122462167Y-36687373D01*
X122238377Y-37022298D01*
X121953548Y-37307127D01*
X121618623Y-37530917D01*
X121464474Y-37594767D01*
X121246474Y-37685066D01*
X120851406Y-37763650D01*
X120448594Y-37763650D01*
X120053526Y-37685066D01*
X119835526Y-37594767D01*
X119681377Y-37530917D01*
X119346452Y-37307127D01*
X119061623Y-37022298D01*
X118837833Y-36687373D01*
X118734549Y-36438022D01*
X118683684Y-36315224D01*
X118605100Y-35920156D01*
X118605100Y-35517344D01*
X118683684Y-35122276D01*
X118805438Y-34828336D01*
X118837833Y-34750127D01*
X119061623Y-34415202D01*
X119346452Y-34130373D01*
X119681377Y-33906583D01*
X119871183Y-33827963D01*
X120053526Y-33752434D01*
X120448594Y-33673850D01*
X120851406Y-33673850D01*
X121246474Y-33752434D01*
X121246474Y-33752434D01*
G37*
G36*
X102196474Y-33752434D02*
G01*
X102378817Y-33827963D01*
X102568623Y-33906583D01*
X102903548Y-34130373D01*
X103188377Y-34415202D01*
X103412167Y-34750127D01*
X103444562Y-34828336D01*
X103566316Y-35122276D01*
X103644900Y-35517344D01*
X103644900Y-35920156D01*
X103566316Y-36315224D01*
X103515451Y-36438022D01*
X103412167Y-36687373D01*
X103188377Y-37022298D01*
X102903548Y-37307127D01*
X102568623Y-37530917D01*
X102414474Y-37594767D01*
X102196474Y-37685066D01*
X101801406Y-37763650D01*
X101398594Y-37763650D01*
X101003526Y-37685066D01*
X100785526Y-37594767D01*
X100631377Y-37530917D01*
X100296452Y-37307127D01*
X100011623Y-37022298D01*
X99787833Y-36687373D01*
X99684549Y-36438022D01*
X99633684Y-36315224D01*
X99555100Y-35920156D01*
X99555100Y-35517344D01*
X99633684Y-35122276D01*
X99755438Y-34828336D01*
X99787833Y-34750127D01*
X100011623Y-34415202D01*
X100296452Y-34130373D01*
X100631377Y-33906583D01*
X100821183Y-33827963D01*
X101003526Y-33752434D01*
X101398594Y-33673850D01*
X101801406Y-33673850D01*
X102196474Y-33752434D01*
X102196474Y-33752434D01*
G37*
G36*
X83146474Y-33752434D02*
G01*
X83328817Y-33827963D01*
X83518623Y-33906583D01*
X83853548Y-34130373D01*
X84138377Y-34415202D01*
X84362167Y-34750127D01*
X84394562Y-34828336D01*
X84516316Y-35122276D01*
X84594900Y-35517344D01*
X84594900Y-35920156D01*
X84516316Y-36315224D01*
X84465451Y-36438022D01*
X84362167Y-36687373D01*
X84138377Y-37022298D01*
X83853548Y-37307127D01*
X83518623Y-37530917D01*
X83364474Y-37594767D01*
X83146474Y-37685066D01*
X82751406Y-37763650D01*
X82348594Y-37763650D01*
X81953526Y-37685066D01*
X81735526Y-37594767D01*
X81581377Y-37530917D01*
X81246452Y-37307127D01*
X80961623Y-37022298D01*
X80737833Y-36687373D01*
X80634549Y-36438022D01*
X80583684Y-36315224D01*
X80505100Y-35920156D01*
X80505100Y-35517344D01*
X80583684Y-35122276D01*
X80705438Y-34828336D01*
X80737833Y-34750127D01*
X80961623Y-34415202D01*
X81246452Y-34130373D01*
X81581377Y-33906583D01*
X81771183Y-33827963D01*
X81953526Y-33752434D01*
X82348594Y-33673850D01*
X82751406Y-33673850D01*
X83146474Y-33752434D01*
X83146474Y-33752434D01*
G37*
G36*
X45046474Y-33752434D02*
G01*
X45228817Y-33827963D01*
X45418623Y-33906583D01*
X45753548Y-34130373D01*
X46038377Y-34415202D01*
X46262167Y-34750127D01*
X46294562Y-34828336D01*
X46416316Y-35122276D01*
X46494900Y-35517344D01*
X46494900Y-35920156D01*
X46416316Y-36315224D01*
X46365451Y-36438022D01*
X46262167Y-36687373D01*
X46038377Y-37022298D01*
X45753548Y-37307127D01*
X45418623Y-37530917D01*
X45264474Y-37594767D01*
X45046474Y-37685066D01*
X44651406Y-37763650D01*
X44248594Y-37763650D01*
X43853526Y-37685066D01*
X43635526Y-37594767D01*
X43481377Y-37530917D01*
X43146452Y-37307127D01*
X42861623Y-37022298D01*
X42637833Y-36687373D01*
X42534549Y-36438022D01*
X42483684Y-36315224D01*
X42405100Y-35920156D01*
X42405100Y-35517344D01*
X42483684Y-35122276D01*
X42605438Y-34828336D01*
X42637833Y-34750127D01*
X42861623Y-34415202D01*
X43146452Y-34130373D01*
X43481377Y-33906583D01*
X43671183Y-33827963D01*
X43853526Y-33752434D01*
X44248594Y-33673850D01*
X44651406Y-33673850D01*
X45046474Y-33752434D01*
X45046474Y-33752434D01*
G37*
G36*
X64096474Y-33752434D02*
G01*
X64278817Y-33827963D01*
X64468623Y-33906583D01*
X64803548Y-34130373D01*
X65088377Y-34415202D01*
X65312167Y-34750127D01*
X65344562Y-34828336D01*
X65466316Y-35122276D01*
X65544900Y-35517344D01*
X65544900Y-35920156D01*
X65466316Y-36315224D01*
X65415451Y-36438022D01*
X65312167Y-36687373D01*
X65088377Y-37022298D01*
X64803548Y-37307127D01*
X64468623Y-37530917D01*
X64314474Y-37594767D01*
X64096474Y-37685066D01*
X63701406Y-37763650D01*
X63298594Y-37763650D01*
X62903526Y-37685066D01*
X62685526Y-37594767D01*
X62531377Y-37530917D01*
X62196452Y-37307127D01*
X61911623Y-37022298D01*
X61687833Y-36687373D01*
X61584549Y-36438022D01*
X61533684Y-36315224D01*
X61455100Y-35920156D01*
X61455100Y-35517344D01*
X61533684Y-35122276D01*
X61655438Y-34828336D01*
X61687833Y-34750127D01*
X61911623Y-34415202D01*
X62196452Y-34130373D01*
X62531377Y-33906583D01*
X62721183Y-33827963D01*
X62903526Y-33752434D01*
X63298594Y-33673850D01*
X63701406Y-33673850D01*
X64096474Y-33752434D01*
X64096474Y-33752434D01*
G37*
G36*
X77740104Y-34828335D02*
G01*
X77908626Y-34898139D01*
X78060291Y-34999478D01*
X78189272Y-35128459D01*
X78290611Y-35280124D01*
X78360415Y-35448646D01*
X78396000Y-35627547D01*
X78396000Y-35809953D01*
X78360415Y-35988854D01*
X78290611Y-36157376D01*
X78189272Y-36309041D01*
X78060291Y-36438022D01*
X77908626Y-36539361D01*
X77740104Y-36609165D01*
X77561203Y-36644750D01*
X77378797Y-36644750D01*
X77199896Y-36609165D01*
X77031374Y-36539361D01*
X76879709Y-36438022D01*
X76750728Y-36309041D01*
X76649389Y-36157376D01*
X76579585Y-35988854D01*
X76544000Y-35809953D01*
X76544000Y-35627547D01*
X76579585Y-35448646D01*
X76649389Y-35280124D01*
X76750728Y-35128459D01*
X76879709Y-34999478D01*
X77031374Y-34898139D01*
X77199896Y-34828335D01*
X77378797Y-34792750D01*
X77561203Y-34792750D01*
X77740104Y-34828335D01*
X77740104Y-34828335D01*
G37*
G36*
X106950104Y-34828335D02*
G01*
X107118626Y-34898139D01*
X107270291Y-34999478D01*
X107399272Y-35128459D01*
X107500611Y-35280124D01*
X107570415Y-35448646D01*
X107606000Y-35627547D01*
X107606000Y-35809953D01*
X107570415Y-35988854D01*
X107500611Y-36157376D01*
X107399272Y-36309041D01*
X107270291Y-36438022D01*
X107118626Y-36539361D01*
X106950104Y-36609165D01*
X106771203Y-36644750D01*
X106588797Y-36644750D01*
X106409896Y-36609165D01*
X106241374Y-36539361D01*
X106089709Y-36438022D01*
X105960728Y-36309041D01*
X105859389Y-36157376D01*
X105789585Y-35988854D01*
X105754000Y-35809953D01*
X105754000Y-35627547D01*
X105789585Y-35448646D01*
X105859389Y-35280124D01*
X105960728Y-35128459D01*
X106089709Y-34999478D01*
X106241374Y-34898139D01*
X106409896Y-34828335D01*
X106588797Y-34792750D01*
X106771203Y-34792750D01*
X106950104Y-34828335D01*
X106950104Y-34828335D01*
G37*
G36*
X96790104Y-34828335D02*
G01*
X96958626Y-34898139D01*
X97110291Y-34999478D01*
X97239272Y-35128459D01*
X97340611Y-35280124D01*
X97410415Y-35448646D01*
X97446000Y-35627547D01*
X97446000Y-35809953D01*
X97410415Y-35988854D01*
X97340611Y-36157376D01*
X97239272Y-36309041D01*
X97110291Y-36438022D01*
X96958626Y-36539361D01*
X96790104Y-36609165D01*
X96611203Y-36644750D01*
X96428797Y-36644750D01*
X96249896Y-36609165D01*
X96081374Y-36539361D01*
X95929709Y-36438022D01*
X95800728Y-36309041D01*
X95699389Y-36157376D01*
X95629585Y-35988854D01*
X95594000Y-35809953D01*
X95594000Y-35627547D01*
X95629585Y-35448646D01*
X95699389Y-35280124D01*
X95800728Y-35128459D01*
X95929709Y-34999478D01*
X96081374Y-34898139D01*
X96249896Y-34828335D01*
X96428797Y-34792750D01*
X96611203Y-34792750D01*
X96790104Y-34828335D01*
X96790104Y-34828335D01*
G37*
G36*
X153940104Y-34828335D02*
G01*
X154108626Y-34898139D01*
X154260291Y-34999478D01*
X154389272Y-35128459D01*
X154490611Y-35280124D01*
X154560415Y-35448646D01*
X154596000Y-35627547D01*
X154596000Y-35809953D01*
X154560415Y-35988854D01*
X154490611Y-36157376D01*
X154389272Y-36309041D01*
X154260291Y-36438022D01*
X154108626Y-36539361D01*
X153940104Y-36609165D01*
X153761203Y-36644750D01*
X153578797Y-36644750D01*
X153399896Y-36609165D01*
X153231374Y-36539361D01*
X153079709Y-36438022D01*
X152950728Y-36309041D01*
X152849389Y-36157376D01*
X152779585Y-35988854D01*
X152744000Y-35809953D01*
X152744000Y-35627547D01*
X152779585Y-35448646D01*
X152849389Y-35280124D01*
X152950728Y-35128459D01*
X153079709Y-34999478D01*
X153231374Y-34898139D01*
X153399896Y-34828335D01*
X153578797Y-34792750D01*
X153761203Y-34792750D01*
X153940104Y-34828335D01*
X153940104Y-34828335D01*
G37*
G36*
X172990104Y-34828335D02*
G01*
X173158626Y-34898139D01*
X173310291Y-34999478D01*
X173439272Y-35128459D01*
X173540611Y-35280124D01*
X173610415Y-35448646D01*
X173646000Y-35627547D01*
X173646000Y-35809953D01*
X173610415Y-35988854D01*
X173540611Y-36157376D01*
X173439272Y-36309041D01*
X173310291Y-36438022D01*
X173158626Y-36539361D01*
X172990104Y-36609165D01*
X172811203Y-36644750D01*
X172628797Y-36644750D01*
X172449896Y-36609165D01*
X172281374Y-36539361D01*
X172129709Y-36438022D01*
X172000728Y-36309041D01*
X171899389Y-36157376D01*
X171829585Y-35988854D01*
X171794000Y-35809953D01*
X171794000Y-35627547D01*
X171829585Y-35448646D01*
X171899389Y-35280124D01*
X172000728Y-35128459D01*
X172129709Y-34999478D01*
X172281374Y-34898139D01*
X172449896Y-34828335D01*
X172628797Y-34792750D01*
X172811203Y-34792750D01*
X172990104Y-34828335D01*
X172990104Y-34828335D01*
G37*
G36*
X183150104Y-34828335D02*
G01*
X183318626Y-34898139D01*
X183470291Y-34999478D01*
X183599272Y-35128459D01*
X183700611Y-35280124D01*
X183770415Y-35448646D01*
X183806000Y-35627547D01*
X183806000Y-35809953D01*
X183770415Y-35988854D01*
X183700611Y-36157376D01*
X183599272Y-36309041D01*
X183470291Y-36438022D01*
X183318626Y-36539361D01*
X183150104Y-36609165D01*
X182971203Y-36644750D01*
X182788797Y-36644750D01*
X182609896Y-36609165D01*
X182441374Y-36539361D01*
X182289709Y-36438022D01*
X182160728Y-36309041D01*
X182059389Y-36157376D01*
X181989585Y-35988854D01*
X181954000Y-35809953D01*
X181954000Y-35627547D01*
X181989585Y-35448646D01*
X182059389Y-35280124D01*
X182160728Y-35128459D01*
X182289709Y-34999478D01*
X182441374Y-34898139D01*
X182609896Y-34828335D01*
X182788797Y-34792750D01*
X182971203Y-34792750D01*
X183150104Y-34828335D01*
X183150104Y-34828335D01*
G37*
G36*
X202200104Y-34828335D02*
G01*
X202368626Y-34898139D01*
X202520291Y-34999478D01*
X202649272Y-35128459D01*
X202750611Y-35280124D01*
X202820415Y-35448646D01*
X202856000Y-35627547D01*
X202856000Y-35809953D01*
X202820415Y-35988854D01*
X202750611Y-36157376D01*
X202649272Y-36309041D01*
X202520291Y-36438022D01*
X202368626Y-36539361D01*
X202200104Y-36609165D01*
X202021203Y-36644750D01*
X201838797Y-36644750D01*
X201659896Y-36609165D01*
X201491374Y-36539361D01*
X201339709Y-36438022D01*
X201210728Y-36309041D01*
X201109389Y-36157376D01*
X201039585Y-35988854D01*
X201004000Y-35809953D01*
X201004000Y-35627547D01*
X201039585Y-35448646D01*
X201109389Y-35280124D01*
X201210728Y-35128459D01*
X201339709Y-34999478D01*
X201491374Y-34898139D01*
X201659896Y-34828335D01*
X201838797Y-34792750D01*
X202021203Y-34792750D01*
X202200104Y-34828335D01*
X202200104Y-34828335D01*
G37*
G36*
X145050104Y-34828335D02*
G01*
X145218626Y-34898139D01*
X145370291Y-34999478D01*
X145499272Y-35128459D01*
X145600611Y-35280124D01*
X145670415Y-35448646D01*
X145706000Y-35627547D01*
X145706000Y-35809953D01*
X145670415Y-35988854D01*
X145600611Y-36157376D01*
X145499272Y-36309041D01*
X145370291Y-36438022D01*
X145218626Y-36539361D01*
X145050104Y-36609165D01*
X144871203Y-36644750D01*
X144688797Y-36644750D01*
X144509896Y-36609165D01*
X144341374Y-36539361D01*
X144189709Y-36438022D01*
X144060728Y-36309041D01*
X143959389Y-36157376D01*
X143889585Y-35988854D01*
X143854000Y-35809953D01*
X143854000Y-35627547D01*
X143889585Y-35448646D01*
X143959389Y-35280124D01*
X144060728Y-35128459D01*
X144189709Y-34999478D01*
X144341374Y-34898139D01*
X144509896Y-34828335D01*
X144688797Y-34792750D01*
X144871203Y-34792750D01*
X145050104Y-34828335D01*
X145050104Y-34828335D01*
G37*
G36*
X134890104Y-34828335D02*
G01*
X135058626Y-34898139D01*
X135210291Y-34999478D01*
X135339272Y-35128459D01*
X135440611Y-35280124D01*
X135510415Y-35448646D01*
X135546000Y-35627547D01*
X135546000Y-35809953D01*
X135510415Y-35988854D01*
X135440611Y-36157376D01*
X135339272Y-36309041D01*
X135210291Y-36438022D01*
X135058626Y-36539361D01*
X134890104Y-36609165D01*
X134711203Y-36644750D01*
X134528797Y-36644750D01*
X134349896Y-36609165D01*
X134181374Y-36539361D01*
X134029709Y-36438022D01*
X133900728Y-36309041D01*
X133799389Y-36157376D01*
X133729585Y-35988854D01*
X133694000Y-35809953D01*
X133694000Y-35627547D01*
X133729585Y-35448646D01*
X133799389Y-35280124D01*
X133900728Y-35128459D01*
X134029709Y-34999478D01*
X134181374Y-34898139D01*
X134349896Y-34828335D01*
X134528797Y-34792750D01*
X134711203Y-34792750D01*
X134890104Y-34828335D01*
X134890104Y-34828335D01*
G37*
G36*
X192040104Y-34828335D02*
G01*
X192208626Y-34898139D01*
X192360291Y-34999478D01*
X192489272Y-35128459D01*
X192590611Y-35280124D01*
X192660415Y-35448646D01*
X192696000Y-35627547D01*
X192696000Y-35809953D01*
X192660415Y-35988854D01*
X192590611Y-36157376D01*
X192489272Y-36309041D01*
X192360291Y-36438022D01*
X192208626Y-36539361D01*
X192040104Y-36609165D01*
X191861203Y-36644750D01*
X191678797Y-36644750D01*
X191499896Y-36609165D01*
X191331374Y-36539361D01*
X191179709Y-36438022D01*
X191050728Y-36309041D01*
X190949389Y-36157376D01*
X190879585Y-35988854D01*
X190844000Y-35809953D01*
X190844000Y-35627547D01*
X190879585Y-35448646D01*
X190949389Y-35280124D01*
X191050728Y-35128459D01*
X191179709Y-34999478D01*
X191331374Y-34898139D01*
X191499896Y-34828335D01*
X191678797Y-34792750D01*
X191861203Y-34792750D01*
X192040104Y-34828335D01*
X192040104Y-34828335D01*
G37*
G36*
X39640104Y-34828335D02*
G01*
X39808626Y-34898139D01*
X39960291Y-34999478D01*
X40089272Y-35128459D01*
X40190611Y-35280124D01*
X40260415Y-35448646D01*
X40296000Y-35627547D01*
X40296000Y-35809953D01*
X40260415Y-35988854D01*
X40190611Y-36157376D01*
X40089272Y-36309041D01*
X39960291Y-36438022D01*
X39808626Y-36539361D01*
X39640104Y-36609165D01*
X39461203Y-36644750D01*
X39278797Y-36644750D01*
X39099896Y-36609165D01*
X38931374Y-36539361D01*
X38779709Y-36438022D01*
X38650728Y-36309041D01*
X38549389Y-36157376D01*
X38479585Y-35988854D01*
X38444000Y-35809953D01*
X38444000Y-35627547D01*
X38479585Y-35448646D01*
X38549389Y-35280124D01*
X38650728Y-35128459D01*
X38779709Y-34999478D01*
X38931374Y-34898139D01*
X39099896Y-34828335D01*
X39278797Y-34792750D01*
X39461203Y-34792750D01*
X39640104Y-34828335D01*
X39640104Y-34828335D01*
G37*
G36*
X126000104Y-34828335D02*
G01*
X126168626Y-34898139D01*
X126320291Y-34999478D01*
X126449272Y-35128459D01*
X126550611Y-35280124D01*
X126620415Y-35448646D01*
X126656000Y-35627547D01*
X126656000Y-35809953D01*
X126620415Y-35988854D01*
X126550611Y-36157376D01*
X126449272Y-36309041D01*
X126320291Y-36438022D01*
X126168626Y-36539361D01*
X126000104Y-36609165D01*
X125821203Y-36644750D01*
X125638797Y-36644750D01*
X125459896Y-36609165D01*
X125291374Y-36539361D01*
X125139709Y-36438022D01*
X125010728Y-36309041D01*
X124909389Y-36157376D01*
X124839585Y-35988854D01*
X124804000Y-35809953D01*
X124804000Y-35627547D01*
X124839585Y-35448646D01*
X124909389Y-35280124D01*
X125010728Y-35128459D01*
X125139709Y-34999478D01*
X125291374Y-34898139D01*
X125459896Y-34828335D01*
X125638797Y-34792750D01*
X125821203Y-34792750D01*
X126000104Y-34828335D01*
X126000104Y-34828335D01*
G37*
G36*
X115840104Y-34828335D02*
G01*
X116008626Y-34898139D01*
X116160291Y-34999478D01*
X116289272Y-35128459D01*
X116390611Y-35280124D01*
X116460415Y-35448646D01*
X116496000Y-35627547D01*
X116496000Y-35809953D01*
X116460415Y-35988854D01*
X116390611Y-36157376D01*
X116289272Y-36309041D01*
X116160291Y-36438022D01*
X116008626Y-36539361D01*
X115840104Y-36609165D01*
X115661203Y-36644750D01*
X115478797Y-36644750D01*
X115299896Y-36609165D01*
X115131374Y-36539361D01*
X114979709Y-36438022D01*
X114850728Y-36309041D01*
X114749389Y-36157376D01*
X114679585Y-35988854D01*
X114644000Y-35809953D01*
X114644000Y-35627547D01*
X114679585Y-35448646D01*
X114749389Y-35280124D01*
X114850728Y-35128459D01*
X114979709Y-34999478D01*
X115131374Y-34898139D01*
X115299896Y-34828335D01*
X115478797Y-34792750D01*
X115661203Y-34792750D01*
X115840104Y-34828335D01*
X115840104Y-34828335D01*
G37*
G36*
X49800104Y-34828335D02*
G01*
X49968626Y-34898139D01*
X50120291Y-34999478D01*
X50249272Y-35128459D01*
X50350611Y-35280124D01*
X50420415Y-35448646D01*
X50456000Y-35627547D01*
X50456000Y-35809953D01*
X50420415Y-35988854D01*
X50350611Y-36157376D01*
X50249272Y-36309041D01*
X50120291Y-36438022D01*
X49968626Y-36539361D01*
X49800104Y-36609165D01*
X49621203Y-36644750D01*
X49438797Y-36644750D01*
X49259896Y-36609165D01*
X49091374Y-36539361D01*
X48939709Y-36438022D01*
X48810728Y-36309041D01*
X48709389Y-36157376D01*
X48639585Y-35988854D01*
X48604000Y-35809953D01*
X48604000Y-35627547D01*
X48639585Y-35448646D01*
X48709389Y-35280124D01*
X48810728Y-35128459D01*
X48939709Y-34999478D01*
X49091374Y-34898139D01*
X49259896Y-34828335D01*
X49438797Y-34792750D01*
X49621203Y-34792750D01*
X49800104Y-34828335D01*
X49800104Y-34828335D01*
G37*
G36*
X211090104Y-34828335D02*
G01*
X211258626Y-34898139D01*
X211410291Y-34999478D01*
X211539272Y-35128459D01*
X211640611Y-35280124D01*
X211710415Y-35448646D01*
X211746000Y-35627547D01*
X211746000Y-35809953D01*
X211710415Y-35988854D01*
X211640611Y-36157376D01*
X211539272Y-36309041D01*
X211410291Y-36438022D01*
X211258626Y-36539361D01*
X211090104Y-36609165D01*
X210911203Y-36644750D01*
X210728797Y-36644750D01*
X210549896Y-36609165D01*
X210381374Y-36539361D01*
X210229709Y-36438022D01*
X210100728Y-36309041D01*
X209999389Y-36157376D01*
X209929585Y-35988854D01*
X209894000Y-35809953D01*
X209894000Y-35627547D01*
X209929585Y-35448646D01*
X209999389Y-35280124D01*
X210100728Y-35128459D01*
X210229709Y-34999478D01*
X210381374Y-34898139D01*
X210549896Y-34828335D01*
X210728797Y-34792750D01*
X210911203Y-34792750D01*
X211090104Y-34828335D01*
X211090104Y-34828335D01*
G37*
G36*
X221250104Y-34828335D02*
G01*
X221418626Y-34898139D01*
X221570291Y-34999478D01*
X221699272Y-35128459D01*
X221800611Y-35280124D01*
X221870415Y-35448646D01*
X221906000Y-35627547D01*
X221906000Y-35809953D01*
X221870415Y-35988854D01*
X221800611Y-36157376D01*
X221699272Y-36309041D01*
X221570291Y-36438022D01*
X221418626Y-36539361D01*
X221250104Y-36609165D01*
X221071203Y-36644750D01*
X220888797Y-36644750D01*
X220709896Y-36609165D01*
X220541374Y-36539361D01*
X220389709Y-36438022D01*
X220260728Y-36309041D01*
X220159389Y-36157376D01*
X220089585Y-35988854D01*
X220054000Y-35809953D01*
X220054000Y-35627547D01*
X220089585Y-35448646D01*
X220159389Y-35280124D01*
X220260728Y-35128459D01*
X220389709Y-34999478D01*
X220541374Y-34898139D01*
X220709896Y-34828335D01*
X220888797Y-34792750D01*
X221071203Y-34792750D01*
X221250104Y-34828335D01*
X221250104Y-34828335D01*
G37*
G36*
X58690104Y-34828335D02*
G01*
X58858626Y-34898139D01*
X59010291Y-34999478D01*
X59139272Y-35128459D01*
X59240611Y-35280124D01*
X59310415Y-35448646D01*
X59346000Y-35627547D01*
X59346000Y-35809953D01*
X59310415Y-35988854D01*
X59240611Y-36157376D01*
X59139272Y-36309041D01*
X59010291Y-36438022D01*
X58858626Y-36539361D01*
X58690104Y-36609165D01*
X58511203Y-36644750D01*
X58328797Y-36644750D01*
X58149896Y-36609165D01*
X57981374Y-36539361D01*
X57829709Y-36438022D01*
X57700728Y-36309041D01*
X57599389Y-36157376D01*
X57529585Y-35988854D01*
X57494000Y-35809953D01*
X57494000Y-35627547D01*
X57529585Y-35448646D01*
X57599389Y-35280124D01*
X57700728Y-35128459D01*
X57829709Y-34999478D01*
X57981374Y-34898139D01*
X58149896Y-34828335D01*
X58328797Y-34792750D01*
X58511203Y-34792750D01*
X58690104Y-34828335D01*
X58690104Y-34828335D01*
G37*
G36*
X87900104Y-34828335D02*
G01*
X88068626Y-34898139D01*
X88220291Y-34999478D01*
X88349272Y-35128459D01*
X88450611Y-35280124D01*
X88520415Y-35448646D01*
X88556000Y-35627547D01*
X88556000Y-35809953D01*
X88520415Y-35988854D01*
X88450611Y-36157376D01*
X88349272Y-36309041D01*
X88220291Y-36438022D01*
X88068626Y-36539361D01*
X87900104Y-36609165D01*
X87721203Y-36644750D01*
X87538797Y-36644750D01*
X87359896Y-36609165D01*
X87191374Y-36539361D01*
X87039709Y-36438022D01*
X86910728Y-36309041D01*
X86809389Y-36157376D01*
X86739585Y-35988854D01*
X86704000Y-35809953D01*
X86704000Y-35627547D01*
X86739585Y-35448646D01*
X86809389Y-35280124D01*
X86910728Y-35128459D01*
X87039709Y-34999478D01*
X87191374Y-34898139D01*
X87359896Y-34828335D01*
X87538797Y-34792750D01*
X87721203Y-34792750D01*
X87900104Y-34828335D01*
X87900104Y-34828335D01*
G37*
G36*
X68850104Y-34828335D02*
G01*
X69018626Y-34898139D01*
X69170291Y-34999478D01*
X69299272Y-35128459D01*
X69400611Y-35280124D01*
X69470415Y-35448646D01*
X69506000Y-35627547D01*
X69506000Y-35809953D01*
X69470415Y-35988854D01*
X69400611Y-36157376D01*
X69299272Y-36309041D01*
X69170291Y-36438022D01*
X69018626Y-36539361D01*
X68850104Y-36609165D01*
X68671203Y-36644750D01*
X68488797Y-36644750D01*
X68309896Y-36609165D01*
X68141374Y-36539361D01*
X67989709Y-36438022D01*
X67860728Y-36309041D01*
X67759389Y-36157376D01*
X67689585Y-35988854D01*
X67654000Y-35809953D01*
X67654000Y-35627547D01*
X67689585Y-35448646D01*
X67759389Y-35280124D01*
X67860728Y-35128459D01*
X67989709Y-34999478D01*
X68141374Y-34898139D01*
X68309896Y-34828335D01*
X68488797Y-34792750D01*
X68671203Y-34792750D01*
X68850104Y-34828335D01*
X68850104Y-34828335D01*
G37*
G36*
X164100104Y-34828335D02*
G01*
X164268626Y-34898139D01*
X164420291Y-34999478D01*
X164549272Y-35128459D01*
X164650611Y-35280124D01*
X164720415Y-35448646D01*
X164756000Y-35627547D01*
X164756000Y-35809953D01*
X164720415Y-35988854D01*
X164650611Y-36157376D01*
X164549272Y-36309041D01*
X164420291Y-36438022D01*
X164268626Y-36539361D01*
X164100104Y-36609165D01*
X163921203Y-36644750D01*
X163738797Y-36644750D01*
X163559896Y-36609165D01*
X163391374Y-36539361D01*
X163239709Y-36438022D01*
X163110728Y-36309041D01*
X163009389Y-36157376D01*
X162939585Y-35988854D01*
X162904000Y-35809953D01*
X162904000Y-35627547D01*
X162939585Y-35448646D01*
X163009389Y-35280124D01*
X163110728Y-35128459D01*
X163239709Y-34999478D01*
X163391374Y-34898139D01*
X163559896Y-34828335D01*
X163738797Y-34792750D01*
X163921203Y-34792750D01*
X164100104Y-34828335D01*
X164100104Y-34828335D01*
G37*
G36*
X235728627Y-31052037D02*
G01*
X235898466Y-31103557D01*
X236054991Y-31187222D01*
X236090729Y-31216552D01*
X236192186Y-31299814D01*
X236275448Y-31401271D01*
X236304778Y-31437009D01*
X236388443Y-31593534D01*
X236439963Y-31763373D01*
X236453000Y-31895742D01*
X236453000Y-32984258D01*
X236439963Y-33116627D01*
X236388443Y-33286466D01*
X236304778Y-33442991D01*
X236275448Y-33478729D01*
X236192186Y-33580186D01*
X236054989Y-33692779D01*
X235898467Y-33776442D01*
X235898465Y-33776443D01*
X235728626Y-33827963D01*
X235552000Y-33845359D01*
X235375373Y-33827963D01*
X235205534Y-33776443D01*
X235160619Y-33752435D01*
X235049011Y-33692779D01*
X235049009Y-33692778D01*
X235013271Y-33663448D01*
X234911814Y-33580186D01*
X234799221Y-33442989D01*
X234715558Y-33286467D01*
X234715557Y-33286465D01*
X234664037Y-33116626D01*
X234651000Y-32984257D01*
X234651001Y-31895742D01*
X234664038Y-31763373D01*
X234715558Y-31593534D01*
X234799223Y-31437009D01*
X234828553Y-31401271D01*
X234911815Y-31299814D01*
X235013272Y-31216552D01*
X235049010Y-31187222D01*
X235205535Y-31103557D01*
X235375374Y-31052037D01*
X235552000Y-31034641D01*
X235728627Y-31052037D01*
X235728627Y-31052037D01*
G37*
G36*
X228428627Y-31052037D02*
G01*
X228598466Y-31103557D01*
X228754991Y-31187222D01*
X228790729Y-31216552D01*
X228892186Y-31299814D01*
X228975448Y-31401271D01*
X229004778Y-31437009D01*
X229088443Y-31593534D01*
X229139963Y-31763373D01*
X229153000Y-31895742D01*
X229153000Y-32984258D01*
X229139963Y-33116627D01*
X229088443Y-33286466D01*
X229004778Y-33442991D01*
X228975448Y-33478729D01*
X228892186Y-33580186D01*
X228754989Y-33692779D01*
X228598467Y-33776442D01*
X228598465Y-33776443D01*
X228428626Y-33827963D01*
X228252000Y-33845359D01*
X228075373Y-33827963D01*
X227905534Y-33776443D01*
X227860619Y-33752435D01*
X227749011Y-33692779D01*
X227749009Y-33692778D01*
X227713271Y-33663448D01*
X227611814Y-33580186D01*
X227499221Y-33442989D01*
X227415558Y-33286467D01*
X227415557Y-33286465D01*
X227364037Y-33116626D01*
X227351000Y-32984257D01*
X227351001Y-31895742D01*
X227364038Y-31763373D01*
X227415558Y-31593534D01*
X227499223Y-31437009D01*
X227528553Y-31401271D01*
X227611815Y-31299814D01*
X227713272Y-31216552D01*
X227749010Y-31187222D01*
X227905535Y-31103557D01*
X228075374Y-31052037D01*
X228252000Y-31034641D01*
X228428627Y-31052037D01*
X228428627Y-31052037D01*
G37*
G36*
X235728627Y-26552037D02*
G01*
X235898466Y-26603557D01*
X236054991Y-26687222D01*
X236090729Y-26716552D01*
X236192186Y-26799814D01*
X236275448Y-26901271D01*
X236304778Y-26937009D01*
X236388443Y-27093534D01*
X236439963Y-27263373D01*
X236453000Y-27395742D01*
X236453000Y-28484258D01*
X236439963Y-28616627D01*
X236388443Y-28786466D01*
X236304778Y-28942991D01*
X236275448Y-28978729D01*
X236192186Y-29080186D01*
X236054989Y-29192779D01*
X235898467Y-29276442D01*
X235898465Y-29276443D01*
X235728626Y-29327963D01*
X235552000Y-29345359D01*
X235375373Y-29327963D01*
X235205534Y-29276443D01*
X235049009Y-29192778D01*
X235013271Y-29163448D01*
X234911814Y-29080186D01*
X234799221Y-28942989D01*
X234715558Y-28786467D01*
X234715557Y-28786465D01*
X234664037Y-28616626D01*
X234651000Y-28484257D01*
X234651001Y-27395742D01*
X234664038Y-27263373D01*
X234715558Y-27093534D01*
X234799223Y-26937009D01*
X234828553Y-26901271D01*
X234911815Y-26799814D01*
X235013272Y-26716552D01*
X235049010Y-26687222D01*
X235205535Y-26603557D01*
X235375374Y-26552037D01*
X235552000Y-26534641D01*
X235728627Y-26552037D01*
X235728627Y-26552037D01*
G37*
G36*
X228428627Y-26552037D02*
G01*
X228598466Y-26603557D01*
X228754991Y-26687222D01*
X228790729Y-26716552D01*
X228892186Y-26799814D01*
X228975448Y-26901271D01*
X229004778Y-26937009D01*
X229088443Y-27093534D01*
X229139963Y-27263373D01*
X229153000Y-27395742D01*
X229153000Y-28484258D01*
X229139963Y-28616627D01*
X229088443Y-28786466D01*
X229004778Y-28942991D01*
X228975448Y-28978729D01*
X228892186Y-29080186D01*
X228754989Y-29192779D01*
X228598467Y-29276442D01*
X228598465Y-29276443D01*
X228428626Y-29327963D01*
X228252000Y-29345359D01*
X228075373Y-29327963D01*
X227905534Y-29276443D01*
X227749009Y-29192778D01*
X227713271Y-29163448D01*
X227611814Y-29080186D01*
X227499221Y-28942989D01*
X227415558Y-28786467D01*
X227415557Y-28786465D01*
X227364037Y-28616626D01*
X227351000Y-28484257D01*
X227351001Y-27395742D01*
X227364038Y-27263373D01*
X227415558Y-27093534D01*
X227499223Y-26937009D01*
X227528553Y-26901271D01*
X227611815Y-26799814D01*
X227713272Y-26716552D01*
X227749010Y-26687222D01*
X227905535Y-26603557D01*
X228075374Y-26552037D01*
X228252000Y-26534641D01*
X228428627Y-26552037D01*
X228428627Y-26552037D01*
G37*
M02*
