G04 #@! TF.GenerationSoftware,KiCad,Pcbnew,8.0.6*
G04 #@! TF.CreationDate,2024-11-15T12:23:49-07:00*
G04 #@! TF.ProjectId,kicadNEWXboard,6b696361-644e-4455-9758-626f6172642e,rev?*
G04 #@! TF.SameCoordinates,Original*
G04 #@! TF.FileFunction,Legend,Top*
G04 #@! TF.FilePolarity,Positive*
%FSLAX46Y46*%
G04 Gerber Fmt 4.6, Leading zero omitted, Abs format (unit mm)*
G04 Created by KiCad (PCBNEW 8.0.6) date 2024-11-15 12:23:49*
%MOMM*%
%LPD*%
G01*
G04 APERTURE LIST*
%ADD10C,7.500000*%
%ADD11C,1.701800*%
%ADD12C,3.000000*%
%ADD13C,3.987800*%
%ADD14O,1.700000X2.700000*%
G04 APERTURE END LIST*
D10*
X37470552Y-61410840D02*
X40994361Y-62839411D01*
X40994361Y-62839411D02*
X48041980Y-62839411D01*
X48041980Y-62839411D02*
X51565790Y-61410840D01*
X51565790Y-61410840D02*
X53327694Y-58553697D01*
X53327694Y-58553697D02*
X53327694Y-57125125D01*
X53327694Y-57125125D02*
X51565790Y-54267982D01*
X51565790Y-54267982D02*
X48041980Y-52839411D01*
X48041980Y-52839411D02*
X42756266Y-52839411D01*
X42756266Y-52839411D02*
X39232456Y-51410840D01*
X39232456Y-51410840D02*
X37470552Y-48553697D01*
X37470552Y-48553697D02*
X37470552Y-47125125D01*
X37470552Y-47125125D02*
X39232456Y-44267982D01*
X39232456Y-44267982D02*
X42756266Y-42839411D01*
X42756266Y-42839411D02*
X48041980Y-42839411D01*
X48041980Y-42839411D02*
X51565790Y-44267982D01*
X74470552Y-62839411D02*
X70946742Y-61410840D01*
X70946742Y-61410840D02*
X69184837Y-59982268D01*
X69184837Y-59982268D02*
X67422933Y-57125125D01*
X67422933Y-57125125D02*
X67422933Y-48553697D01*
X67422933Y-48553697D02*
X69184837Y-45696554D01*
X69184837Y-45696554D02*
X70946742Y-44267982D01*
X70946742Y-44267982D02*
X74470552Y-42839411D01*
X74470552Y-42839411D02*
X79756266Y-42839411D01*
X79756266Y-42839411D02*
X83280075Y-44267982D01*
X83280075Y-44267982D02*
X85041980Y-45696554D01*
X85041980Y-45696554D02*
X86803885Y-48553697D01*
X86803885Y-48553697D02*
X86803885Y-57125125D01*
X86803885Y-57125125D02*
X85041980Y-59982268D01*
X85041980Y-59982268D02*
X83280075Y-61410840D01*
X83280075Y-61410840D02*
X79756266Y-62839411D01*
X79756266Y-62839411D02*
X74470552Y-62839411D01*
X144946741Y-61410840D02*
X141422932Y-62839411D01*
X141422932Y-62839411D02*
X134375313Y-62839411D01*
X134375313Y-62839411D02*
X130851503Y-61410840D01*
X130851503Y-61410840D02*
X129089599Y-58553697D01*
X129089599Y-58553697D02*
X129089599Y-47125125D01*
X129089599Y-47125125D02*
X130851503Y-44267982D01*
X130851503Y-44267982D02*
X134375313Y-42839411D01*
X134375313Y-42839411D02*
X141422932Y-42839411D01*
X141422932Y-42839411D02*
X144946741Y-44267982D01*
X144946741Y-44267982D02*
X146708646Y-47125125D01*
X146708646Y-47125125D02*
X146708646Y-49982268D01*
X146708646Y-49982268D02*
X129089599Y-52839411D01*
X162565789Y-42839411D02*
X162565789Y-72839411D01*
X162565789Y-44267982D02*
X166089599Y-42839411D01*
X166089599Y-42839411D02*
X173137218Y-42839411D01*
X173137218Y-42839411D02*
X176661027Y-44267982D01*
X176661027Y-44267982D02*
X178422932Y-45696554D01*
X178422932Y-45696554D02*
X180184837Y-48553697D01*
X180184837Y-48553697D02*
X180184837Y-57125125D01*
X180184837Y-57125125D02*
X178422932Y-59982268D01*
X178422932Y-59982268D02*
X176661027Y-61410840D01*
X176661027Y-61410840D02*
X173137218Y-62839411D01*
X173137218Y-62839411D02*
X166089599Y-62839411D01*
X166089599Y-62839411D02*
X162565789Y-61410840D01*
X196041979Y-62839411D02*
X196041979Y-42839411D01*
X196041979Y-32839411D02*
X194280075Y-34267982D01*
X194280075Y-34267982D02*
X196041979Y-35696554D01*
X196041979Y-35696554D02*
X197803884Y-34267982D01*
X197803884Y-34267982D02*
X196041979Y-32839411D01*
X196041979Y-32839411D02*
X196041979Y-35696554D01*
X229518170Y-61410840D02*
X225994361Y-62839411D01*
X225994361Y-62839411D02*
X218946742Y-62839411D01*
X218946742Y-62839411D02*
X215422932Y-61410840D01*
X215422932Y-61410840D02*
X213661027Y-59982268D01*
X213661027Y-59982268D02*
X211899123Y-57125125D01*
X211899123Y-57125125D02*
X211899123Y-48553697D01*
X211899123Y-48553697D02*
X213661027Y-45696554D01*
X213661027Y-45696554D02*
X215422932Y-44267982D01*
X215422932Y-44267982D02*
X218946742Y-42839411D01*
X218946742Y-42839411D02*
X225994361Y-42839411D01*
X225994361Y-42839411D02*
X229518170Y-44267982D01*
X49803886Y-111137731D02*
X49803886Y-81137731D01*
X49803886Y-92566302D02*
X53327696Y-91137731D01*
X53327696Y-91137731D02*
X60375315Y-91137731D01*
X60375315Y-91137731D02*
X63899124Y-92566302D01*
X63899124Y-92566302D02*
X65661029Y-93994874D01*
X65661029Y-93994874D02*
X67422934Y-96852017D01*
X67422934Y-96852017D02*
X67422934Y-105423445D01*
X67422934Y-105423445D02*
X65661029Y-108280588D01*
X65661029Y-108280588D02*
X63899124Y-109709160D01*
X63899124Y-109709160D02*
X60375315Y-111137731D01*
X60375315Y-111137731D02*
X53327696Y-111137731D01*
X53327696Y-111137731D02*
X49803886Y-109709160D01*
X83280076Y-111137731D02*
X83280076Y-91137731D01*
X83280076Y-96852017D02*
X85041981Y-93994874D01*
X85041981Y-93994874D02*
X86803886Y-92566302D01*
X86803886Y-92566302D02*
X90327695Y-91137731D01*
X90327695Y-91137731D02*
X93851505Y-91137731D01*
X122041981Y-111137731D02*
X122041981Y-95423445D01*
X122041981Y-95423445D02*
X120280076Y-92566302D01*
X120280076Y-92566302D02*
X116756267Y-91137731D01*
X116756267Y-91137731D02*
X109708648Y-91137731D01*
X109708648Y-91137731D02*
X106184838Y-92566302D01*
X122041981Y-109709160D02*
X118518172Y-111137731D01*
X118518172Y-111137731D02*
X109708648Y-111137731D01*
X109708648Y-111137731D02*
X106184838Y-109709160D01*
X106184838Y-109709160D02*
X104422934Y-106852017D01*
X104422934Y-106852017D02*
X104422934Y-103994874D01*
X104422934Y-103994874D02*
X106184838Y-101137731D01*
X106184838Y-101137731D02*
X109708648Y-99709160D01*
X109708648Y-99709160D02*
X118518172Y-99709160D01*
X118518172Y-99709160D02*
X122041981Y-98280588D01*
X139661028Y-111137731D02*
X139661028Y-81137731D01*
X155518171Y-111137731D02*
X155518171Y-95423445D01*
X155518171Y-95423445D02*
X153756266Y-92566302D01*
X153756266Y-92566302D02*
X150232457Y-91137731D01*
X150232457Y-91137731D02*
X144946743Y-91137731D01*
X144946743Y-91137731D02*
X141422933Y-92566302D01*
X141422933Y-92566302D02*
X139661028Y-93994874D01*
X196041980Y-91137731D02*
X210137218Y-91137731D01*
X201327694Y-111137731D02*
X201327694Y-85423445D01*
X201327694Y-85423445D02*
X203089599Y-82566302D01*
X203089599Y-82566302D02*
X206613409Y-81137731D01*
X206613409Y-81137731D02*
X210137218Y-81137731D01*
X222470551Y-111137731D02*
X222470551Y-91137731D01*
X222470551Y-96852017D02*
X224232456Y-93994874D01*
X224232456Y-93994874D02*
X225994361Y-92566302D01*
X225994361Y-92566302D02*
X229518170Y-91137731D01*
X229518170Y-91137731D02*
X233041980Y-91137731D01*
%LPC*%
D11*
X148907500Y-111918750D03*
D12*
X150177500Y-109378750D03*
D13*
X153987500Y-111918750D03*
D12*
X156527500Y-106838750D03*
D11*
X159067500Y-111918750D03*
X101282500Y-111918750D03*
D12*
X102552500Y-109378750D03*
D13*
X106362500Y-111918750D03*
D12*
X108902500Y-106838750D03*
D11*
X111442500Y-111918750D03*
X210820000Y-92868750D03*
D12*
X212090000Y-90328750D03*
D13*
X215900000Y-92868750D03*
D12*
X218440000Y-87788750D03*
D11*
X220980000Y-92868750D03*
X39370000Y-35718750D03*
D12*
X40640000Y-33178750D03*
D13*
X44450000Y-35718750D03*
D12*
X46990000Y-30638750D03*
D11*
X49530000Y-35718750D03*
X210820000Y-54768750D03*
D12*
X212090000Y-52228750D03*
D13*
X215900000Y-54768750D03*
D12*
X218440000Y-49688750D03*
D11*
X220980000Y-54768750D03*
X210820000Y-35718750D03*
D12*
X212090000Y-33178750D03*
D13*
X215900000Y-35718750D03*
D12*
X218440000Y-30638750D03*
D11*
X220980000Y-35718750D03*
X210820000Y-111918750D03*
D12*
X212090000Y-109378750D03*
D13*
X215900000Y-111918750D03*
D12*
X218440000Y-106838750D03*
D11*
X220980000Y-111918750D03*
X191770000Y-92868750D03*
D12*
X193040000Y-90328750D03*
D13*
X196850000Y-92868750D03*
D12*
X199390000Y-87788750D03*
D11*
X201930000Y-92868750D03*
X201295000Y-73818750D03*
D12*
X202565000Y-71278750D03*
D13*
X206375000Y-73818750D03*
D12*
X208915000Y-68738750D03*
D11*
X211455000Y-73818750D03*
X191770000Y-54768750D03*
D12*
X193040000Y-52228750D03*
D13*
X196850000Y-54768750D03*
D12*
X199390000Y-49688750D03*
D11*
X201930000Y-54768750D03*
X191770000Y-35718750D03*
D12*
X193040000Y-33178750D03*
D13*
X196850000Y-35718750D03*
D12*
X199390000Y-30638750D03*
D11*
X201930000Y-35718750D03*
X191770000Y-111918750D03*
D12*
X193040000Y-109378750D03*
D13*
X196850000Y-111918750D03*
D12*
X199390000Y-106838750D03*
D11*
X201930000Y-111918750D03*
X172720000Y-92868750D03*
D12*
X173990000Y-90328750D03*
D13*
X177800000Y-92868750D03*
D12*
X180340000Y-87788750D03*
D11*
X182880000Y-92868750D03*
X182245000Y-73818750D03*
D12*
X183515000Y-71278750D03*
D13*
X187325000Y-73818750D03*
D12*
X189865000Y-68738750D03*
D11*
X192405000Y-73818750D03*
X172720000Y-54768750D03*
D12*
X173990000Y-52228750D03*
D13*
X177800000Y-54768750D03*
D12*
X180340000Y-49688750D03*
D11*
X182880000Y-54768750D03*
X172720000Y-35718750D03*
D12*
X173990000Y-33178750D03*
D13*
X177800000Y-35718750D03*
D12*
X180340000Y-30638750D03*
D11*
X182880000Y-35718750D03*
X172720000Y-111918750D03*
D12*
X173990000Y-109378750D03*
D13*
X177800000Y-111918750D03*
D12*
X180340000Y-106838750D03*
D11*
X182880000Y-111918750D03*
X153670000Y-92868750D03*
D12*
X154940000Y-90328750D03*
D13*
X158750000Y-92868750D03*
D12*
X161290000Y-87788750D03*
D11*
X163830000Y-92868750D03*
X163195000Y-73818750D03*
D12*
X164465000Y-71278750D03*
D13*
X168275000Y-73818750D03*
D12*
X170815000Y-68738750D03*
D11*
X173355000Y-73818750D03*
X153670000Y-54768750D03*
D12*
X154940000Y-52228750D03*
D13*
X158750000Y-54768750D03*
D12*
X161290000Y-49688750D03*
D11*
X163830000Y-54768750D03*
X153670000Y-35718750D03*
D12*
X154940000Y-33178750D03*
D13*
X158750000Y-35718750D03*
D12*
X161290000Y-30638750D03*
D11*
X163830000Y-35718750D03*
X134620000Y-92868750D03*
D12*
X135890000Y-90328750D03*
D13*
X139700000Y-92868750D03*
D12*
X142240000Y-87788750D03*
D11*
X144780000Y-92868750D03*
X144145000Y-73818750D03*
D12*
X145415000Y-71278750D03*
D13*
X149225000Y-73818750D03*
D12*
X151765000Y-68738750D03*
D11*
X154305000Y-73818750D03*
X134620000Y-54768750D03*
D12*
X135890000Y-52228750D03*
D13*
X139700000Y-54768750D03*
D12*
X142240000Y-49688750D03*
D11*
X144780000Y-54768750D03*
X134620000Y-35718750D03*
D12*
X135890000Y-33178750D03*
D13*
X139700000Y-35718750D03*
D12*
X142240000Y-30638750D03*
D11*
X144780000Y-35718750D03*
X125095000Y-111918750D03*
D12*
X126365000Y-109378750D03*
D13*
X130175000Y-111918750D03*
D12*
X132715000Y-106838750D03*
D11*
X135255000Y-111918750D03*
X115570000Y-92868750D03*
D12*
X116840000Y-90328750D03*
D13*
X120650000Y-92868750D03*
D12*
X123190000Y-87788750D03*
D11*
X125730000Y-92868750D03*
X125095000Y-73818750D03*
D12*
X126365000Y-71278750D03*
D13*
X130175000Y-73818750D03*
D12*
X132715000Y-68738750D03*
D11*
X135255000Y-73818750D03*
X115570000Y-54768750D03*
D12*
X116840000Y-52228750D03*
D13*
X120650000Y-54768750D03*
D12*
X123190000Y-49688750D03*
D11*
X125730000Y-54768750D03*
X115570000Y-35718750D03*
D12*
X116840000Y-33178750D03*
D13*
X120650000Y-35718750D03*
D12*
X123190000Y-30638750D03*
D11*
X125730000Y-35718750D03*
X96520000Y-92868750D03*
D12*
X97790000Y-90328750D03*
D13*
X101600000Y-92868750D03*
D12*
X104140000Y-87788750D03*
D11*
X106680000Y-92868750D03*
X106045000Y-73818750D03*
D12*
X107315000Y-71278750D03*
D13*
X111125000Y-73818750D03*
D12*
X113665000Y-68738750D03*
D11*
X116205000Y-73818750D03*
X96520000Y-54768750D03*
D12*
X97790000Y-52228750D03*
D13*
X101600000Y-54768750D03*
D12*
X104140000Y-49688750D03*
D11*
X106680000Y-54768750D03*
X96520000Y-35718750D03*
D12*
X97790000Y-33178750D03*
D13*
X101600000Y-35718750D03*
D12*
X104140000Y-30638750D03*
D11*
X106680000Y-35718750D03*
X77470000Y-111918750D03*
D12*
X78740000Y-109378750D03*
D13*
X82550000Y-111918750D03*
D12*
X85090000Y-106838750D03*
D11*
X87630000Y-111918750D03*
X77470000Y-92868750D03*
D12*
X78740000Y-90328750D03*
D13*
X82550000Y-92868750D03*
D12*
X85090000Y-87788750D03*
D11*
X87630000Y-92868750D03*
X86995000Y-73818750D03*
D12*
X88265000Y-71278750D03*
D13*
X92075000Y-73818750D03*
D12*
X94615000Y-68738750D03*
D11*
X97155000Y-73818750D03*
X77470000Y-54768750D03*
D12*
X78740000Y-52228750D03*
D13*
X82550000Y-54768750D03*
D12*
X85090000Y-49688750D03*
D11*
X87630000Y-54768750D03*
X77470000Y-35718750D03*
D12*
X78740000Y-33178750D03*
D13*
X82550000Y-35718750D03*
D12*
X85090000Y-30638750D03*
D11*
X87630000Y-35718750D03*
X58420000Y-111918750D03*
D12*
X59690000Y-109378750D03*
D13*
X63500000Y-111918750D03*
D12*
X66040000Y-106838750D03*
D11*
X68580000Y-111918750D03*
X58420000Y-92868750D03*
D12*
X59690000Y-90328750D03*
D13*
X63500000Y-92868750D03*
D12*
X66040000Y-87788750D03*
D11*
X68580000Y-92868750D03*
X67945000Y-73818750D03*
D12*
X69215000Y-71278750D03*
D13*
X73025000Y-73818750D03*
D12*
X75565000Y-68738750D03*
D11*
X78105000Y-73818750D03*
X39370000Y-111918750D03*
D12*
X40640000Y-109378750D03*
D13*
X44450000Y-111918750D03*
D12*
X46990000Y-106838750D03*
D11*
X49530000Y-111918750D03*
X39370000Y-92868750D03*
D12*
X40640000Y-90328750D03*
D13*
X44450000Y-92868750D03*
D12*
X46990000Y-87788750D03*
D11*
X49530000Y-92868750D03*
X48895000Y-73818750D03*
D12*
X50165000Y-71278750D03*
D13*
X53975000Y-73818750D03*
D12*
X56515000Y-68738750D03*
D11*
X59055000Y-73818750D03*
X58420000Y-54768750D03*
D12*
X59690000Y-52228750D03*
D13*
X63500000Y-54768750D03*
D12*
X66040000Y-49688750D03*
D11*
X68580000Y-54768750D03*
X58420000Y-35718750D03*
D12*
X59690000Y-33178750D03*
D13*
X63500000Y-35718750D03*
D12*
X66040000Y-30638750D03*
D11*
X68580000Y-35718750D03*
X39370000Y-54768750D03*
D12*
X40640000Y-52228750D03*
D13*
X44450000Y-54768750D03*
D12*
X46990000Y-49688750D03*
D11*
X49530000Y-54768750D03*
D14*
X228252000Y-32440000D03*
X235552000Y-32440000D03*
X235552000Y-27940000D03*
X228252000Y-27940000D03*
%LPD*%
M02*
