M48
; DRILL file {KiCad 8.0.6} date 2024-11-15T12:23:50-0700
; FORMAT={-:-/ absolute / inch / decimal}
; #@! TF.CreationDate,2024-11-15T12:23:50-07:00
; #@! TF.GenerationSoftware,Kicad,Pcbnew,8.0.6
; #@! TF.FileFunction,Plated,1,2,PTH
FMAT,2
INCH
; #@! TA.AperFunction,Plated,PTH,ViaDrill
T1C0.0157
; #@! TA.AperFunction,Plated,PTH,ComponentDrill
T2C0.0276
%
G90
G05
T1
X1.5975Y-4.8137
X2.3575Y-4.8087
X3.1175Y-4.8037
X4.0425Y-4.8037
X4.9925Y-4.8087
X6.2325Y-4.8006
X6.965Y-4.75
X7.285Y-5.065
X7.435Y-5.58
X7.53Y-5.0
X7.53Y-5.615
X7.6175Y-4.5388
X7.6213Y-5.58
X7.725Y-5.615
X7.9625Y-5.0312
X7.9625Y-5.5213
X7.965Y-5.6068
X7.9775Y-5.1013
X8.0125Y-5.0462
X8.0357Y-5.63
X8.0557Y-5.6639
X8.1001Y-5.18
X8.1337Y-5.4062
X8.1375Y-4.5488
X8.1725Y-4.4188
X8.1775Y-4.2787
X8.2175Y-4.5262
X8.4875Y-4.6887
X8.5433Y-4.6746
X8.5525Y-2.9737
X8.575Y-5.115
X8.635Y-4.585
X8.715Y-4.545
X8.775Y-4.83
X8.7914Y-3.8737
X8.795Y-5.265
X8.8025Y-2.3537
X8.81Y-4.995
X8.81Y-5.185
X8.8125Y-1.6887
X8.9252Y-4.8302
X9.0673Y-1.36
X9.205Y-1.36
T2
G00X8.9863Y-1.0764
M15
G01X8.9863Y-1.1236
M16
G05
G00X8.9863Y-1.2535
M15
G01X8.9863Y-1.3008
M16
G05
G00X9.2737Y-1.0764
M15
G01X9.2737Y-1.1236
M16
G05
G00X9.2737Y-1.2535
M15
G01X9.2737Y-1.3008
M16
G05
M30
