G04 #@! TF.GenerationSoftware,KiCad,Pcbnew,(5.1.4)-1*
G04 #@! TF.CreationDate,2024-11-15T09:26:30-07:00*
G04 #@! TF.ProjectId,kicadNEWXboard,6b696361-644e-4455-9758-626f6172642e,rev?*
G04 #@! TF.SameCoordinates,Original*
G04 #@! TF.FileFunction,Legend,Bot*
G04 #@! TF.FilePolarity,Positive*
%FSLAX46Y46*%
G04 Gerber Fmt 4.6, Leading zero omitted, Abs format (unit mm)*
G04 Created by KiCad (PCBNEW (5.1.4)-1) date 2024-11-15 09:26:30*
%MOMM*%
%LPD*%
G04 APERTURE LIST*
%ADD10C,0.750000*%
%ADD11C,0.120000*%
%ADD12C,0.150000*%
%ADD13C,1.852000*%
%ADD14C,2.352000*%
%ADD15C,4.089800*%
%ADD16C,2.352000*%
%ADD17C,0.020000*%
%ADD18C,1.352000*%
%ADD19R,1.302000X1.002000*%
%ADD20R,0.602000X2.352000*%
%ADD21O,1.802000X2.802000*%
%ADD22R,1.302000X1.502000*%
%ADD23R,1.602000X0.652000*%
%ADD24R,0.652000X1.602000*%
%ADD25R,1.202000X1.902000*%
%ADD26C,1.077000*%
G04 APERTURE END LIST*
D10*
X170248214Y-128776785D02*
X170248214Y-132776785D01*
X170248214Y-129348214D02*
X170105357Y-129062500D01*
X169819642Y-128776785D01*
X169391071Y-128776785D01*
X169105357Y-129062500D01*
X168962500Y-129633928D01*
X168962500Y-132776785D01*
X166391071Y-132491071D02*
X166676785Y-132776785D01*
X167248214Y-132776785D01*
X167533928Y-132491071D01*
X167676785Y-131919642D01*
X167676785Y-129633928D01*
X167533928Y-129062500D01*
X167248214Y-128776785D01*
X166676785Y-128776785D01*
X166391071Y-129062500D01*
X166248214Y-129633928D01*
X166248214Y-130205357D01*
X167676785Y-130776785D01*
X165248214Y-128776785D02*
X164676785Y-132776785D01*
X164105357Y-129919642D01*
X163533928Y-132776785D01*
X162962500Y-128776785D01*
X161819642Y-132776785D02*
X161819642Y-126776785D01*
X161533928Y-130491071D02*
X160676785Y-132776785D01*
X160676785Y-128776785D02*
X161819642Y-131062500D01*
X157105357Y-132776785D02*
X157105357Y-126776785D01*
X157105357Y-129062500D02*
X156819642Y-128776785D01*
X156248214Y-128776785D01*
X155962500Y-129062500D01*
X155819642Y-129348214D01*
X155676785Y-129919642D01*
X155676785Y-131633928D01*
X155819642Y-132205357D01*
X155962500Y-132491071D01*
X156248214Y-132776785D01*
X156819642Y-132776785D01*
X157105357Y-132491071D01*
X153962500Y-132776785D02*
X154248214Y-132491071D01*
X154391071Y-132205357D01*
X154533928Y-131633928D01*
X154533928Y-129919642D01*
X154391071Y-129348214D01*
X154248214Y-129062500D01*
X153962500Y-128776785D01*
X153533928Y-128776785D01*
X153248214Y-129062500D01*
X153105357Y-129348214D01*
X152962500Y-129919642D01*
X152962500Y-131633928D01*
X153105357Y-132205357D01*
X153248214Y-132491071D01*
X153533928Y-132776785D01*
X153962500Y-132776785D01*
X150391071Y-132776785D02*
X150391071Y-129633928D01*
X150533928Y-129062500D01*
X150819642Y-128776785D01*
X151391071Y-128776785D01*
X151676785Y-129062500D01*
X150391071Y-132491071D02*
X150676785Y-132776785D01*
X151391071Y-132776785D01*
X151676785Y-132491071D01*
X151819642Y-131919642D01*
X151819642Y-131348214D01*
X151676785Y-130776785D01*
X151391071Y-130491071D01*
X150676785Y-130491071D01*
X150391071Y-130205357D01*
X148962500Y-132776785D02*
X148962500Y-128776785D01*
X148962500Y-129919642D02*
X148819642Y-129348214D01*
X148676785Y-129062500D01*
X148391071Y-128776785D01*
X148105357Y-128776785D01*
X145819642Y-132776785D02*
X145819642Y-126776785D01*
X145819642Y-132491071D02*
X146105357Y-132776785D01*
X146676785Y-132776785D01*
X146962500Y-132491071D01*
X147105357Y-132205357D01*
X147248214Y-131633928D01*
X147248214Y-129919642D01*
X147105357Y-129348214D01*
X146962500Y-129062500D01*
X146676785Y-128776785D01*
X146105357Y-128776785D01*
X145819642Y-129062500D01*
X141533928Y-126776785D02*
X141248214Y-126776785D01*
X140962500Y-127062500D01*
X140819642Y-127348214D01*
X140676785Y-127919642D01*
X140533928Y-129062500D01*
X140533928Y-130491071D01*
X140676785Y-131633928D01*
X140819642Y-132205357D01*
X140962500Y-132491071D01*
X141248214Y-132776785D01*
X141533928Y-132776785D01*
X141819642Y-132491071D01*
X141962500Y-132205357D01*
X142105357Y-131633928D01*
X142248214Y-130491071D01*
X142248214Y-129062500D01*
X142105357Y-127919642D01*
X141962500Y-127348214D01*
X141819642Y-127062500D01*
X141533928Y-126776785D01*
X139533928Y-126776785D02*
X137676785Y-126776785D01*
X138676785Y-129062500D01*
X138248214Y-129062500D01*
X137962500Y-129348214D01*
X137819642Y-129633928D01*
X137676785Y-130205357D01*
X137676785Y-131633928D01*
X137819642Y-132205357D01*
X137962500Y-132491071D01*
X138248214Y-132776785D01*
X139105357Y-132776785D01*
X139391071Y-132491071D01*
X139533928Y-132205357D01*
X170676785Y-138526785D02*
X169533928Y-138526785D01*
X170248214Y-136526785D02*
X170248214Y-141669642D01*
X170105357Y-142241071D01*
X169819642Y-142526785D01*
X169533928Y-142526785D01*
X168533928Y-142526785D02*
X168533928Y-136526785D01*
X167248214Y-142526785D02*
X167248214Y-139383928D01*
X167391071Y-138812500D01*
X167676785Y-138526785D01*
X168105357Y-138526785D01*
X168391071Y-138812500D01*
X168533928Y-139098214D01*
X164676785Y-142241071D02*
X164962500Y-142526785D01*
X165533928Y-142526785D01*
X165819642Y-142241071D01*
X165962500Y-141669642D01*
X165962500Y-139383928D01*
X165819642Y-138812500D01*
X165533928Y-138526785D01*
X164962500Y-138526785D01*
X164676785Y-138812500D01*
X164533928Y-139383928D01*
X164533928Y-139955357D01*
X165962500Y-140526785D01*
X159676785Y-142526785D02*
X159676785Y-139383928D01*
X159819642Y-138812500D01*
X160105357Y-138526785D01*
X160676785Y-138526785D01*
X160962500Y-138812500D01*
X159676785Y-142241071D02*
X159962500Y-142526785D01*
X160676785Y-142526785D01*
X160962500Y-142241071D01*
X161105357Y-141669642D01*
X161105357Y-141098214D01*
X160962500Y-140526785D01*
X160676785Y-140241071D01*
X159962500Y-140241071D01*
X159676785Y-139955357D01*
X158533928Y-138526785D02*
X157962500Y-142526785D01*
X157391071Y-139669642D01*
X156819642Y-142526785D01*
X156248214Y-138526785D01*
X153962500Y-142241071D02*
X154248214Y-142526785D01*
X154819642Y-142526785D01*
X155105357Y-142241071D01*
X155248214Y-141669642D01*
X155248214Y-139383928D01*
X155105357Y-138812500D01*
X154819642Y-138526785D01*
X154248214Y-138526785D01*
X153962500Y-138812500D01*
X153819642Y-139383928D01*
X153819642Y-139955357D01*
X155248214Y-140526785D01*
X152676785Y-142241071D02*
X152391071Y-142526785D01*
X151819642Y-142526785D01*
X151533928Y-142241071D01*
X151391071Y-141669642D01*
X151391071Y-141383928D01*
X151533928Y-140812500D01*
X151819642Y-140526785D01*
X152248214Y-140526785D01*
X152533928Y-140241071D01*
X152676785Y-139669642D01*
X152676785Y-139383928D01*
X152533928Y-138812500D01*
X152248214Y-138526785D01*
X151819642Y-138526785D01*
X151533928Y-138812500D01*
X149676785Y-142526785D02*
X149962500Y-142241071D01*
X150105357Y-141955357D01*
X150248214Y-141383928D01*
X150248214Y-139669642D01*
X150105357Y-139098214D01*
X149962500Y-138812500D01*
X149676785Y-138526785D01*
X149248214Y-138526785D01*
X148962500Y-138812500D01*
X148819642Y-139098214D01*
X148676785Y-139669642D01*
X148676785Y-141383928D01*
X148819642Y-141955357D01*
X148962500Y-142241071D01*
X149248214Y-142526785D01*
X149676785Y-142526785D01*
X147391071Y-142526785D02*
X147391071Y-138526785D01*
X147391071Y-139098214D02*
X147248214Y-138812500D01*
X146962500Y-138526785D01*
X146533928Y-138526785D01*
X146248214Y-138812500D01*
X146105357Y-139383928D01*
X146105357Y-142526785D01*
X146105357Y-139383928D02*
X145962500Y-138812500D01*
X145676785Y-138526785D01*
X145248214Y-138526785D01*
X144962500Y-138812500D01*
X144819642Y-139383928D01*
X144819642Y-142526785D01*
X142248214Y-142241071D02*
X142533928Y-142526785D01*
X143105357Y-142526785D01*
X143391071Y-142241071D01*
X143533928Y-141669642D01*
X143533928Y-139383928D01*
X143391071Y-138812500D01*
X143105357Y-138526785D01*
X142533928Y-138526785D01*
X142248214Y-138812500D01*
X142105357Y-139383928D01*
X142105357Y-139955357D01*
X143533928Y-140526785D01*
X140962500Y-142241071D02*
X140676785Y-142526785D01*
X140105357Y-142526785D01*
X139819642Y-142241071D01*
X139676785Y-141669642D01*
X139676785Y-141383928D01*
X139819642Y-140812500D01*
X140105357Y-140526785D01*
X140533928Y-140526785D01*
X140819642Y-140241071D01*
X140962500Y-139669642D01*
X140962500Y-139383928D01*
X140819642Y-138812500D01*
X140533928Y-138526785D01*
X140105357Y-138526785D01*
X139819642Y-138812500D01*
X138819642Y-138526785D02*
X137676785Y-138526785D01*
X138391071Y-136526785D02*
X138391071Y-141669642D01*
X138248214Y-142241071D01*
X137962500Y-142526785D01*
X137676785Y-142526785D01*
X135533928Y-142241071D02*
X135819642Y-142526785D01*
X136391071Y-142526785D01*
X136676785Y-142241071D01*
X136819642Y-141669642D01*
X136819642Y-139383928D01*
X136676785Y-138812500D01*
X136391071Y-138526785D01*
X135819642Y-138526785D01*
X135533928Y-138812500D01*
X135391071Y-139383928D01*
X135391071Y-139955357D01*
X136819642Y-140526785D01*
X134105357Y-142526785D02*
X134105357Y-138526785D01*
X134105357Y-139669642D02*
X133962499Y-139098214D01*
X133819642Y-138812500D01*
X133533928Y-138526785D01*
X133248214Y-138526785D01*
X129533928Y-142526785D02*
X129819642Y-142241071D01*
X129962499Y-141955357D01*
X130105357Y-141383928D01*
X130105357Y-139669642D01*
X129962499Y-139098214D01*
X129819642Y-138812500D01*
X129533928Y-138526785D01*
X129105357Y-138526785D01*
X128819642Y-138812500D01*
X128676785Y-139098214D01*
X128533928Y-139669642D01*
X128533928Y-141383928D01*
X128676785Y-141955357D01*
X128819642Y-142241071D01*
X129105357Y-142526785D01*
X129533928Y-142526785D01*
X127248214Y-138526785D02*
X127248214Y-142526785D01*
X127248214Y-139098214D02*
X127105357Y-138812500D01*
X126819642Y-138526785D01*
X126391071Y-138526785D01*
X126105357Y-138812500D01*
X125962499Y-139383928D01*
X125962499Y-142526785D01*
X123391071Y-142241071D02*
X123676785Y-142526785D01*
X124248214Y-142526785D01*
X124533928Y-142241071D01*
X124676785Y-141669642D01*
X124676785Y-139383928D01*
X124533928Y-138812500D01*
X124248214Y-138526785D01*
X123676785Y-138526785D01*
X123391071Y-138812500D01*
X123248214Y-139383928D01*
X123248214Y-139955357D01*
X124676785Y-140526785D01*
X119962499Y-138526785D02*
X119248214Y-142526785D01*
X118533928Y-138526785D02*
X119248214Y-142526785D01*
X119533928Y-143955357D01*
X119676785Y-144241071D01*
X119962499Y-144526785D01*
X116248214Y-142241071D02*
X116533928Y-142526785D01*
X117105357Y-142526785D01*
X117391071Y-142241071D01*
X117533928Y-141669642D01*
X117533928Y-139383928D01*
X117391071Y-138812500D01*
X117105357Y-138526785D01*
X116533928Y-138526785D01*
X116248214Y-138812500D01*
X116105357Y-139383928D01*
X116105357Y-139955357D01*
X117533928Y-140526785D01*
X115248214Y-138526785D02*
X114105357Y-138526785D01*
X114819642Y-136526785D02*
X114819642Y-141669642D01*
X114676785Y-142241071D01*
X114391071Y-142526785D01*
X114105357Y-142526785D01*
X110819642Y-141955357D02*
X110676785Y-142241071D01*
X110819642Y-142526785D01*
X110962499Y-142241071D01*
X110819642Y-141955357D01*
X110819642Y-142526785D01*
X110819642Y-140241071D02*
X110962499Y-136812500D01*
X110819642Y-136526785D01*
X110676785Y-136812500D01*
X110819642Y-140241071D01*
X110819642Y-136526785D01*
X109391071Y-141955357D02*
X109248214Y-142241071D01*
X109391071Y-142526785D01*
X109533928Y-142241071D01*
X109391071Y-141955357D01*
X109391071Y-142526785D01*
X109391071Y-140241071D02*
X109533928Y-136812500D01*
X109391071Y-136526785D01*
X109248214Y-136812500D01*
X109391071Y-140241071D01*
X109391071Y-136526785D01*
X107962499Y-141955357D02*
X107819642Y-142241071D01*
X107962499Y-142526785D01*
X108105357Y-142241071D01*
X107962499Y-141955357D01*
X107962499Y-142526785D01*
X107962499Y-140241071D02*
X108105357Y-136812500D01*
X107962499Y-136526785D01*
X107819642Y-136812500D01*
X107962499Y-140241071D01*
X107962499Y-136526785D01*
X106533928Y-141955357D02*
X106391071Y-142241071D01*
X106533928Y-142526785D01*
X106676785Y-142241071D01*
X106533928Y-141955357D01*
X106533928Y-142526785D01*
X106533928Y-140241071D02*
X106676785Y-136812500D01*
X106533928Y-136526785D01*
X106391071Y-136812500D01*
X106533928Y-140241071D01*
X106533928Y-136526785D01*
X103533928Y-142526785D02*
X105248214Y-142526785D01*
X104391071Y-142526785D02*
X104391071Y-136526785D01*
X104676785Y-137383928D01*
X104962499Y-137955357D01*
X105248214Y-138241071D01*
X102248214Y-141955357D02*
X102105357Y-142241071D01*
X102248214Y-142526785D01*
X102391071Y-142241071D01*
X102248214Y-141955357D01*
X102248214Y-142526785D01*
X102248214Y-140241071D02*
X102391071Y-136812500D01*
X102248214Y-136526785D01*
X102105357Y-136812500D01*
X102248214Y-140241071D01*
X102248214Y-136526785D01*
D11*
X220507936Y-129011000D02*
X221712064Y-129011000D01*
X220507936Y-130831000D02*
X221712064Y-130831000D01*
X72437500Y-38031250D02*
X72437500Y-34131250D01*
X70437500Y-38031250D02*
X70437500Y-34131250D01*
X72437500Y-38031250D02*
X70437500Y-38031250D01*
X53387500Y-38031250D02*
X53387500Y-34131250D01*
X51387500Y-38031250D02*
X51387500Y-34131250D01*
X53387500Y-38031250D02*
X51387500Y-38031250D01*
X224710500Y-95181250D02*
X224710500Y-91281250D01*
X222710500Y-95181250D02*
X222710500Y-91281250D01*
X224710500Y-95181250D02*
X222710500Y-95181250D01*
X224710500Y-57081250D02*
X224710500Y-53181250D01*
X222710500Y-57081250D02*
X222710500Y-53181250D01*
X224710500Y-57081250D02*
X222710500Y-57081250D01*
X224710500Y-38031250D02*
X224710500Y-34131250D01*
X222710500Y-38031250D02*
X222710500Y-34131250D01*
X224710500Y-38031250D02*
X222710500Y-38031250D01*
X224710500Y-114231250D02*
X224710500Y-110331250D01*
X222710500Y-114231250D02*
X222710500Y-110331250D01*
X224710500Y-114231250D02*
X222710500Y-114231250D01*
X205660500Y-95182250D02*
X205660500Y-91282250D01*
X203660500Y-95182250D02*
X203660500Y-91282250D01*
X205660500Y-95182250D02*
X203660500Y-95182250D01*
X215185500Y-76131250D02*
X215185500Y-72231250D01*
X213185500Y-76131250D02*
X213185500Y-72231250D01*
X215185500Y-76131250D02*
X213185500Y-76131250D01*
X205660500Y-57081250D02*
X205660500Y-53181250D01*
X203660500Y-57081250D02*
X203660500Y-53181250D01*
X205660500Y-57081250D02*
X203660500Y-57081250D01*
X205660500Y-38032250D02*
X205660500Y-34132250D01*
X203660500Y-38032250D02*
X203660500Y-34132250D01*
X205660500Y-38032250D02*
X203660500Y-38032250D01*
X205660500Y-114231250D02*
X205660500Y-110331250D01*
X203660500Y-114231250D02*
X203660500Y-110331250D01*
X205660500Y-114231250D02*
X203660500Y-114231250D01*
X186610500Y-95181250D02*
X186610500Y-91281250D01*
X184610500Y-95181250D02*
X184610500Y-91281250D01*
X186610500Y-95181250D02*
X184610500Y-95181250D01*
X196008500Y-76005250D02*
X196008500Y-72105250D01*
X194008500Y-76005250D02*
X194008500Y-72105250D01*
X196008500Y-76005250D02*
X194008500Y-76005250D01*
X186610500Y-57081250D02*
X186610500Y-53181250D01*
X184610500Y-57081250D02*
X184610500Y-53181250D01*
X186610500Y-57081250D02*
X184610500Y-57081250D01*
X186610500Y-38031250D02*
X186610500Y-34131250D01*
X184610500Y-38031250D02*
X184610500Y-34131250D01*
X186610500Y-38031250D02*
X184610500Y-38031250D01*
X186610500Y-114231250D02*
X186610500Y-110331250D01*
X184610500Y-114231250D02*
X184610500Y-110331250D01*
X186610500Y-114231250D02*
X184610500Y-114231250D01*
X167687500Y-95181250D02*
X167687500Y-91281250D01*
X165687500Y-95181250D02*
X165687500Y-91281250D01*
X167687500Y-95181250D02*
X165687500Y-95181250D01*
X177085500Y-76131250D02*
X177085500Y-72231250D01*
X175085500Y-76131250D02*
X175085500Y-72231250D01*
X177085500Y-76131250D02*
X175085500Y-76131250D01*
X167560500Y-57081250D02*
X167560500Y-53181250D01*
X165560500Y-57081250D02*
X165560500Y-53181250D01*
X167560500Y-57081250D02*
X165560500Y-57081250D01*
X167560500Y-38032250D02*
X167560500Y-34132250D01*
X165560500Y-38032250D02*
X165560500Y-34132250D01*
X167560500Y-38032250D02*
X165560500Y-38032250D01*
X162734500Y-114104250D02*
X162734500Y-110204250D01*
X160734500Y-114104250D02*
X160734500Y-110204250D01*
X162734500Y-114104250D02*
X160734500Y-114104250D01*
X148510500Y-95181250D02*
X148510500Y-91281250D01*
X146510500Y-95181250D02*
X146510500Y-91281250D01*
X148510500Y-95181250D02*
X146510500Y-95181250D01*
X158035500Y-76131250D02*
X158035500Y-72231250D01*
X156035500Y-76131250D02*
X156035500Y-72231250D01*
X158035500Y-76131250D02*
X156035500Y-76131250D01*
X148510500Y-57081250D02*
X148510500Y-53181250D01*
X146510500Y-57081250D02*
X146510500Y-53181250D01*
X148510500Y-57081250D02*
X146510500Y-57081250D01*
X148510500Y-38031250D02*
X148510500Y-34131250D01*
X146510500Y-38031250D02*
X146510500Y-34131250D01*
X148510500Y-38031250D02*
X146510500Y-38031250D01*
X138985500Y-114231250D02*
X138985500Y-110331250D01*
X136985500Y-114231250D02*
X136985500Y-110331250D01*
X138985500Y-114231250D02*
X136985500Y-114231250D01*
X129460500Y-95054250D02*
X129460500Y-91154250D01*
X127460500Y-95054250D02*
X127460500Y-91154250D01*
X129460500Y-95054250D02*
X127460500Y-95054250D01*
X138985500Y-76131250D02*
X138985500Y-72231250D01*
X136985500Y-76131250D02*
X136985500Y-72231250D01*
X138985500Y-76131250D02*
X136985500Y-76131250D01*
X129460500Y-57081250D02*
X129460500Y-53181250D01*
X127460500Y-57081250D02*
X127460500Y-53181250D01*
X129460500Y-57081250D02*
X127460500Y-57081250D01*
X129460500Y-38031250D02*
X129460500Y-34131250D01*
X127460500Y-38031250D02*
X127460500Y-34131250D01*
X129460500Y-38031250D02*
X127460500Y-38031250D01*
X115236500Y-114231250D02*
X115236500Y-110331250D01*
X113236500Y-114231250D02*
X113236500Y-110331250D01*
X115236500Y-114231250D02*
X113236500Y-114231250D01*
X110410500Y-95182250D02*
X110410500Y-91282250D01*
X108410500Y-95182250D02*
X108410500Y-91282250D01*
X110410500Y-95182250D02*
X108410500Y-95182250D01*
X119935500Y-76005250D02*
X119935500Y-72105250D01*
X117935500Y-76005250D02*
X117935500Y-72105250D01*
X119935500Y-76005250D02*
X117935500Y-76005250D01*
X110537500Y-56955250D02*
X110537500Y-53055250D01*
X108537500Y-56955250D02*
X108537500Y-53055250D01*
X110537500Y-56955250D02*
X108537500Y-56955250D01*
X110410500Y-38031250D02*
X110410500Y-34131250D01*
X108410500Y-38031250D02*
X108410500Y-34131250D01*
X110410500Y-38031250D02*
X108410500Y-38031250D01*
X91360500Y-114231250D02*
X91360500Y-110331250D01*
X89360500Y-114231250D02*
X89360500Y-110331250D01*
X91360500Y-114231250D02*
X89360500Y-114231250D01*
X91360500Y-95055250D02*
X91360500Y-91155250D01*
X89360500Y-95055250D02*
X89360500Y-91155250D01*
X91360500Y-95055250D02*
X89360500Y-95055250D01*
X101012500Y-76132250D02*
X101012500Y-72232250D01*
X99012500Y-76132250D02*
X99012500Y-72232250D01*
X101012500Y-76132250D02*
X99012500Y-76132250D01*
X91487500Y-57081250D02*
X91487500Y-53181250D01*
X89487500Y-57081250D02*
X89487500Y-53181250D01*
X91487500Y-57081250D02*
X89487500Y-57081250D01*
X91360500Y-38158250D02*
X91360500Y-34258250D01*
X89360500Y-38158250D02*
X89360500Y-34258250D01*
X91360500Y-38158250D02*
X89360500Y-38158250D01*
X72310500Y-114232250D02*
X72310500Y-110332250D01*
X70310500Y-114232250D02*
X70310500Y-110332250D01*
X72310500Y-114232250D02*
X70310500Y-114232250D01*
X72310500Y-95054250D02*
X72310500Y-91154250D01*
X70310500Y-95054250D02*
X70310500Y-91154250D01*
X72310500Y-95054250D02*
X70310500Y-95054250D01*
X81835500Y-76004250D02*
X81835500Y-72104250D01*
X79835500Y-76004250D02*
X79835500Y-72104250D01*
X81835500Y-76004250D02*
X79835500Y-76004250D01*
X53260500Y-114231250D02*
X53260500Y-110331250D01*
X51260500Y-114231250D02*
X51260500Y-110331250D01*
X53260500Y-114231250D02*
X51260500Y-114231250D01*
X53260500Y-95182250D02*
X53260500Y-91282250D01*
X51260500Y-95182250D02*
X51260500Y-91282250D01*
X53260500Y-95182250D02*
X51260500Y-95182250D01*
X62912500Y-76131250D02*
X62912500Y-72231250D01*
X60912500Y-76131250D02*
X60912500Y-72231250D01*
X62912500Y-76131250D02*
X60912500Y-76131250D01*
D12*
X228052000Y-33390000D02*
X235752000Y-33390000D01*
X235752000Y-27940000D02*
X235752000Y-33390000D01*
X228052000Y-27940000D02*
X228052000Y-33390000D01*
D11*
X180028750Y-131805750D02*
X180028750Y-135805750D01*
X176728750Y-131805750D02*
X180028750Y-131805750D01*
D12*
X199418000Y-139636250D02*
X199418000Y-140911250D01*
X199993000Y-129286250D02*
X199993000Y-129961250D01*
X189643000Y-129286250D02*
X189643000Y-129961250D01*
X189643000Y-139636250D02*
X189643000Y-138961250D01*
X199993000Y-139636250D02*
X199993000Y-138961250D01*
X189643000Y-139636250D02*
X190318000Y-139636250D01*
X189643000Y-129286250D02*
X190318000Y-129286250D01*
X199993000Y-129286250D02*
X199318000Y-129286250D01*
X199993000Y-139636250D02*
X199418000Y-139636250D01*
X229953250Y-139485750D02*
X229953250Y-134285750D01*
X229953250Y-134285750D02*
X224753250Y-134285750D01*
X224753250Y-134285750D02*
X224753250Y-139485750D01*
X224753250Y-139485750D02*
X229953250Y-139485750D01*
X228353250Y-136885750D02*
G75*
G03X228353250Y-136885750I-1000000J0D01*
G01*
D11*
X207728078Y-129361000D02*
X207210922Y-129361000D01*
X207728078Y-127941000D02*
X207210922Y-127941000D01*
X183588922Y-138378000D02*
X184106078Y-138378000D01*
X183588922Y-136958000D02*
X184106078Y-136958000D01*
X210585578Y-136885750D02*
X210068422Y-136885750D01*
X210585578Y-135465750D02*
X210068422Y-135465750D01*
X210585578Y-140568750D02*
X210068422Y-140568750D01*
X210585578Y-139148750D02*
X210068422Y-139148750D01*
X72437500Y-57081250D02*
X72437500Y-53181250D01*
X70437500Y-57081250D02*
X70437500Y-53181250D01*
X72437500Y-57081250D02*
X70437500Y-57081250D01*
X53387500Y-57081250D02*
X53387500Y-53181250D01*
X51387500Y-57081250D02*
X51387500Y-53181250D01*
X53387500Y-57081250D02*
X51387500Y-57081250D01*
X203696500Y-138466328D02*
X203696500Y-137949172D01*
X205116500Y-138466328D02*
X205116500Y-137949172D01*
X182679078Y-140791000D02*
X182161922Y-140791000D01*
X182679078Y-139371000D02*
X182161922Y-139371000D01*
X205053000Y-130377672D02*
X205053000Y-130894828D01*
X203633000Y-130377672D02*
X203633000Y-130894828D01*
X178176422Y-138164500D02*
X178693578Y-138164500D01*
X178176422Y-139584500D02*
X178693578Y-139584500D01*
X178549828Y-130059500D02*
X178032672Y-130059500D01*
X178549828Y-128639500D02*
X178032672Y-128639500D01*
X183822078Y-133275000D02*
X183304922Y-133275000D01*
X183822078Y-134695000D02*
X183304922Y-134695000D01*
X183209000Y-129329922D02*
X183209000Y-129847078D01*
X181789000Y-129329922D02*
X181789000Y-129847078D01*
D12*
X221443333Y-131669571D02*
X221776666Y-131669571D01*
X221776666Y-132193380D02*
X221776666Y-131193380D01*
X221300476Y-131193380D01*
X220395714Y-132193380D02*
X220967142Y-132193380D01*
X220681428Y-132193380D02*
X220681428Y-131193380D01*
X220776666Y-131336238D01*
X220871904Y-131431476D01*
X220967142Y-131479095D01*
X73889880Y-35043154D02*
X72889880Y-35043154D01*
X72889880Y-35281250D01*
X72937500Y-35424107D01*
X73032738Y-35519345D01*
X73127976Y-35566964D01*
X73318452Y-35614583D01*
X73461309Y-35614583D01*
X73651785Y-35566964D01*
X73747023Y-35519345D01*
X73842261Y-35424107D01*
X73889880Y-35281250D01*
X73889880Y-35043154D01*
X72889880Y-35947916D02*
X72889880Y-36566964D01*
X73270833Y-36233630D01*
X73270833Y-36376488D01*
X73318452Y-36471726D01*
X73366071Y-36519345D01*
X73461309Y-36566964D01*
X73699404Y-36566964D01*
X73794642Y-36519345D01*
X73842261Y-36471726D01*
X73889880Y-36376488D01*
X73889880Y-36090773D01*
X73842261Y-35995535D01*
X73794642Y-35947916D01*
X54839880Y-35043154D02*
X53839880Y-35043154D01*
X53839880Y-35281250D01*
X53887500Y-35424107D01*
X53982738Y-35519345D01*
X54077976Y-35566964D01*
X54268452Y-35614583D01*
X54411309Y-35614583D01*
X54601785Y-35566964D01*
X54697023Y-35519345D01*
X54792261Y-35424107D01*
X54839880Y-35281250D01*
X54839880Y-35043154D01*
X54839880Y-36566964D02*
X54839880Y-35995535D01*
X54839880Y-36281250D02*
X53839880Y-36281250D01*
X53982738Y-36186011D01*
X54077976Y-36090773D01*
X54125595Y-35995535D01*
X226162880Y-91716964D02*
X225162880Y-91716964D01*
X225162880Y-91955059D01*
X225210500Y-92097916D01*
X225305738Y-92193154D01*
X225400976Y-92240773D01*
X225591452Y-92288392D01*
X225734309Y-92288392D01*
X225924785Y-92240773D01*
X226020023Y-92193154D01*
X226115261Y-92097916D01*
X226162880Y-91955059D01*
X226162880Y-91716964D01*
X225496214Y-93145535D02*
X226162880Y-93145535D01*
X225115261Y-92907440D02*
X225829547Y-92669345D01*
X225829547Y-93288392D01*
X225591452Y-93812202D02*
X225543833Y-93716964D01*
X225496214Y-93669345D01*
X225400976Y-93621726D01*
X225353357Y-93621726D01*
X225258119Y-93669345D01*
X225210500Y-93716964D01*
X225162880Y-93812202D01*
X225162880Y-94002678D01*
X225210500Y-94097916D01*
X225258119Y-94145535D01*
X225353357Y-94193154D01*
X225400976Y-94193154D01*
X225496214Y-94145535D01*
X225543833Y-94097916D01*
X225591452Y-94002678D01*
X225591452Y-93812202D01*
X225639071Y-93716964D01*
X225686690Y-93669345D01*
X225781928Y-93621726D01*
X225972404Y-93621726D01*
X226067642Y-93669345D01*
X226115261Y-93716964D01*
X226162880Y-93812202D01*
X226162880Y-94002678D01*
X226115261Y-94097916D01*
X226067642Y-94145535D01*
X225972404Y-94193154D01*
X225781928Y-94193154D01*
X225686690Y-94145535D01*
X225639071Y-94097916D01*
X225591452Y-94002678D01*
X226162880Y-53616964D02*
X225162880Y-53616964D01*
X225162880Y-53855059D01*
X225210500Y-53997916D01*
X225305738Y-54093154D01*
X225400976Y-54140773D01*
X225591452Y-54188392D01*
X225734309Y-54188392D01*
X225924785Y-54140773D01*
X226020023Y-54093154D01*
X226115261Y-53997916D01*
X226162880Y-53855059D01*
X226162880Y-53616964D01*
X225496214Y-55045535D02*
X226162880Y-55045535D01*
X225115261Y-54807440D02*
X225829547Y-54569345D01*
X225829547Y-55188392D01*
X225162880Y-55474107D02*
X225162880Y-56140773D01*
X226162880Y-55712202D01*
X226162880Y-34566964D02*
X225162880Y-34566964D01*
X225162880Y-34805059D01*
X225210500Y-34947916D01*
X225305738Y-35043154D01*
X225400976Y-35090773D01*
X225591452Y-35138392D01*
X225734309Y-35138392D01*
X225924785Y-35090773D01*
X226020023Y-35043154D01*
X226115261Y-34947916D01*
X226162880Y-34805059D01*
X226162880Y-34566964D01*
X225496214Y-35995535D02*
X226162880Y-35995535D01*
X225115261Y-35757440D02*
X225829547Y-35519345D01*
X225829547Y-36138392D01*
X225162880Y-36947916D02*
X225162880Y-36757440D01*
X225210500Y-36662202D01*
X225258119Y-36614583D01*
X225400976Y-36519345D01*
X225591452Y-36471726D01*
X225972404Y-36471726D01*
X226067642Y-36519345D01*
X226115261Y-36566964D01*
X226162880Y-36662202D01*
X226162880Y-36852678D01*
X226115261Y-36947916D01*
X226067642Y-36995535D01*
X225972404Y-37043154D01*
X225734309Y-37043154D01*
X225639071Y-36995535D01*
X225591452Y-36947916D01*
X225543833Y-36852678D01*
X225543833Y-36662202D01*
X225591452Y-36566964D01*
X225639071Y-36519345D01*
X225734309Y-36471726D01*
X226162880Y-110766964D02*
X225162880Y-110766964D01*
X225162880Y-111005059D01*
X225210500Y-111147916D01*
X225305738Y-111243154D01*
X225400976Y-111290773D01*
X225591452Y-111338392D01*
X225734309Y-111338392D01*
X225924785Y-111290773D01*
X226020023Y-111243154D01*
X226115261Y-111147916D01*
X226162880Y-111005059D01*
X226162880Y-110766964D01*
X225496214Y-112195535D02*
X226162880Y-112195535D01*
X225115261Y-111957440D02*
X225829547Y-111719345D01*
X225829547Y-112338392D01*
X225162880Y-113195535D02*
X225162880Y-112719345D01*
X225639071Y-112671726D01*
X225591452Y-112719345D01*
X225543833Y-112814583D01*
X225543833Y-113052678D01*
X225591452Y-113147916D01*
X225639071Y-113195535D01*
X225734309Y-113243154D01*
X225972404Y-113243154D01*
X226067642Y-113195535D01*
X226115261Y-113147916D01*
X226162880Y-113052678D01*
X226162880Y-112814583D01*
X226115261Y-112719345D01*
X226067642Y-112671726D01*
X207112880Y-91717964D02*
X206112880Y-91717964D01*
X206112880Y-91956059D01*
X206160500Y-92098916D01*
X206255738Y-92194154D01*
X206350976Y-92241773D01*
X206541452Y-92289392D01*
X206684309Y-92289392D01*
X206874785Y-92241773D01*
X206970023Y-92194154D01*
X207065261Y-92098916D01*
X207112880Y-91956059D01*
X207112880Y-91717964D01*
X206446214Y-93146535D02*
X207112880Y-93146535D01*
X206065261Y-92908440D02*
X206779547Y-92670345D01*
X206779547Y-93289392D01*
X206446214Y-94098916D02*
X207112880Y-94098916D01*
X206065261Y-93860821D02*
X206779547Y-93622726D01*
X206779547Y-94241773D01*
X216637880Y-72666964D02*
X215637880Y-72666964D01*
X215637880Y-72905059D01*
X215685500Y-73047916D01*
X215780738Y-73143154D01*
X215875976Y-73190773D01*
X216066452Y-73238392D01*
X216209309Y-73238392D01*
X216399785Y-73190773D01*
X216495023Y-73143154D01*
X216590261Y-73047916D01*
X216637880Y-72905059D01*
X216637880Y-72666964D01*
X215971214Y-74095535D02*
X216637880Y-74095535D01*
X215590261Y-73857440D02*
X216304547Y-73619345D01*
X216304547Y-74238392D01*
X215637880Y-74524107D02*
X215637880Y-75143154D01*
X216018833Y-74809821D01*
X216018833Y-74952678D01*
X216066452Y-75047916D01*
X216114071Y-75095535D01*
X216209309Y-75143154D01*
X216447404Y-75143154D01*
X216542642Y-75095535D01*
X216590261Y-75047916D01*
X216637880Y-74952678D01*
X216637880Y-74666964D01*
X216590261Y-74571726D01*
X216542642Y-74524107D01*
X207112880Y-53616964D02*
X206112880Y-53616964D01*
X206112880Y-53855059D01*
X206160500Y-53997916D01*
X206255738Y-54093154D01*
X206350976Y-54140773D01*
X206541452Y-54188392D01*
X206684309Y-54188392D01*
X206874785Y-54140773D01*
X206970023Y-54093154D01*
X207065261Y-53997916D01*
X207112880Y-53855059D01*
X207112880Y-53616964D01*
X206446214Y-55045535D02*
X207112880Y-55045535D01*
X206065261Y-54807440D02*
X206779547Y-54569345D01*
X206779547Y-55188392D01*
X206208119Y-55521726D02*
X206160500Y-55569345D01*
X206112880Y-55664583D01*
X206112880Y-55902678D01*
X206160500Y-55997916D01*
X206208119Y-56045535D01*
X206303357Y-56093154D01*
X206398595Y-56093154D01*
X206541452Y-56045535D01*
X207112880Y-55474107D01*
X207112880Y-56093154D01*
X207112880Y-34567964D02*
X206112880Y-34567964D01*
X206112880Y-34806059D01*
X206160500Y-34948916D01*
X206255738Y-35044154D01*
X206350976Y-35091773D01*
X206541452Y-35139392D01*
X206684309Y-35139392D01*
X206874785Y-35091773D01*
X206970023Y-35044154D01*
X207065261Y-34948916D01*
X207112880Y-34806059D01*
X207112880Y-34567964D01*
X206446214Y-35996535D02*
X207112880Y-35996535D01*
X206065261Y-35758440D02*
X206779547Y-35520345D01*
X206779547Y-36139392D01*
X207112880Y-37044154D02*
X207112880Y-36472726D01*
X207112880Y-36758440D02*
X206112880Y-36758440D01*
X206255738Y-36663202D01*
X206350976Y-36567964D01*
X206398595Y-36472726D01*
X207112880Y-110766964D02*
X206112880Y-110766964D01*
X206112880Y-111005059D01*
X206160500Y-111147916D01*
X206255738Y-111243154D01*
X206350976Y-111290773D01*
X206541452Y-111338392D01*
X206684309Y-111338392D01*
X206874785Y-111290773D01*
X206970023Y-111243154D01*
X207065261Y-111147916D01*
X207112880Y-111005059D01*
X207112880Y-110766964D01*
X206446214Y-112195535D02*
X207112880Y-112195535D01*
X206065261Y-111957440D02*
X206779547Y-111719345D01*
X206779547Y-112338392D01*
X206112880Y-112909821D02*
X206112880Y-113005059D01*
X206160500Y-113100297D01*
X206208119Y-113147916D01*
X206303357Y-113195535D01*
X206493833Y-113243154D01*
X206731928Y-113243154D01*
X206922404Y-113195535D01*
X207017642Y-113147916D01*
X207065261Y-113100297D01*
X207112880Y-113005059D01*
X207112880Y-112909821D01*
X207065261Y-112814583D01*
X207017642Y-112766964D01*
X206922404Y-112719345D01*
X206731928Y-112671726D01*
X206493833Y-112671726D01*
X206303357Y-112719345D01*
X206208119Y-112766964D01*
X206160500Y-112814583D01*
X206112880Y-112909821D01*
X188062880Y-91716964D02*
X187062880Y-91716964D01*
X187062880Y-91955059D01*
X187110500Y-92097916D01*
X187205738Y-92193154D01*
X187300976Y-92240773D01*
X187491452Y-92288392D01*
X187634309Y-92288392D01*
X187824785Y-92240773D01*
X187920023Y-92193154D01*
X188015261Y-92097916D01*
X188062880Y-91955059D01*
X188062880Y-91716964D01*
X187062880Y-92621726D02*
X187062880Y-93240773D01*
X187443833Y-92907440D01*
X187443833Y-93050297D01*
X187491452Y-93145535D01*
X187539071Y-93193154D01*
X187634309Y-93240773D01*
X187872404Y-93240773D01*
X187967642Y-93193154D01*
X188015261Y-93145535D01*
X188062880Y-93050297D01*
X188062880Y-92764583D01*
X188015261Y-92669345D01*
X187967642Y-92621726D01*
X188062880Y-93716964D02*
X188062880Y-93907440D01*
X188015261Y-94002678D01*
X187967642Y-94050297D01*
X187824785Y-94145535D01*
X187634309Y-94193154D01*
X187253357Y-94193154D01*
X187158119Y-94145535D01*
X187110500Y-94097916D01*
X187062880Y-94002678D01*
X187062880Y-93812202D01*
X187110500Y-93716964D01*
X187158119Y-93669345D01*
X187253357Y-93621726D01*
X187491452Y-93621726D01*
X187586690Y-93669345D01*
X187634309Y-93716964D01*
X187681928Y-93812202D01*
X187681928Y-94002678D01*
X187634309Y-94097916D01*
X187586690Y-94145535D01*
X187491452Y-94193154D01*
X197460880Y-72540964D02*
X196460880Y-72540964D01*
X196460880Y-72779059D01*
X196508500Y-72921916D01*
X196603738Y-73017154D01*
X196698976Y-73064773D01*
X196889452Y-73112392D01*
X197032309Y-73112392D01*
X197222785Y-73064773D01*
X197318023Y-73017154D01*
X197413261Y-72921916D01*
X197460880Y-72779059D01*
X197460880Y-72540964D01*
X196460880Y-73445726D02*
X196460880Y-74064773D01*
X196841833Y-73731440D01*
X196841833Y-73874297D01*
X196889452Y-73969535D01*
X196937071Y-74017154D01*
X197032309Y-74064773D01*
X197270404Y-74064773D01*
X197365642Y-74017154D01*
X197413261Y-73969535D01*
X197460880Y-73874297D01*
X197460880Y-73588583D01*
X197413261Y-73493345D01*
X197365642Y-73445726D01*
X196889452Y-74636202D02*
X196841833Y-74540964D01*
X196794214Y-74493345D01*
X196698976Y-74445726D01*
X196651357Y-74445726D01*
X196556119Y-74493345D01*
X196508500Y-74540964D01*
X196460880Y-74636202D01*
X196460880Y-74826678D01*
X196508500Y-74921916D01*
X196556119Y-74969535D01*
X196651357Y-75017154D01*
X196698976Y-75017154D01*
X196794214Y-74969535D01*
X196841833Y-74921916D01*
X196889452Y-74826678D01*
X196889452Y-74636202D01*
X196937071Y-74540964D01*
X196984690Y-74493345D01*
X197079928Y-74445726D01*
X197270404Y-74445726D01*
X197365642Y-74493345D01*
X197413261Y-74540964D01*
X197460880Y-74636202D01*
X197460880Y-74826678D01*
X197413261Y-74921916D01*
X197365642Y-74969535D01*
X197270404Y-75017154D01*
X197079928Y-75017154D01*
X196984690Y-74969535D01*
X196937071Y-74921916D01*
X196889452Y-74826678D01*
X188062880Y-53616964D02*
X187062880Y-53616964D01*
X187062880Y-53855059D01*
X187110500Y-53997916D01*
X187205738Y-54093154D01*
X187300976Y-54140773D01*
X187491452Y-54188392D01*
X187634309Y-54188392D01*
X187824785Y-54140773D01*
X187920023Y-54093154D01*
X188015261Y-53997916D01*
X188062880Y-53855059D01*
X188062880Y-53616964D01*
X187062880Y-54521726D02*
X187062880Y-55140773D01*
X187443833Y-54807440D01*
X187443833Y-54950297D01*
X187491452Y-55045535D01*
X187539071Y-55093154D01*
X187634309Y-55140773D01*
X187872404Y-55140773D01*
X187967642Y-55093154D01*
X188015261Y-55045535D01*
X188062880Y-54950297D01*
X188062880Y-54664583D01*
X188015261Y-54569345D01*
X187967642Y-54521726D01*
X187062880Y-55474107D02*
X187062880Y-56140773D01*
X188062880Y-55712202D01*
X188062880Y-34566964D02*
X187062880Y-34566964D01*
X187062880Y-34805059D01*
X187110500Y-34947916D01*
X187205738Y-35043154D01*
X187300976Y-35090773D01*
X187491452Y-35138392D01*
X187634309Y-35138392D01*
X187824785Y-35090773D01*
X187920023Y-35043154D01*
X188015261Y-34947916D01*
X188062880Y-34805059D01*
X188062880Y-34566964D01*
X187062880Y-35471726D02*
X187062880Y-36090773D01*
X187443833Y-35757440D01*
X187443833Y-35900297D01*
X187491452Y-35995535D01*
X187539071Y-36043154D01*
X187634309Y-36090773D01*
X187872404Y-36090773D01*
X187967642Y-36043154D01*
X188015261Y-35995535D01*
X188062880Y-35900297D01*
X188062880Y-35614583D01*
X188015261Y-35519345D01*
X187967642Y-35471726D01*
X187062880Y-36947916D02*
X187062880Y-36757440D01*
X187110500Y-36662202D01*
X187158119Y-36614583D01*
X187300976Y-36519345D01*
X187491452Y-36471726D01*
X187872404Y-36471726D01*
X187967642Y-36519345D01*
X188015261Y-36566964D01*
X188062880Y-36662202D01*
X188062880Y-36852678D01*
X188015261Y-36947916D01*
X187967642Y-36995535D01*
X187872404Y-37043154D01*
X187634309Y-37043154D01*
X187539071Y-36995535D01*
X187491452Y-36947916D01*
X187443833Y-36852678D01*
X187443833Y-36662202D01*
X187491452Y-36566964D01*
X187539071Y-36519345D01*
X187634309Y-36471726D01*
X188062880Y-110766964D02*
X187062880Y-110766964D01*
X187062880Y-111005059D01*
X187110500Y-111147916D01*
X187205738Y-111243154D01*
X187300976Y-111290773D01*
X187491452Y-111338392D01*
X187634309Y-111338392D01*
X187824785Y-111290773D01*
X187920023Y-111243154D01*
X188015261Y-111147916D01*
X188062880Y-111005059D01*
X188062880Y-110766964D01*
X187062880Y-111671726D02*
X187062880Y-112290773D01*
X187443833Y-111957440D01*
X187443833Y-112100297D01*
X187491452Y-112195535D01*
X187539071Y-112243154D01*
X187634309Y-112290773D01*
X187872404Y-112290773D01*
X187967642Y-112243154D01*
X188015261Y-112195535D01*
X188062880Y-112100297D01*
X188062880Y-111814583D01*
X188015261Y-111719345D01*
X187967642Y-111671726D01*
X187062880Y-113195535D02*
X187062880Y-112719345D01*
X187539071Y-112671726D01*
X187491452Y-112719345D01*
X187443833Y-112814583D01*
X187443833Y-113052678D01*
X187491452Y-113147916D01*
X187539071Y-113195535D01*
X187634309Y-113243154D01*
X187872404Y-113243154D01*
X187967642Y-113195535D01*
X188015261Y-113147916D01*
X188062880Y-113052678D01*
X188062880Y-112814583D01*
X188015261Y-112719345D01*
X187967642Y-112671726D01*
X169139880Y-91716964D02*
X168139880Y-91716964D01*
X168139880Y-91955059D01*
X168187500Y-92097916D01*
X168282738Y-92193154D01*
X168377976Y-92240773D01*
X168568452Y-92288392D01*
X168711309Y-92288392D01*
X168901785Y-92240773D01*
X168997023Y-92193154D01*
X169092261Y-92097916D01*
X169139880Y-91955059D01*
X169139880Y-91716964D01*
X168139880Y-92621726D02*
X168139880Y-93240773D01*
X168520833Y-92907440D01*
X168520833Y-93050297D01*
X168568452Y-93145535D01*
X168616071Y-93193154D01*
X168711309Y-93240773D01*
X168949404Y-93240773D01*
X169044642Y-93193154D01*
X169092261Y-93145535D01*
X169139880Y-93050297D01*
X169139880Y-92764583D01*
X169092261Y-92669345D01*
X169044642Y-92621726D01*
X168473214Y-94097916D02*
X169139880Y-94097916D01*
X168092261Y-93859821D02*
X168806547Y-93621726D01*
X168806547Y-94240773D01*
X178537880Y-72666964D02*
X177537880Y-72666964D01*
X177537880Y-72905059D01*
X177585500Y-73047916D01*
X177680738Y-73143154D01*
X177775976Y-73190773D01*
X177966452Y-73238392D01*
X178109309Y-73238392D01*
X178299785Y-73190773D01*
X178395023Y-73143154D01*
X178490261Y-73047916D01*
X178537880Y-72905059D01*
X178537880Y-72666964D01*
X177537880Y-73571726D02*
X177537880Y-74190773D01*
X177918833Y-73857440D01*
X177918833Y-74000297D01*
X177966452Y-74095535D01*
X178014071Y-74143154D01*
X178109309Y-74190773D01*
X178347404Y-74190773D01*
X178442642Y-74143154D01*
X178490261Y-74095535D01*
X178537880Y-74000297D01*
X178537880Y-73714583D01*
X178490261Y-73619345D01*
X178442642Y-73571726D01*
X177537880Y-74524107D02*
X177537880Y-75143154D01*
X177918833Y-74809821D01*
X177918833Y-74952678D01*
X177966452Y-75047916D01*
X178014071Y-75095535D01*
X178109309Y-75143154D01*
X178347404Y-75143154D01*
X178442642Y-75095535D01*
X178490261Y-75047916D01*
X178537880Y-74952678D01*
X178537880Y-74666964D01*
X178490261Y-74571726D01*
X178442642Y-74524107D01*
X169012880Y-53616964D02*
X168012880Y-53616964D01*
X168012880Y-53855059D01*
X168060500Y-53997916D01*
X168155738Y-54093154D01*
X168250976Y-54140773D01*
X168441452Y-54188392D01*
X168584309Y-54188392D01*
X168774785Y-54140773D01*
X168870023Y-54093154D01*
X168965261Y-53997916D01*
X169012880Y-53855059D01*
X169012880Y-53616964D01*
X168012880Y-54521726D02*
X168012880Y-55140773D01*
X168393833Y-54807440D01*
X168393833Y-54950297D01*
X168441452Y-55045535D01*
X168489071Y-55093154D01*
X168584309Y-55140773D01*
X168822404Y-55140773D01*
X168917642Y-55093154D01*
X168965261Y-55045535D01*
X169012880Y-54950297D01*
X169012880Y-54664583D01*
X168965261Y-54569345D01*
X168917642Y-54521726D01*
X168108119Y-55521726D02*
X168060500Y-55569345D01*
X168012880Y-55664583D01*
X168012880Y-55902678D01*
X168060500Y-55997916D01*
X168108119Y-56045535D01*
X168203357Y-56093154D01*
X168298595Y-56093154D01*
X168441452Y-56045535D01*
X169012880Y-55474107D01*
X169012880Y-56093154D01*
X169012880Y-34567964D02*
X168012880Y-34567964D01*
X168012880Y-34806059D01*
X168060500Y-34948916D01*
X168155738Y-35044154D01*
X168250976Y-35091773D01*
X168441452Y-35139392D01*
X168584309Y-35139392D01*
X168774785Y-35091773D01*
X168870023Y-35044154D01*
X168965261Y-34948916D01*
X169012880Y-34806059D01*
X169012880Y-34567964D01*
X168012880Y-35472726D02*
X168012880Y-36091773D01*
X168393833Y-35758440D01*
X168393833Y-35901297D01*
X168441452Y-35996535D01*
X168489071Y-36044154D01*
X168584309Y-36091773D01*
X168822404Y-36091773D01*
X168917642Y-36044154D01*
X168965261Y-35996535D01*
X169012880Y-35901297D01*
X169012880Y-35615583D01*
X168965261Y-35520345D01*
X168917642Y-35472726D01*
X169012880Y-37044154D02*
X169012880Y-36472726D01*
X169012880Y-36758440D02*
X168012880Y-36758440D01*
X168155738Y-36663202D01*
X168250976Y-36567964D01*
X168298595Y-36472726D01*
X164186880Y-110639964D02*
X163186880Y-110639964D01*
X163186880Y-110878059D01*
X163234500Y-111020916D01*
X163329738Y-111116154D01*
X163424976Y-111163773D01*
X163615452Y-111211392D01*
X163758309Y-111211392D01*
X163948785Y-111163773D01*
X164044023Y-111116154D01*
X164139261Y-111020916D01*
X164186880Y-110878059D01*
X164186880Y-110639964D01*
X163186880Y-111544726D02*
X163186880Y-112163773D01*
X163567833Y-111830440D01*
X163567833Y-111973297D01*
X163615452Y-112068535D01*
X163663071Y-112116154D01*
X163758309Y-112163773D01*
X163996404Y-112163773D01*
X164091642Y-112116154D01*
X164139261Y-112068535D01*
X164186880Y-111973297D01*
X164186880Y-111687583D01*
X164139261Y-111592345D01*
X164091642Y-111544726D01*
X163186880Y-112782821D02*
X163186880Y-112878059D01*
X163234500Y-112973297D01*
X163282119Y-113020916D01*
X163377357Y-113068535D01*
X163567833Y-113116154D01*
X163805928Y-113116154D01*
X163996404Y-113068535D01*
X164091642Y-113020916D01*
X164139261Y-112973297D01*
X164186880Y-112878059D01*
X164186880Y-112782821D01*
X164139261Y-112687583D01*
X164091642Y-112639964D01*
X163996404Y-112592345D01*
X163805928Y-112544726D01*
X163567833Y-112544726D01*
X163377357Y-112592345D01*
X163282119Y-112639964D01*
X163234500Y-112687583D01*
X163186880Y-112782821D01*
X149962880Y-91716964D02*
X148962880Y-91716964D01*
X148962880Y-91955059D01*
X149010500Y-92097916D01*
X149105738Y-92193154D01*
X149200976Y-92240773D01*
X149391452Y-92288392D01*
X149534309Y-92288392D01*
X149724785Y-92240773D01*
X149820023Y-92193154D01*
X149915261Y-92097916D01*
X149962880Y-91955059D01*
X149962880Y-91716964D01*
X149058119Y-92669345D02*
X149010500Y-92716964D01*
X148962880Y-92812202D01*
X148962880Y-93050297D01*
X149010500Y-93145535D01*
X149058119Y-93193154D01*
X149153357Y-93240773D01*
X149248595Y-93240773D01*
X149391452Y-93193154D01*
X149962880Y-92621726D01*
X149962880Y-93240773D01*
X149962880Y-93716964D02*
X149962880Y-93907440D01*
X149915261Y-94002678D01*
X149867642Y-94050297D01*
X149724785Y-94145535D01*
X149534309Y-94193154D01*
X149153357Y-94193154D01*
X149058119Y-94145535D01*
X149010500Y-94097916D01*
X148962880Y-94002678D01*
X148962880Y-93812202D01*
X149010500Y-93716964D01*
X149058119Y-93669345D01*
X149153357Y-93621726D01*
X149391452Y-93621726D01*
X149486690Y-93669345D01*
X149534309Y-93716964D01*
X149581928Y-93812202D01*
X149581928Y-94002678D01*
X149534309Y-94097916D01*
X149486690Y-94145535D01*
X149391452Y-94193154D01*
X159487880Y-72666964D02*
X158487880Y-72666964D01*
X158487880Y-72905059D01*
X158535500Y-73047916D01*
X158630738Y-73143154D01*
X158725976Y-73190773D01*
X158916452Y-73238392D01*
X159059309Y-73238392D01*
X159249785Y-73190773D01*
X159345023Y-73143154D01*
X159440261Y-73047916D01*
X159487880Y-72905059D01*
X159487880Y-72666964D01*
X158583119Y-73619345D02*
X158535500Y-73666964D01*
X158487880Y-73762202D01*
X158487880Y-74000297D01*
X158535500Y-74095535D01*
X158583119Y-74143154D01*
X158678357Y-74190773D01*
X158773595Y-74190773D01*
X158916452Y-74143154D01*
X159487880Y-73571726D01*
X159487880Y-74190773D01*
X158916452Y-74762202D02*
X158868833Y-74666964D01*
X158821214Y-74619345D01*
X158725976Y-74571726D01*
X158678357Y-74571726D01*
X158583119Y-74619345D01*
X158535500Y-74666964D01*
X158487880Y-74762202D01*
X158487880Y-74952678D01*
X158535500Y-75047916D01*
X158583119Y-75095535D01*
X158678357Y-75143154D01*
X158725976Y-75143154D01*
X158821214Y-75095535D01*
X158868833Y-75047916D01*
X158916452Y-74952678D01*
X158916452Y-74762202D01*
X158964071Y-74666964D01*
X159011690Y-74619345D01*
X159106928Y-74571726D01*
X159297404Y-74571726D01*
X159392642Y-74619345D01*
X159440261Y-74666964D01*
X159487880Y-74762202D01*
X159487880Y-74952678D01*
X159440261Y-75047916D01*
X159392642Y-75095535D01*
X159297404Y-75143154D01*
X159106928Y-75143154D01*
X159011690Y-75095535D01*
X158964071Y-75047916D01*
X158916452Y-74952678D01*
X149962880Y-53616964D02*
X148962880Y-53616964D01*
X148962880Y-53855059D01*
X149010500Y-53997916D01*
X149105738Y-54093154D01*
X149200976Y-54140773D01*
X149391452Y-54188392D01*
X149534309Y-54188392D01*
X149724785Y-54140773D01*
X149820023Y-54093154D01*
X149915261Y-53997916D01*
X149962880Y-53855059D01*
X149962880Y-53616964D01*
X149058119Y-54569345D02*
X149010500Y-54616964D01*
X148962880Y-54712202D01*
X148962880Y-54950297D01*
X149010500Y-55045535D01*
X149058119Y-55093154D01*
X149153357Y-55140773D01*
X149248595Y-55140773D01*
X149391452Y-55093154D01*
X149962880Y-54521726D01*
X149962880Y-55140773D01*
X148962880Y-55474107D02*
X148962880Y-56140773D01*
X149962880Y-55712202D01*
X149962880Y-34566964D02*
X148962880Y-34566964D01*
X148962880Y-34805059D01*
X149010500Y-34947916D01*
X149105738Y-35043154D01*
X149200976Y-35090773D01*
X149391452Y-35138392D01*
X149534309Y-35138392D01*
X149724785Y-35090773D01*
X149820023Y-35043154D01*
X149915261Y-34947916D01*
X149962880Y-34805059D01*
X149962880Y-34566964D01*
X149058119Y-35519345D02*
X149010500Y-35566964D01*
X148962880Y-35662202D01*
X148962880Y-35900297D01*
X149010500Y-35995535D01*
X149058119Y-36043154D01*
X149153357Y-36090773D01*
X149248595Y-36090773D01*
X149391452Y-36043154D01*
X149962880Y-35471726D01*
X149962880Y-36090773D01*
X148962880Y-36947916D02*
X148962880Y-36757440D01*
X149010500Y-36662202D01*
X149058119Y-36614583D01*
X149200976Y-36519345D01*
X149391452Y-36471726D01*
X149772404Y-36471726D01*
X149867642Y-36519345D01*
X149915261Y-36566964D01*
X149962880Y-36662202D01*
X149962880Y-36852678D01*
X149915261Y-36947916D01*
X149867642Y-36995535D01*
X149772404Y-37043154D01*
X149534309Y-37043154D01*
X149439071Y-36995535D01*
X149391452Y-36947916D01*
X149343833Y-36852678D01*
X149343833Y-36662202D01*
X149391452Y-36566964D01*
X149439071Y-36519345D01*
X149534309Y-36471726D01*
X140437880Y-110766964D02*
X139437880Y-110766964D01*
X139437880Y-111005059D01*
X139485500Y-111147916D01*
X139580738Y-111243154D01*
X139675976Y-111290773D01*
X139866452Y-111338392D01*
X140009309Y-111338392D01*
X140199785Y-111290773D01*
X140295023Y-111243154D01*
X140390261Y-111147916D01*
X140437880Y-111005059D01*
X140437880Y-110766964D01*
X139533119Y-111719345D02*
X139485500Y-111766964D01*
X139437880Y-111862202D01*
X139437880Y-112100297D01*
X139485500Y-112195535D01*
X139533119Y-112243154D01*
X139628357Y-112290773D01*
X139723595Y-112290773D01*
X139866452Y-112243154D01*
X140437880Y-111671726D01*
X140437880Y-112290773D01*
X139437880Y-113195535D02*
X139437880Y-112719345D01*
X139914071Y-112671726D01*
X139866452Y-112719345D01*
X139818833Y-112814583D01*
X139818833Y-113052678D01*
X139866452Y-113147916D01*
X139914071Y-113195535D01*
X140009309Y-113243154D01*
X140247404Y-113243154D01*
X140342642Y-113195535D01*
X140390261Y-113147916D01*
X140437880Y-113052678D01*
X140437880Y-112814583D01*
X140390261Y-112719345D01*
X140342642Y-112671726D01*
X130912880Y-91589964D02*
X129912880Y-91589964D01*
X129912880Y-91828059D01*
X129960500Y-91970916D01*
X130055738Y-92066154D01*
X130150976Y-92113773D01*
X130341452Y-92161392D01*
X130484309Y-92161392D01*
X130674785Y-92113773D01*
X130770023Y-92066154D01*
X130865261Y-91970916D01*
X130912880Y-91828059D01*
X130912880Y-91589964D01*
X130008119Y-92542345D02*
X129960500Y-92589964D01*
X129912880Y-92685202D01*
X129912880Y-92923297D01*
X129960500Y-93018535D01*
X130008119Y-93066154D01*
X130103357Y-93113773D01*
X130198595Y-93113773D01*
X130341452Y-93066154D01*
X130912880Y-92494726D01*
X130912880Y-93113773D01*
X130246214Y-93970916D02*
X130912880Y-93970916D01*
X129865261Y-93732821D02*
X130579547Y-93494726D01*
X130579547Y-94113773D01*
X140437880Y-72666964D02*
X139437880Y-72666964D01*
X139437880Y-72905059D01*
X139485500Y-73047916D01*
X139580738Y-73143154D01*
X139675976Y-73190773D01*
X139866452Y-73238392D01*
X140009309Y-73238392D01*
X140199785Y-73190773D01*
X140295023Y-73143154D01*
X140390261Y-73047916D01*
X140437880Y-72905059D01*
X140437880Y-72666964D01*
X139533119Y-73619345D02*
X139485500Y-73666964D01*
X139437880Y-73762202D01*
X139437880Y-74000297D01*
X139485500Y-74095535D01*
X139533119Y-74143154D01*
X139628357Y-74190773D01*
X139723595Y-74190773D01*
X139866452Y-74143154D01*
X140437880Y-73571726D01*
X140437880Y-74190773D01*
X139437880Y-74524107D02*
X139437880Y-75143154D01*
X139818833Y-74809821D01*
X139818833Y-74952678D01*
X139866452Y-75047916D01*
X139914071Y-75095535D01*
X140009309Y-75143154D01*
X140247404Y-75143154D01*
X140342642Y-75095535D01*
X140390261Y-75047916D01*
X140437880Y-74952678D01*
X140437880Y-74666964D01*
X140390261Y-74571726D01*
X140342642Y-74524107D01*
X130912880Y-53616964D02*
X129912880Y-53616964D01*
X129912880Y-53855059D01*
X129960500Y-53997916D01*
X130055738Y-54093154D01*
X130150976Y-54140773D01*
X130341452Y-54188392D01*
X130484309Y-54188392D01*
X130674785Y-54140773D01*
X130770023Y-54093154D01*
X130865261Y-53997916D01*
X130912880Y-53855059D01*
X130912880Y-53616964D01*
X130008119Y-54569345D02*
X129960500Y-54616964D01*
X129912880Y-54712202D01*
X129912880Y-54950297D01*
X129960500Y-55045535D01*
X130008119Y-55093154D01*
X130103357Y-55140773D01*
X130198595Y-55140773D01*
X130341452Y-55093154D01*
X130912880Y-54521726D01*
X130912880Y-55140773D01*
X130008119Y-55521726D02*
X129960500Y-55569345D01*
X129912880Y-55664583D01*
X129912880Y-55902678D01*
X129960500Y-55997916D01*
X130008119Y-56045535D01*
X130103357Y-56093154D01*
X130198595Y-56093154D01*
X130341452Y-56045535D01*
X130912880Y-55474107D01*
X130912880Y-56093154D01*
X130912880Y-34566964D02*
X129912880Y-34566964D01*
X129912880Y-34805059D01*
X129960500Y-34947916D01*
X130055738Y-35043154D01*
X130150976Y-35090773D01*
X130341452Y-35138392D01*
X130484309Y-35138392D01*
X130674785Y-35090773D01*
X130770023Y-35043154D01*
X130865261Y-34947916D01*
X130912880Y-34805059D01*
X130912880Y-34566964D01*
X130008119Y-35519345D02*
X129960500Y-35566964D01*
X129912880Y-35662202D01*
X129912880Y-35900297D01*
X129960500Y-35995535D01*
X130008119Y-36043154D01*
X130103357Y-36090773D01*
X130198595Y-36090773D01*
X130341452Y-36043154D01*
X130912880Y-35471726D01*
X130912880Y-36090773D01*
X130912880Y-37043154D02*
X130912880Y-36471726D01*
X130912880Y-36757440D02*
X129912880Y-36757440D01*
X130055738Y-36662202D01*
X130150976Y-36566964D01*
X130198595Y-36471726D01*
X116688880Y-110766964D02*
X115688880Y-110766964D01*
X115688880Y-111005059D01*
X115736500Y-111147916D01*
X115831738Y-111243154D01*
X115926976Y-111290773D01*
X116117452Y-111338392D01*
X116260309Y-111338392D01*
X116450785Y-111290773D01*
X116546023Y-111243154D01*
X116641261Y-111147916D01*
X116688880Y-111005059D01*
X116688880Y-110766964D01*
X115784119Y-111719345D02*
X115736500Y-111766964D01*
X115688880Y-111862202D01*
X115688880Y-112100297D01*
X115736500Y-112195535D01*
X115784119Y-112243154D01*
X115879357Y-112290773D01*
X115974595Y-112290773D01*
X116117452Y-112243154D01*
X116688880Y-111671726D01*
X116688880Y-112290773D01*
X115688880Y-112909821D02*
X115688880Y-113005059D01*
X115736500Y-113100297D01*
X115784119Y-113147916D01*
X115879357Y-113195535D01*
X116069833Y-113243154D01*
X116307928Y-113243154D01*
X116498404Y-113195535D01*
X116593642Y-113147916D01*
X116641261Y-113100297D01*
X116688880Y-113005059D01*
X116688880Y-112909821D01*
X116641261Y-112814583D01*
X116593642Y-112766964D01*
X116498404Y-112719345D01*
X116307928Y-112671726D01*
X116069833Y-112671726D01*
X115879357Y-112719345D01*
X115784119Y-112766964D01*
X115736500Y-112814583D01*
X115688880Y-112909821D01*
X111862880Y-91717964D02*
X110862880Y-91717964D01*
X110862880Y-91956059D01*
X110910500Y-92098916D01*
X111005738Y-92194154D01*
X111100976Y-92241773D01*
X111291452Y-92289392D01*
X111434309Y-92289392D01*
X111624785Y-92241773D01*
X111720023Y-92194154D01*
X111815261Y-92098916D01*
X111862880Y-91956059D01*
X111862880Y-91717964D01*
X111862880Y-93241773D02*
X111862880Y-92670345D01*
X111862880Y-92956059D02*
X110862880Y-92956059D01*
X111005738Y-92860821D01*
X111100976Y-92765583D01*
X111148595Y-92670345D01*
X111862880Y-93717964D02*
X111862880Y-93908440D01*
X111815261Y-94003678D01*
X111767642Y-94051297D01*
X111624785Y-94146535D01*
X111434309Y-94194154D01*
X111053357Y-94194154D01*
X110958119Y-94146535D01*
X110910500Y-94098916D01*
X110862880Y-94003678D01*
X110862880Y-93813202D01*
X110910500Y-93717964D01*
X110958119Y-93670345D01*
X111053357Y-93622726D01*
X111291452Y-93622726D01*
X111386690Y-93670345D01*
X111434309Y-93717964D01*
X111481928Y-93813202D01*
X111481928Y-94003678D01*
X111434309Y-94098916D01*
X111386690Y-94146535D01*
X111291452Y-94194154D01*
X121387880Y-72540964D02*
X120387880Y-72540964D01*
X120387880Y-72779059D01*
X120435500Y-72921916D01*
X120530738Y-73017154D01*
X120625976Y-73064773D01*
X120816452Y-73112392D01*
X120959309Y-73112392D01*
X121149785Y-73064773D01*
X121245023Y-73017154D01*
X121340261Y-72921916D01*
X121387880Y-72779059D01*
X121387880Y-72540964D01*
X121387880Y-74064773D02*
X121387880Y-73493345D01*
X121387880Y-73779059D02*
X120387880Y-73779059D01*
X120530738Y-73683821D01*
X120625976Y-73588583D01*
X120673595Y-73493345D01*
X120816452Y-74636202D02*
X120768833Y-74540964D01*
X120721214Y-74493345D01*
X120625976Y-74445726D01*
X120578357Y-74445726D01*
X120483119Y-74493345D01*
X120435500Y-74540964D01*
X120387880Y-74636202D01*
X120387880Y-74826678D01*
X120435500Y-74921916D01*
X120483119Y-74969535D01*
X120578357Y-75017154D01*
X120625976Y-75017154D01*
X120721214Y-74969535D01*
X120768833Y-74921916D01*
X120816452Y-74826678D01*
X120816452Y-74636202D01*
X120864071Y-74540964D01*
X120911690Y-74493345D01*
X121006928Y-74445726D01*
X121197404Y-74445726D01*
X121292642Y-74493345D01*
X121340261Y-74540964D01*
X121387880Y-74636202D01*
X121387880Y-74826678D01*
X121340261Y-74921916D01*
X121292642Y-74969535D01*
X121197404Y-75017154D01*
X121006928Y-75017154D01*
X120911690Y-74969535D01*
X120864071Y-74921916D01*
X120816452Y-74826678D01*
X111989880Y-53490964D02*
X110989880Y-53490964D01*
X110989880Y-53729059D01*
X111037500Y-53871916D01*
X111132738Y-53967154D01*
X111227976Y-54014773D01*
X111418452Y-54062392D01*
X111561309Y-54062392D01*
X111751785Y-54014773D01*
X111847023Y-53967154D01*
X111942261Y-53871916D01*
X111989880Y-53729059D01*
X111989880Y-53490964D01*
X111989880Y-55014773D02*
X111989880Y-54443345D01*
X111989880Y-54729059D02*
X110989880Y-54729059D01*
X111132738Y-54633821D01*
X111227976Y-54538583D01*
X111275595Y-54443345D01*
X110989880Y-55348107D02*
X110989880Y-56014773D01*
X111989880Y-55586202D01*
X111862880Y-34566964D02*
X110862880Y-34566964D01*
X110862880Y-34805059D01*
X110910500Y-34947916D01*
X111005738Y-35043154D01*
X111100976Y-35090773D01*
X111291452Y-35138392D01*
X111434309Y-35138392D01*
X111624785Y-35090773D01*
X111720023Y-35043154D01*
X111815261Y-34947916D01*
X111862880Y-34805059D01*
X111862880Y-34566964D01*
X111862880Y-36090773D02*
X111862880Y-35519345D01*
X111862880Y-35805059D02*
X110862880Y-35805059D01*
X111005738Y-35709821D01*
X111100976Y-35614583D01*
X111148595Y-35519345D01*
X110862880Y-36947916D02*
X110862880Y-36757440D01*
X110910500Y-36662202D01*
X110958119Y-36614583D01*
X111100976Y-36519345D01*
X111291452Y-36471726D01*
X111672404Y-36471726D01*
X111767642Y-36519345D01*
X111815261Y-36566964D01*
X111862880Y-36662202D01*
X111862880Y-36852678D01*
X111815261Y-36947916D01*
X111767642Y-36995535D01*
X111672404Y-37043154D01*
X111434309Y-37043154D01*
X111339071Y-36995535D01*
X111291452Y-36947916D01*
X111243833Y-36852678D01*
X111243833Y-36662202D01*
X111291452Y-36566964D01*
X111339071Y-36519345D01*
X111434309Y-36471726D01*
X92812880Y-110766964D02*
X91812880Y-110766964D01*
X91812880Y-111005059D01*
X91860500Y-111147916D01*
X91955738Y-111243154D01*
X92050976Y-111290773D01*
X92241452Y-111338392D01*
X92384309Y-111338392D01*
X92574785Y-111290773D01*
X92670023Y-111243154D01*
X92765261Y-111147916D01*
X92812880Y-111005059D01*
X92812880Y-110766964D01*
X92812880Y-112290773D02*
X92812880Y-111719345D01*
X92812880Y-112005059D02*
X91812880Y-112005059D01*
X91955738Y-111909821D01*
X92050976Y-111814583D01*
X92098595Y-111719345D01*
X91812880Y-113195535D02*
X91812880Y-112719345D01*
X92289071Y-112671726D01*
X92241452Y-112719345D01*
X92193833Y-112814583D01*
X92193833Y-113052678D01*
X92241452Y-113147916D01*
X92289071Y-113195535D01*
X92384309Y-113243154D01*
X92622404Y-113243154D01*
X92717642Y-113195535D01*
X92765261Y-113147916D01*
X92812880Y-113052678D01*
X92812880Y-112814583D01*
X92765261Y-112719345D01*
X92717642Y-112671726D01*
X92812880Y-91590964D02*
X91812880Y-91590964D01*
X91812880Y-91829059D01*
X91860500Y-91971916D01*
X91955738Y-92067154D01*
X92050976Y-92114773D01*
X92241452Y-92162392D01*
X92384309Y-92162392D01*
X92574785Y-92114773D01*
X92670023Y-92067154D01*
X92765261Y-91971916D01*
X92812880Y-91829059D01*
X92812880Y-91590964D01*
X92812880Y-93114773D02*
X92812880Y-92543345D01*
X92812880Y-92829059D02*
X91812880Y-92829059D01*
X91955738Y-92733821D01*
X92050976Y-92638583D01*
X92098595Y-92543345D01*
X92146214Y-93971916D02*
X92812880Y-93971916D01*
X91765261Y-93733821D02*
X92479547Y-93495726D01*
X92479547Y-94114773D01*
X102464880Y-72667964D02*
X101464880Y-72667964D01*
X101464880Y-72906059D01*
X101512500Y-73048916D01*
X101607738Y-73144154D01*
X101702976Y-73191773D01*
X101893452Y-73239392D01*
X102036309Y-73239392D01*
X102226785Y-73191773D01*
X102322023Y-73144154D01*
X102417261Y-73048916D01*
X102464880Y-72906059D01*
X102464880Y-72667964D01*
X102464880Y-74191773D02*
X102464880Y-73620345D01*
X102464880Y-73906059D02*
X101464880Y-73906059D01*
X101607738Y-73810821D01*
X101702976Y-73715583D01*
X101750595Y-73620345D01*
X101464880Y-74525107D02*
X101464880Y-75144154D01*
X101845833Y-74810821D01*
X101845833Y-74953678D01*
X101893452Y-75048916D01*
X101941071Y-75096535D01*
X102036309Y-75144154D01*
X102274404Y-75144154D01*
X102369642Y-75096535D01*
X102417261Y-75048916D01*
X102464880Y-74953678D01*
X102464880Y-74667964D01*
X102417261Y-74572726D01*
X102369642Y-74525107D01*
X92939880Y-53616964D02*
X91939880Y-53616964D01*
X91939880Y-53855059D01*
X91987500Y-53997916D01*
X92082738Y-54093154D01*
X92177976Y-54140773D01*
X92368452Y-54188392D01*
X92511309Y-54188392D01*
X92701785Y-54140773D01*
X92797023Y-54093154D01*
X92892261Y-53997916D01*
X92939880Y-53855059D01*
X92939880Y-53616964D01*
X92939880Y-55140773D02*
X92939880Y-54569345D01*
X92939880Y-54855059D02*
X91939880Y-54855059D01*
X92082738Y-54759821D01*
X92177976Y-54664583D01*
X92225595Y-54569345D01*
X92035119Y-55521726D02*
X91987500Y-55569345D01*
X91939880Y-55664583D01*
X91939880Y-55902678D01*
X91987500Y-55997916D01*
X92035119Y-56045535D01*
X92130357Y-56093154D01*
X92225595Y-56093154D01*
X92368452Y-56045535D01*
X92939880Y-55474107D01*
X92939880Y-56093154D01*
X92812880Y-34693964D02*
X91812880Y-34693964D01*
X91812880Y-34932059D01*
X91860500Y-35074916D01*
X91955738Y-35170154D01*
X92050976Y-35217773D01*
X92241452Y-35265392D01*
X92384309Y-35265392D01*
X92574785Y-35217773D01*
X92670023Y-35170154D01*
X92765261Y-35074916D01*
X92812880Y-34932059D01*
X92812880Y-34693964D01*
X92812880Y-36217773D02*
X92812880Y-35646345D01*
X92812880Y-35932059D02*
X91812880Y-35932059D01*
X91955738Y-35836821D01*
X92050976Y-35741583D01*
X92098595Y-35646345D01*
X92812880Y-37170154D02*
X92812880Y-36598726D01*
X92812880Y-36884440D02*
X91812880Y-36884440D01*
X91955738Y-36789202D01*
X92050976Y-36693964D01*
X92098595Y-36598726D01*
X73762880Y-110767964D02*
X72762880Y-110767964D01*
X72762880Y-111006059D01*
X72810500Y-111148916D01*
X72905738Y-111244154D01*
X73000976Y-111291773D01*
X73191452Y-111339392D01*
X73334309Y-111339392D01*
X73524785Y-111291773D01*
X73620023Y-111244154D01*
X73715261Y-111148916D01*
X73762880Y-111006059D01*
X73762880Y-110767964D01*
X73762880Y-112291773D02*
X73762880Y-111720345D01*
X73762880Y-112006059D02*
X72762880Y-112006059D01*
X72905738Y-111910821D01*
X73000976Y-111815583D01*
X73048595Y-111720345D01*
X72762880Y-112910821D02*
X72762880Y-113006059D01*
X72810500Y-113101297D01*
X72858119Y-113148916D01*
X72953357Y-113196535D01*
X73143833Y-113244154D01*
X73381928Y-113244154D01*
X73572404Y-113196535D01*
X73667642Y-113148916D01*
X73715261Y-113101297D01*
X73762880Y-113006059D01*
X73762880Y-112910821D01*
X73715261Y-112815583D01*
X73667642Y-112767964D01*
X73572404Y-112720345D01*
X73381928Y-112672726D01*
X73143833Y-112672726D01*
X72953357Y-112720345D01*
X72858119Y-112767964D01*
X72810500Y-112815583D01*
X72762880Y-112910821D01*
X73762880Y-92066154D02*
X72762880Y-92066154D01*
X72762880Y-92304250D01*
X72810500Y-92447107D01*
X72905738Y-92542345D01*
X73000976Y-92589964D01*
X73191452Y-92637583D01*
X73334309Y-92637583D01*
X73524785Y-92589964D01*
X73620023Y-92542345D01*
X73715261Y-92447107D01*
X73762880Y-92304250D01*
X73762880Y-92066154D01*
X73762880Y-93113773D02*
X73762880Y-93304250D01*
X73715261Y-93399488D01*
X73667642Y-93447107D01*
X73524785Y-93542345D01*
X73334309Y-93589964D01*
X72953357Y-93589964D01*
X72858119Y-93542345D01*
X72810500Y-93494726D01*
X72762880Y-93399488D01*
X72762880Y-93209011D01*
X72810500Y-93113773D01*
X72858119Y-93066154D01*
X72953357Y-93018535D01*
X73191452Y-93018535D01*
X73286690Y-93066154D01*
X73334309Y-93113773D01*
X73381928Y-93209011D01*
X73381928Y-93399488D01*
X73334309Y-93494726D01*
X73286690Y-93542345D01*
X73191452Y-93589964D01*
X83287880Y-73016154D02*
X82287880Y-73016154D01*
X82287880Y-73254250D01*
X82335500Y-73397107D01*
X82430738Y-73492345D01*
X82525976Y-73539964D01*
X82716452Y-73587583D01*
X82859309Y-73587583D01*
X83049785Y-73539964D01*
X83145023Y-73492345D01*
X83240261Y-73397107D01*
X83287880Y-73254250D01*
X83287880Y-73016154D01*
X82716452Y-74159011D02*
X82668833Y-74063773D01*
X82621214Y-74016154D01*
X82525976Y-73968535D01*
X82478357Y-73968535D01*
X82383119Y-74016154D01*
X82335500Y-74063773D01*
X82287880Y-74159011D01*
X82287880Y-74349488D01*
X82335500Y-74444726D01*
X82383119Y-74492345D01*
X82478357Y-74539964D01*
X82525976Y-74539964D01*
X82621214Y-74492345D01*
X82668833Y-74444726D01*
X82716452Y-74349488D01*
X82716452Y-74159011D01*
X82764071Y-74063773D01*
X82811690Y-74016154D01*
X82906928Y-73968535D01*
X83097404Y-73968535D01*
X83192642Y-74016154D01*
X83240261Y-74063773D01*
X83287880Y-74159011D01*
X83287880Y-74349488D01*
X83240261Y-74444726D01*
X83192642Y-74492345D01*
X83097404Y-74539964D01*
X82906928Y-74539964D01*
X82811690Y-74492345D01*
X82764071Y-74444726D01*
X82716452Y-74349488D01*
X54712880Y-111243154D02*
X53712880Y-111243154D01*
X53712880Y-111481250D01*
X53760500Y-111624107D01*
X53855738Y-111719345D01*
X53950976Y-111766964D01*
X54141452Y-111814583D01*
X54284309Y-111814583D01*
X54474785Y-111766964D01*
X54570023Y-111719345D01*
X54665261Y-111624107D01*
X54712880Y-111481250D01*
X54712880Y-111243154D01*
X53712880Y-112147916D02*
X53712880Y-112814583D01*
X54712880Y-112386011D01*
X54712880Y-92194154D02*
X53712880Y-92194154D01*
X53712880Y-92432250D01*
X53760500Y-92575107D01*
X53855738Y-92670345D01*
X53950976Y-92717964D01*
X54141452Y-92765583D01*
X54284309Y-92765583D01*
X54474785Y-92717964D01*
X54570023Y-92670345D01*
X54665261Y-92575107D01*
X54712880Y-92432250D01*
X54712880Y-92194154D01*
X53712880Y-93622726D02*
X53712880Y-93432250D01*
X53760500Y-93337011D01*
X53808119Y-93289392D01*
X53950976Y-93194154D01*
X54141452Y-93146535D01*
X54522404Y-93146535D01*
X54617642Y-93194154D01*
X54665261Y-93241773D01*
X54712880Y-93337011D01*
X54712880Y-93527488D01*
X54665261Y-93622726D01*
X54617642Y-93670345D01*
X54522404Y-93717964D01*
X54284309Y-93717964D01*
X54189071Y-93670345D01*
X54141452Y-93622726D01*
X54093833Y-93527488D01*
X54093833Y-93337011D01*
X54141452Y-93241773D01*
X54189071Y-93194154D01*
X54284309Y-93146535D01*
X64364880Y-73143154D02*
X63364880Y-73143154D01*
X63364880Y-73381250D01*
X63412500Y-73524107D01*
X63507738Y-73619345D01*
X63602976Y-73666964D01*
X63793452Y-73714583D01*
X63936309Y-73714583D01*
X64126785Y-73666964D01*
X64222023Y-73619345D01*
X64317261Y-73524107D01*
X64364880Y-73381250D01*
X64364880Y-73143154D01*
X63364880Y-74619345D02*
X63364880Y-74143154D01*
X63841071Y-74095535D01*
X63793452Y-74143154D01*
X63745833Y-74238392D01*
X63745833Y-74476488D01*
X63793452Y-74571726D01*
X63841071Y-74619345D01*
X63936309Y-74666964D01*
X64174404Y-74666964D01*
X64269642Y-74619345D01*
X64317261Y-74571726D01*
X64364880Y-74476488D01*
X64364880Y-74238392D01*
X64317261Y-74143154D01*
X64269642Y-74095535D01*
X233640095Y-29424380D02*
X233640095Y-30233904D01*
X233592476Y-30329142D01*
X233544857Y-30376761D01*
X233449619Y-30424380D01*
X233259142Y-30424380D01*
X233163904Y-30376761D01*
X233116285Y-30329142D01*
X233068666Y-30233904D01*
X233068666Y-29424380D01*
X232640095Y-30376761D02*
X232497238Y-30424380D01*
X232259142Y-30424380D01*
X232163904Y-30376761D01*
X232116285Y-30329142D01*
X232068666Y-30233904D01*
X232068666Y-30138666D01*
X232116285Y-30043428D01*
X232163904Y-29995809D01*
X232259142Y-29948190D01*
X232449619Y-29900571D01*
X232544857Y-29852952D01*
X232592476Y-29805333D01*
X232640095Y-29710095D01*
X232640095Y-29614857D01*
X232592476Y-29519619D01*
X232544857Y-29472000D01*
X232449619Y-29424380D01*
X232211523Y-29424380D01*
X232068666Y-29472000D01*
X231306761Y-29900571D02*
X231163904Y-29948190D01*
X231116285Y-29995809D01*
X231068666Y-30091047D01*
X231068666Y-30233904D01*
X231116285Y-30329142D01*
X231163904Y-30376761D01*
X231259142Y-30424380D01*
X231640095Y-30424380D01*
X231640095Y-29424380D01*
X231306761Y-29424380D01*
X231211523Y-29472000D01*
X231163904Y-29519619D01*
X231116285Y-29614857D01*
X231116285Y-29710095D01*
X231163904Y-29805333D01*
X231211523Y-29852952D01*
X231306761Y-29900571D01*
X231640095Y-29900571D01*
X230116285Y-30424380D02*
X230687714Y-30424380D01*
X230402000Y-30424380D02*
X230402000Y-29424380D01*
X230497238Y-29567238D01*
X230592476Y-29662476D01*
X230687714Y-29710095D01*
X175904940Y-133329559D02*
X176381130Y-133329559D01*
X175381130Y-132996226D02*
X175904940Y-133329559D01*
X175381130Y-133662892D01*
X176381130Y-134520035D02*
X176381130Y-133948607D01*
X176381130Y-134234321D02*
X175381130Y-134234321D01*
X175523988Y-134139083D01*
X175619226Y-134043845D01*
X175666845Y-133948607D01*
X201720380Y-133699345D02*
X202529904Y-133699345D01*
X202625142Y-133746964D01*
X202672761Y-133794583D01*
X202720380Y-133889821D01*
X202720380Y-134080297D01*
X202672761Y-134175535D01*
X202625142Y-134223154D01*
X202529904Y-134270773D01*
X201720380Y-134270773D01*
X202720380Y-135270773D02*
X202720380Y-134699345D01*
X202720380Y-134985059D02*
X201720380Y-134985059D01*
X201863238Y-134889821D01*
X201958476Y-134794583D01*
X202006095Y-134699345D01*
X223694011Y-135552416D02*
X223741630Y-135695273D01*
X223741630Y-135933369D01*
X223694011Y-136028607D01*
X223646392Y-136076226D01*
X223551154Y-136123845D01*
X223455916Y-136123845D01*
X223360678Y-136076226D01*
X223313059Y-136028607D01*
X223265440Y-135933369D01*
X223217821Y-135742892D01*
X223170202Y-135647654D01*
X223122583Y-135600035D01*
X223027345Y-135552416D01*
X222932107Y-135552416D01*
X222836869Y-135600035D01*
X222789250Y-135647654D01*
X222741630Y-135742892D01*
X222741630Y-135980988D01*
X222789250Y-136123845D01*
X222741630Y-136457178D02*
X223741630Y-136695273D01*
X223027345Y-136885750D01*
X223741630Y-137076226D01*
X222741630Y-137314321D01*
X223741630Y-138219083D02*
X223741630Y-137647654D01*
X223741630Y-137933369D02*
X222741630Y-137933369D01*
X222884488Y-137838130D01*
X222979726Y-137742892D01*
X223027345Y-137647654D01*
X207636166Y-127453380D02*
X207969500Y-126977190D01*
X208207595Y-127453380D02*
X208207595Y-126453380D01*
X207826642Y-126453380D01*
X207731404Y-126501000D01*
X207683785Y-126548619D01*
X207636166Y-126643857D01*
X207636166Y-126786714D01*
X207683785Y-126881952D01*
X207731404Y-126929571D01*
X207826642Y-126977190D01*
X208207595Y-126977190D01*
X206779023Y-126786714D02*
X206779023Y-127453380D01*
X207017119Y-126405761D02*
X207255214Y-127120047D01*
X206636166Y-127120047D01*
X184014166Y-139770380D02*
X184347500Y-139294190D01*
X184585595Y-139770380D02*
X184585595Y-138770380D01*
X184204642Y-138770380D01*
X184109404Y-138818000D01*
X184061785Y-138865619D01*
X184014166Y-138960857D01*
X184014166Y-139103714D01*
X184061785Y-139198952D01*
X184109404Y-139246571D01*
X184204642Y-139294190D01*
X184585595Y-139294190D01*
X183680833Y-138770380D02*
X183061785Y-138770380D01*
X183395119Y-139151333D01*
X183252261Y-139151333D01*
X183157023Y-139198952D01*
X183109404Y-139246571D01*
X183061785Y-139341809D01*
X183061785Y-139579904D01*
X183109404Y-139675142D01*
X183157023Y-139722761D01*
X183252261Y-139770380D01*
X183537976Y-139770380D01*
X183633214Y-139722761D01*
X183680833Y-139675142D01*
X210493666Y-134978130D02*
X210827000Y-134501940D01*
X211065095Y-134978130D02*
X211065095Y-133978130D01*
X210684142Y-133978130D01*
X210588904Y-134025750D01*
X210541285Y-134073369D01*
X210493666Y-134168607D01*
X210493666Y-134311464D01*
X210541285Y-134406702D01*
X210588904Y-134454321D01*
X210684142Y-134501940D01*
X211065095Y-134501940D01*
X210112714Y-134073369D02*
X210065095Y-134025750D01*
X209969857Y-133978130D01*
X209731761Y-133978130D01*
X209636523Y-134025750D01*
X209588904Y-134073369D01*
X209541285Y-134168607D01*
X209541285Y-134263845D01*
X209588904Y-134406702D01*
X210160333Y-134978130D01*
X209541285Y-134978130D01*
X210493666Y-138661130D02*
X210827000Y-138184940D01*
X211065095Y-138661130D02*
X211065095Y-137661130D01*
X210684142Y-137661130D01*
X210588904Y-137708750D01*
X210541285Y-137756369D01*
X210493666Y-137851607D01*
X210493666Y-137994464D01*
X210541285Y-138089702D01*
X210588904Y-138137321D01*
X210684142Y-138184940D01*
X211065095Y-138184940D01*
X209541285Y-138661130D02*
X210112714Y-138661130D01*
X209827000Y-138661130D02*
X209827000Y-137661130D01*
X209922238Y-137803988D01*
X210017476Y-137899226D01*
X210112714Y-137946845D01*
X73889880Y-54093154D02*
X72889880Y-54093154D01*
X72889880Y-54331250D01*
X72937500Y-54474107D01*
X73032738Y-54569345D01*
X73127976Y-54616964D01*
X73318452Y-54664583D01*
X73461309Y-54664583D01*
X73651785Y-54616964D01*
X73747023Y-54569345D01*
X73842261Y-54474107D01*
X73889880Y-54331250D01*
X73889880Y-54093154D01*
X73223214Y-55521726D02*
X73889880Y-55521726D01*
X72842261Y-55283630D02*
X73556547Y-55045535D01*
X73556547Y-55664583D01*
X54839880Y-54093154D02*
X53839880Y-54093154D01*
X53839880Y-54331250D01*
X53887500Y-54474107D01*
X53982738Y-54569345D01*
X54077976Y-54616964D01*
X54268452Y-54664583D01*
X54411309Y-54664583D01*
X54601785Y-54616964D01*
X54697023Y-54569345D01*
X54792261Y-54474107D01*
X54839880Y-54331250D01*
X54839880Y-54093154D01*
X53935119Y-55045535D02*
X53887500Y-55093154D01*
X53839880Y-55188392D01*
X53839880Y-55426488D01*
X53887500Y-55521726D01*
X53935119Y-55569345D01*
X54030357Y-55616964D01*
X54125595Y-55616964D01*
X54268452Y-55569345D01*
X54839880Y-54997916D01*
X54839880Y-55616964D01*
X206413642Y-138041083D02*
X206461261Y-137993464D01*
X206508880Y-137850607D01*
X206508880Y-137755369D01*
X206461261Y-137612511D01*
X206366023Y-137517273D01*
X206270785Y-137469654D01*
X206080309Y-137422035D01*
X205937452Y-137422035D01*
X205746976Y-137469654D01*
X205651738Y-137517273D01*
X205556500Y-137612511D01*
X205508880Y-137755369D01*
X205508880Y-137850607D01*
X205556500Y-137993464D01*
X205604119Y-138041083D01*
X205508880Y-138374416D02*
X205508880Y-139041083D01*
X206508880Y-138612511D01*
X182587166Y-138788142D02*
X182634785Y-138835761D01*
X182777642Y-138883380D01*
X182872880Y-138883380D01*
X183015738Y-138835761D01*
X183110976Y-138740523D01*
X183158595Y-138645285D01*
X183206214Y-138454809D01*
X183206214Y-138311952D01*
X183158595Y-138121476D01*
X183110976Y-138026238D01*
X183015738Y-137931000D01*
X182872880Y-137883380D01*
X182777642Y-137883380D01*
X182634785Y-137931000D01*
X182587166Y-137978619D01*
X181730023Y-137883380D02*
X181920500Y-137883380D01*
X182015738Y-137931000D01*
X182063357Y-137978619D01*
X182158595Y-138121476D01*
X182206214Y-138311952D01*
X182206214Y-138692904D01*
X182158595Y-138788142D01*
X182110976Y-138835761D01*
X182015738Y-138883380D01*
X181825261Y-138883380D01*
X181730023Y-138835761D01*
X181682404Y-138788142D01*
X181634785Y-138692904D01*
X181634785Y-138454809D01*
X181682404Y-138359571D01*
X181730023Y-138311952D01*
X181825261Y-138264333D01*
X182015738Y-138264333D01*
X182110976Y-138311952D01*
X182158595Y-138359571D01*
X182206214Y-138454809D01*
X203050142Y-130469583D02*
X203097761Y-130421964D01*
X203145380Y-130279107D01*
X203145380Y-130183869D01*
X203097761Y-130041011D01*
X203002523Y-129945773D01*
X202907285Y-129898154D01*
X202716809Y-129850535D01*
X202573952Y-129850535D01*
X202383476Y-129898154D01*
X202288238Y-129945773D01*
X202193000Y-130041011D01*
X202145380Y-130183869D01*
X202145380Y-130279107D01*
X202193000Y-130421964D01*
X202240619Y-130469583D01*
X202145380Y-131374345D02*
X202145380Y-130898154D01*
X202621571Y-130850535D01*
X202573952Y-130898154D01*
X202526333Y-130993392D01*
X202526333Y-131231488D01*
X202573952Y-131326726D01*
X202621571Y-131374345D01*
X202716809Y-131421964D01*
X202954904Y-131421964D01*
X203050142Y-131374345D01*
X203097761Y-131326726D01*
X203145380Y-131231488D01*
X203145380Y-130993392D01*
X203097761Y-130898154D01*
X203050142Y-130850535D01*
X178601666Y-140881642D02*
X178649285Y-140929261D01*
X178792142Y-140976880D01*
X178887380Y-140976880D01*
X179030238Y-140929261D01*
X179125476Y-140834023D01*
X179173095Y-140738785D01*
X179220714Y-140548309D01*
X179220714Y-140405452D01*
X179173095Y-140214976D01*
X179125476Y-140119738D01*
X179030238Y-140024500D01*
X178887380Y-139976880D01*
X178792142Y-139976880D01*
X178649285Y-140024500D01*
X178601666Y-140072119D01*
X177744523Y-140310214D02*
X177744523Y-140976880D01*
X177982619Y-139929261D02*
X178220714Y-140643547D01*
X177601666Y-140643547D01*
X178457916Y-128056642D02*
X178505535Y-128104261D01*
X178648392Y-128151880D01*
X178743630Y-128151880D01*
X178886488Y-128104261D01*
X178981726Y-128009023D01*
X179029345Y-127913785D01*
X179076964Y-127723309D01*
X179076964Y-127580452D01*
X179029345Y-127389976D01*
X178981726Y-127294738D01*
X178886488Y-127199500D01*
X178743630Y-127151880D01*
X178648392Y-127151880D01*
X178505535Y-127199500D01*
X178457916Y-127247119D01*
X178124583Y-127151880D02*
X177505535Y-127151880D01*
X177838869Y-127532833D01*
X177696011Y-127532833D01*
X177600773Y-127580452D01*
X177553154Y-127628071D01*
X177505535Y-127723309D01*
X177505535Y-127961404D01*
X177553154Y-128056642D01*
X177600773Y-128104261D01*
X177696011Y-128151880D01*
X177981726Y-128151880D01*
X178076964Y-128104261D01*
X178124583Y-128056642D01*
X183730166Y-132692142D02*
X183777785Y-132739761D01*
X183920642Y-132787380D01*
X184015880Y-132787380D01*
X184158738Y-132739761D01*
X184253976Y-132644523D01*
X184301595Y-132549285D01*
X184349214Y-132358809D01*
X184349214Y-132215952D01*
X184301595Y-132025476D01*
X184253976Y-131930238D01*
X184158738Y-131835000D01*
X184015880Y-131787380D01*
X183920642Y-131787380D01*
X183777785Y-131835000D01*
X183730166Y-131882619D01*
X183349214Y-131882619D02*
X183301595Y-131835000D01*
X183206357Y-131787380D01*
X182968261Y-131787380D01*
X182873023Y-131835000D01*
X182825404Y-131882619D01*
X182777785Y-131977857D01*
X182777785Y-132073095D01*
X182825404Y-132215952D01*
X183396833Y-132787380D01*
X182777785Y-132787380D01*
X181206142Y-129421833D02*
X181253761Y-129374214D01*
X181301380Y-129231357D01*
X181301380Y-129136119D01*
X181253761Y-128993261D01*
X181158523Y-128898023D01*
X181063285Y-128850404D01*
X180872809Y-128802785D01*
X180729952Y-128802785D01*
X180539476Y-128850404D01*
X180444238Y-128898023D01*
X180349000Y-128993261D01*
X180301380Y-129136119D01*
X180301380Y-129231357D01*
X180349000Y-129374214D01*
X180396619Y-129421833D01*
X181301380Y-130374214D02*
X181301380Y-129802785D01*
X181301380Y-130088500D02*
X180301380Y-130088500D01*
X180444238Y-129993261D01*
X180539476Y-129898023D01*
X180587095Y-129802785D01*
%LPC*%
D13*
X220980000Y-92868750D03*
X210820000Y-92868750D03*
D14*
X213400000Y-88868750D03*
D15*
X215900000Y-92868750D03*
D14*
X212745001Y-89598750D03*
D16*
X212090000Y-90328750D02*
X213400002Y-88868750D01*
D14*
X218440000Y-87788750D03*
X218420000Y-88078750D03*
D16*
X218400000Y-88368750D02*
X218440000Y-87788750D01*
D13*
X49530000Y-35718750D03*
X39370000Y-35718750D03*
D14*
X41950000Y-31718750D03*
D15*
X44450000Y-35718750D03*
D14*
X41295001Y-32448750D03*
D16*
X40640000Y-33178750D02*
X41950002Y-31718750D01*
D14*
X46990000Y-30638750D03*
X46970000Y-30928750D03*
D16*
X46950000Y-31218750D02*
X46990000Y-30638750D01*
D13*
X220980000Y-54768750D03*
X210820000Y-54768750D03*
D14*
X213400000Y-50768750D03*
D15*
X215900000Y-54768750D03*
D14*
X212745001Y-51498750D03*
D16*
X212090000Y-52228750D02*
X213400002Y-50768750D01*
D14*
X218440000Y-49688750D03*
X218420000Y-49978750D03*
D16*
X218400000Y-50268750D02*
X218440000Y-49688750D01*
D13*
X220980000Y-35718750D03*
X210820000Y-35718750D03*
D14*
X213400000Y-31718750D03*
D15*
X215900000Y-35718750D03*
D14*
X212745001Y-32448750D03*
D16*
X212090000Y-33178750D02*
X213400002Y-31718750D01*
D14*
X218440000Y-30638750D03*
X218420000Y-30928750D03*
D16*
X218400000Y-31218750D02*
X218440000Y-30638750D01*
D13*
X220980000Y-111918750D03*
X210820000Y-111918750D03*
D14*
X213400000Y-107918750D03*
D15*
X215900000Y-111918750D03*
D14*
X212745001Y-108648750D03*
D16*
X212090000Y-109378750D02*
X213400002Y-107918750D01*
D14*
X218440000Y-106838750D03*
X218420000Y-107128750D03*
D16*
X218400000Y-107418750D02*
X218440000Y-106838750D01*
D13*
X201930000Y-92868750D03*
X191770000Y-92868750D03*
D14*
X194350000Y-88868750D03*
D15*
X196850000Y-92868750D03*
D14*
X193695001Y-89598750D03*
D16*
X193040000Y-90328750D02*
X194350002Y-88868750D01*
D14*
X199390000Y-87788750D03*
X199370000Y-88078750D03*
D16*
X199350000Y-88368750D02*
X199390000Y-87788750D01*
D13*
X211455000Y-73818750D03*
X201295000Y-73818750D03*
D14*
X203875000Y-69818750D03*
D15*
X206375000Y-73818750D03*
D14*
X203220001Y-70548750D03*
D16*
X202565000Y-71278750D02*
X203875002Y-69818750D01*
D14*
X208915000Y-68738750D03*
X208895000Y-69028750D03*
D16*
X208875000Y-69318750D02*
X208915000Y-68738750D01*
D13*
X201930000Y-54768750D03*
X191770000Y-54768750D03*
D14*
X194350000Y-50768750D03*
D15*
X196850000Y-54768750D03*
D14*
X193695001Y-51498750D03*
D16*
X193040000Y-52228750D02*
X194350002Y-50768750D01*
D14*
X199390000Y-49688750D03*
X199370000Y-49978750D03*
D16*
X199350000Y-50268750D02*
X199390000Y-49688750D01*
D13*
X201930000Y-35718750D03*
X191770000Y-35718750D03*
D14*
X194350000Y-31718750D03*
D15*
X196850000Y-35718750D03*
D14*
X193695001Y-32448750D03*
D16*
X193040000Y-33178750D02*
X194350002Y-31718750D01*
D14*
X199390000Y-30638750D03*
X199370000Y-30928750D03*
D16*
X199350000Y-31218750D02*
X199390000Y-30638750D01*
D13*
X201930000Y-111918750D03*
X191770000Y-111918750D03*
D14*
X194350000Y-107918750D03*
D15*
X196850000Y-111918750D03*
D14*
X193695001Y-108648750D03*
D16*
X193040000Y-109378750D02*
X194350002Y-107918750D01*
D14*
X199390000Y-106838750D03*
X199370000Y-107128750D03*
D16*
X199350000Y-107418750D02*
X199390000Y-106838750D01*
D13*
X182880000Y-92868750D03*
X172720000Y-92868750D03*
D14*
X175300000Y-88868750D03*
D15*
X177800000Y-92868750D03*
D14*
X174645001Y-89598750D03*
D16*
X173990000Y-90328750D02*
X175300002Y-88868750D01*
D14*
X180340000Y-87788750D03*
X180320000Y-88078750D03*
D16*
X180300000Y-88368750D02*
X180340000Y-87788750D01*
D13*
X192405000Y-73818750D03*
X182245000Y-73818750D03*
D14*
X184825000Y-69818750D03*
D15*
X187325000Y-73818750D03*
D14*
X184170001Y-70548750D03*
D16*
X183515000Y-71278750D02*
X184825002Y-69818750D01*
D14*
X189865000Y-68738750D03*
X189845000Y-69028750D03*
D16*
X189825000Y-69318750D02*
X189865000Y-68738750D01*
D13*
X182880000Y-54768750D03*
X172720000Y-54768750D03*
D14*
X175300000Y-50768750D03*
D15*
X177800000Y-54768750D03*
D14*
X174645001Y-51498750D03*
D16*
X173990000Y-52228750D02*
X175300002Y-50768750D01*
D14*
X180340000Y-49688750D03*
X180320000Y-49978750D03*
D16*
X180300000Y-50268750D02*
X180340000Y-49688750D01*
D13*
X182880000Y-35718750D03*
X172720000Y-35718750D03*
D14*
X175300000Y-31718750D03*
D15*
X177800000Y-35718750D03*
D14*
X174645001Y-32448750D03*
D16*
X173990000Y-33178750D02*
X175300002Y-31718750D01*
D14*
X180340000Y-30638750D03*
X180320000Y-30928750D03*
D16*
X180300000Y-31218750D02*
X180340000Y-30638750D01*
D13*
X182880000Y-111918750D03*
X172720000Y-111918750D03*
D14*
X175300000Y-107918750D03*
D15*
X177800000Y-111918750D03*
D14*
X174645001Y-108648750D03*
D16*
X173990000Y-109378750D02*
X175300002Y-107918750D01*
D14*
X180340000Y-106838750D03*
X180320000Y-107128750D03*
D16*
X180300000Y-107418750D02*
X180340000Y-106838750D01*
D13*
X163830000Y-92868750D03*
X153670000Y-92868750D03*
D14*
X156250000Y-88868750D03*
D15*
X158750000Y-92868750D03*
D14*
X155595001Y-89598750D03*
D16*
X154940000Y-90328750D02*
X156250002Y-88868750D01*
D14*
X161290000Y-87788750D03*
X161270000Y-88078750D03*
D16*
X161250000Y-88368750D02*
X161290000Y-87788750D01*
D13*
X173355000Y-73818750D03*
X163195000Y-73818750D03*
D14*
X165775000Y-69818750D03*
D15*
X168275000Y-73818750D03*
D14*
X165120001Y-70548750D03*
D16*
X164465000Y-71278750D02*
X165775002Y-69818750D01*
D14*
X170815000Y-68738750D03*
X170795000Y-69028750D03*
D16*
X170775000Y-69318750D02*
X170815000Y-68738750D01*
D13*
X163830000Y-54768750D03*
X153670000Y-54768750D03*
D14*
X156250000Y-50768750D03*
D15*
X158750000Y-54768750D03*
D14*
X155595001Y-51498750D03*
D16*
X154940000Y-52228750D02*
X156250002Y-50768750D01*
D14*
X161290000Y-49688750D03*
X161270000Y-49978750D03*
D16*
X161250000Y-50268750D02*
X161290000Y-49688750D01*
D13*
X163830000Y-35718750D03*
X153670000Y-35718750D03*
D14*
X156250000Y-31718750D03*
D15*
X158750000Y-35718750D03*
D14*
X155595001Y-32448750D03*
D16*
X154940000Y-33178750D02*
X156250002Y-31718750D01*
D14*
X161290000Y-30638750D03*
X161270000Y-30928750D03*
D16*
X161250000Y-31218750D02*
X161290000Y-30638750D01*
D13*
X159067500Y-111918750D03*
X148907500Y-111918750D03*
D14*
X151487500Y-107918750D03*
D15*
X153987500Y-111918750D03*
D14*
X150832501Y-108648750D03*
D16*
X150177500Y-109378750D02*
X151487502Y-107918750D01*
D14*
X156527500Y-106838750D03*
X156507500Y-107128750D03*
D16*
X156487500Y-107418750D02*
X156527500Y-106838750D01*
D13*
X144780000Y-92868750D03*
X134620000Y-92868750D03*
D14*
X137200000Y-88868750D03*
D15*
X139700000Y-92868750D03*
D14*
X136545001Y-89598750D03*
D16*
X135890000Y-90328750D02*
X137200002Y-88868750D01*
D14*
X142240000Y-87788750D03*
X142220000Y-88078750D03*
D16*
X142200000Y-88368750D02*
X142240000Y-87788750D01*
D13*
X154305000Y-73818750D03*
X144145000Y-73818750D03*
D14*
X146725000Y-69818750D03*
D15*
X149225000Y-73818750D03*
D14*
X146070001Y-70548750D03*
D16*
X145415000Y-71278750D02*
X146725002Y-69818750D01*
D14*
X151765000Y-68738750D03*
X151745000Y-69028750D03*
D16*
X151725000Y-69318750D02*
X151765000Y-68738750D01*
D13*
X144780000Y-54768750D03*
X134620000Y-54768750D03*
D14*
X137200000Y-50768750D03*
D15*
X139700000Y-54768750D03*
D14*
X136545001Y-51498750D03*
D16*
X135890000Y-52228750D02*
X137200002Y-50768750D01*
D14*
X142240000Y-49688750D03*
X142220000Y-49978750D03*
D16*
X142200000Y-50268750D02*
X142240000Y-49688750D01*
D13*
X144780000Y-35718750D03*
X134620000Y-35718750D03*
D14*
X137200000Y-31718750D03*
D15*
X139700000Y-35718750D03*
D14*
X136545001Y-32448750D03*
D16*
X135890000Y-33178750D02*
X137200002Y-31718750D01*
D14*
X142240000Y-30638750D03*
X142220000Y-30928750D03*
D16*
X142200000Y-31218750D02*
X142240000Y-30638750D01*
D13*
X135255000Y-111918750D03*
X125095000Y-111918750D03*
D14*
X127675000Y-107918750D03*
D15*
X130175000Y-111918750D03*
D14*
X127020001Y-108648750D03*
D16*
X126365000Y-109378750D02*
X127675002Y-107918750D01*
D14*
X132715000Y-106838750D03*
X132695000Y-107128750D03*
D16*
X132675000Y-107418750D02*
X132715000Y-106838750D01*
D13*
X125730000Y-92868750D03*
X115570000Y-92868750D03*
D14*
X118150000Y-88868750D03*
D15*
X120650000Y-92868750D03*
D14*
X117495001Y-89598750D03*
D16*
X116840000Y-90328750D02*
X118150002Y-88868750D01*
D14*
X123190000Y-87788750D03*
X123170000Y-88078750D03*
D16*
X123150000Y-88368750D02*
X123190000Y-87788750D01*
D13*
X135255000Y-73818750D03*
X125095000Y-73818750D03*
D14*
X127675000Y-69818750D03*
D15*
X130175000Y-73818750D03*
D14*
X127020001Y-70548750D03*
D16*
X126365000Y-71278750D02*
X127675002Y-69818750D01*
D14*
X132715000Y-68738750D03*
X132695000Y-69028750D03*
D16*
X132675000Y-69318750D02*
X132715000Y-68738750D01*
D13*
X125730000Y-54768750D03*
X115570000Y-54768750D03*
D14*
X118150000Y-50768750D03*
D15*
X120650000Y-54768750D03*
D14*
X117495001Y-51498750D03*
D16*
X116840000Y-52228750D02*
X118150002Y-50768750D01*
D14*
X123190000Y-49688750D03*
X123170000Y-49978750D03*
D16*
X123150000Y-50268750D02*
X123190000Y-49688750D01*
D13*
X125730000Y-35718750D03*
X115570000Y-35718750D03*
D14*
X118150000Y-31718750D03*
D15*
X120650000Y-35718750D03*
D14*
X117495001Y-32448750D03*
D16*
X116840000Y-33178750D02*
X118150002Y-31718750D01*
D14*
X123190000Y-30638750D03*
X123170000Y-30928750D03*
D16*
X123150000Y-31218750D02*
X123190000Y-30638750D01*
D13*
X111442500Y-111918750D03*
X101282500Y-111918750D03*
D14*
X103862500Y-107918750D03*
D15*
X106362500Y-111918750D03*
D14*
X103207501Y-108648750D03*
D16*
X102552500Y-109378750D02*
X103862502Y-107918750D01*
D14*
X108902500Y-106838750D03*
X108882500Y-107128750D03*
D16*
X108862500Y-107418750D02*
X108902500Y-106838750D01*
D13*
X106680000Y-92868750D03*
X96520000Y-92868750D03*
D14*
X99100000Y-88868750D03*
D15*
X101600000Y-92868750D03*
D14*
X98445001Y-89598750D03*
D16*
X97790000Y-90328750D02*
X99100002Y-88868750D01*
D14*
X104140000Y-87788750D03*
X104120000Y-88078750D03*
D16*
X104100000Y-88368750D02*
X104140000Y-87788750D01*
D13*
X116205000Y-73818750D03*
X106045000Y-73818750D03*
D14*
X108625000Y-69818750D03*
D15*
X111125000Y-73818750D03*
D14*
X107970001Y-70548750D03*
D16*
X107315000Y-71278750D02*
X108625002Y-69818750D01*
D14*
X113665000Y-68738750D03*
X113645000Y-69028750D03*
D16*
X113625000Y-69318750D02*
X113665000Y-68738750D01*
D13*
X106680000Y-54768750D03*
X96520000Y-54768750D03*
D14*
X99100000Y-50768750D03*
D15*
X101600000Y-54768750D03*
D14*
X98445001Y-51498750D03*
D16*
X97790000Y-52228750D02*
X99100002Y-50768750D01*
D14*
X104140000Y-49688750D03*
X104120000Y-49978750D03*
D16*
X104100000Y-50268750D02*
X104140000Y-49688750D01*
D13*
X106680000Y-35718750D03*
X96520000Y-35718750D03*
D14*
X99100000Y-31718750D03*
D15*
X101600000Y-35718750D03*
D14*
X98445001Y-32448750D03*
D16*
X97790000Y-33178750D02*
X99100002Y-31718750D01*
D14*
X104140000Y-30638750D03*
X104120000Y-30928750D03*
D16*
X104100000Y-31218750D02*
X104140000Y-30638750D01*
D13*
X87630000Y-111918750D03*
X77470000Y-111918750D03*
D14*
X80050000Y-107918750D03*
D15*
X82550000Y-111918750D03*
D14*
X79395001Y-108648750D03*
D16*
X78740000Y-109378750D02*
X80050002Y-107918750D01*
D14*
X85090000Y-106838750D03*
X85070000Y-107128750D03*
D16*
X85050000Y-107418750D02*
X85090000Y-106838750D01*
D13*
X87630000Y-92868750D03*
X77470000Y-92868750D03*
D14*
X80050000Y-88868750D03*
D15*
X82550000Y-92868750D03*
D14*
X79395001Y-89598750D03*
D16*
X78740000Y-90328750D02*
X80050002Y-88868750D01*
D14*
X85090000Y-87788750D03*
X85070000Y-88078750D03*
D16*
X85050000Y-88368750D02*
X85090000Y-87788750D01*
D13*
X97155000Y-73818750D03*
X86995000Y-73818750D03*
D14*
X89575000Y-69818750D03*
D15*
X92075000Y-73818750D03*
D14*
X88920001Y-70548750D03*
D16*
X88265000Y-71278750D02*
X89575002Y-69818750D01*
D14*
X94615000Y-68738750D03*
X94595000Y-69028750D03*
D16*
X94575000Y-69318750D02*
X94615000Y-68738750D01*
D13*
X87630000Y-54768750D03*
X77470000Y-54768750D03*
D14*
X80050000Y-50768750D03*
D15*
X82550000Y-54768750D03*
D14*
X79395001Y-51498750D03*
D16*
X78740000Y-52228750D02*
X80050002Y-50768750D01*
D14*
X85090000Y-49688750D03*
X85070000Y-49978750D03*
D16*
X85050000Y-50268750D02*
X85090000Y-49688750D01*
D13*
X87630000Y-35718750D03*
X77470000Y-35718750D03*
D14*
X80050000Y-31718750D03*
D15*
X82550000Y-35718750D03*
D14*
X79395001Y-32448750D03*
D16*
X78740000Y-33178750D02*
X80050002Y-31718750D01*
D14*
X85090000Y-30638750D03*
X85070000Y-30928750D03*
D16*
X85050000Y-31218750D02*
X85090000Y-30638750D01*
D13*
X68580000Y-111918750D03*
X58420000Y-111918750D03*
D14*
X61000000Y-107918750D03*
D15*
X63500000Y-111918750D03*
D14*
X60345001Y-108648750D03*
D16*
X59690000Y-109378750D02*
X61000002Y-107918750D01*
D14*
X66040000Y-106838750D03*
X66020000Y-107128750D03*
D16*
X66000000Y-107418750D02*
X66040000Y-106838750D01*
D13*
X68580000Y-92868750D03*
X58420000Y-92868750D03*
D14*
X61000000Y-88868750D03*
D15*
X63500000Y-92868750D03*
D14*
X60345001Y-89598750D03*
D16*
X59690000Y-90328750D02*
X61000002Y-88868750D01*
D14*
X66040000Y-87788750D03*
X66020000Y-88078750D03*
D16*
X66000000Y-88368750D02*
X66040000Y-87788750D01*
D13*
X78105000Y-73818750D03*
X67945000Y-73818750D03*
D14*
X70525000Y-69818750D03*
D15*
X73025000Y-73818750D03*
D14*
X69870001Y-70548750D03*
D16*
X69215000Y-71278750D02*
X70525002Y-69818750D01*
D14*
X75565000Y-68738750D03*
X75545000Y-69028750D03*
D16*
X75525000Y-69318750D02*
X75565000Y-68738750D01*
D13*
X49530000Y-111918750D03*
X39370000Y-111918750D03*
D14*
X41950000Y-107918750D03*
D15*
X44450000Y-111918750D03*
D14*
X41295001Y-108648750D03*
D16*
X40640000Y-109378750D02*
X41950002Y-107918750D01*
D14*
X46990000Y-106838750D03*
X46970000Y-107128750D03*
D16*
X46950000Y-107418750D02*
X46990000Y-106838750D01*
D13*
X49530000Y-92868750D03*
X39370000Y-92868750D03*
D14*
X41950000Y-88868750D03*
D15*
X44450000Y-92868750D03*
D14*
X41295001Y-89598750D03*
D16*
X40640000Y-90328750D02*
X41950002Y-88868750D01*
D14*
X46990000Y-87788750D03*
X46970000Y-88078750D03*
D16*
X46950000Y-88368750D02*
X46990000Y-87788750D01*
D13*
X59055000Y-73818750D03*
X48895000Y-73818750D03*
D14*
X51475000Y-69818750D03*
D15*
X53975000Y-73818750D03*
D14*
X50820001Y-70548750D03*
D16*
X50165000Y-71278750D02*
X51475002Y-69818750D01*
D14*
X56515000Y-68738750D03*
X56495000Y-69028750D03*
D16*
X56475000Y-69318750D02*
X56515000Y-68738750D01*
D13*
X68580000Y-54768750D03*
X58420000Y-54768750D03*
D14*
X61000000Y-50768750D03*
D15*
X63500000Y-54768750D03*
D14*
X60345001Y-51498750D03*
D16*
X59690000Y-52228750D02*
X61000002Y-50768750D01*
D14*
X66040000Y-49688750D03*
X66020000Y-49978750D03*
D16*
X66000000Y-50268750D02*
X66040000Y-49688750D01*
D13*
X68580000Y-35718750D03*
X58420000Y-35718750D03*
D14*
X61000000Y-31718750D03*
D15*
X63500000Y-35718750D03*
D14*
X60345001Y-32448750D03*
D16*
X59690000Y-33178750D02*
X61000002Y-31718750D01*
D14*
X66040000Y-30638750D03*
X66020000Y-30928750D03*
D16*
X66000000Y-31218750D02*
X66040000Y-30638750D01*
D13*
X49530000Y-54768750D03*
X39370000Y-54768750D03*
D14*
X41950000Y-50768750D03*
D15*
X44450000Y-54768750D03*
D14*
X41295001Y-51498750D03*
D16*
X40640000Y-52228750D02*
X41950002Y-50768750D01*
D14*
X46990000Y-49688750D03*
X46970000Y-49978750D03*
D16*
X46950000Y-50268750D02*
X46990000Y-49688750D01*
D17*
G36*
X222942104Y-128996302D02*
G01*
X222968352Y-129000196D01*
X222994093Y-129006643D01*
X223019078Y-129015583D01*
X223043066Y-129026928D01*
X223065826Y-129040571D01*
X223087140Y-129056378D01*
X223106802Y-129074198D01*
X223124622Y-129093860D01*
X223140429Y-129115174D01*
X223154072Y-129137934D01*
X223165417Y-129161922D01*
X223174357Y-129186907D01*
X223180804Y-129212648D01*
X223184698Y-129238896D01*
X223186000Y-129265400D01*
X223186000Y-130576600D01*
X223184698Y-130603104D01*
X223180804Y-130629352D01*
X223174357Y-130655093D01*
X223165417Y-130680078D01*
X223154072Y-130704066D01*
X223140429Y-130726826D01*
X223124622Y-130748140D01*
X223106802Y-130767802D01*
X223087140Y-130785622D01*
X223065826Y-130801429D01*
X223043066Y-130815072D01*
X223019078Y-130826417D01*
X222994093Y-130835357D01*
X222968352Y-130841804D01*
X222942104Y-130845698D01*
X222915600Y-130847000D01*
X222104400Y-130847000D01*
X222077896Y-130845698D01*
X222051648Y-130841804D01*
X222025907Y-130835357D01*
X222000922Y-130826417D01*
X221976934Y-130815072D01*
X221954174Y-130801429D01*
X221932860Y-130785622D01*
X221913198Y-130767802D01*
X221895378Y-130748140D01*
X221879571Y-130726826D01*
X221865928Y-130704066D01*
X221854583Y-130680078D01*
X221845643Y-130655093D01*
X221839196Y-130629352D01*
X221835302Y-130603104D01*
X221834000Y-130576600D01*
X221834000Y-129265400D01*
X221835302Y-129238896D01*
X221839196Y-129212648D01*
X221845643Y-129186907D01*
X221854583Y-129161922D01*
X221865928Y-129137934D01*
X221879571Y-129115174D01*
X221895378Y-129093860D01*
X221913198Y-129074198D01*
X221932860Y-129056378D01*
X221954174Y-129040571D01*
X221976934Y-129026928D01*
X222000922Y-129015583D01*
X222025907Y-129006643D01*
X222051648Y-129000196D01*
X222077896Y-128996302D01*
X222104400Y-128995000D01*
X222915600Y-128995000D01*
X222942104Y-128996302D01*
X222942104Y-128996302D01*
G37*
D18*
X222510000Y-129921000D03*
D17*
G36*
X220142104Y-128996302D02*
G01*
X220168352Y-129000196D01*
X220194093Y-129006643D01*
X220219078Y-129015583D01*
X220243066Y-129026928D01*
X220265826Y-129040571D01*
X220287140Y-129056378D01*
X220306802Y-129074198D01*
X220324622Y-129093860D01*
X220340429Y-129115174D01*
X220354072Y-129137934D01*
X220365417Y-129161922D01*
X220374357Y-129186907D01*
X220380804Y-129212648D01*
X220384698Y-129238896D01*
X220386000Y-129265400D01*
X220386000Y-130576600D01*
X220384698Y-130603104D01*
X220380804Y-130629352D01*
X220374357Y-130655093D01*
X220365417Y-130680078D01*
X220354072Y-130704066D01*
X220340429Y-130726826D01*
X220324622Y-130748140D01*
X220306802Y-130767802D01*
X220287140Y-130785622D01*
X220265826Y-130801429D01*
X220243066Y-130815072D01*
X220219078Y-130826417D01*
X220194093Y-130835357D01*
X220168352Y-130841804D01*
X220142104Y-130845698D01*
X220115600Y-130847000D01*
X219304400Y-130847000D01*
X219277896Y-130845698D01*
X219251648Y-130841804D01*
X219225907Y-130835357D01*
X219200922Y-130826417D01*
X219176934Y-130815072D01*
X219154174Y-130801429D01*
X219132860Y-130785622D01*
X219113198Y-130767802D01*
X219095378Y-130748140D01*
X219079571Y-130726826D01*
X219065928Y-130704066D01*
X219054583Y-130680078D01*
X219045643Y-130655093D01*
X219039196Y-130629352D01*
X219035302Y-130603104D01*
X219034000Y-130576600D01*
X219034000Y-129265400D01*
X219035302Y-129238896D01*
X219039196Y-129212648D01*
X219045643Y-129186907D01*
X219054583Y-129161922D01*
X219065928Y-129137934D01*
X219079571Y-129115174D01*
X219095378Y-129093860D01*
X219113198Y-129074198D01*
X219132860Y-129056378D01*
X219154174Y-129040571D01*
X219176934Y-129026928D01*
X219200922Y-129015583D01*
X219225907Y-129006643D01*
X219251648Y-129000196D01*
X219277896Y-128996302D01*
X219304400Y-128995000D01*
X220115600Y-128995000D01*
X220142104Y-128996302D01*
X220142104Y-128996302D01*
G37*
D18*
X219710000Y-129921000D03*
D19*
X71437500Y-34131250D03*
X71437500Y-37431250D03*
X52387500Y-34131250D03*
X52387500Y-37431250D03*
X223710500Y-91281250D03*
X223710500Y-94581250D03*
X223710500Y-53181250D03*
X223710500Y-56481250D03*
X223710500Y-34131250D03*
X223710500Y-37431250D03*
X223710500Y-110331250D03*
X223710500Y-113631250D03*
X204660500Y-91282250D03*
X204660500Y-94582250D03*
X214185500Y-72231250D03*
X214185500Y-75531250D03*
X204660500Y-53181250D03*
X204660500Y-56481250D03*
X204660500Y-34132250D03*
X204660500Y-37432250D03*
X204660500Y-110331250D03*
X204660500Y-113631250D03*
X185610500Y-91281250D03*
X185610500Y-94581250D03*
X195008500Y-72105250D03*
X195008500Y-75405250D03*
X185610500Y-53181250D03*
X185610500Y-56481250D03*
X185610500Y-34131250D03*
X185610500Y-37431250D03*
X185610500Y-110331250D03*
X185610500Y-113631250D03*
X166687500Y-91281250D03*
X166687500Y-94581250D03*
X176085500Y-72231250D03*
X176085500Y-75531250D03*
X166560500Y-53181250D03*
X166560500Y-56481250D03*
X166560500Y-34132250D03*
X166560500Y-37432250D03*
X161734500Y-110204250D03*
X161734500Y-113504250D03*
X147510500Y-91281250D03*
X147510500Y-94581250D03*
X157035500Y-72231250D03*
X157035500Y-75531250D03*
X147510500Y-53181250D03*
X147510500Y-56481250D03*
X147510500Y-34131250D03*
X147510500Y-37431250D03*
X137985500Y-110331250D03*
X137985500Y-113631250D03*
X128460500Y-91154250D03*
X128460500Y-94454250D03*
X137985500Y-72231250D03*
X137985500Y-75531250D03*
X128460500Y-53181250D03*
X128460500Y-56481250D03*
X128460500Y-34131250D03*
X128460500Y-37431250D03*
X114236500Y-110331250D03*
X114236500Y-113631250D03*
X109410500Y-91282250D03*
X109410500Y-94582250D03*
X118935500Y-72105250D03*
X118935500Y-75405250D03*
X109537500Y-53055250D03*
X109537500Y-56355250D03*
X109410500Y-34131250D03*
X109410500Y-37431250D03*
X90360500Y-110331250D03*
X90360500Y-113631250D03*
X90360500Y-91155250D03*
X90360500Y-94455250D03*
X100012500Y-72232250D03*
X100012500Y-75532250D03*
X90487500Y-53181250D03*
X90487500Y-56481250D03*
X90360500Y-34258250D03*
X90360500Y-37558250D03*
X71310500Y-110332250D03*
X71310500Y-113632250D03*
X71310500Y-91154250D03*
X71310500Y-94454250D03*
X80835500Y-72104250D03*
X80835500Y-75404250D03*
X52260500Y-110331250D03*
X52260500Y-113631250D03*
X52260500Y-91282250D03*
X52260500Y-94582250D03*
X61912500Y-72231250D03*
X61912500Y-75531250D03*
D20*
X233502000Y-32440000D03*
X232702000Y-32440000D03*
X231902000Y-32440000D03*
X231102000Y-32440000D03*
X230302000Y-32440000D03*
D21*
X228252000Y-32440000D03*
X235552000Y-32440000D03*
X235552000Y-27940000D03*
X228252000Y-27940000D03*
D22*
X177528750Y-132705750D03*
X177528750Y-134905750D03*
X179228750Y-134905750D03*
X179228750Y-132705750D03*
D23*
X200518000Y-138461250D03*
X200518000Y-137661250D03*
X200518000Y-136861250D03*
X200518000Y-136061250D03*
X200518000Y-135261250D03*
X200518000Y-134461250D03*
X200518000Y-133661250D03*
X200518000Y-132861250D03*
X200518000Y-132061250D03*
X200518000Y-131261250D03*
X200518000Y-130461250D03*
D24*
X198818000Y-128761250D03*
X198018000Y-128761250D03*
X197218000Y-128761250D03*
X196418000Y-128761250D03*
X195618000Y-128761250D03*
X194818000Y-128761250D03*
X194018000Y-128761250D03*
X193218000Y-128761250D03*
X192418000Y-128761250D03*
X191618000Y-128761250D03*
X190818000Y-128761250D03*
D23*
X189118000Y-130461250D03*
X189118000Y-131261250D03*
X189118000Y-132061250D03*
X189118000Y-132861250D03*
X189118000Y-133661250D03*
X189118000Y-134461250D03*
X189118000Y-135261250D03*
X189118000Y-136061250D03*
X189118000Y-136861250D03*
X189118000Y-137661250D03*
X189118000Y-138461250D03*
D24*
X190818000Y-140161250D03*
X191618000Y-140161250D03*
X192418000Y-140161250D03*
X193218000Y-140161250D03*
X194018000Y-140161250D03*
X194818000Y-140161250D03*
X195618000Y-140161250D03*
X196418000Y-140161250D03*
X197218000Y-140161250D03*
X198018000Y-140161250D03*
X198818000Y-140161250D03*
D25*
X225503250Y-139985750D03*
X229203250Y-133785750D03*
X229203250Y-139985750D03*
X225503250Y-133785750D03*
D17*
G36*
X206827641Y-127901297D02*
G01*
X206853778Y-127905174D01*
X206879409Y-127911594D01*
X206904288Y-127920495D01*
X206928174Y-127931793D01*
X206950837Y-127945377D01*
X206972060Y-127961117D01*
X206991639Y-127978861D01*
X207009383Y-127998440D01*
X207025123Y-128019663D01*
X207038707Y-128042326D01*
X207050005Y-128066212D01*
X207058906Y-128091091D01*
X207065326Y-128116722D01*
X207069203Y-128142859D01*
X207070500Y-128169250D01*
X207070500Y-129132750D01*
X207069203Y-129159141D01*
X207065326Y-129185278D01*
X207058906Y-129210909D01*
X207050005Y-129235788D01*
X207038707Y-129259674D01*
X207025123Y-129282337D01*
X207009383Y-129303560D01*
X206991639Y-129323139D01*
X206972060Y-129340883D01*
X206950837Y-129356623D01*
X206928174Y-129370207D01*
X206904288Y-129381505D01*
X206879409Y-129390406D01*
X206853778Y-129396826D01*
X206827641Y-129400703D01*
X206801250Y-129402000D01*
X206262750Y-129402000D01*
X206236359Y-129400703D01*
X206210222Y-129396826D01*
X206184591Y-129390406D01*
X206159712Y-129381505D01*
X206135826Y-129370207D01*
X206113163Y-129356623D01*
X206091940Y-129340883D01*
X206072361Y-129323139D01*
X206054617Y-129303560D01*
X206038877Y-129282337D01*
X206025293Y-129259674D01*
X206013995Y-129235788D01*
X206005094Y-129210909D01*
X205998674Y-129185278D01*
X205994797Y-129159141D01*
X205993500Y-129132750D01*
X205993500Y-128169250D01*
X205994797Y-128142859D01*
X205998674Y-128116722D01*
X206005094Y-128091091D01*
X206013995Y-128066212D01*
X206025293Y-128042326D01*
X206038877Y-128019663D01*
X206054617Y-127998440D01*
X206072361Y-127978861D01*
X206091940Y-127961117D01*
X206113163Y-127945377D01*
X206135826Y-127931793D01*
X206159712Y-127920495D01*
X206184591Y-127911594D01*
X206210222Y-127905174D01*
X206236359Y-127901297D01*
X206262750Y-127900000D01*
X206801250Y-127900000D01*
X206827641Y-127901297D01*
X206827641Y-127901297D01*
G37*
D26*
X206532000Y-128651000D03*
D17*
G36*
X208702641Y-127901297D02*
G01*
X208728778Y-127905174D01*
X208754409Y-127911594D01*
X208779288Y-127920495D01*
X208803174Y-127931793D01*
X208825837Y-127945377D01*
X208847060Y-127961117D01*
X208866639Y-127978861D01*
X208884383Y-127998440D01*
X208900123Y-128019663D01*
X208913707Y-128042326D01*
X208925005Y-128066212D01*
X208933906Y-128091091D01*
X208940326Y-128116722D01*
X208944203Y-128142859D01*
X208945500Y-128169250D01*
X208945500Y-129132750D01*
X208944203Y-129159141D01*
X208940326Y-129185278D01*
X208933906Y-129210909D01*
X208925005Y-129235788D01*
X208913707Y-129259674D01*
X208900123Y-129282337D01*
X208884383Y-129303560D01*
X208866639Y-129323139D01*
X208847060Y-129340883D01*
X208825837Y-129356623D01*
X208803174Y-129370207D01*
X208779288Y-129381505D01*
X208754409Y-129390406D01*
X208728778Y-129396826D01*
X208702641Y-129400703D01*
X208676250Y-129402000D01*
X208137750Y-129402000D01*
X208111359Y-129400703D01*
X208085222Y-129396826D01*
X208059591Y-129390406D01*
X208034712Y-129381505D01*
X208010826Y-129370207D01*
X207988163Y-129356623D01*
X207966940Y-129340883D01*
X207947361Y-129323139D01*
X207929617Y-129303560D01*
X207913877Y-129282337D01*
X207900293Y-129259674D01*
X207888995Y-129235788D01*
X207880094Y-129210909D01*
X207873674Y-129185278D01*
X207869797Y-129159141D01*
X207868500Y-129132750D01*
X207868500Y-128169250D01*
X207869797Y-128142859D01*
X207873674Y-128116722D01*
X207880094Y-128091091D01*
X207888995Y-128066212D01*
X207900293Y-128042326D01*
X207913877Y-128019663D01*
X207929617Y-127998440D01*
X207947361Y-127978861D01*
X207966940Y-127961117D01*
X207988163Y-127945377D01*
X208010826Y-127931793D01*
X208034712Y-127920495D01*
X208059591Y-127911594D01*
X208085222Y-127905174D01*
X208111359Y-127901297D01*
X208137750Y-127900000D01*
X208676250Y-127900000D01*
X208702641Y-127901297D01*
X208702641Y-127901297D01*
G37*
D26*
X208407000Y-128651000D03*
D17*
G36*
X183205641Y-136918297D02*
G01*
X183231778Y-136922174D01*
X183257409Y-136928594D01*
X183282288Y-136937495D01*
X183306174Y-136948793D01*
X183328837Y-136962377D01*
X183350060Y-136978117D01*
X183369639Y-136995861D01*
X183387383Y-137015440D01*
X183403123Y-137036663D01*
X183416707Y-137059326D01*
X183428005Y-137083212D01*
X183436906Y-137108091D01*
X183443326Y-137133722D01*
X183447203Y-137159859D01*
X183448500Y-137186250D01*
X183448500Y-138149750D01*
X183447203Y-138176141D01*
X183443326Y-138202278D01*
X183436906Y-138227909D01*
X183428005Y-138252788D01*
X183416707Y-138276674D01*
X183403123Y-138299337D01*
X183387383Y-138320560D01*
X183369639Y-138340139D01*
X183350060Y-138357883D01*
X183328837Y-138373623D01*
X183306174Y-138387207D01*
X183282288Y-138398505D01*
X183257409Y-138407406D01*
X183231778Y-138413826D01*
X183205641Y-138417703D01*
X183179250Y-138419000D01*
X182640750Y-138419000D01*
X182614359Y-138417703D01*
X182588222Y-138413826D01*
X182562591Y-138407406D01*
X182537712Y-138398505D01*
X182513826Y-138387207D01*
X182491163Y-138373623D01*
X182469940Y-138357883D01*
X182450361Y-138340139D01*
X182432617Y-138320560D01*
X182416877Y-138299337D01*
X182403293Y-138276674D01*
X182391995Y-138252788D01*
X182383094Y-138227909D01*
X182376674Y-138202278D01*
X182372797Y-138176141D01*
X182371500Y-138149750D01*
X182371500Y-137186250D01*
X182372797Y-137159859D01*
X182376674Y-137133722D01*
X182383094Y-137108091D01*
X182391995Y-137083212D01*
X182403293Y-137059326D01*
X182416877Y-137036663D01*
X182432617Y-137015440D01*
X182450361Y-136995861D01*
X182469940Y-136978117D01*
X182491163Y-136962377D01*
X182513826Y-136948793D01*
X182537712Y-136937495D01*
X182562591Y-136928594D01*
X182588222Y-136922174D01*
X182614359Y-136918297D01*
X182640750Y-136917000D01*
X183179250Y-136917000D01*
X183205641Y-136918297D01*
X183205641Y-136918297D01*
G37*
D26*
X182910000Y-137668000D03*
D17*
G36*
X185080641Y-136918297D02*
G01*
X185106778Y-136922174D01*
X185132409Y-136928594D01*
X185157288Y-136937495D01*
X185181174Y-136948793D01*
X185203837Y-136962377D01*
X185225060Y-136978117D01*
X185244639Y-136995861D01*
X185262383Y-137015440D01*
X185278123Y-137036663D01*
X185291707Y-137059326D01*
X185303005Y-137083212D01*
X185311906Y-137108091D01*
X185318326Y-137133722D01*
X185322203Y-137159859D01*
X185323500Y-137186250D01*
X185323500Y-138149750D01*
X185322203Y-138176141D01*
X185318326Y-138202278D01*
X185311906Y-138227909D01*
X185303005Y-138252788D01*
X185291707Y-138276674D01*
X185278123Y-138299337D01*
X185262383Y-138320560D01*
X185244639Y-138340139D01*
X185225060Y-138357883D01*
X185203837Y-138373623D01*
X185181174Y-138387207D01*
X185157288Y-138398505D01*
X185132409Y-138407406D01*
X185106778Y-138413826D01*
X185080641Y-138417703D01*
X185054250Y-138419000D01*
X184515750Y-138419000D01*
X184489359Y-138417703D01*
X184463222Y-138413826D01*
X184437591Y-138407406D01*
X184412712Y-138398505D01*
X184388826Y-138387207D01*
X184366163Y-138373623D01*
X184344940Y-138357883D01*
X184325361Y-138340139D01*
X184307617Y-138320560D01*
X184291877Y-138299337D01*
X184278293Y-138276674D01*
X184266995Y-138252788D01*
X184258094Y-138227909D01*
X184251674Y-138202278D01*
X184247797Y-138176141D01*
X184246500Y-138149750D01*
X184246500Y-137186250D01*
X184247797Y-137159859D01*
X184251674Y-137133722D01*
X184258094Y-137108091D01*
X184266995Y-137083212D01*
X184278293Y-137059326D01*
X184291877Y-137036663D01*
X184307617Y-137015440D01*
X184325361Y-136995861D01*
X184344940Y-136978117D01*
X184366163Y-136962377D01*
X184388826Y-136948793D01*
X184412712Y-136937495D01*
X184437591Y-136928594D01*
X184463222Y-136922174D01*
X184489359Y-136918297D01*
X184515750Y-136917000D01*
X185054250Y-136917000D01*
X185080641Y-136918297D01*
X185080641Y-136918297D01*
G37*
D26*
X184785000Y-137668000D03*
D17*
G36*
X209685141Y-135426047D02*
G01*
X209711278Y-135429924D01*
X209736909Y-135436344D01*
X209761788Y-135445245D01*
X209785674Y-135456543D01*
X209808337Y-135470127D01*
X209829560Y-135485867D01*
X209849139Y-135503611D01*
X209866883Y-135523190D01*
X209882623Y-135544413D01*
X209896207Y-135567076D01*
X209907505Y-135590962D01*
X209916406Y-135615841D01*
X209922826Y-135641472D01*
X209926703Y-135667609D01*
X209928000Y-135694000D01*
X209928000Y-136657500D01*
X209926703Y-136683891D01*
X209922826Y-136710028D01*
X209916406Y-136735659D01*
X209907505Y-136760538D01*
X209896207Y-136784424D01*
X209882623Y-136807087D01*
X209866883Y-136828310D01*
X209849139Y-136847889D01*
X209829560Y-136865633D01*
X209808337Y-136881373D01*
X209785674Y-136894957D01*
X209761788Y-136906255D01*
X209736909Y-136915156D01*
X209711278Y-136921576D01*
X209685141Y-136925453D01*
X209658750Y-136926750D01*
X209120250Y-136926750D01*
X209093859Y-136925453D01*
X209067722Y-136921576D01*
X209042091Y-136915156D01*
X209017212Y-136906255D01*
X208993326Y-136894957D01*
X208970663Y-136881373D01*
X208949440Y-136865633D01*
X208929861Y-136847889D01*
X208912117Y-136828310D01*
X208896377Y-136807087D01*
X208882793Y-136784424D01*
X208871495Y-136760538D01*
X208862594Y-136735659D01*
X208856174Y-136710028D01*
X208852297Y-136683891D01*
X208851000Y-136657500D01*
X208851000Y-135694000D01*
X208852297Y-135667609D01*
X208856174Y-135641472D01*
X208862594Y-135615841D01*
X208871495Y-135590962D01*
X208882793Y-135567076D01*
X208896377Y-135544413D01*
X208912117Y-135523190D01*
X208929861Y-135503611D01*
X208949440Y-135485867D01*
X208970663Y-135470127D01*
X208993326Y-135456543D01*
X209017212Y-135445245D01*
X209042091Y-135436344D01*
X209067722Y-135429924D01*
X209093859Y-135426047D01*
X209120250Y-135424750D01*
X209658750Y-135424750D01*
X209685141Y-135426047D01*
X209685141Y-135426047D01*
G37*
D26*
X209389500Y-136175750D03*
D17*
G36*
X211560141Y-135426047D02*
G01*
X211586278Y-135429924D01*
X211611909Y-135436344D01*
X211636788Y-135445245D01*
X211660674Y-135456543D01*
X211683337Y-135470127D01*
X211704560Y-135485867D01*
X211724139Y-135503611D01*
X211741883Y-135523190D01*
X211757623Y-135544413D01*
X211771207Y-135567076D01*
X211782505Y-135590962D01*
X211791406Y-135615841D01*
X211797826Y-135641472D01*
X211801703Y-135667609D01*
X211803000Y-135694000D01*
X211803000Y-136657500D01*
X211801703Y-136683891D01*
X211797826Y-136710028D01*
X211791406Y-136735659D01*
X211782505Y-136760538D01*
X211771207Y-136784424D01*
X211757623Y-136807087D01*
X211741883Y-136828310D01*
X211724139Y-136847889D01*
X211704560Y-136865633D01*
X211683337Y-136881373D01*
X211660674Y-136894957D01*
X211636788Y-136906255D01*
X211611909Y-136915156D01*
X211586278Y-136921576D01*
X211560141Y-136925453D01*
X211533750Y-136926750D01*
X210995250Y-136926750D01*
X210968859Y-136925453D01*
X210942722Y-136921576D01*
X210917091Y-136915156D01*
X210892212Y-136906255D01*
X210868326Y-136894957D01*
X210845663Y-136881373D01*
X210824440Y-136865633D01*
X210804861Y-136847889D01*
X210787117Y-136828310D01*
X210771377Y-136807087D01*
X210757793Y-136784424D01*
X210746495Y-136760538D01*
X210737594Y-136735659D01*
X210731174Y-136710028D01*
X210727297Y-136683891D01*
X210726000Y-136657500D01*
X210726000Y-135694000D01*
X210727297Y-135667609D01*
X210731174Y-135641472D01*
X210737594Y-135615841D01*
X210746495Y-135590962D01*
X210757793Y-135567076D01*
X210771377Y-135544413D01*
X210787117Y-135523190D01*
X210804861Y-135503611D01*
X210824440Y-135485867D01*
X210845663Y-135470127D01*
X210868326Y-135456543D01*
X210892212Y-135445245D01*
X210917091Y-135436344D01*
X210942722Y-135429924D01*
X210968859Y-135426047D01*
X210995250Y-135424750D01*
X211533750Y-135424750D01*
X211560141Y-135426047D01*
X211560141Y-135426047D01*
G37*
D26*
X211264500Y-136175750D03*
D17*
G36*
X209685141Y-139109047D02*
G01*
X209711278Y-139112924D01*
X209736909Y-139119344D01*
X209761788Y-139128245D01*
X209785674Y-139139543D01*
X209808337Y-139153127D01*
X209829560Y-139168867D01*
X209849139Y-139186611D01*
X209866883Y-139206190D01*
X209882623Y-139227413D01*
X209896207Y-139250076D01*
X209907505Y-139273962D01*
X209916406Y-139298841D01*
X209922826Y-139324472D01*
X209926703Y-139350609D01*
X209928000Y-139377000D01*
X209928000Y-140340500D01*
X209926703Y-140366891D01*
X209922826Y-140393028D01*
X209916406Y-140418659D01*
X209907505Y-140443538D01*
X209896207Y-140467424D01*
X209882623Y-140490087D01*
X209866883Y-140511310D01*
X209849139Y-140530889D01*
X209829560Y-140548633D01*
X209808337Y-140564373D01*
X209785674Y-140577957D01*
X209761788Y-140589255D01*
X209736909Y-140598156D01*
X209711278Y-140604576D01*
X209685141Y-140608453D01*
X209658750Y-140609750D01*
X209120250Y-140609750D01*
X209093859Y-140608453D01*
X209067722Y-140604576D01*
X209042091Y-140598156D01*
X209017212Y-140589255D01*
X208993326Y-140577957D01*
X208970663Y-140564373D01*
X208949440Y-140548633D01*
X208929861Y-140530889D01*
X208912117Y-140511310D01*
X208896377Y-140490087D01*
X208882793Y-140467424D01*
X208871495Y-140443538D01*
X208862594Y-140418659D01*
X208856174Y-140393028D01*
X208852297Y-140366891D01*
X208851000Y-140340500D01*
X208851000Y-139377000D01*
X208852297Y-139350609D01*
X208856174Y-139324472D01*
X208862594Y-139298841D01*
X208871495Y-139273962D01*
X208882793Y-139250076D01*
X208896377Y-139227413D01*
X208912117Y-139206190D01*
X208929861Y-139186611D01*
X208949440Y-139168867D01*
X208970663Y-139153127D01*
X208993326Y-139139543D01*
X209017212Y-139128245D01*
X209042091Y-139119344D01*
X209067722Y-139112924D01*
X209093859Y-139109047D01*
X209120250Y-139107750D01*
X209658750Y-139107750D01*
X209685141Y-139109047D01*
X209685141Y-139109047D01*
G37*
D26*
X209389500Y-139858750D03*
D17*
G36*
X211560141Y-139109047D02*
G01*
X211586278Y-139112924D01*
X211611909Y-139119344D01*
X211636788Y-139128245D01*
X211660674Y-139139543D01*
X211683337Y-139153127D01*
X211704560Y-139168867D01*
X211724139Y-139186611D01*
X211741883Y-139206190D01*
X211757623Y-139227413D01*
X211771207Y-139250076D01*
X211782505Y-139273962D01*
X211791406Y-139298841D01*
X211797826Y-139324472D01*
X211801703Y-139350609D01*
X211803000Y-139377000D01*
X211803000Y-140340500D01*
X211801703Y-140366891D01*
X211797826Y-140393028D01*
X211791406Y-140418659D01*
X211782505Y-140443538D01*
X211771207Y-140467424D01*
X211757623Y-140490087D01*
X211741883Y-140511310D01*
X211724139Y-140530889D01*
X211704560Y-140548633D01*
X211683337Y-140564373D01*
X211660674Y-140577957D01*
X211636788Y-140589255D01*
X211611909Y-140598156D01*
X211586278Y-140604576D01*
X211560141Y-140608453D01*
X211533750Y-140609750D01*
X210995250Y-140609750D01*
X210968859Y-140608453D01*
X210942722Y-140604576D01*
X210917091Y-140598156D01*
X210892212Y-140589255D01*
X210868326Y-140577957D01*
X210845663Y-140564373D01*
X210824440Y-140548633D01*
X210804861Y-140530889D01*
X210787117Y-140511310D01*
X210771377Y-140490087D01*
X210757793Y-140467424D01*
X210746495Y-140443538D01*
X210737594Y-140418659D01*
X210731174Y-140393028D01*
X210727297Y-140366891D01*
X210726000Y-140340500D01*
X210726000Y-139377000D01*
X210727297Y-139350609D01*
X210731174Y-139324472D01*
X210737594Y-139298841D01*
X210746495Y-139273962D01*
X210757793Y-139250076D01*
X210771377Y-139227413D01*
X210787117Y-139206190D01*
X210804861Y-139186611D01*
X210824440Y-139168867D01*
X210845663Y-139153127D01*
X210868326Y-139139543D01*
X210892212Y-139128245D01*
X210917091Y-139119344D01*
X210942722Y-139112924D01*
X210968859Y-139109047D01*
X210995250Y-139107750D01*
X211533750Y-139107750D01*
X211560141Y-139109047D01*
X211560141Y-139109047D01*
G37*
D26*
X211264500Y-139858750D03*
D19*
X71437500Y-53181250D03*
X71437500Y-56481250D03*
X52387500Y-53181250D03*
X52387500Y-56481250D03*
D17*
G36*
X204914641Y-136733047D02*
G01*
X204940778Y-136736924D01*
X204966409Y-136743344D01*
X204991288Y-136752245D01*
X205015174Y-136763543D01*
X205037837Y-136777127D01*
X205059060Y-136792867D01*
X205078639Y-136810611D01*
X205096383Y-136830190D01*
X205112123Y-136851413D01*
X205125707Y-136874076D01*
X205137005Y-136897962D01*
X205145906Y-136922841D01*
X205152326Y-136948472D01*
X205156203Y-136974609D01*
X205157500Y-137001000D01*
X205157500Y-137539500D01*
X205156203Y-137565891D01*
X205152326Y-137592028D01*
X205145906Y-137617659D01*
X205137005Y-137642538D01*
X205125707Y-137666424D01*
X205112123Y-137689087D01*
X205096383Y-137710310D01*
X205078639Y-137729889D01*
X205059060Y-137747633D01*
X205037837Y-137763373D01*
X205015174Y-137776957D01*
X204991288Y-137788255D01*
X204966409Y-137797156D01*
X204940778Y-137803576D01*
X204914641Y-137807453D01*
X204888250Y-137808750D01*
X203924750Y-137808750D01*
X203898359Y-137807453D01*
X203872222Y-137803576D01*
X203846591Y-137797156D01*
X203821712Y-137788255D01*
X203797826Y-137776957D01*
X203775163Y-137763373D01*
X203753940Y-137747633D01*
X203734361Y-137729889D01*
X203716617Y-137710310D01*
X203700877Y-137689087D01*
X203687293Y-137666424D01*
X203675995Y-137642538D01*
X203667094Y-137617659D01*
X203660674Y-137592028D01*
X203656797Y-137565891D01*
X203655500Y-137539500D01*
X203655500Y-137001000D01*
X203656797Y-136974609D01*
X203660674Y-136948472D01*
X203667094Y-136922841D01*
X203675995Y-136897962D01*
X203687293Y-136874076D01*
X203700877Y-136851413D01*
X203716617Y-136830190D01*
X203734361Y-136810611D01*
X203753940Y-136792867D01*
X203775163Y-136777127D01*
X203797826Y-136763543D01*
X203821712Y-136752245D01*
X203846591Y-136743344D01*
X203872222Y-136736924D01*
X203898359Y-136733047D01*
X203924750Y-136731750D01*
X204888250Y-136731750D01*
X204914641Y-136733047D01*
X204914641Y-136733047D01*
G37*
D26*
X204406500Y-137270250D03*
D17*
G36*
X204914641Y-138608047D02*
G01*
X204940778Y-138611924D01*
X204966409Y-138618344D01*
X204991288Y-138627245D01*
X205015174Y-138638543D01*
X205037837Y-138652127D01*
X205059060Y-138667867D01*
X205078639Y-138685611D01*
X205096383Y-138705190D01*
X205112123Y-138726413D01*
X205125707Y-138749076D01*
X205137005Y-138772962D01*
X205145906Y-138797841D01*
X205152326Y-138823472D01*
X205156203Y-138849609D01*
X205157500Y-138876000D01*
X205157500Y-139414500D01*
X205156203Y-139440891D01*
X205152326Y-139467028D01*
X205145906Y-139492659D01*
X205137005Y-139517538D01*
X205125707Y-139541424D01*
X205112123Y-139564087D01*
X205096383Y-139585310D01*
X205078639Y-139604889D01*
X205059060Y-139622633D01*
X205037837Y-139638373D01*
X205015174Y-139651957D01*
X204991288Y-139663255D01*
X204966409Y-139672156D01*
X204940778Y-139678576D01*
X204914641Y-139682453D01*
X204888250Y-139683750D01*
X203924750Y-139683750D01*
X203898359Y-139682453D01*
X203872222Y-139678576D01*
X203846591Y-139672156D01*
X203821712Y-139663255D01*
X203797826Y-139651957D01*
X203775163Y-139638373D01*
X203753940Y-139622633D01*
X203734361Y-139604889D01*
X203716617Y-139585310D01*
X203700877Y-139564087D01*
X203687293Y-139541424D01*
X203675995Y-139517538D01*
X203667094Y-139492659D01*
X203660674Y-139467028D01*
X203656797Y-139440891D01*
X203655500Y-139414500D01*
X203655500Y-138876000D01*
X203656797Y-138849609D01*
X203660674Y-138823472D01*
X203667094Y-138797841D01*
X203675995Y-138772962D01*
X203687293Y-138749076D01*
X203700877Y-138726413D01*
X203716617Y-138705190D01*
X203734361Y-138685611D01*
X203753940Y-138667867D01*
X203775163Y-138652127D01*
X203797826Y-138638543D01*
X203821712Y-138627245D01*
X203846591Y-138618344D01*
X203872222Y-138611924D01*
X203898359Y-138608047D01*
X203924750Y-138606750D01*
X204888250Y-138606750D01*
X204914641Y-138608047D01*
X204914641Y-138608047D01*
G37*
D26*
X204406500Y-139145250D03*
D17*
G36*
X181778641Y-139331297D02*
G01*
X181804778Y-139335174D01*
X181830409Y-139341594D01*
X181855288Y-139350495D01*
X181879174Y-139361793D01*
X181901837Y-139375377D01*
X181923060Y-139391117D01*
X181942639Y-139408861D01*
X181960383Y-139428440D01*
X181976123Y-139449663D01*
X181989707Y-139472326D01*
X182001005Y-139496212D01*
X182009906Y-139521091D01*
X182016326Y-139546722D01*
X182020203Y-139572859D01*
X182021500Y-139599250D01*
X182021500Y-140562750D01*
X182020203Y-140589141D01*
X182016326Y-140615278D01*
X182009906Y-140640909D01*
X182001005Y-140665788D01*
X181989707Y-140689674D01*
X181976123Y-140712337D01*
X181960383Y-140733560D01*
X181942639Y-140753139D01*
X181923060Y-140770883D01*
X181901837Y-140786623D01*
X181879174Y-140800207D01*
X181855288Y-140811505D01*
X181830409Y-140820406D01*
X181804778Y-140826826D01*
X181778641Y-140830703D01*
X181752250Y-140832000D01*
X181213750Y-140832000D01*
X181187359Y-140830703D01*
X181161222Y-140826826D01*
X181135591Y-140820406D01*
X181110712Y-140811505D01*
X181086826Y-140800207D01*
X181064163Y-140786623D01*
X181042940Y-140770883D01*
X181023361Y-140753139D01*
X181005617Y-140733560D01*
X180989877Y-140712337D01*
X180976293Y-140689674D01*
X180964995Y-140665788D01*
X180956094Y-140640909D01*
X180949674Y-140615278D01*
X180945797Y-140589141D01*
X180944500Y-140562750D01*
X180944500Y-139599250D01*
X180945797Y-139572859D01*
X180949674Y-139546722D01*
X180956094Y-139521091D01*
X180964995Y-139496212D01*
X180976293Y-139472326D01*
X180989877Y-139449663D01*
X181005617Y-139428440D01*
X181023361Y-139408861D01*
X181042940Y-139391117D01*
X181064163Y-139375377D01*
X181086826Y-139361793D01*
X181110712Y-139350495D01*
X181135591Y-139341594D01*
X181161222Y-139335174D01*
X181187359Y-139331297D01*
X181213750Y-139330000D01*
X181752250Y-139330000D01*
X181778641Y-139331297D01*
X181778641Y-139331297D01*
G37*
D26*
X181483000Y-140081000D03*
D17*
G36*
X183653641Y-139331297D02*
G01*
X183679778Y-139335174D01*
X183705409Y-139341594D01*
X183730288Y-139350495D01*
X183754174Y-139361793D01*
X183776837Y-139375377D01*
X183798060Y-139391117D01*
X183817639Y-139408861D01*
X183835383Y-139428440D01*
X183851123Y-139449663D01*
X183864707Y-139472326D01*
X183876005Y-139496212D01*
X183884906Y-139521091D01*
X183891326Y-139546722D01*
X183895203Y-139572859D01*
X183896500Y-139599250D01*
X183896500Y-140562750D01*
X183895203Y-140589141D01*
X183891326Y-140615278D01*
X183884906Y-140640909D01*
X183876005Y-140665788D01*
X183864707Y-140689674D01*
X183851123Y-140712337D01*
X183835383Y-140733560D01*
X183817639Y-140753139D01*
X183798060Y-140770883D01*
X183776837Y-140786623D01*
X183754174Y-140800207D01*
X183730288Y-140811505D01*
X183705409Y-140820406D01*
X183679778Y-140826826D01*
X183653641Y-140830703D01*
X183627250Y-140832000D01*
X183088750Y-140832000D01*
X183062359Y-140830703D01*
X183036222Y-140826826D01*
X183010591Y-140820406D01*
X182985712Y-140811505D01*
X182961826Y-140800207D01*
X182939163Y-140786623D01*
X182917940Y-140770883D01*
X182898361Y-140753139D01*
X182880617Y-140733560D01*
X182864877Y-140712337D01*
X182851293Y-140689674D01*
X182839995Y-140665788D01*
X182831094Y-140640909D01*
X182824674Y-140615278D01*
X182820797Y-140589141D01*
X182819500Y-140562750D01*
X182819500Y-139599250D01*
X182820797Y-139572859D01*
X182824674Y-139546722D01*
X182831094Y-139521091D01*
X182839995Y-139496212D01*
X182851293Y-139472326D01*
X182864877Y-139449663D01*
X182880617Y-139428440D01*
X182898361Y-139408861D01*
X182917940Y-139391117D01*
X182939163Y-139375377D01*
X182961826Y-139361793D01*
X182985712Y-139350495D01*
X183010591Y-139341594D01*
X183036222Y-139335174D01*
X183062359Y-139331297D01*
X183088750Y-139330000D01*
X183627250Y-139330000D01*
X183653641Y-139331297D01*
X183653641Y-139331297D01*
G37*
D26*
X183358000Y-140081000D03*
D17*
G36*
X204851141Y-131036547D02*
G01*
X204877278Y-131040424D01*
X204902909Y-131046844D01*
X204927788Y-131055745D01*
X204951674Y-131067043D01*
X204974337Y-131080627D01*
X204995560Y-131096367D01*
X205015139Y-131114111D01*
X205032883Y-131133690D01*
X205048623Y-131154913D01*
X205062207Y-131177576D01*
X205073505Y-131201462D01*
X205082406Y-131226341D01*
X205088826Y-131251972D01*
X205092703Y-131278109D01*
X205094000Y-131304500D01*
X205094000Y-131843000D01*
X205092703Y-131869391D01*
X205088826Y-131895528D01*
X205082406Y-131921159D01*
X205073505Y-131946038D01*
X205062207Y-131969924D01*
X205048623Y-131992587D01*
X205032883Y-132013810D01*
X205015139Y-132033389D01*
X204995560Y-132051133D01*
X204974337Y-132066873D01*
X204951674Y-132080457D01*
X204927788Y-132091755D01*
X204902909Y-132100656D01*
X204877278Y-132107076D01*
X204851141Y-132110953D01*
X204824750Y-132112250D01*
X203861250Y-132112250D01*
X203834859Y-132110953D01*
X203808722Y-132107076D01*
X203783091Y-132100656D01*
X203758212Y-132091755D01*
X203734326Y-132080457D01*
X203711663Y-132066873D01*
X203690440Y-132051133D01*
X203670861Y-132033389D01*
X203653117Y-132013810D01*
X203637377Y-131992587D01*
X203623793Y-131969924D01*
X203612495Y-131946038D01*
X203603594Y-131921159D01*
X203597174Y-131895528D01*
X203593297Y-131869391D01*
X203592000Y-131843000D01*
X203592000Y-131304500D01*
X203593297Y-131278109D01*
X203597174Y-131251972D01*
X203603594Y-131226341D01*
X203612495Y-131201462D01*
X203623793Y-131177576D01*
X203637377Y-131154913D01*
X203653117Y-131133690D01*
X203670861Y-131114111D01*
X203690440Y-131096367D01*
X203711663Y-131080627D01*
X203734326Y-131067043D01*
X203758212Y-131055745D01*
X203783091Y-131046844D01*
X203808722Y-131040424D01*
X203834859Y-131036547D01*
X203861250Y-131035250D01*
X204824750Y-131035250D01*
X204851141Y-131036547D01*
X204851141Y-131036547D01*
G37*
D26*
X204343000Y-131573750D03*
D17*
G36*
X204851141Y-129161547D02*
G01*
X204877278Y-129165424D01*
X204902909Y-129171844D01*
X204927788Y-129180745D01*
X204951674Y-129192043D01*
X204974337Y-129205627D01*
X204995560Y-129221367D01*
X205015139Y-129239111D01*
X205032883Y-129258690D01*
X205048623Y-129279913D01*
X205062207Y-129302576D01*
X205073505Y-129326462D01*
X205082406Y-129351341D01*
X205088826Y-129376972D01*
X205092703Y-129403109D01*
X205094000Y-129429500D01*
X205094000Y-129968000D01*
X205092703Y-129994391D01*
X205088826Y-130020528D01*
X205082406Y-130046159D01*
X205073505Y-130071038D01*
X205062207Y-130094924D01*
X205048623Y-130117587D01*
X205032883Y-130138810D01*
X205015139Y-130158389D01*
X204995560Y-130176133D01*
X204974337Y-130191873D01*
X204951674Y-130205457D01*
X204927788Y-130216755D01*
X204902909Y-130225656D01*
X204877278Y-130232076D01*
X204851141Y-130235953D01*
X204824750Y-130237250D01*
X203861250Y-130237250D01*
X203834859Y-130235953D01*
X203808722Y-130232076D01*
X203783091Y-130225656D01*
X203758212Y-130216755D01*
X203734326Y-130205457D01*
X203711663Y-130191873D01*
X203690440Y-130176133D01*
X203670861Y-130158389D01*
X203653117Y-130138810D01*
X203637377Y-130117587D01*
X203623793Y-130094924D01*
X203612495Y-130071038D01*
X203603594Y-130046159D01*
X203597174Y-130020528D01*
X203593297Y-129994391D01*
X203592000Y-129968000D01*
X203592000Y-129429500D01*
X203593297Y-129403109D01*
X203597174Y-129376972D01*
X203603594Y-129351341D01*
X203612495Y-129326462D01*
X203623793Y-129302576D01*
X203637377Y-129279913D01*
X203653117Y-129258690D01*
X203670861Y-129239111D01*
X203690440Y-129221367D01*
X203711663Y-129205627D01*
X203734326Y-129192043D01*
X203758212Y-129180745D01*
X203783091Y-129171844D01*
X203808722Y-129165424D01*
X203834859Y-129161547D01*
X203861250Y-129160250D01*
X204824750Y-129160250D01*
X204851141Y-129161547D01*
X204851141Y-129161547D01*
G37*
D26*
X204343000Y-129698750D03*
D17*
G36*
X179668141Y-138124797D02*
G01*
X179694278Y-138128674D01*
X179719909Y-138135094D01*
X179744788Y-138143995D01*
X179768674Y-138155293D01*
X179791337Y-138168877D01*
X179812560Y-138184617D01*
X179832139Y-138202361D01*
X179849883Y-138221940D01*
X179865623Y-138243163D01*
X179879207Y-138265826D01*
X179890505Y-138289712D01*
X179899406Y-138314591D01*
X179905826Y-138340222D01*
X179909703Y-138366359D01*
X179911000Y-138392750D01*
X179911000Y-139356250D01*
X179909703Y-139382641D01*
X179905826Y-139408778D01*
X179899406Y-139434409D01*
X179890505Y-139459288D01*
X179879207Y-139483174D01*
X179865623Y-139505837D01*
X179849883Y-139527060D01*
X179832139Y-139546639D01*
X179812560Y-139564383D01*
X179791337Y-139580123D01*
X179768674Y-139593707D01*
X179744788Y-139605005D01*
X179719909Y-139613906D01*
X179694278Y-139620326D01*
X179668141Y-139624203D01*
X179641750Y-139625500D01*
X179103250Y-139625500D01*
X179076859Y-139624203D01*
X179050722Y-139620326D01*
X179025091Y-139613906D01*
X179000212Y-139605005D01*
X178976326Y-139593707D01*
X178953663Y-139580123D01*
X178932440Y-139564383D01*
X178912861Y-139546639D01*
X178895117Y-139527060D01*
X178879377Y-139505837D01*
X178865793Y-139483174D01*
X178854495Y-139459288D01*
X178845594Y-139434409D01*
X178839174Y-139408778D01*
X178835297Y-139382641D01*
X178834000Y-139356250D01*
X178834000Y-138392750D01*
X178835297Y-138366359D01*
X178839174Y-138340222D01*
X178845594Y-138314591D01*
X178854495Y-138289712D01*
X178865793Y-138265826D01*
X178879377Y-138243163D01*
X178895117Y-138221940D01*
X178912861Y-138202361D01*
X178932440Y-138184617D01*
X178953663Y-138168877D01*
X178976326Y-138155293D01*
X179000212Y-138143995D01*
X179025091Y-138135094D01*
X179050722Y-138128674D01*
X179076859Y-138124797D01*
X179103250Y-138123500D01*
X179641750Y-138123500D01*
X179668141Y-138124797D01*
X179668141Y-138124797D01*
G37*
D26*
X179372500Y-138874500D03*
D17*
G36*
X177793141Y-138124797D02*
G01*
X177819278Y-138128674D01*
X177844909Y-138135094D01*
X177869788Y-138143995D01*
X177893674Y-138155293D01*
X177916337Y-138168877D01*
X177937560Y-138184617D01*
X177957139Y-138202361D01*
X177974883Y-138221940D01*
X177990623Y-138243163D01*
X178004207Y-138265826D01*
X178015505Y-138289712D01*
X178024406Y-138314591D01*
X178030826Y-138340222D01*
X178034703Y-138366359D01*
X178036000Y-138392750D01*
X178036000Y-139356250D01*
X178034703Y-139382641D01*
X178030826Y-139408778D01*
X178024406Y-139434409D01*
X178015505Y-139459288D01*
X178004207Y-139483174D01*
X177990623Y-139505837D01*
X177974883Y-139527060D01*
X177957139Y-139546639D01*
X177937560Y-139564383D01*
X177916337Y-139580123D01*
X177893674Y-139593707D01*
X177869788Y-139605005D01*
X177844909Y-139613906D01*
X177819278Y-139620326D01*
X177793141Y-139624203D01*
X177766750Y-139625500D01*
X177228250Y-139625500D01*
X177201859Y-139624203D01*
X177175722Y-139620326D01*
X177150091Y-139613906D01*
X177125212Y-139605005D01*
X177101326Y-139593707D01*
X177078663Y-139580123D01*
X177057440Y-139564383D01*
X177037861Y-139546639D01*
X177020117Y-139527060D01*
X177004377Y-139505837D01*
X176990793Y-139483174D01*
X176979495Y-139459288D01*
X176970594Y-139434409D01*
X176964174Y-139408778D01*
X176960297Y-139382641D01*
X176959000Y-139356250D01*
X176959000Y-138392750D01*
X176960297Y-138366359D01*
X176964174Y-138340222D01*
X176970594Y-138314591D01*
X176979495Y-138289712D01*
X176990793Y-138265826D01*
X177004377Y-138243163D01*
X177020117Y-138221940D01*
X177037861Y-138202361D01*
X177057440Y-138184617D01*
X177078663Y-138168877D01*
X177101326Y-138155293D01*
X177125212Y-138143995D01*
X177150091Y-138135094D01*
X177175722Y-138128674D01*
X177201859Y-138124797D01*
X177228250Y-138123500D01*
X177766750Y-138123500D01*
X177793141Y-138124797D01*
X177793141Y-138124797D01*
G37*
D26*
X177497500Y-138874500D03*
D17*
G36*
X177649391Y-128599797D02*
G01*
X177675528Y-128603674D01*
X177701159Y-128610094D01*
X177726038Y-128618995D01*
X177749924Y-128630293D01*
X177772587Y-128643877D01*
X177793810Y-128659617D01*
X177813389Y-128677361D01*
X177831133Y-128696940D01*
X177846873Y-128718163D01*
X177860457Y-128740826D01*
X177871755Y-128764712D01*
X177880656Y-128789591D01*
X177887076Y-128815222D01*
X177890953Y-128841359D01*
X177892250Y-128867750D01*
X177892250Y-129831250D01*
X177890953Y-129857641D01*
X177887076Y-129883778D01*
X177880656Y-129909409D01*
X177871755Y-129934288D01*
X177860457Y-129958174D01*
X177846873Y-129980837D01*
X177831133Y-130002060D01*
X177813389Y-130021639D01*
X177793810Y-130039383D01*
X177772587Y-130055123D01*
X177749924Y-130068707D01*
X177726038Y-130080005D01*
X177701159Y-130088906D01*
X177675528Y-130095326D01*
X177649391Y-130099203D01*
X177623000Y-130100500D01*
X177084500Y-130100500D01*
X177058109Y-130099203D01*
X177031972Y-130095326D01*
X177006341Y-130088906D01*
X176981462Y-130080005D01*
X176957576Y-130068707D01*
X176934913Y-130055123D01*
X176913690Y-130039383D01*
X176894111Y-130021639D01*
X176876367Y-130002060D01*
X176860627Y-129980837D01*
X176847043Y-129958174D01*
X176835745Y-129934288D01*
X176826844Y-129909409D01*
X176820424Y-129883778D01*
X176816547Y-129857641D01*
X176815250Y-129831250D01*
X176815250Y-128867750D01*
X176816547Y-128841359D01*
X176820424Y-128815222D01*
X176826844Y-128789591D01*
X176835745Y-128764712D01*
X176847043Y-128740826D01*
X176860627Y-128718163D01*
X176876367Y-128696940D01*
X176894111Y-128677361D01*
X176913690Y-128659617D01*
X176934913Y-128643877D01*
X176957576Y-128630293D01*
X176981462Y-128618995D01*
X177006341Y-128610094D01*
X177031972Y-128603674D01*
X177058109Y-128599797D01*
X177084500Y-128598500D01*
X177623000Y-128598500D01*
X177649391Y-128599797D01*
X177649391Y-128599797D01*
G37*
D26*
X177353750Y-129349500D03*
D17*
G36*
X179524391Y-128599797D02*
G01*
X179550528Y-128603674D01*
X179576159Y-128610094D01*
X179601038Y-128618995D01*
X179624924Y-128630293D01*
X179647587Y-128643877D01*
X179668810Y-128659617D01*
X179688389Y-128677361D01*
X179706133Y-128696940D01*
X179721873Y-128718163D01*
X179735457Y-128740826D01*
X179746755Y-128764712D01*
X179755656Y-128789591D01*
X179762076Y-128815222D01*
X179765953Y-128841359D01*
X179767250Y-128867750D01*
X179767250Y-129831250D01*
X179765953Y-129857641D01*
X179762076Y-129883778D01*
X179755656Y-129909409D01*
X179746755Y-129934288D01*
X179735457Y-129958174D01*
X179721873Y-129980837D01*
X179706133Y-130002060D01*
X179688389Y-130021639D01*
X179668810Y-130039383D01*
X179647587Y-130055123D01*
X179624924Y-130068707D01*
X179601038Y-130080005D01*
X179576159Y-130088906D01*
X179550528Y-130095326D01*
X179524391Y-130099203D01*
X179498000Y-130100500D01*
X178959500Y-130100500D01*
X178933109Y-130099203D01*
X178906972Y-130095326D01*
X178881341Y-130088906D01*
X178856462Y-130080005D01*
X178832576Y-130068707D01*
X178809913Y-130055123D01*
X178788690Y-130039383D01*
X178769111Y-130021639D01*
X178751367Y-130002060D01*
X178735627Y-129980837D01*
X178722043Y-129958174D01*
X178710745Y-129934288D01*
X178701844Y-129909409D01*
X178695424Y-129883778D01*
X178691547Y-129857641D01*
X178690250Y-129831250D01*
X178690250Y-128867750D01*
X178691547Y-128841359D01*
X178695424Y-128815222D01*
X178701844Y-128789591D01*
X178710745Y-128764712D01*
X178722043Y-128740826D01*
X178735627Y-128718163D01*
X178751367Y-128696940D01*
X178769111Y-128677361D01*
X178788690Y-128659617D01*
X178809913Y-128643877D01*
X178832576Y-128630293D01*
X178856462Y-128618995D01*
X178881341Y-128610094D01*
X178906972Y-128603674D01*
X178933109Y-128599797D01*
X178959500Y-128598500D01*
X179498000Y-128598500D01*
X179524391Y-128599797D01*
X179524391Y-128599797D01*
G37*
D26*
X179228750Y-129349500D03*
D17*
G36*
X184796641Y-133235297D02*
G01*
X184822778Y-133239174D01*
X184848409Y-133245594D01*
X184873288Y-133254495D01*
X184897174Y-133265793D01*
X184919837Y-133279377D01*
X184941060Y-133295117D01*
X184960639Y-133312861D01*
X184978383Y-133332440D01*
X184994123Y-133353663D01*
X185007707Y-133376326D01*
X185019005Y-133400212D01*
X185027906Y-133425091D01*
X185034326Y-133450722D01*
X185038203Y-133476859D01*
X185039500Y-133503250D01*
X185039500Y-134466750D01*
X185038203Y-134493141D01*
X185034326Y-134519278D01*
X185027906Y-134544909D01*
X185019005Y-134569788D01*
X185007707Y-134593674D01*
X184994123Y-134616337D01*
X184978383Y-134637560D01*
X184960639Y-134657139D01*
X184941060Y-134674883D01*
X184919837Y-134690623D01*
X184897174Y-134704207D01*
X184873288Y-134715505D01*
X184848409Y-134724406D01*
X184822778Y-134730826D01*
X184796641Y-134734703D01*
X184770250Y-134736000D01*
X184231750Y-134736000D01*
X184205359Y-134734703D01*
X184179222Y-134730826D01*
X184153591Y-134724406D01*
X184128712Y-134715505D01*
X184104826Y-134704207D01*
X184082163Y-134690623D01*
X184060940Y-134674883D01*
X184041361Y-134657139D01*
X184023617Y-134637560D01*
X184007877Y-134616337D01*
X183994293Y-134593674D01*
X183982995Y-134569788D01*
X183974094Y-134544909D01*
X183967674Y-134519278D01*
X183963797Y-134493141D01*
X183962500Y-134466750D01*
X183962500Y-133503250D01*
X183963797Y-133476859D01*
X183967674Y-133450722D01*
X183974094Y-133425091D01*
X183982995Y-133400212D01*
X183994293Y-133376326D01*
X184007877Y-133353663D01*
X184023617Y-133332440D01*
X184041361Y-133312861D01*
X184060940Y-133295117D01*
X184082163Y-133279377D01*
X184104826Y-133265793D01*
X184128712Y-133254495D01*
X184153591Y-133245594D01*
X184179222Y-133239174D01*
X184205359Y-133235297D01*
X184231750Y-133234000D01*
X184770250Y-133234000D01*
X184796641Y-133235297D01*
X184796641Y-133235297D01*
G37*
D26*
X184501000Y-133985000D03*
D17*
G36*
X182921641Y-133235297D02*
G01*
X182947778Y-133239174D01*
X182973409Y-133245594D01*
X182998288Y-133254495D01*
X183022174Y-133265793D01*
X183044837Y-133279377D01*
X183066060Y-133295117D01*
X183085639Y-133312861D01*
X183103383Y-133332440D01*
X183119123Y-133353663D01*
X183132707Y-133376326D01*
X183144005Y-133400212D01*
X183152906Y-133425091D01*
X183159326Y-133450722D01*
X183163203Y-133476859D01*
X183164500Y-133503250D01*
X183164500Y-134466750D01*
X183163203Y-134493141D01*
X183159326Y-134519278D01*
X183152906Y-134544909D01*
X183144005Y-134569788D01*
X183132707Y-134593674D01*
X183119123Y-134616337D01*
X183103383Y-134637560D01*
X183085639Y-134657139D01*
X183066060Y-134674883D01*
X183044837Y-134690623D01*
X183022174Y-134704207D01*
X182998288Y-134715505D01*
X182973409Y-134724406D01*
X182947778Y-134730826D01*
X182921641Y-134734703D01*
X182895250Y-134736000D01*
X182356750Y-134736000D01*
X182330359Y-134734703D01*
X182304222Y-134730826D01*
X182278591Y-134724406D01*
X182253712Y-134715505D01*
X182229826Y-134704207D01*
X182207163Y-134690623D01*
X182185940Y-134674883D01*
X182166361Y-134657139D01*
X182148617Y-134637560D01*
X182132877Y-134616337D01*
X182119293Y-134593674D01*
X182107995Y-134569788D01*
X182099094Y-134544909D01*
X182092674Y-134519278D01*
X182088797Y-134493141D01*
X182087500Y-134466750D01*
X182087500Y-133503250D01*
X182088797Y-133476859D01*
X182092674Y-133450722D01*
X182099094Y-133425091D01*
X182107995Y-133400212D01*
X182119293Y-133376326D01*
X182132877Y-133353663D01*
X182148617Y-133332440D01*
X182166361Y-133312861D01*
X182185940Y-133295117D01*
X182207163Y-133279377D01*
X182229826Y-133265793D01*
X182253712Y-133254495D01*
X182278591Y-133245594D01*
X182304222Y-133239174D01*
X182330359Y-133235297D01*
X182356750Y-133234000D01*
X182895250Y-133234000D01*
X182921641Y-133235297D01*
X182921641Y-133235297D01*
G37*
D26*
X182626000Y-133985000D03*
D17*
G36*
X183007141Y-129988797D02*
G01*
X183033278Y-129992674D01*
X183058909Y-129999094D01*
X183083788Y-130007995D01*
X183107674Y-130019293D01*
X183130337Y-130032877D01*
X183151560Y-130048617D01*
X183171139Y-130066361D01*
X183188883Y-130085940D01*
X183204623Y-130107163D01*
X183218207Y-130129826D01*
X183229505Y-130153712D01*
X183238406Y-130178591D01*
X183244826Y-130204222D01*
X183248703Y-130230359D01*
X183250000Y-130256750D01*
X183250000Y-130795250D01*
X183248703Y-130821641D01*
X183244826Y-130847778D01*
X183238406Y-130873409D01*
X183229505Y-130898288D01*
X183218207Y-130922174D01*
X183204623Y-130944837D01*
X183188883Y-130966060D01*
X183171139Y-130985639D01*
X183151560Y-131003383D01*
X183130337Y-131019123D01*
X183107674Y-131032707D01*
X183083788Y-131044005D01*
X183058909Y-131052906D01*
X183033278Y-131059326D01*
X183007141Y-131063203D01*
X182980750Y-131064500D01*
X182017250Y-131064500D01*
X181990859Y-131063203D01*
X181964722Y-131059326D01*
X181939091Y-131052906D01*
X181914212Y-131044005D01*
X181890326Y-131032707D01*
X181867663Y-131019123D01*
X181846440Y-131003383D01*
X181826861Y-130985639D01*
X181809117Y-130966060D01*
X181793377Y-130944837D01*
X181779793Y-130922174D01*
X181768495Y-130898288D01*
X181759594Y-130873409D01*
X181753174Y-130847778D01*
X181749297Y-130821641D01*
X181748000Y-130795250D01*
X181748000Y-130256750D01*
X181749297Y-130230359D01*
X181753174Y-130204222D01*
X181759594Y-130178591D01*
X181768495Y-130153712D01*
X181779793Y-130129826D01*
X181793377Y-130107163D01*
X181809117Y-130085940D01*
X181826861Y-130066361D01*
X181846440Y-130048617D01*
X181867663Y-130032877D01*
X181890326Y-130019293D01*
X181914212Y-130007995D01*
X181939091Y-129999094D01*
X181964722Y-129992674D01*
X181990859Y-129988797D01*
X182017250Y-129987500D01*
X182980750Y-129987500D01*
X183007141Y-129988797D01*
X183007141Y-129988797D01*
G37*
D26*
X182499000Y-130526000D03*
D17*
G36*
X183007141Y-128113797D02*
G01*
X183033278Y-128117674D01*
X183058909Y-128124094D01*
X183083788Y-128132995D01*
X183107674Y-128144293D01*
X183130337Y-128157877D01*
X183151560Y-128173617D01*
X183171139Y-128191361D01*
X183188883Y-128210940D01*
X183204623Y-128232163D01*
X183218207Y-128254826D01*
X183229505Y-128278712D01*
X183238406Y-128303591D01*
X183244826Y-128329222D01*
X183248703Y-128355359D01*
X183250000Y-128381750D01*
X183250000Y-128920250D01*
X183248703Y-128946641D01*
X183244826Y-128972778D01*
X183238406Y-128998409D01*
X183229505Y-129023288D01*
X183218207Y-129047174D01*
X183204623Y-129069837D01*
X183188883Y-129091060D01*
X183171139Y-129110639D01*
X183151560Y-129128383D01*
X183130337Y-129144123D01*
X183107674Y-129157707D01*
X183083788Y-129169005D01*
X183058909Y-129177906D01*
X183033278Y-129184326D01*
X183007141Y-129188203D01*
X182980750Y-129189500D01*
X182017250Y-129189500D01*
X181990859Y-129188203D01*
X181964722Y-129184326D01*
X181939091Y-129177906D01*
X181914212Y-129169005D01*
X181890326Y-129157707D01*
X181867663Y-129144123D01*
X181846440Y-129128383D01*
X181826861Y-129110639D01*
X181809117Y-129091060D01*
X181793377Y-129069837D01*
X181779793Y-129047174D01*
X181768495Y-129023288D01*
X181759594Y-128998409D01*
X181753174Y-128972778D01*
X181749297Y-128946641D01*
X181748000Y-128920250D01*
X181748000Y-128381750D01*
X181749297Y-128355359D01*
X181753174Y-128329222D01*
X181759594Y-128303591D01*
X181768495Y-128278712D01*
X181779793Y-128254826D01*
X181793377Y-128232163D01*
X181809117Y-128210940D01*
X181826861Y-128191361D01*
X181846440Y-128173617D01*
X181867663Y-128157877D01*
X181890326Y-128144293D01*
X181914212Y-128132995D01*
X181939091Y-128124094D01*
X181964722Y-128117674D01*
X181990859Y-128113797D01*
X182017250Y-128112500D01*
X182980750Y-128112500D01*
X183007141Y-128113797D01*
X183007141Y-128113797D01*
G37*
D26*
X182499000Y-128651000D03*
M02*
